<svg id="Layer_1" data-name="Layer 1" xmlns="http://www.w3.org/2000/svg" xmlns:xlink="http://www.w3.org/1999/xlink" width="94.59" height="98.53" viewBox="0 0 94.59 98.53">
  <defs>
    <style>
      .cls-1 {
        fill: none;
      }

      .cls-2 {
        clip-path: url(#clip-path);
      }

      .cls-3 {
        fill: url(#linear-gradient);
      }

      .cls-4 {
        fill: #71cd33;
      }

      .cls-5 {
        fill: #6bba2d;
      }

      .cls-6 {
        fill: #4aa311;
      }

      .cls-7 {
        fill: #032616;
      }

      .cls-8 {
        fill: #011c24;
      }

      .cls-9 {
        fill: #042f33;
      }

      .cls-10 {
        opacity: 0.5;
        fill: url(#linear-gradient-2);
      }

      .cls-11 {
        fill: #3d3123;
      }

      .cls-12 {
        fill: #ffe8e2;
      }

      .cls-13 {
        fill: #894f1a;
      }

      .cls-14 {
        fill: #bc7b18;
      }

      .cls-15 {
        fill: #8e4713;
      }
    </style>
    <clipPath id="clip-path">
      <rect class="cls-1" x="-1994.65" y="-2263.41" width="1280" height="720"/>
    </clipPath>
    <linearGradient id="linear-gradient" x1="-4025.58" y1="169.01" x2="-4025.58" y2="-4045.35" gradientUnits="userSpaceOnUse">
      <stop offset="0.2" stop-color="#ffffca"/>
      <stop offset="0.67" stop-color="#9edcff"/>
      <stop offset="1" stop-color="#4e9dff"/>
    </linearGradient>
    <linearGradient id="linear-gradient-2" x1="-4026.46" y1="-4041.31" x2="-3972.63" y2="2459.62" gradientUnits="userSpaceOnUse">
      <stop offset="0.46" stop-color="#fff" stop-opacity="0"/>
      <stop offset="0.5" stop-color="#fef9e8" stop-opacity="0.21"/>
      <stop offset="0.55" stop-color="#fef4d3" stop-opacity="0.39"/>
      <stop offset="0.6" stop-color="#fdf0c1" stop-opacity="0.56"/>
      <stop offset="0.65" stop-color="#fdecb2" stop-opacity="0.69"/>
      <stop offset="0.7" stop-color="#fde9a6" stop-opacity="0.81"/>
      <stop offset="0.76" stop-color="#fce79c" stop-opacity="0.89"/>
      <stop offset="0.82" stop-color="#fce595" stop-opacity="0.95"/>
      <stop offset="0.89" stop-color="#fce491" stop-opacity="0.99"/>
      <stop offset="1" stop-color="#fce490"/>
    </linearGradient>
  </defs>
  <g class="cls-2">
    <path class="cls-3" d="M-8066.23-207.94c2487.49,398.63,5210.4,342.31,8081.29,0V-2611.6H-8066.23Z"/>
    <path class="cls-4" d="M-7764.76-271.81s2581.27-1.66,4403,15.37c1298,12.13,3395.73,9.21,3395.73,9.21l9.25,348.07-8211.87,14.3Z"/>
    <path class="cls-5" d="M-7613.58-127.52s499.32,33.16,649.1,31.18,531.65-9.19,573.1-9.47,541.44,23.65,722.06,25.92c663.28,8.33,1958.07-36,3137.17-55.4,1347-22.16,2546.74-20.42,2546.74-20.42L5.72,148.63l-8165.23-3.39,35.91-284.74Z"/>
    <path class="cls-6" d="M-8062.6-89.6s397.52-20.72,896.61,46.25,1502.27,2.54,2003,2c522.31-.54,1565.19,81.46,2087.49,85.79C-2306.93,50.82-3.47-74-3.47-74L12.87,187.44l-8128.2,6.36Z"/>
    <g>
      <path class="cls-7" d="M-495.34,142l7-42S267.92,74,378.92,82c0,0-6-21-17-24,0,0,25-3,27,24,0,0,0-40-16-47,0,0,39,6,36,47l182,8s-11-11-18-14c0,0,20-7,31,6,0,0-13-31-21-35,0,0,22.25-2,28.12,30,0,0,19.88-17,25.88-14.5,0,0-22,26.5-18,27.5,0,0,722.35,20.47,857.35,27.47v53.38Z"/>
      <g>
        <path class="cls-8" d="M-226,135.78s-154.53-33.1-153.42-66.31S-250,93.09-199.47,126.23C-346.59-11.2-270.64,66.9-312.07,20.39s3.58-69.59,77.47.9C-175.42,89.65-158,109.65-158,109.65s-43.14-92.76-60-141.8,38.18-81.69,80.73,3.88C-127.88-55.17-127-57.84-127-57.84s-12.63,40.55.33-6.85S-61.2-83.56-90.4-14c31.71-25.43-10,3.39,34.46-21.79S42.92-32.49-14.4,24.7-54.16,65.8-54.16,65.8l-40.17,35.65L11.89,66.1c72.69-18.76,103.93,7,21.74,47.49C-19.45,134.35-64.49,150-64.49,150s45.29-.5,119-3.88,72.86,45.58-11.09,44.31C-54.22,169.86-226,135.78-226,135.78"/>
        <g>
          <path class="cls-9" d="M-115.36,137.21,61.42,75s-151.63,61.06-176.78,62.19"/>
          <path class="cls-9" d="M2.51,95.75S9.43,72.84,15.06,70.31,8.12,93.77,2.51,95.75"/>
          <path class="cls-9" d="M25.08,89.38l37.86-.79s-13,4.79-37.86.79"/>
        </g>
      </g>
    </g>
    <rect class="cls-10" x="-8066.58" y="-2620.32" width="8127.09" height="2814.71"/>
    <rect class="cls-1" x="-8066.58" y="-2620.32" width="8127.09" height="2814.71"/>
  </g>
  <g>
    <path class="cls-11" d="M45.81,51.81a4.76,4.76,0,0,0,.45,2h0c.25.32.48.58.67.79a25,25,0,0,1,6.74.62,4.74,4.74,0,0,0,1.39-2.82h0c0-.43,0-.88,0-1.36h0a4.64,4.64,0,0,0-9.24.74Zm1.69-.46a1.23,1.23,0,1,1,1.23,1.26A1.25,1.25,0,0,1,47.5,51.35Z"/>
    <path class="cls-1" d="M47.46,51.41a1.23,1.23,0,1,0,1.23-1.27A1.25,1.25,0,0,0,47.46,51.41Z"/>
    <path class="cls-12" d="M43.83,47.52a10.67,10.67,0,0,0,2.43,6.34A4.65,4.65,0,1,1,55,51.13a10.39,10.39,0,0,0-2.32-6.38c-1.65-1.93-5-4-7.08-2.69C43.74,43.27,43.81,46.62,43.83,47.52Z"/>
    <path class="cls-13" d="M55.05,51.08a10.25,10.25,0,0,0-5.38-8.51c-7.19-3.64-6.5,7.84-3.25,11.15l0,.14,0-.14.67.79-.17-.07a24.57,24.57,0,0,1,6.78.73l-.11,0A4.68,4.68,0,0,0,55,52.45l0-1.37Zm0,0,.05,1.37a4.88,4.88,0,0,1-1.39,2.94,25.26,25.26,0,0,0-6.77-.53h-.1l-.06-.07-.69-.8L46,53.85l.05.14c-3.67-3.66-4-15.75,3.77-11.77a10.18,10.18,0,0,1,5.19,8.86Z"/>
    <path class="cls-13" d="M38.78,56.55A23.32,23.32,0,0,1,55.66,56a22.77,22.77,0,0,0-16.58,1.29l-.3-.69Z"/>
  </g>
  <g>
    <path class="cls-14" d="M55.05,51.08h0a2.36,2.36,0,0,0,0-.28,10.52,10.52,0,0,0-2.32-6c-1.65-1.93-5-4-7.08-2.69-1.87,1.21-1.8,4.56-1.78,5.46A10.53,10.53,0,0,0,45.65,53c1.86-1.56,6.12-4.46,9.41-1.65,0-.1,0-.18,0-.28Z"/>
    <path class="cls-15" d="M55.05,51.08a11.33,11.33,0,0,0-2.64-6.17C51,43.48,49,42.06,47,42.1c-2.21.17-2.63,2.8-2.68,4.65a10.15,10.15,0,0,0,1.68,6l-.63-.1c2.55-2.09,7-4.11,9.67-1.32v-.28Zm0,0s0,.3,0,.32c-3-2.29-6.75-.23-9.16,1.93l-.36.31-.27-.4a10.58,10.58,0,0,1-1.95-6.51c0-1.71.33-3.75,1.8-4.92s3.75-.48,5.17.43a10.1,10.1,0,0,1,4.74,8.84Z"/>
  </g>
</svg>
