<svg id="Layer_1" data-name="Layer 1" xmlns="http://www.w3.org/2000/svg" width="417.18" height="228.24" viewBox="0 0 417.18 228.24">
  <defs>
    <style>
      .cls-1 {
        fill: #ad6004;
      }

      .cls-2 {
        fill: #935007;
      }

      .cls-3, .cls-7 {
        fill: #bc7b18;
      }

      .cls-4 {
        fill: #fcc589;
      }

      .cls-5 {
        fill: #c8a179;
      }

      .cls-6 {
        fill: #ffbe72;
      }

      .cls-26, .cls-7 {
        stroke: #bc7b18;
      }

      .cls-11, .cls-21, .cls-23, .cls-24, .cls-26, .cls-28, .cls-32, .cls-33, .cls-35, .cls-7, .cls-8 {
        stroke-miterlimit: 10;
      }

      .cls-11, .cls-21, .cls-23, .cls-27, .cls-28, .cls-32, .cls-33, .cls-8 {
        fill: none;
      }

      .cls-11, .cls-8 {
        stroke: #231f20;
      }

      .cls-9 {
        fill: #f3d9ab;
      }

      .cls-10 {
        fill: #f3daac;
      }

      .cls-11, .cls-32 {
        stroke-width: 0.25px;
      }

      .cls-12 {
        fill: #f6f6f6;
      }

      .cls-13 {
        fill: #3d3123;
      }

      .cls-14 {
        fill: #fff;
      }

      .cls-15 {
        fill: #231f20;
      }

      .cls-16 {
        fill: #af6104;
      }

      .cls-17 {
        fill: #894f1a;
      }

      .cls-18 {
        fill: #874207;
      }

      .cls-19 {
        fill: #9e4808;
      }

      .cls-20 {
        fill: #f76f6f;
      }

      .cls-21 {
        stroke: #800001;
      }

      .cls-22, .cls-24, .cls-35 {
        fill: #fedcae;
      }

      .cls-23, .cls-24, .cls-28, .cls-32, .cls-35 {
        stroke: #894f1a;
      }

      .cls-23, .cls-24 {
        stroke-width: 0.5px;
      }

      .cls-25 {
        fill: #911919;
      }

      .cls-26 {
        fill: #cc821f;
      }

      .cls-29 {
        fill: #7f0000;
      }

      .cls-30 {
        fill: #ce4545;
      }

      .cls-31 {
        fill: #590000;
      }

      .cls-33 {
        stroke: #5b2d07;
      }

      .cls-34 {
        fill: #bc6b00;
      }
    </style>
  </defs>
  <g>
    <g>
      <path class="cls-1" d="M250,152.31c-3.87,5,1.6,19.61,3.42,24.41s8.44,15.93,14.55,21.16,10.9,3.57,11.09,5c.17,1.27,7.35.36,8.07,1.56,1.74-1,.51-3.33-.81-3.86-8.73-3.45-9.23-1.23-15-8.85s-3.05-9.38-3.64-17.14-6.12-17.35-6.12-17.35c-2.08-2.48-7.27-5-10.47-5.09A3.82,3.82,0,0,0,250,152.31Z"/>
      <path class="cls-2" d="M247,163.76c3.89,6.87,1.73,11.93,5.7,17.42s13.85,18.32,18.44,22.25c3.39,2.9,16.26,1.23,16.06,1-.72-1.2-7.9-.29-8.07-1.56-.19-1.43-5,.22-11.09-5s-12.73-16.35-14.55-21.16-7.29-19.44-3.42-24.41C247,153.15,243.49,157.64,247,163.76Z"/>
    </g>
    <path class="cls-1" d="M135.25,152.14a4,4,0,0,1,.7-3.75,55.34,55.34,0,0,0,5-7c1-1.8,14.83-7.22,19.47-7.47s12.59,5.22,31.31,8.86,27.72-16.61,27.72-16.61c-.69-18-37.22-17.53-40.91-13.5-4.43,4.84-6.82,15.9-16.12,14.75s-16.82,7.54-20.87,9.67-3.11,5.67-5.5,8.85C134.14,148.42,133,151.19,135.25,152.14Z"/>
    <path class="cls-2" d="M135.25,152.14a6.51,6.51,0,0,0,2.89.32c5.74-.36,6.53-3.87,8-6.41s10.58-6,14.34-5.8,12.61,5.7,28.62,9.15S215,139.29,215,139.29c3.24-5.19,4.53-9.51,4.39-13.1,0,0-9,20.24-27.72,16.61s-26.66-9.1-31.31-8.86-18.48,5.67-19.47,7.47a55.34,55.34,0,0,1-5,7A4,4,0,0,0,135.25,152.14Z"/>
    <path class="cls-3" d="M165.39,123.31c9.92.83,26.61,15.59,26.61,15.59s1.23,9.15,16.75,16.36,25.56,4.8,25.56,4.8,4.77,3.35,8.77,4.08,10.68-3.14,8.59-.08a8.49,8.49,0,0,0-.53.94h0c.11.32,23-10.13,23-10.13a18.92,18.92,0,0,0-5.79-4.19h0a68.11,68.11,0,0,0-18.86-10.53c-27.1-10.09-22.9-32-39.36-43.28-12.15-8.31-28.32.52-33.71,3.9C172.35,103.34,163.75,114.25,165.39,123.31Z"/>
    <path class="cls-4" d="M165.39,123.31c.24,1.29-.59,6.59,0,8,.13-.05.54,2.78.68,2.74,5.93-1.95,17.79,11.22,30.41,19.31s33,13.52,39.75,14.73S251.14,165,251.14,165a8.49,8.49,0,0,1,.53-.94c2.09-3.06-4.59.81-8.59.08s-8.77-4.08-8.77-4.08-10.05,2.4-25.56-4.8S192,138.9,192,138.9,175.31,124.14,165.39,123.31Z"/>
    <path class="cls-5" d="M165.89,133.72a24.51,24.51,0,0,0,3,5.09c9.91,13.34,28.64,21.51,40.28,27S233.64,173,241,176c3.7,1.52,6.4-1,9-4.38.15.44.32.89.51,1.33,0,0-.31-5.19,1.19-8.44h0s-8.13,4.26-14.91,3.05S209.6,160.92,197,152.82s-24.76-21.18-30.69-19.24Z"/>
    <path class="cls-3" d="M236.24,156.9c-3.87,5,1.6,19.61,3.42,24.41s8.44,15.93,14.55,21.16,10.9,3.57,11.09,5c.17,1.27,7.35.36,8.07,1.56,1.74-1,.51-3.33-.81-3.85-8.73-3.46-9.23-1.24-15-8.86s-3-9.38-3.64-17.14-6.12-17.35-6.12-17.35c-2.07-2.48-7.27-5-10.47-5.09A3.82,3.82,0,0,0,236.24,156.9Z"/>
    <path class="cls-1" d="M233.17,168.35c3.89,6.87,1.73,11.93,5.71,17.42s13.84,18.32,18.43,22.25c3.39,2.9,16.26,1.23,16.06,1-.72-1.2-7.9-.29-8.07-1.56-.19-1.43-5,.22-11.09-5s-12.73-16.35-14.55-21.16-7.29-19.44-3.42-24.41C233.18,157.75,229.71,162.23,233.17,168.35Z"/>
    <g>
      <path class="cls-6" d="M290.22,179.33c-1.1.64-2.4,1.31-4,2.1-2-.54-9.43-3.05-8.34-7.55h0c4.19.05,4.32-3.43,3.69-5.36l-.06-.2a2.39,2.39,0,0,0-.67-1.12,16.28,16.28,0,0,0-1.37-1,42.92,42.92,0,0,1,7.42,3.75c-.46.5-1,1.23-.72,1.8C286.61,172.69,291,176.29,290.22,179.33Z"/>
      <path class="cls-3" d="M278.51,139.44c.31-.22,9.44-7.42,13.33-3.37,1.21,2.23-5.67,6.93-5.67,6.93Z"/>
      <path class="cls-7" d="M294,175.88a13.06,13.06,0,0,0-1.79-.86,18.46,18.46,0,0,0-5-4.83l-.47-.32h0a42.58,42.58,0,0,0-7.37-3.71h0a16.38,16.38,0,0,0-2.41-1.28,9.22,9.22,0,0,0,7.72-3.91c3-4.46,1.18-10.75-3.27-13.49S270.55,146,268,150.7c-2.44,4.42-.47,10.05,3.57,12.63q-.93-.15-1.83-.24l-.25,0a37.39,37.39,0,0,0-9.7.43h-.1c-.16-1.74-.33-3.5-.51-5.18-7.23-2.09-10.37,4.59-10.49,4.88-5.58-5.4,2.61-12.48,3-12.66-1.79-.34-4.39,1.85-4.78,1.64s.71-3.2,4.47-4.53a14.16,14.16,0,0,0,3.71-1h0a19.81,19.81,0,0,0,6.77-5.4,3.18,3.18,0,0,1,1.39-.71c1.53-.44,4.18-.7,9-1.66l.4-.07a15.68,15.68,0,0,1,5.9.51,41.85,41.85,0,0,1,8.18,3.11,21.64,21.64,0,0,1,4,2.35c-.07.27-2.72,1.07-2.55,1.66s7.39,6.33,8.48,15.63C297.16,166.46,297,172,294,175.88Z"/>
      <path class="cls-6" d="M277.19,183.11a6.66,6.66,0,0,1-2.9,2,7.28,7.28,0,0,1-4.07.11c-1.81-.32-4.56-.8-5.31-2.82a3.22,3.22,0,0,1-.12-1.78l-.09,0c1.07-1.95,4.83-8.65,6.06-8.55-.21.34-.47.75-.73,1.21-1.59,2.8-3.52,7.43.13,8.88a6.38,6.38,0,0,0,2.78.52,3,3,0,0,0,1.32-.39h0a5.61,5.61,0,0,0,.58-.44C275.1,182,276.67,182.85,277.19,183.11Z"/>
      <line class="cls-8" x1="255.07" y1="146.63" x2="255.07" y2="146.63"/>
      <path class="cls-9" d="M290.16,180a8.11,8.11,0,0,0-1.75.37,8.75,8.75,0,0,0-2.15,1.11c-2-.54-9.43-3.05-8.34-7.55h0c4.19.05,4.32-3.43,3.69-5.36l-.06-.2a2.39,2.39,0,0,0-.67-1.12,16.28,16.28,0,0,0-1.37-1,42.92,42.92,0,0,1,7.42,3.75,27.74,27.74,0,0,1,2.83,2.21c1.34,1.18,1.42,1.48,2.66,2.56,2.06,1.78,2.88,1.87,2.86,2.5C295.25,178.45,292.16,179.68,290.16,180Z"/>
      <path class="cls-10" d="M286.62,181.59l-.48-.12c1.57-.81,2.87-1.48,4-2.14a1.8,1.8,0,0,1-.09.28,3.26,3.26,0,0,1-.15.32h0a22.19,22.19,0,0,0,3.11-1.26,12,12,0,0,0,2.19-1.47,1.44,1.44,0,0,1,.44.47,1.81,1.81,0,0,1,0,1.37,4.73,4.73,0,0,1-.68,1.45,6.27,6.27,0,0,1-2.29,1.93,5.28,5.28,0,0,1-3.21.63A5,5,0,0,1,286.62,181.59Z"/>
      <path class="cls-11" d="M277.35,183.16l-.05.06"/>
      <path class="cls-12" d="M286.18,181.39l-.53.27a26.48,26.48,0,0,1-4.55,1.66,7.37,7.37,0,0,1-2.56.32c-.46-.2-.93-.42-1.42-.65s-2.12-1.1-2.37-1.24c-1.07-.61-2-1.23-2.92-1.83a18,18,0,0,0,3.18-3.78,17.64,17.64,0,0,0,1.48-2.95l0-.08a9.36,9.36,0,0,1,1.28.6h.08a.44.44,0,0,0,0,.1C276.74,178.36,284.18,180.85,286.18,181.39Z"/>
      <path class="cls-12" d="M281.49,151.91l-.05,0-.19-.11c-3-1.67-7.2-.81-8.9,2.27a6.61,6.61,0,0,0,2.45,8.53,3.6,3.6,0,0,0,.54.31,6.58,6.58,0,0,0,8.39-1.86C285.77,158,284.51,153.76,281.49,151.91Zm-7,5.06a4.21,4.21,0,1,1,7.14,4.38A4.19,4.19,0,1,1,274.5,157Z"/>
      <path class="cls-13" d="M280.52,155.18a4.46,4.46,0,0,0-6,1.79,4.19,4.19,0,1,0,7.14,4.38A4.45,4.45,0,0,0,280.52,155.18Zm-.64,4.54a1.47,1.47,0,0,1-.43-1.92,1.49,1.49,0,0,1,2-.6,1.48,1.48,0,0,1,.38,2.06A1.46,1.46,0,0,1,279.88,159.72Z"/>
      <path class="cls-14" d="M281.83,159.26a1.4,1.4,0,1,1-2.38-1.46,1.4,1.4,0,1,1,2.38,1.46Z"/>
      <path class="cls-15" d="M274.75,181.43a18.78,18.78,0,0,0,6.14-2.39,19.24,19.24,0,0,1-5.95,3.12l-.19-.73Z"/>
      <path class="cls-3" d="M264.33,143.31c.1-.09-6.88-11,8.95-17.64,2.59-.81,4.08,1.89,3.68,5.34s-5.57,9.69-6.33,10.2Z"/>
      <path class="cls-16" d="M275.12,126.7c-12.33,5.2-10.82,13-9.6,16.15l-1.26.42c.1-.09-6.88-11,8.94-17.64a2.4,2.4,0,0,1,2.87.93A3,3,0,0,0,275.12,126.7Z"/>
      <path class="cls-17" d="M260.35,179.55a21.5,21.5,0,0,1-8.76-8.84,21,21,0,0,0,9.22,7.95l-.46.89Z"/>
      <g>
        <path class="cls-18" d="M276.12,174.52c-3.91-1.56-6.8,1.53-7.86,2.86a19.43,19.43,0,0,1,2.42-5.3,18.51,18.51,0,0,1,6,1.11C276.53,173.61,276.34,174.06,276.12,174.52Z"/>
        <path class="cls-19" d="M274.92,181.9a2.87,2.87,0,0,1-1.91.88,6.2,6.2,0,0,1-2.81-.51c-2-.78-2.39-2.54-2-4.45l.09-.44c1.06-1.33,3.95-4.42,7.86-2.86-.09.18-.17.35-.27.53-.2.39-.43.79-.68,1.19a17.76,17.76,0,0,1-3.21,3.81C272.85,180.66,273.84,181.29,274.92,181.9Z"/>
        <path class="cls-20" d="M275,181.89a2.91,2.91,0,0,1-1.91.87,6.35,6.35,0,0,1-2.82-.5,3.17,3.17,0,0,1-2.15-3.08h0s3.39-3.44,5.75-1.07a17.3,17.3,0,0,1-1.84,1.92C272.94,180.64,273.93,181.27,275,181.89Z"/>
      </g>
      <ellipse class="cls-21" cx="283.26" cy="171.88" rx="0.42" ry="0.33" transform="translate(-5.23 334.82) rotate(-60.71)"/>
      <ellipse class="cls-21" cx="282.59" cy="174.19" rx="0.42" ry="0.33" transform="translate(-34.56 272.26) rotate(-48.83)"/>
      <ellipse class="cls-21" cx="280.57" cy="175.36" rx="0.42" ry="0.33" transform="translate(-36.13 271.14) rotate(-48.83)"/>
      <path class="cls-22" d="M293.92,175.55l-.08,0a12.45,12.45,0,0,1-2.61-4.15c-1.47-4,.1-6.5-.77-13a28.22,28.22,0,0,0-1.79-7.2c-3.6-7.77-15.17-9.55-18.76-10l1.12-.61.74-.83c.25-.27.48-.54.71-.82a10.93,10.93,0,0,1,1.27-.2,10.15,10.15,0,0,1,4.38.61h0a4.44,4.44,0,0,0,.7.2c.76.24,1.6.54,2.53.89.72.27,1.46.56,2.21.88s1.68.73,2.45,1.1,1.36.63,2.08,1,1.48.84,2.12,1.26a13.65,13.65,0,0,0-1.77,1,.92.92,0,0,0-.32.36.94.94,0,0,0-.09.26c-.08.51,1.46,1.95,1.85,2.33,0,0,.53.64,1.54,1.89a24.53,24.53,0,0,1,5.09,11s0,.1,0,.2C297.05,166.15,296.9,171.73,293.92,175.55Z"/>
      <path class="cls-23" d="M293.79,175.48l-.08,0a12.13,12.13,0,0,1-2.61-4.15c-1.47-4,.1-6.5-.77-13a28.64,28.64,0,0,0-1.79-7.21c-3.6-7.76-15.18-9.54-18.76-10l1.11-.6.75-.83.71-.82a9.23,9.23,0,0,1,1.26-.2,9.83,9.83,0,0,1,4.38.61h0a4.63,4.63,0,0,0,.69.2c.77.25,1.61.54,2.54.9.72.26,1.45.55,2.21.87s1.68.74,2.45,1.11,1.35.62,2.08,1,1.48.85,2.12,1.27a13.29,13.29,0,0,0-1.77,1,1,1,0,0,0-.33.37,1,1,0,0,0-.08.26c-.09.5,1.46,1.95,1.84,2.32l1.54,1.89a24.49,24.49,0,0,1,5.1,11s0,.09,0,.19C296.92,166.07,296.77,171.65,293.79,175.48Z"/>
      <path class="cls-17" d="M259.23,158.39a8.72,8.72,0,0,0-10.4,5.59,6.6,6.6,0,0,1-2.06-7.72,14.44,14.44,0,0,1,4.68-6.13l.12.9c-1.17-.22-2.78.78-3.88,1.32a1.39,1.39,0,0,1-.92.22c-.4-.08-.4-.71-.34-.87a7.14,7.14,0,0,1,4.84-4.22c1.13-.21,2.27-.44,3.38-.75a4.44,4.44,0,0,0,1.07-.4,4.33,4.33,0,0,1-1,.52,34,34,0,0,1-3.28,1c-1.85.66-3.85,2.38-4.26,4a.37.37,0,0,0-.14-.1s-.12,0-.08,0c.57-.24,1.1-.61,1.69-.9a5.17,5.17,0,0,1,3.12-.8l.75.1-.63.79c-3.34,2.78-6.78,8.23-2.87,11.94l-.69.15c1.93-4,6.68-6.38,10.93-4.69Z"/>
      <path class="cls-17" d="M265.37,142.62a.5.5,0,0,0-.13.48s-.07-.18-.09-.23a10.64,10.64,0,0,1,.88-9.67,18.58,18.58,0,0,1,7.8-6.37c2.55-1,3.41,2.12,3.06,4.06a4.92,4.92,0,0,1-.61,1.91,50.9,50.9,0,0,1-4.4,6.51,52.38,52.38,0,0,0,4.19-6.62,5.87,5.87,0,0,0,.43-3.74c-.21-1.29-1.24-2.28-2.48-1.7a18.12,18.12,0,0,0-7.37,6.33,9.77,9.77,0,0,0-.58,8.92c.14.28.26.58,0,.83l-.7-.71Z"/>
      <path class="cls-16" d="M291.27,136.72c-3.19-3.4-10.45,1.84-12.32,3.26l-.56-.25c.31-.22,9.15-7.47,12.75-3.59A1.13,1.13,0,0,1,291.27,136.72Z"/>
      <path class="cls-24" d="M281.59,147.57l-.4-.23a10.12,10.12,0,0,0-12.26,1.94l-.15.18c-.14.18-.29.38-.42.57s-.28.44-.41.67-.22.41-.32.63-.12.28-.17.42l-.08.22c-1.45,4.11.48,8.89,4.07,11.3l.2.13h0a23.84,23.84,0,0,1,5.55,1.6h.15a9.17,9.17,0,0,0,7.64-3.86C288,156.68,286.11,150.35,281.59,147.57ZM272.25,154c1.71-3.1,6-4,9-2.22l.19.11c3,1.87,4.32,6.14,2.28,9.14-1.83,2.7-5.58,3.26-8.38,1.86a3.6,3.6,0,0,1-.54-.31s0,0-.05,0C272,160.78,270.61,157,272.25,154Z"/>
      <path class="cls-3" d="M278,174h-.09a9.93,9.93,0,0,0-1.27-.61h0a18.66,18.66,0,0,0-5.91-1.14c-1.23-.09-5,6.61-6.07,8.55l-.57-.21a29.29,29.29,0,0,1-3.71-1.59.31.31,0,0,1-.1-.05c.26-.32-8.14-5.07-8.26-8.23,0-.13-4.33-2.41-3-6.71,1.17-3.83,7.48-7.51,9.18-5.42.92-.15,6.68,4.07,11.41,4.55l.25,0c.64.06,1.29.16,1.94.27h0a23.43,23.43,0,0,1,5.5,1.64h0a16.64,16.64,0,0,1,3.78,2.32,2.15,2.15,0,0,1,.6,1c0,.06,0,.13.07.2C282.29,170.51,282.14,174,278,174Z"/>
      <g>
        <path class="cls-25" d="M283,172.29c-3.92-6.22-10.25-10.52-17-13.15a41.68,41.68,0,0,1,9.86,4.8,29.68,29.68,0,0,1,7.8,7.56l0,0-.66.76Z"/>
        <path class="cls-25" d="M282.28,174.62c-3.39-5.42-8.87-9.18-14.75-11.48a31.58,31.58,0,0,1,14,8.9c.48.57,1,1.2,1.39,1.8,0,0,0,0,0,0l-.65.75Z"/>
        <path class="cls-25" d="M280.21,175.72c-2.95-4.75-7.73-8.07-12.87-10.1a27,27,0,0,1,13,8.59l.55.75-.67.76Z"/>
      </g>
      <path class="cls-26" d="M280.39,139.71c.22-.15,6.7-5.26,9.45-2.39.86,1.59-4,4.92-4,4.92Z"/>
      <path class="cls-27" d="M280.19,139.6c.22-.15,6.7-5.26,9.46-2.39.85,1.58-4,4.92-4,4.92Z"/>
      <path class="cls-28" d="M278.11,139.21a64.41,64.41,0,0,1,8.84,3.41"/>
      <path class="cls-26" d="M267,140.54c.06-.06-4.39-7,5.71-11.27,1.66-.52,2.61,1.21,2.35,3.41s-3.55,6.19-4,6.52Z"/>
      <path class="cls-27" d="M266.84,140.79c.06,0-4.4-7,5.71-11.26,1.65-.52,2.6,1.21,2.35,3.41s-3.56,6.19-4,6.51Z"/>
      <g>
        <path class="cls-29" d="M286.23,180c-.53-.41-.55-1.72-.94-3.53-.45-2.09-1.23-3-1.37-4.14-.13-1.31,4-1.24,6.92.58,2.79,1.71,3.57,3.42,2.73,4.4S288.08,181.26,286.23,180Z"/>
        <path class="cls-30" d="M293.16,176.1c-1.51-2.42-4.76-4-7.47-4.62a10.18,10.18,0,0,1,5.15,1.47c2.79,1.71,3.57,3.42,2.73,4.4a10.7,10.7,0,0,1-1.23.78C293.15,177.28,293.45,176.65,293.16,176.1Z"/>
        <path class="cls-31" d="M285.71,171.48c-1.26.78.82,2.8,1.24,4.32.34,1.16-.13,2.79.67,3.35,1.22.68,3.46-.62,5.61-1.48-1.36,1.17-5.33,3.47-7,2.37-.53-.41-.55-1.72-.94-3.53-.45-2.09-1.23-3-1.37-4.14C283.86,171.8,284.61,171.49,285.71,171.48Z"/>
        <path class="cls-32" d="M284.19,171.81c-.21.14-.22.27-.21.35a5.7,5.7,0,0,0,.53,1.59,14.73,14.73,0,0,1,.91,2.72c.12.59.21,1.12.29,1.59a4,4,0,0,0,.58,1.95l.08.05h0c1.84,1,6.45-1.88,7.26-2.82a1.16,1.16,0,0,0,.26-1c-.15-1-1.27-2.16-3.05-3.26a3.07,3.07,0,0,0-.31-.17C288,171.4,285,171.27,284.19,171.81Z"/>
      </g>
    </g>
    <path class="cls-3" d="M139.76,165.53a5,5,0,0,1,1-3.64,71.86,71.86,0,0,0,4.85-7c1-1.77,12.82-7.69,16.59-8.16s9.5,4.37,24.13,6.9,24.36-17.36,24.36-17.36c1.66-17.3-27.82-14.94-31.29-10.87-4.16,4.87-7.44,15.61-14.79,15s-14.47,8.1-18,10.35-3.2,5.6-5.52,8.78C139.32,162,138.06,164.73,139.76,165.53Z"/>
    <path class="cls-1" d="M139.76,165.53a4.23,4.23,0,0,0,2.28.16c4.67-.64,5.74-4.05,7.2-6.56s9.26-6.3,12.26-6.31,9.46,4.83,21.92,7.33,22.15-11,22.15-11c3.24-5.14,4.81-9.36,5.14-12.8,0,0-9.72,19.89-24.36,17.36s-20.35-7.38-24.13-6.9-15.57,6.39-16.59,8.16a71.86,71.86,0,0,1-4.85,7A5,5,0,0,0,139.76,165.53Z"/>
    <path class="cls-33" d="M295.28,177.29a.43.43,0,0,0,0,0c0-.47-.45-.64-1.56-1.46a.54.54,0,0,0-.05-.11l.35.21c3-3.84,3.13-9.42,2.61-13.85-1.08-9.3-8.31-15-8.47-15.63s2.48-1.39,2.55-1.66a21,21,0,0,0-3.84-2.25c1.72-1.27,5.93-4.64,5-6.42-3.64-3.8-11.9,2.3-13.18,3.25l-.16,0c-.66-.17-1.31-.29-1.95-.39a9.51,9.51,0,0,0-2.41-.22h-.63c-.24,0-.49,0-.72.06,1.75-2.26,3.91-5.57,4.17-7.75.28-2.42-.37-4.47-1.68-5.2a2.49,2.49,0,0,0-2.08-.18c-10.89,4.6-11,11.19-10,14.87a3.18,3.18,0,0,0-1.39.71,33,33,0,0,1-3.11,3.12,73.67,73.67,0,0,0-9.19-4.18c-27.1-10.09-22.9-32-39.36-43.28-12.16-8.31-28.32.52-33.71,3.9-4.09,2.57-12.69,13.48-11.05,22.54a29.08,29.08,0,0,1-.14,4.08,9.81,9.81,0,0,1-2.88,0c-9.29-1.14-16.82,7.54-20.87,9.67s-3.11,5.67-5.5,8.85c-1.86,2.46-3,5.23-.75,6.18a6.51,6.51,0,0,0,2.89.32c5.74-.36,6.53-3.87,8-6.41s10.58-6,14.34-5.8a8.53,8.53,0,0,1,1.68.32c-6.42,1.16-12.37,8.21-15.48,10.21-3.52,2.25-3.2,5.6-5.52,8.78-1.8,2.46-3.06,5.17-1.36,6a4.22,4.22,0,0,0,2.28.16c4.67-.64,5.74-4.05,7.2-6.56s9.26-6.3,12.26-6.31,9.46,4.83,21.92,7.33a17.21,17.21,0,0,0,10.88-1.56c5.38,2.85,10.58,5.22,14.84,7.24,9.07,4.29,18.88,6.24,26.23,8.32.94,4.17.73,7.79,3.5,11.62,4,5.49,13.85,18.32,18.44,22.25,3.39,2.9,16.26,1.23,16.06,1,1.74-1,.51-3.33-.81-3.86-8.73-3.45-9.23-1.23-15-8.85-4.69-6.2-3.76-8.52-3.58-13.35,4.53,6.11,13,16.91,17.12,20.46,3.39,2.9,16.26,1.23,16.06,1,1.74-1,.51-3.33-.81-3.86-8.73-3.45-9.23-1.23-15-8.85-2.29-3-3.23-5.12-3.58-7a17.63,17.63,0,0,0,2.47.57,7.28,7.28,0,0,0,4.07-.11,6.66,6.66,0,0,0,2.9-2c-.47-.23-1.79-1-2.22-1.19l0,0c.54.28,1.68.89,2.11,1.1s1,.45,1.42.65a7.37,7.37,0,0,0,2.56-.32,26.48,26.48,0,0,0,4.55-1.66l.51-.26.07,0-.09,0,.48.12a5,5,0,0,0,2.79,1.46,5.28,5.28,0,0,0,3.21-.63,6.27,6.27,0,0,0,2.29-1.93,4.73,4.73,0,0,0,.68-1.45,1.81,1.81,0,0,0,0-1.37A1.41,1.41,0,0,0,295.28,177.29Z"/>
    <g>
      <path class="cls-3" d="M186.82,85.07l.11,1.71c-.87,1.66-2.17,4.39-8.75,8.19a23.91,23.91,0,0,1-2.53,1.28,26.74,26.74,0,0,1-7.18,1.93l-1.27.18c-2.33-1.48-4.16-2.19-7-5.57a16.82,16.82,0,0,1-2.49-18.27c1.73-3.71,3.35-7.12,2.49-11.53a12.49,12.49,0,0,0-.43-1.63,15.45,15.45,0,0,0-2.07-4.11c.3.9,2.4,7.54-1.53,13.21-3.64,5.27-9.81,5.86-11.77,6.05-8.36.8-17.06-4.19-21-10.54-6.93-11.06-1.57-29.49,10.9-39.69a33.89,33.89,0,0,1,5.33-3.6c12.71-6.9,29.09-4.84,39.79,3.59,11.22,8.83,13.21,22.31,13.48,24.1C194.88,64,186.65,72.12,187,81A37.64,37.64,0,0,0,186.82,85.07Z"/>
      <path class="cls-34" d="M189.73,102c-3.74-.19-9.69,1.45-15.65.11-7.44-1.67-11.71-6.95-13.89-9.31a28.25,28.25,0,0,0,18.09-.15c4.52-1.59,7.65-4,8.56-6.32.86,5.11,7.7,12.17,9.64,12.86C201.86,101.12,189.73,102,189.73,102Z"/>
      <path class="cls-35" d="M186.54,87c-.79,0-3.08-3.83-3-9.72,0-7.63,2.18-21.05.46-28.82-2.83-12.73-17.62-19.29-20.28-20.47a40.6,40.6,0,0,0-29.61-1,33.77,33.77,0,0,1,5.31-3.61c12.63-6.94,28.85-5,39.42,3.39,11.08,8.76,13,22.2,13.25,24C194,64.25,186.21,78.13,186.54,87Z"/>
      <path class="cls-17" d="M141.79,70.2c-10.36-5.14-14.64-17.5-7.69-27.29a20,20,0,0,1,13.22-8.82c10.8-2.14,22.37,4.83,26.18,15,3.8,10.54-2.33,21.17-2.4,31.73a17.11,17.11,0,0,0,6.57,13.85,17.19,17.19,0,0,1-7.06-13.84c-.16-10.56,5.74-21,2-31.43C168.91,39.73,157.84,33,147.48,35a19.39,19.39,0,0,0-12.75,8.36c-6.93,9.46-2.85,21.45,7.06,26.85Z"/>
      <path class="cls-17" d="M194.9,101.35c-7.33,1.26-15.05,2.24-22.37.38-7-2.62-13.65-7.8-15.87-15.24a19.13,19.13,0,0,1,1.5-14.86,12.66,12.66,0,0,0,1.69-6.9c-.21-7.27-7.68-13.55-14.86-12.42-4.57.8-7.84,7.79-3.59,10.95,1.78,1.45,4.92,2.12,6.34-.14,1.68-2.39-1.08-4.89-3.54-4.57a4.1,4.1,0,0,1,3.46,1.15c1.54,1.47.68,4-1.08,4.9s-4,.19-5.49-.93c-3.54-2.45-2.53-7.68.3-10.29,2.9-2.92,7.6-2.37,11-.72a14.16,14.16,0,0,1,8.47,12A13.24,13.24,0,0,1,159,72.11a18.19,18.19,0,0,0-1.5,14.13c2.09,7.18,8.41,12.36,15.19,15,7.19,2,14.9,1.14,22.21.11Z"/>
    </g>
  </g>
</svg>
