<svg xmlns="http://www.w3.org/2000/svg" xmlns:xlink="http://www.w3.org/1999/xlink" width="417.18" height="228.24" viewBox="0 0 417.18 228.24">
  <defs>
    <style>
      .cls-1, .cls-19, .cls-22, .cls-31, .cls-33, .cls-37, .cls-41, .cls-43 {
        fill: none;
      }

      .cls-2 {
        isolation: isolate;
      }

      .cls-3 {
        clip-path: url(#clip-path);
      }

      .cls-4 {
        fill: #0c4c29;
      }

      .cls-5 {
        mix-blend-mode: multiply;
        opacity: 0.43;
        fill: url(#linear-gradient);
      }

      .cls-6 {
        fill: #723c07;
      }

      .cls-7 {
        fill: #935007;
      }

      .cls-18, .cls-8 {
        fill: #bc7b18;
      }

      .cls-9 {
        fill: #bc6b00;
      }

      .cls-10, .cls-32, .cls-34 {
        fill: #fedcae;
      }

      .cls-10, .cls-33, .cls-34, .cls-37, .cls-41 {
        stroke: #894f1a;
      }

      .cls-10, .cls-18, .cls-19, .cls-22, .cls-31, .cls-33, .cls-34, .cls-36, .cls-37, .cls-41, .cls-43 {
        stroke-miterlimit: 10;
      }

      .cls-11 {
        fill: #894f1a;
      }

      .cls-12 {
        fill: #853a29;
      }

      .cls-13 {
        fill: #8c4d09;
      }

      .cls-14 {
        fill: #fcc589;
      }

      .cls-15 {
        fill: #c8a179;
      }

      .cls-16 {
        fill: #ad6004;
      }

      .cls-17 {
        fill: #ffbe72;
      }

      .cls-18, .cls-36 {
        stroke: #bc7b18;
      }

      .cls-19, .cls-22 {
        stroke: #231f20;
      }

      .cls-20 {
        fill: #f3d9ab;
      }

      .cls-21 {
        fill: #f3daac;
      }

      .cls-22, .cls-41 {
        stroke-width: 0.25px;
      }

      .cls-23 {
        fill: #f6f6f6;
      }

      .cls-24 {
        fill: #3d3123;
      }

      .cls-25 {
        fill: #fff;
      }

      .cls-26 {
        fill: #231f20;
      }

      .cls-27 {
        fill: #af6104;
      }

      .cls-28 {
        fill: #874207;
      }

      .cls-29 {
        fill: #9e4808;
      }

      .cls-30 {
        fill: #f76f6f;
      }

      .cls-31 {
        stroke: #800001;
      }

      .cls-33, .cls-34 {
        stroke-width: 0.5px;
      }

      .cls-35 {
        fill: #911919;
      }

      .cls-36 {
        fill: #cc821f;
      }

      .cls-38 {
        fill: #7f0000;
      }

      .cls-39 {
        fill: #ce4545;
      }

      .cls-40 {
        fill: #590000;
      }

      .cls-42 {
        fill: #7a4b0c;
      }

      .cls-43 {
        stroke: #5b2d07;
      }
    </style>
    <clipPath id="clip-path">
      <rect class="cls-1" x="-2656.06" y="643.95" width="1280" height="720"/>
    </clipPath>
    <linearGradient id="linear-gradient" x1="6770.22" y1="-1527.13" x2="6880.98" y2="-1088.9" gradientTransform="matrix(-0.77, 0.07, 0.01, 0.99, 4586.95, 1235.43)" gradientUnits="userSpaceOnUse">
      <stop offset="0" stop-color="#96880c"/>
      <stop offset="0.31" stop-color="#002405"/>
      <stop offset="0.62" stop-color="#000b00"/>
      <stop offset="1" stop-color="#596b00"/>
    </linearGradient>
  </defs>
  <g class="cls-2">
    <g id="Layer_1" data-name="Layer 1">
      <g class="cls-3">
        <g>
          <path class="cls-4" d="M-1543.92,396.93c9.31-15.84,53.89-10.45,100,11.87-14.18-15.53-19.91-31.5-12.78-36.17,6.32-4.22,20.8,2,34.41,13.94a165.45,165.45,0,0,1-7.13-18c-13.1-39.89-7.93-74.61,11.52-77.63,17.73-2.77,41.1,21.87,55,56.4,2.74-28.65,15.75-49.57,30.71-48,.64.12,1.17.28,1.71.38-27.27-36.08-36-71.34-19.15-80.33,17.61-9.43,56.64,13.55,87,51.34a8.1,8.1,0,0,0,1.18,1.41c-1-3.15-1.76-6.47-2.56-9.73-11.16-49.07-.68-90.33,23.49-92.28,18.22-1.42,39.07,20.21,53,52.12l-.07-.38c-2.49-32.33,8.54-58.16,24.66-57.65,9,.23,17.8,8.81,24.11,22,1-4.08,3-7,6.33-8,5.68-1.7,13.69,2.56,21.31,10.35-.43-14.23,4.21-24.9,11.94-25.2,4.13-.16,8.53,2.77,12.3,7.67-12.25-27.77-12.13-51.83,1.46-56.32,10.5-3.37,26.26,5.72,40.79,22.09-2.63-25.3,5.06-45.46,17.76-45.6,7.65-.11,15.38,6.81,21.32,17.7-.74-22,6.5-38.45,18.2-38.8S-963.27,85.92-957,108a81.64,81.64,0,0,1,6.72-15.69c12-21.86,31.13-35.35,42.68-30.17,2.25-16.81,9.67-28.51,19.56-28.34,9.65.21,19.08,11.78,24.55,28.29,2-10.68,7-17.81,13.59-17.69,6.23.11,12.26,6.87,16.3,16.81,5.71-.5,14.1,3.77,22.69,11.08-8.08-16.07-8.93-29.19-.76-32.73s23.59,3.85,38.54,17.55c5.88-8.46,32.73-3.58,60,11a160,160,0,0,1,17.85,11.06c-9.41-16.82-12.33-31.71-7.86-38.94l28.51,3.16A112.64,112.64,0,0,1-653,63.18c-2.12-7.2-2.37-13.29-.63-17.44l31,3.43A121.2,121.2,0,0,1-598,73.54c-.06-8.45,1.22-15.66,3.62-21.24l41.09,4.56a116,116,0,0,1,17.89,31.37c-.56-5.55.93-9.54,4.64-10.8,6.81-2.43,19,5,29.76,17.4.47-9.34,4-15.69,10.18-16.22,3.59-.32,7.56,1.45,11.49,4.61-2.52-7.28-3.36-13.61-2.45-18.46q22.11,2.44,44.2,4.84A162.09,162.09,0,0,1-409.93,97l.16.14a127.68,127.68,0,0,1-7.31-25.29q43.5,4.78,87,9.52a237.78,237.78,0,0,1,16.81,23.83c2,3.08,3.72,6.16,5.39,9.29,0,0,0-1.14-.08-1.71a135.59,135.59,0,0,1,.79-28.91q37.81,4.15,75.62,8.27a150.33,150.33,0,0,1,4.17,22,4.17,4.17,0,0,1,1.05-.88c11.65-6.62,39,6.85,63.43,30.48-7.42-17.26-10.87-33.19-10.3-45.25l61.47,6.71a178.44,178.44,0,0,1,22.12,33.66,178.62,178.62,0,0,1,7.84,17.93c2.4-15,10-25.27,18.65-23.87,9.69,1.53,17.15,17.17,17,35.32,22.17-35,56.25-55,76.49-44.67,18.85,9.62,19,42.23,1.43,75.29,14.41-15.3,31.63-22.69,42.46-17,13.58,7.21,12,32.17-3.46,55.75a23.51,23.51,0,0,1-2,2.88l1.2-.48c34.51-11.19,68.57-9.71,76.86,3,7.18,11.1-7.66,27.13-34,38.36,28.34-3.31,53.92,1.94,58.16,12.4,3.69,9-9.73,19-31.41,24.71,16.42,6.76,27.37,15.34,26.16,21.86-1,5.09-9.28,7.67-21.12,7.57,24.48,9.18,41.26,22,39.11,30.77S162,389.33,137.4,384.29c36.49,20.29,59.31,44.89,51.87,57.21-6,10.08-30.6,9.05-60.34-1,22.24,12.67,35.61,26.7,32,35.76-4.6,11.5-35,10.77-69.7-1a15.83,15.83,0,0,1,1.19,1.33c20.28,24.35,27.56,48.41,16.26,53.87-9.14,4.35-27.61-4.81-45.1-21.26A99.44,99.44,0,0,1,65,523.11c1.26,31.8-11.42,56.08-28,54.21C22.32,575.65,9.47,554.61,5.64,528.1A76.79,76.79,0,0,1-3,538.76c-16,16.26-36.91,23.9-46.61,17.09-7-4.87-6.36-15.7.19-27.38-18.75,5-36.14,3.72-41.23-3.46-3.45-5-.23-11.57,7.5-17.84-17.48,2.72-33,.29-36.58-6.35l-.08-.14c-12.25,9.74-25.57,13.74-33.25,8.94-5.09-3.17-6.69-9.68-5.05-17.54-7.77,12.79-18.26,19.94-27.49,17.06-9.48-2.9-14.87-15.77-14.45-31.76-3.68,7.8-9.23,12.25-15.59,11.58-11.87-1.3-22.31-20.28-23.72-42.82-1.65,1.84-3.43,3.61-5.21,5.44-23.19,22-52.74,31.82-66.06,22.07-4.45-3.32-6.42-8.48-6.32-14.75-4,3.69-8.33,5.41-12.49,4.32a11.78,11.78,0,0,1-4.58-2.51c3,13.77.74,24.05-7.06,25.78-6.92,1.54-16.58-4-25.85-13.81,3.43,21-1.43,36.79-12.92,37.84-7.81.6-17.07-5.68-25.3-16.15-1.73,4.41-4.64,7.1-8.63,7.46-3.29.28-7-1.1-10.59-3.79,4.82,15.15,3.41,26.93-4.87,29.39s-21.39-4.83-33.72-17.66c-.53,9.26-3.92,15.69-9.49,16.7,14.23,21.75,18.05,40.36,7.6,46.43-8.78,5.13-25.72.16-44.48-11.66,4.23,18.38.28,33.07-9.24,33.5-7.66.36-16.78-8.73-23-21.91-.94,2.45-43.78-11.36-44.88-9.3,0,0-23,52.62-38,53.93-12.42,1.11-39-39.82-39-39.82-2.52-1.29-41,7.8-43.65,6.05,4.83,13.46,4.06,24.4-2.82,26.77-8.45,2.88-23.18-8.41-33.78-25.53-6.92,16.57-17.54,26.66-29.09,25.38-13.58-1.6-24.72-18.81-29.35-42.37-5.5,1.07-13.35-3.29-21.05-11-.64,15.22-6.14,26-15.13,26.82s-19.28-8.84-26.94-23.56c-1,3.58-3,6.08-6.12,7-3.63,1.07-8.34-.25-13.12-3.4,1,11.82-2,20.41-9.26,22.56-10.56,3.13-27-8.73-40.22-27.9-.41,11.53-4.4,19.69-11.46,20.78-8.08,1.21-18-6.8-26-19.65a6.12,6.12,0,0,1-1.95,3.7c-2.82,2.38-7.89,2.48-14.14.68,5,5.23,7.3,10.42,6,14.79-3.81,12.94-36.76,14.68-73.57,3.91-2.92-.88-5.76-1.83-8.69-2.78,16.26,19.69,22,39.55,12.82,44.84-4.88,2.81-13.13.75-22.34-4.58,12.69,13.55,18.08,26.47,12.23,32.24-5.68,5.58-20.22,3.09-36.72-5.18,7.46,6.23,11.11,12.31,9.21,16.83-2.84,6.72-17.4,7.94-35.45,3.71l.15.26c2,6.93-9.32,14.39-26.39,18.08,11.35,2.71,19.26,7.26,20.14,12.67,1.23,7.93-12.78,15-32.58,17.28,14.64,7.71,23.47,16.78,21.32,23.3-3.09,9.21-26.88,9.87-53.12,1.45a127.25,127.25,0,0,1-15.72-6.09c17.26,24,22.48,46.56,11.31,53-12.93,7.42-42.4-9.07-66-36.67-3.51-4.13-6.69-8.31-9.55-12.45-2.23,20.14-10.91,34.32-22.11,33.75-13.92-.68-26.3-23.82-27.72-51.68a11.92,11.92,0,0,0,0-1.58c-20.64,22.18-46.09,33.28-58.85,25-10-6.45-9.57-23.13-.24-41.67-17.68,18.92-37.93,28.23-50.92,21.77-15.88-8-15.39-37,.18-67-17.12,12.79-35.41,17.91-43.94,11.31-8.68-6.81-4.26-23.6,9.65-39.88-10.13,4.22-19.13,4.87-23.95.84-6-5.17-3.38-16.31,5.59-27.76-23,2.65-42.34-1.29-46.18-10.34-4.34-10.4,13.43-23.72,40.29-30.71-31.22-.53-56.27-9.13-58.74-21.11-2.79-13.75,25.33-26.75,62.83-29.07l2,0c-1.37-.59-2.6-1.12-3.9-1.77-31.49-14.88-52.06-35.66-46-46.5,4.89-8.66,25.36-8.3,49.42-.21C-1527.58,439.67-1552.71,411.66-1543.92,396.93Z"/>
          <path class="cls-5" d="M-1551.39,539.47c-1.5-7.2,5.65-14.25,18.18-19.56,8.52,3,21.26,3.87,35.44,2.25-9,11.46-11.6,22.59-5.58,27.71,4.75,4,13.89,3.38,24-.78-13.84,16.29-18.35,33.07-9.67,39.87,8.46,6.6,26.83,1.49,44-11.36-15.49,30-16.06,59-.18,66.95,13,6.53,33.16-2.79,50.93-21.7-9.33,18.54-9.87,35.21.24,41.67,12.83,8.21,38.22-2.9,58.82-25a13,13,0,0,0,.12,1.59c1.34,27.86,13.71,50.93,27.55,51.67,11.29.51,20.05-13.67,22.28-33.75a153.56,153.56,0,0,0,9.53,12.39c23.5,27.65,53.06,44.09,65.83,36.72,11.25-6.47,6-28.93-11.16-53a130.25,130.25,0,0,0,15.65,6.08c26.3,8.43,50.1,7.76,53.13-1.45,2.14-6.58-6.69-15.59-21.34-23.3,19.89-2.31,33.9-9.4,32.59-17.22-.88-5.46-8.79-10.08-20.21-12.74,17.06-3.75,28.43-11.15,26.45-18.07a.47.47,0,0,0-.06-.19c18,4.11,32.6,3,35.45-3.78,1.9-4.51-1.83-10.61-9.29-16.76,16.49,8.26,31,10.69,36.73,5.11,5.85-5.83.44-18.69-12.17-32.23,9.12,5.38,17.31,7.32,22.25,4.51,9.18-5.23,3.37-25.1-12.72-44.84,2.77,1,5.6,1.88,8.61,2.78,36.8,10.83,69.75,9.09,73.56-3.85,1.28-4.44-1-9.55-5.93-14.84,6.23,1.79,11.3,1.76,14-.63a6.1,6.1,0,0,0,1.95-3.71c8,12.86,17.93,20.88,25.92,19.65,7.22-1.08,11.13-9.18,11.46-20.78,13.31,19.12,29.73,31,40.3,27.85,7.18-2.16,10.18-10.76,9.18-22.51,4.94,3.16,9.56,4.48,13.19,3.41,3.08-.93,5-3.37,6.2-6.94,7.59,14.71,17.8,24.25,26.87,23.48s14.57-11.46,15.2-26.8c7.55,7.79,15.55,12.16,21,11,4.49,23.54,15.62,40.81,29.35,42.42,11.48,1.34,22.1-8.81,29-25.38,10.61,17.12,25.41,28.42,33.88,25.53,6.79-2.37,7.55-13.31,2.72-26.77,2.74,1.75,41.14-7.34,43.73-6,0,0,26.46,40.86,38.89,39.74,15-1.31,37.9-53.87,37.9-53.87,1.25-2.05,44,11.76,45,9.31,6.25,13.12,15.38,22.27,23,21.91,9.53-.43,13.41-15.19,9.24-33.5,18.78,11.76,35.62,16.79,44.5,11.66,10.45-6.07,6.7-24.67-7.62-46.5,5.49-.88,9-7.37,9.5-16.69,12.41,12.89,25.43,20.18,33.71,17.72s9.7-14.18,4.8-29.39c3.7,2.63,7.3,4.07,10.67,3.79,4-.36,6.9-3.05,8.65-7.46,8.22,10.48,17.45,16.75,25.27,16.09,11.5-1,16.36-16.81,13-37.77C-368.7,403-359,408.57-352.11,407c7.85-1.73,10.14-12,7.05-25.78a11.55,11.55,0,0,0,4.5,2.5c4.24,1.1,8.68-.62,12.64-4.31-.25,6.21,1.79,11.43,6.32,14.75,7.43,5.46,20,4.74,33.71-.81-12.65-5.18-20.4-11.8-19.82-18.36,1.07-11,25.57-17.44,55.71-15.23-30.66-10.54-51.11-26.68-47.36-38.48,4.38-13.59,38.86-16.5,77.26-6.44.69.18,1.31.41,2,.58-1-.94-2-1.89-2.92-2.9-23.57-23.89-33.27-49.79-21.63-57.81,9.23-6.41,29.26.59,49,15.93-28.7-33.67-39.14-67.66-23-78.45,17.39-11.51,58.9,7.93,93.06,43.46-6-19-3.54-35.49,6-37.49,8.42-1.82,19.6,8.55,26.91,24.05a135.13,135.13,0,0,1,2.18-19c5.72-31,20.29-55.93,36.09-64.67,5.11,6.44,8.47,17.46,8.36,29.65a132.69,132.69,0,0,1,20.19-24.78c10.27,11.81,15.07,35.2,12.19,61.83,17.41-25.53,41.1-40.65,55.17-34.3l.91.63a122.53,122.53,0,0,1-10.54,27.24c14.41-15.3,31.63-22.69,42.46-17,13.58,7.21,12,32.17-3.46,55.75a23.51,23.51,0,0,1-2,2.88l1.2-.48c34.51-11.19,68.57-9.71,76.86,3,7.18,11.1-7.66,27.13-34,38.36,28.34-3.31,53.92,1.94,58.16,12.4,3.69,9-9.73,19-31.41,24.71,16.42,6.76,27.37,15.34,26.16,21.86-1,5.09-9.28,7.67-21.12,7.57,24.48,9.18,41.26,22,39.11,30.77S162,389.33,137.4,384.29c4.94,2.78,9.66,5.61,14,8.48,1.52,1,3,2,4.48,3l2,1.46c1.14.77,2.2,1.53,3.25,2.3.68.55,1.44,1.1,2.12,1.65,1,.69,1.88,1.44,2.79,2.13l2,1.65c.91.75,1.74,1.44,2.55,2.18l1.81,1.63,2.41,2.17c.53.54,1.05,1,1.57,1.55.75.74,1.58,1.55,2.24,2.35.45.47.82.88,1.27,1.28,1,1.2,2.09,2.4,3,3.53l.29.34c.82,1.06,1.63,2.11,2.29,3.16a5.68,5.68,0,0,1,.73,1.12c.52.79,1,1.51,1.39,2.23a10.34,10.34,0,0,0,.57,1.23c.37.65.65,1.3.94,1.95.14.39.28.77.49,1.23.13.63.34,1.21.47,1.78,0,0,.21.84.27,1.22,0,0,.11,1.14.17,1.71a4.86,4.86,0,0,1,0,1,6.53,6.53,0,0,1-.23,1.73l0,.57a11.71,11.71,0,0,1-1.13,2.57c-6,10.08-30.6,9.05-60.34-1,22.24,12.67,35.61,26.7,32,35.76-4.6,11.5-35,10.77-69.7-1a15.83,15.83,0,0,1,1.19,1.33c20.28,24.35,27.56,48.41,16.26,53.87-9.14,4.35-27.61-4.81-45.1-21.26A99.44,99.44,0,0,1,65,523.11c1.26,31.8-11.42,56.08-28,54.21C22.32,575.65,9.47,554.61,5.64,528.1A76.79,76.79,0,0,1-3,538.76c-16,16.26-36.91,23.9-46.61,17.09-7-4.87-6.36-15.7.19-27.38-18.75,5-36.14,3.73-41.23-3.46-3.45-5-.23-11.57,7.5-17.84-17.48,2.72-33,.29-36.58-6.35l-.08-.14c-12.25,9.74-25.57,13.74-33.25,8.95-5.09-3.18-6.69-9.69-5.05-17.55-7.77,12.79-18.26,19.94-27.49,17.06-9.48-2.9-14.87-15.77-14.45-31.76-3.68,7.8-9.23,12.25-15.59,11.58-11.87-1.3-22.31-20.28-23.72-42.82-1.65,1.84-3.43,3.61-5.21,5.44-2.12,2-4.3,3.79-6.55,5.59l-1.13,1c-2.25,1.8-4.5,3.47-6.75,4.95l-.32.29c-19.79,13.31-40.64,18.07-51.31,10.25-4.45-3.32-6.42-8.48-6.32-14.75-4,3.69-8.33,5.41-12.49,4.32a11.78,11.78,0,0,1-4.58-2.51c3,13.77.74,24.05-7.06,25.78-6.92,1.54-16.58-4-25.85-13.81,3.43,21-1.43,36.8-12.92,37.84-7.81.6-17.07-5.68-25.3-16.15-1.73,4.41-4.64,7.1-8.63,7.46-3.29.28-7-1.1-10.59-3.79,4.82,15.15,3.41,26.93-4.87,29.39s-21.39-4.83-33.72-17.66c-.53,9.26-3.92,15.69-9.49,16.7,14.23,21.75,18.05,40.36,7.6,46.43-8.78,5.13-25.72.16-44.48-11.66,4.23,18.38.28,33.07-9.24,33.5-7.66.36-16.78-8.73-23-21.91-.94,2.45-43.78-11.36-44.88-9.3,0,0-23,52.62-38,53.93-12.42,1.11-39-39.82-39-39.82-2.52-1.29-41,7.8-43.65,6.05,4.83,13.46,4.06,24.4-2.82,26.77-8.45,2.88-23.18-8.41-33.78-25.53-6.92,16.57-17.54,26.66-29.09,25.38-13.58-1.6-24.72-18.81-29.35-42.37-5.5,1.07-13.35-3.29-21.05-11-.64,15.22-6.14,26-15.13,26.82s-19.28-8.84-26.94-23.56c-1,3.58-3,6.08-6.12,7-3.63,1.07-8.34-.25-13.12-3.4,1,11.82-2,20.41-9.26,22.56-10.56,3.13-27-8.73-40.22-27.9-.41,11.53-4.4,19.69-11.46,20.78-8.08,1.21-18-6.8-26-19.65a6.12,6.12,0,0,1-1.95,3.7c-2.82,2.38-7.89,2.48-14.14.68,5,5.23,7.3,10.42,6,14.79-3.81,12.94-36.76,14.68-73.57,3.91-2.92-.88-5.76-1.83-8.69-2.78,16.25,19.69,22,39.55,12.82,44.84-4.88,2.81-13.13.75-22.34-4.58,12.69,13.55,18.08,26.47,12.23,32.24-5.68,5.58-20.22,3.09-36.72-5.17,7.46,6.22,11.11,12.3,9.21,16.82-2.84,6.72-17.4,7.94-35.45,3.71l.15.26c2,6.93-9.32,14.39-26.39,18.08,11.35,2.71,19.26,7.26,20.14,12.67,1.23,7.93-12.78,15-32.58,17.28,14.64,7.71,23.47,16.78,21.32,23.3-3.09,9.21-26.88,9.87-53.12,1.45a127.25,127.25,0,0,1-15.72-6.09c17.25,24,22.48,46.56,11.31,53-12.93,7.42-42.4-9.07-66-36.67-3.51-4.13-6.69-8.31-9.55-12.45-2.23,20.14-10.91,34.32-22.11,33.75-13.92-.68-26.3-23.82-27.72-51.68a11.92,11.92,0,0,0,0-1.58c-20.64,22.18-46.09,33.28-58.85,25-10-6.45-9.57-23.13-.24-41.67-17.68,18.92-37.93,28.23-50.92,21.77-16-8-15.39-37,.18-67-17.12,12.79-35.41,17.91-43.94,11.31-8.68-6.81-4.26-23.6,9.65-39.88-10.13,4.22-19.13,4.87-23.95.84-6-5.17-3.38-16.31,5.59-27.76-23,2.65-42.34-1.29-46.18-10.34-4.34-10.4,13.43-23.72,40.29-30.71C-1523.87,560.05-1548.92,551.45-1551.39,539.47Z"/>
        </g>
      </g>
      <g>
        <g>
          <path class="cls-6" d="M302.74,103.29c-6.59-3.12-14-4.44-28.68-3.36-6.28.46-9.61,5.29-11,8,6.23-1.91,31.3-3.44,31.3-3.44s11.23,5.89,11.85,7.53C308.06,110.47,307.62,105.6,302.74,103.29Z"/>
          <path class="cls-6" d="M264.22,89.73s9-2,6.35,11.11l-4.16,2.73S270.4,91.89,264.22,89.73Z"/>
          <path class="cls-7" d="M294.37,104.5c-9-3.55-18.26-.45-25,1.29l-4.22,1.44s8.62-17.39-.92-17.5-9.64,12.4-9.64,12.4-7.11,20.54,14,16.72h.06c10.83-7.15,21.23-11.93,34.85-6.63.71,1.1,2,.37,2.68-.18C305.48,110.23,302.71,107.79,294.37,104.5Z"/>
        </g>
        <g>
          <path class="cls-8" d="M179,116.14h0a28.31,28.31,0,0,1-6.88,13.5,24.23,24.23,0,0,1-2,1.9,26,26,0,0,1-6.12,3.77l-1.12.51c-2.52-.75-4.38-.92-7.86-3.33A16.53,16.53,0,0,1,148,116c.64-4,1.26-7.61-.66-11.52a12.6,12.6,0,0,0-.8-1.42,14.85,14.85,0,0,0-3-3.3c.5.77,4.13,6.44,2,12.85-2,5.94-7.53,8.18-9.28,8.89-7.49,3-16.77.72-22-4.18-9.2-8.51-9-27.32-.11-40.31a33.66,33.66,0,0,1,4-4.84,35.15,35.15,0,0,1,37.51-7.47c12.58,5.25,17.85,17.39,18.55,19,5.34,12.27,1.21,21.88,3.81,30.1A14.8,14.8,0,0,0,179,116.14Z"/>
          <path class="cls-9" d="M183.87,135.59a33.21,33.21,0,0,1-28.87-3.1,25.78,25.78,0,0,0,16.6-5.07c7.36-5.54,6.49-10.31,6.73-12.76.94,3,10.92,13.3,12.87,13.43C196.65,128.44,183.21,133.68,183.87,135.59Z"/>
          <path class="cls-10" d="M177.23,114.25c-.72.25-2.14-2.23-2.61-3.06-3.67-6.4-5.53-20.08-9.11-26.92-5.84-11.21-21.13-13.35-23.87-13.74-14.58-2-25.26,5.44-27.5,7.1a34.09,34.09,0,0,1,4-4.85,34.59,34.59,0,0,1,37.12-7.55c12.43,5.22,17.62,17.34,18.31,19C178.79,96.43,174.68,106.05,177.23,114.25Z"/>
          <path class="cls-11" d="M132.3,116.26c-11.08-2.08-17.88-12.71-14.06-23.58a19.71,19.71,0,0,1,9.82-11.86c10.57-5.73,25.46-.51,30.05,10.62,4.11,9.66.79,20.87,5.19,30.38a16.08,16.08,0,0,0,8.26,7.7A16,16,0,0,1,163,122c-4.68-9.43-1.58-20.62-5.66-30.2-4.47-10.58-18.7-15.53-28.83-10.16a19.17,19.17,0,0,0-9.5,11.3c-3.9,10.55,2.6,20.87,13.33,23.33Z"/>
          <path class="cls-11" d="M181.37,136.47c-12.52,3.44-30,0-33.56-14.3a20.4,20.4,0,0,1,.11-10.09,12.31,12.31,0,0,0-2.06-9.16c-4.51-7.15-19.38-8.07-18.69,2.88.09,4.44,7.89,6.66,8.91,1.66.44-2.44-2.55-3.71-4.54-2.82a3.93,3.93,0,0,1,3.27,0c2.37,1.08,1.8,4.61-.35,5.62A5.88,5.88,0,0,1,128,109c-2.46-2.66-1.73-7,.44-9.65,4.81-5.16,14.62-2.41,18.2,3a13,13,0,0,1,2.23,9.87,19.6,19.6,0,0,0-.19,9.71c3.48,13.91,20.38,17.29,32.68,14.52Z"/>
        </g>
        <path class="cls-12" d="M188.81,154.32c4.22,3.9,10.39,6.4,24.53,3.45,14.87-3.1,16.47-14.89,16.37-20.45a13.59,13.59,0,0,0-2.29-3.06,21.25,21.25,0,0,0-19.3-5.82C189.59,131.85,185.72,143.94,188.81,154.32Z"/>
        <path class="cls-13" d="M243,168.48a50.09,50.09,0,0,0,13-.07,9.26,9.26,0,0,0-1.83-2.36c-7-7-24.42-6.7-24.42-6.7-3.48,5.1-6.83,3.2-9.48,6.27S231.72,167.06,243,168.48Z"/>
        <path class="cls-6" d="M188.81,154.32a26.86,26.86,0,0,0,1,2.84c4.73,10.9,24.2,8.54,24.2,8.54s-1.77,7.66,4.44,6.61,13.63-3.11,22.24-1.24c7.5,1.64,17.47,1.92,15.24-2.66a50.09,50.09,0,0,1-13,.07c-11.23-1.42-25.35.21-22.71-2.86s6-1.17,9.48-6.27c0,0,5-13.1,0-22,.1,5.56-1.5,17.35-16.37,20.45C199.2,160.72,193,158.22,188.81,154.32Z"/>
        <path class="cls-8" d="M181.32,155.63c10.68-1.08,22-7.76,40.81-12,21.23-4.87,30.9-34.11,41.37-30.19s14.95-9,14.95-9c6.8-9.15-4.79-26.77-19.9-25.28a18.55,18.55,0,0,0-10.33,4.61c-36.58,32-48.83,23.29-60.36,29.34C169.61,122.94,175.78,147.42,181.32,155.63Z"/>
        <path class="cls-14" d="M181.32,155.63a14,14,0,0,0,1.82,2.19c10.44,1.42,23,1.94,31.27-4.17,15.12-11.19,33.15-41.93,47.21-37.81s5.13-.89-5.33-4.82-23,24.8-32.71,26.53C204.6,141,192,154.55,181.32,155.63Z"/>
        <path class="cls-15" d="M183.14,157.82c2.9,2.85,7.27,4.69,13.33,5.05,22.61,1.33,14.26-.94,26.08-3.25,20.46-4,33.53-33.06,40.95-37.33s9.11-14.24,9.11-14.24c3.48-.35,3.06,11.92-11,7.79s-32.09,26.62-47.21,37.81C206.15,159.76,193.58,159.24,183.14,157.82Z"/>
        <path class="cls-8" d="M230.14,175.29a49.71,49.71,0,0,0,12.76,2.61,9.26,9.26,0,0,0-1.31-2.69c-5.47-8.28-22.52-11.57-22.52-11.57-4.45,4.28-7.35,1.74-10.56,4.19S219.45,171.6,230.14,175.29Z"/>
        <path class="cls-8" d="M180.07,150.32c3.32,4.69,8.85,8.4,23.29,8.42,15.19,0,19.18-11.2,20.22-16.66a13.45,13.45,0,0,0-1.61-3.47,21.25,21.25,0,0,0-17.7-9.65C185.44,128.49,179.17,139.53,180.07,150.32Z"/>
        <path class="cls-16" d="M180.07,150.32a25.49,25.49,0,0,0,.43,3c2.39,11.63,21.93,13.32,21.93,13.32s-3.31,7.13,3,7.38,14-.25,22,3.36c7,3.14,16.7,5.45,15.46.52a49.71,49.71,0,0,1-12.76-2.61c-10.69-3.69-24.85-5-21.63-7.46s6.11.09,10.56-4.19c0,0,7.55-11.8,4.51-21.56-1,5.46-5,16.67-20.22,16.66C188.92,158.72,183.39,155,180.07,150.32Z"/>
        <g>
          <path class="cls-17" d="M305.32,82.61c-.47,1.18-11.13,7.5-13.05,3.28h0c3.33-2.54,1.29-5.36-.39-6.5l-.18-.11a2.33,2.33,0,0,0-1.21-.47,15.81,15.81,0,0,0-1.69.07A43.58,43.58,0,0,1,297,77.25c-.05.68,0,1.57.55,1.87C298.39,79.6,304.09,79.71,305.32,82.61Z"/>
          <path class="cls-8" d="M271.52,58.39c.12-.37,2.88-11.66,8.43-10.86,2.33,1-.19,8.95-.19,8.95Z"/>
          <path class="cls-18" d="M306.19,77.54a13.33,13.33,0,0,0-1.94.43,18.29,18.29,0,0,0-6.89-.73l-.58,0h0a43.44,43.44,0,0,0-8.09,1.61h0a17,17,0,0,0-2.69.48,9.22,9.22,0,0,0,3.68-7.83c-.38-5.38-5.69-9.21-10.88-8.62s-9.5,5.54-8.66,10.84c.8,5,5.82,8.2,10.59,7.75-.55.3-1.08.62-1.59.94l-.2.13a37.63,37.63,0,0,0-7.38,6.31l-.08.08c-1.19-1.28-2.41-2.56-3.59-3.77-7,2.81-5.34,10-5.26,10.3-7.73-.82-5.63-11.44-5.44-11.81-1.62.83-2.32,4.16-2.75,4.23s-1.41-3,.73-6.32a14.6,14.6,0,0,0,2.28-3.11h0a19.77,19.77,0,0,0,2-8.43,3.19,3.19,0,0,1,.66-1.42c.93-1.28,2.86-3.12,6.07-6.84l.27-.31a15.67,15.67,0,0,1,5-3.23,41.79,41.79,0,0,1,8.36-2.58,21.56,21.56,0,0,1,4.63-.64c.12.25-1.48,2.51-1,2.88s9.72.43,16.3,7.09C302.86,68.19,306.18,72.68,306.19,77.54Z"/>
          <path class="cls-17" d="M297.38,93.61a6.65,6.65,0,0,1-1,3.4,7.4,7.4,0,0,1-3.13,2.59c-1.63.86-4.09,2.17-5.93,1.05a3.3,3.3,0,0,1-1.19-1.33l-.09,0c-.36-2.2-1.51-9.79-.49-10.47,0,.4.09.88.17,1.4.47,3.19,1.81,8,5.57,6.92a6.2,6.2,0,0,0,2.51-1.3,3,3,0,0,0,.8-1.12v0a3,3,0,0,0,.17-.7h0l.83-.12C296.22,93.84,296.81,93.73,297.38,93.61Z"/>
          <line class="cls-19" x1="257.49" y1="78.49" x2="257.49" y2="78.49"/>
          <path class="cls-20" d="M305.65,83.13a8.45,8.45,0,0,0-1.14,1.38,7.92,7.92,0,0,0-1,2.19c-1.91.81-9.31,3.41-11.23-.81h0c3.33-2.54,1.29-5.36-.39-6.5l-.18-.11a2.33,2.33,0,0,0-1.21-.47,15.81,15.81,0,0,0-1.69.07A43.58,43.58,0,0,1,297,77.25a27.93,27.93,0,0,1,3.59,0c1.79.11,2,.3,3.68.38,2.71.14,3.42-.3,3.79.21C308.74,78.82,307.06,81.69,305.65,83.13Z"/>
          <path class="cls-21" d="M303.6,87.32s.11-.63-.18-.51c.74-1.6,1.35-2.93,1.81-4.13a1.69,1.69,0,0,1,.1.27,1.9,1.9,0,0,1,.08.35h0a22.55,22.55,0,0,0,1.68-2.91,11.71,11.71,0,0,0,.81-2.51,1.34,1.34,0,0,1,.64.11,1.8,1.8,0,0,1,.83,1.09,4.51,4.51,0,0,1,.36,1.56,6.2,6.2,0,0,1-.62,2.93c-.3.62-.73,2.21-2,2.94A6.89,6.89,0,0,1,303.6,87.32Z"/>
          <path class="cls-22" d="M297.54,93.55v.09"/>
          <path class="cls-23" d="M303.41,86.72c-.09.17-.17.36-.25.54a27.23,27.23,0,0,1-2.57,4.11,7.69,7.69,0,0,1-1.82,1.83c-.49.12-3.87.8-4.15.84-1.22.18-2.36.29-3.43.36a17.64,17.64,0,0,0-.47-8.18.19.19,0,0,1,0-.08,10.84,10.84,0,0,1,1.37-.31s0,0,.06,0h0a.36.36,0,0,0,0,.09C294.1,90.14,301.5,87.53,303.41,86.72Z"/>
          <path class="cls-23" d="M281.55,66.38h-.05l-.22,0c-3.41.54-6.17,3.79-5.61,7.27s3.95,5.52,7.18,5.21a6,6,0,0,0,.61-.09,6.57,6.57,0,0,0,5.47-6.63C288.69,68.56,285.08,66,281.55,66.38Zm-2.39,8.29a4.22,4.22,0,1,1,8.33-.94,4.19,4.19,0,1,1-8.33.94Z"/>
          <path class="cls-24" d="M282.8,69.56a4.45,4.45,0,0,0-3.64,5.11,4.22,4.22,0,1,0,3.64-5.11Zm2.3,4a1.46,1.46,0,0,1-1.52-1.25,1.4,1.4,0,1,1,2.77-.32A1.47,1.47,0,0,1,285.1,73.53Z"/>
          <path class="cls-25" d="M286.35,72a1.39,1.39,0,1,1-2.77.32,1.4,1.4,0,1,1,2.77-.32Z"/>
          <path class="cls-26" d="M294.43,93.79a18.83,18.83,0,0,0,3.36-5.67A19.37,19.37,0,0,1,295,94.25l-.59-.46Z"/>
          <path class="cls-8" d="M262.74,70.17c0-.14-12.17-4.4-3.81-19.4,1.54-2.24,4.37-1,6.18,1.93s1.58,11.07,1.3,11.93Z"/>
          <path class="cls-27" d="M261,50.45c-6.51,11.68-.54,16.86,2.38,18.62l-.73,1.11c0-.13-12.17-4.4-3.82-19.4a2.41,2.41,0,0,1,2.83-1A3,3,0,0,0,261,50.45Z"/>
          <path class="cls-11" d="M281.92,101.17a21.46,21.46,0,0,1-12.35-1.56,21,21,0,0,0,12.16.58l.19,1Z"/>
          <g>
            <path class="cls-28" d="M291.25,87.51c-4,1.17-4.42,5.39-4.43,7.08a19.49,19.49,0,0,1-1.37-5.66,19,19,0,0,1,5.43-2.83C291,86.53,291.14,87,291.25,87.51Z"/>
            <path class="cls-29" d="M293.89,95.93a6.56,6.56,0,0,1-2.53,1.33c-2.09.64-3.45-.54-4.34-2.26-.07-.13-.14-.27-.2-.41,0-1.69.39-5.91,4.43-7.08,0,.18.08.38.11.57.08.43.15.89.2,1.36a18,18,0,0,1-.18,5C292.46,94.35,294.53,95.33,293.89,95.93Z"/>
            <path class="cls-30" d="M294.91,94a3,3,0,0,1-1,1.87,6.41,6.41,0,0,1-2.54,1.33,3.13,3.13,0,0,1-3.58-1.1h0s.56-4.8,3.88-4.38a18.26,18.26,0,0,1-.27,2.64C292.51,94.29,293.68,94.17,294.91,94Z"/>
          </g>
          <ellipse class="cls-31" cx="295.25" cy="81.02" rx="0.33" ry="0.42" transform="translate(-8.87 45.69) rotate(-8.72)"/>
          <ellipse class="cls-31" cx="296.14" cy="83.26" rx="0.42" ry="0.33" transform="translate(196.7 374.37) rotate(-86.84)"/>
          <ellipse class="cls-31" cx="295.27" cy="85.42" rx="0.42" ry="0.33" transform="translate(193.72 375.54) rotate(-86.84)"/>
          <path class="cls-32" d="M305.91,77.36h-.09a12.2,12.2,0,0,1-4.61-1.67c-3.6-2.22-3.92-5.18-8.6-9.74a28.29,28.29,0,0,0-5.84-4.57c-7.62-3.9-17.83,1.82-20.92,3.7l.51-1.17c0-.36.05-.73.07-1.11l.06-1.08a9.32,9.32,0,0,1,.87-.94,10,10,0,0,1,3.83-2.22h0a5.33,5.33,0,0,0,.68-.27c.75-.28,1.59-.56,2.55-.86.72-.23,1.48-.45,2.28-.67s1.77-.45,2.61-.64c.69-.17,1.45-.34,2.26-.47s1.69-.25,2.45-.32a14.47,14.47,0,0,0-.79,1.87,1,1,0,0,0,0,.49,1.26,1.26,0,0,0,.09.26c.24.44,2.36.63,2.89.69l2.38.54a24.52,24.52,0,0,1,10.76,5.5l.14.14C302.59,68,305.9,72.5,305.91,77.36Z"/>
          <path class="cls-33" d="M305.76,77.38h-.09a12.34,12.34,0,0,1-4.62-1.66c-3.6-2.23-3.92-5.18-8.59-9.74a29,29,0,0,0-5.84-4.58c-7.62-3.9-17.84,1.83-20.93,3.7L266.2,64c0-.37.06-.74.08-1.11l.06-1.09a9.22,9.22,0,0,1,.87-.94A9.94,9.94,0,0,1,271,58.6h0a4.08,4.08,0,0,0,.67-.27c.76-.28,1.6-.56,2.55-.85.73-.23,1.49-.46,2.28-.67s1.78-.46,2.62-.64,1.45-.34,2.26-.48,1.68-.25,2.44-.31a13.44,13.44,0,0,0-.78,1.86,1,1,0,0,0,0,.49.82.82,0,0,0,.09.26c.24.45,2.35.64,2.89.7l2.37.54a24.4,24.4,0,0,1,10.77,5.5.8.8,0,0,1,.14.14C302.43,68,305.75,72.53,305.76,77.38Z"/>
          <path class="cls-11" d="M268,85.19A8.73,8.73,0,0,0,263.26,96c-3.06-.19-5.52-1.78-6.38-4.81a14.32,14.32,0,0,1-.08-7.71l.64.63c-1.06.55-1.71,2.32-2.25,3.44-.15.27-.24.58-.58.73s-.76-.31-.8-.47A7.12,7.12,0,0,1,255,81.5c.76-.86,1.52-1.74,2.2-2.67a4.68,4.68,0,0,0,.6-1,5.27,5.27,0,0,1-.49,1.05c-.57.95-1.35,2-2,2.82-1.05,1.66-1.57,4.24-.87,5.82a.48.48,0,0,0-.17,0s-.09.07-.07,0c.3-.54.49-1.16.77-1.75a5.29,5.29,0,0,1,2-2.56l.65-.38v1c-.92,4.25-.27,10.66,5.1,11.18l-.45.54c-1-4.37,1.33-9.14,5.72-10.43Z"/>
          <path class="cls-11" d="M263.14,69a.48.48,0,0,0,.19.46l-.21-.13a10.61,10.61,0,0,1-5.27-8.16,18.58,18.58,0,0,1,2.23-9.82c1.39-2.36,4-.43,4.9,1.31a4.77,4.77,0,0,1,.7,1.88,50.15,50.15,0,0,1,.54,7.84,49.55,49.55,0,0,0-.78-7.79,5.85,5.85,0,0,0-1.95-3.22c-1-.88-2.39-1-3,.2a18.1,18.1,0,0,0-1.91,9.51,9.79,9.79,0,0,0,5,7.39c.28.14.56.3.52.66l-1-.13Z"/>
          <path class="cls-27" d="M279.91,48.4c-4.61-.73-7.1,7.88-7.7,10.15l-.6.14c.11-.36,2.62-11.52,7.84-10.68A1.22,1.22,0,0,1,279.91,48.4Z"/>
          <path class="cls-34" d="M279,62.9l-.45.07A10.1,10.1,0,0,0,270,72a1.93,1.93,0,0,1,0,.24c0,.23,0,.47,0,.71s.05.52.09.77a7,7,0,0,0,.14.69l.12.45.07.22c1.4,4.13,5.86,6.7,10.17,6.39h.24a23.58,23.58,0,0,1,5.36-2.16h0l0,0,.08-.06A9.15,9.15,0,0,0,290,71.5C289.63,66.12,284.24,62.3,279,62.9Zm-3.41,10.81c-.55-3.5,2.27-6.78,5.73-7.29l.22,0c3.55-.4,7.18,2.17,7.43,5.79a6.62,6.62,0,0,1-5.47,6.63,6,6,0,0,1-.61.09h-.06C279.53,79.23,276.1,77.06,275.55,73.71Z"/>
          <path class="cls-8" d="M292.36,86h0l-.06.05a8.52,8.52,0,0,0-1.38.3h0a19.12,19.12,0,0,0-5.36,2.74c-1,.68.45,8.23.49,10.48l-.58.18a28.35,28.35,0,0,1-3.91,1l-.11,0c-.43,0-9.86,1.36-11.57-1.41-.07-.1-4.9.78-6.51-3.42-1.43-3.75,1.27-10.53,3.9-9.92.63-.69,7.76-.91,11.79-3.45l.21-.13c.55-.34,1.12-.67,1.7-1h0a23.17,23.17,0,0,1,5.34-2.09h0a17.05,17.05,0,0,1,4.41-.49,2.09,2.09,0,0,1,1.08.4l.18.12C293.63,80.54,295.68,83.4,292.36,86Z"/>
          <g>
            <path class="cls-35" d="M295.28,81.51c-6.91-2.49-14.54-2-21.5.13a41,41,0,0,1,10.72-2.29,29.63,29.63,0,0,1,10.8,1.15s0,0,0,0l-.06,1Z"/>
            <path class="cls-35" d="M296.16,83.79c-6-2.18-12.64-1.77-18.69,0A31.66,31.66,0,0,1,294,82.21c.73.15,1.5.35,2.21.57,0,0,0,0,0,0l0,1Z"/>
            <path class="cls-35" d="M295.21,85.93c-5.25-1.93-11.06-1.6-16.36,0a27.09,27.09,0,0,1,15.52-1.23l.9.25s-.06,1-.06,1Z"/>
          </g>
          <path class="cls-36" d="M273.18,57.45c.08-.26,2-8.27,6-7.71,1.65.72-.14,6.36-.14,6.36Z"/>
          <path class="cls-1" d="M273,57.49c.08-.27,2-8.28,6-7.71,1.65.72-.14,6.35-.14,6.35Z"/>
          <path class="cls-37" d="M271.07,58.46a64,64,0,0,1,9.07-2.76"/>
          <path class="cls-36" d="M263.14,66.34c0-.09-7.77-2.81-2.43-12.39,1-1.43,2.79-.66,4,1.23s1,7.07.83,7.62Z"/>
          <path class="cls-1" d="M263.16,66.65c0-.09-7.77-2.81-2.43-12.4,1-1.43,2.79-.65,3.95,1.24s1,7.07.83,7.62Z"/>
          <g>
            <path class="cls-38" d="M302.62,85.63c-.68,0-1.5-1-2.92-2.21-1.64-1.37-2.83-1.61-3.64-2.41-.9-1,2.37-3.42,5.82-3.81,3.25-.37,4.91.5,4.85,1.79S304.82,85.45,302.62,85.63Z"/>
            <path class="cls-39" d="M305.64,78.25c-2.67-1-6.18-.19-8.73,1a10.22,10.22,0,0,1,5-2c3.25-.37,4.91.5,4.85,1.79a9.65,9.65,0,0,1-.48,1.37C306.37,79.19,306.21,78.51,305.64,78.25Z"/>
            <path class="cls-40" d="M296.93,79.2c-.51,1.39,2.37,1.7,3.64,2.64,1,.71,1.62,2.28,2.59,2.23,1.38-.22,2.34-2.62,3.51-4.62-.35,1.76-2.06,6-4.05,6.18-.68,0-1.5-1-2.92-2.21-1.64-1.37-2.83-1.61-3.64-2.41C295.67,80.59,296.07,79.89,296.93,79.2Z"/>
            <path class="cls-41" d="M295.94,80.4c-.08.23,0,.34.05.4a6.12,6.12,0,0,0,1.39.94,13.61,13.61,0,0,1,2.4,1.58c.45.38.85.74,1.2,1.06.72.67,1.29,1.19,1.66,1.18h.1c2.08-.32,3.92-5.45,4-6.69a1.19,1.19,0,0,0-.39-.92c-.72-.67-2.33-.92-4.41-.69l-.35,0C298.67,77.74,296.26,79.46,295.94,80.4Z"/>
          </g>
        </g>
        <g>
          <path class="cls-16" d="M297.17,111.17c-6.59-3.12-14-4.44-28.68-3.37-6.28.47-9.61,5.3-11,8,6.23-1.9,31.3-3.43,31.3-3.43s11.22,5.89,11.85,7.52C302.49,118.34,302.05,113.48,297.17,111.17Z"/>
          <path class="cls-16" d="M258.65,97.6s9-2,6.35,11.11l-4.16,2.74S264.83,99.77,258.65,97.6Z"/>
          <path class="cls-8" d="M288.8,112.38c-9-3.55-18.26-.46-25,1.29l-4.21,1.44s8.62-17.4-.92-17.51S249,110,249,110s-7.11,20.54,14.05,16.72l.06,0c10.83-7.15,21.23-11.92,34.85-6.62.71,1.09,2,.36,2.68-.19C299.91,118.1,297.14,115.67,288.8,112.38Z"/>
        </g>
        <path class="cls-42" d="M250.74,102.66c-3.47,9.37-7,24.49,7.77,24.31a41.9,41.9,0,0,0,4.61-.26c-18.78,4.57-19.07-11.34-12.38-24Z"/>
        <path class="cls-43" d="M309.72,81a13.83,13.83,0,0,0-.35-1.88,1.8,1.8,0,0,0-.83-1.09c-.18-.08-.51-.13-.52-.15-.27-.38-.74-.23-2.12-.19l-.12-.06.41,0c0-4.85-3.33-9.35-6.47-12.52-6.58-6.66-15.8-6.72-16.3-7.09s1.1-2.63,1-2.88a20.11,20.11,0,0,0-4.41.6c.57-2.07,1.81-7.31-.05-8.12-5.21-.75-8,9.14-8.38,10.67l-.15.07c-.58.25-1.12.53-1.65.82a9.62,9.62,0,0,0-2.57,1.72l-.12.13c-.16.14-.33.29-.48.44,0-2.86-.34-6.8-1.49-8.68-1.27-2.07-3-3.29-4.52-3.05a2.45,2.45,0,0,0-1.75,1.13c-5.75,10.33-1.76,15.57,1.28,17.88a3.11,3.11,0,0,0-.66,1.41c-.17,1.16,0,4.74-2,8.43-.14.25-.29.51-.45.77l0,0a18.86,18.86,0,0,0-8.74,4.37c-36.47,31.78-47.83,23.13-60.37,29.34a16.82,16.82,0,0,0-6.87,5.62c-1,1.2-6.78,10.87-5.24,18.74a31.69,31.69,0,0,0,5.36,17.89c4,9.86,21.32,11.36,21.32,11.36s-3.3,7.13,3,7.38,14-.25,22,3.36c7,3.14,16.71,5.45,15.47.52a9.11,9.11,0,0,0-1.31-2.68,17.51,17.51,0,0,0-5-4.76,32.51,32.51,0,0,1,4.13.62c7.5,1.63,17.46,1.91,15.24-2.67a9.68,9.68,0,0,0-1.83-2.36c-7.06-7-24.42-6.7-24.42-6.7s.39-1,.83-2.67c12.35-6.65,21.51-21.43,28-29.46.79,0,1.63-.09,2.53-.2l.27,0,1.59-.24.13,0h.06c10.83-7.16,21.23-11.93,34.86-6.63.7,1.09,2,.36,2.67-.19,1.85-1.56,1.4-6.42-3.48-8.73-.84-.4-1.69-.77-2.57-1.11a32.45,32.45,0,0,1,9,2.15c.7,1.1,2,.37,2.67-.18a3.32,3.32,0,0,0,1-2.57c0-2.06-1.3-4.66-4.49-6.17a36.19,36.19,0,0,0-10.57-3.15c.38-.18.73-.37,1-.54A7.42,7.42,0,0,0,296.35,97a6.65,6.65,0,0,0,1-3.4c-.57.12,1-.3,1.39-.41a7.69,7.69,0,0,0,1.82-1.83c1.82-2.49,2.31-3.54,2.37-3.55.55-.89.59-.64.43-.2a4.58,4.58,0,0,0,2.93-.53,4.66,4.66,0,0,0,1.8-2,5.78,5.78,0,0,0,.9-1.37s.45-1.11.52-1.39C309.54,82.36,309.72,81.15,309.72,81Z"/>
      </g>
    </g>
  </g>
</svg>
