<svg xmlns="http://www.w3.org/2000/svg" xmlns:xlink="http://www.w3.org/1999/xlink" width="94.59" height="98.53" viewBox="0 0 94.59 98.53">
  <defs>
    <style>
      .cls-1, .cls-21 {
        fill: none;
      }

      .cls-2 {
        isolation: isolate;
      }

      .cls-3 {
        clip-path: url(#clip-path);
      }

      .cls-4 {
        fill: #3c800d;
      }

      .cls-5 {
        fill: #0e7f2e;
      }

      .cls-6 {
        fill: #6bba2d;
      }

      .cls-7 {
        fill: #4aa311;
      }

      .cls-8 {
        fill: #032616;
      }

      .cls-9 {
        fill: #011c24;
      }

      .cls-10 {
        fill: #042f33;
      }

      .cls-11, .cls-16 {
        opacity: 0.5;
      }

      .cls-11 {
        fill: url(#linear-gradient);
      }

      .cls-12 {
        clip-path: url(#clip-path-2);
      }

      .cls-13 {
        fill: url(#linear-gradient-2);
      }

      .cls-14 {
        opacity: 0.47;
      }

      .cls-15 {
        fill: url(#linear-gradient-3);
      }

      .cls-16 {
        mix-blend-mode: screen;
      }

      .cls-17 {
        opacity: 0.58;
        fill: url(#linear-gradient-4);
      }

      .cls-18 {
        fill: #f6f6f6;
      }

      .cls-19 {
        fill: #3d3123;
      }

      .cls-20 {
        fill: #fff;
      }

      .cls-21 {
        stroke: #894f1a;
        stroke-miterlimit: 10;
        stroke-width: 0.5px;
      }

      .cls-22 {
        fill: #bc7b18;
      }

      .cls-23 {
        fill: #8e4713;
      }
    </style>
    <clipPath id="clip-path">
      <rect class="cls-1" x="-1697.47" y="-2380.53" width="1280" height="720"/>
    </clipPath>
    <linearGradient id="linear-gradient" x1="-3729.29" y1="-4158.43" x2="-3675.45" y2="2342.5" gradientUnits="userSpaceOnUse">
      <stop offset="0.46" stop-color="#fff" stop-opacity="0"/>
      <stop offset="0.5" stop-color="#fef9e8" stop-opacity="0.21"/>
      <stop offset="0.55" stop-color="#fef4d3" stop-opacity="0.39"/>
      <stop offset="0.6" stop-color="#fdf0c1" stop-opacity="0.56"/>
      <stop offset="0.65" stop-color="#fdecb2" stop-opacity="0.69"/>
      <stop offset="0.7" stop-color="#fde9a6" stop-opacity="0.81"/>
      <stop offset="0.76" stop-color="#fce79c" stop-opacity="0.89"/>
      <stop offset="0.82" stop-color="#fce595" stop-opacity="0.95"/>
      <stop offset="0.89" stop-color="#fce491" stop-opacity="0.99"/>
      <stop offset="1" stop-color="#fce490"/>
    </linearGradient>
    <clipPath id="clip-path-2">
      <rect class="cls-1" x="-1697.47" y="-144.29" width="1280" height="720"/>
    </clipPath>
    <linearGradient id="linear-gradient-2" x1="-915.95" y1="840.77" x2="-915.95" y2="-1652.41" gradientUnits="userSpaceOnUse">
      <stop offset="0.2" stop-color="#ffffca"/>
      <stop offset="0.67" stop-color="#9edcff"/>
      <stop offset="1" stop-color="#4e9dff"/>
    </linearGradient>
    <linearGradient id="linear-gradient-3" x1="11461.79" y1="-2.04" x2="12051.14" y2="-2.04" gradientTransform="matrix(-0.73, 0, 0, 1, 8509.65, 0)" gradientUnits="userSpaceOnUse">
      <stop offset="0" stop-color="#8a5f3c"/>
      <stop offset="0.24" stop-color="#744d29"/>
      <stop offset="0.66" stop-color="#52300b"/>
      <stop offset="0.89" stop-color="#452500"/>
    </linearGradient>
    <linearGradient id="linear-gradient-4" x1="11511.74" y1="-1257" x2="11511.74" y2="811.08" gradientTransform="matrix(-0.73, 0, 0, 1, 8509.65, 0)" gradientUnits="userSpaceOnUse">
      <stop offset="0.21" stop-color="#cc925e"/>
      <stop offset="0.48" stop-color="#a56752"/>
      <stop offset="0.8" stop-color="#6d3134"/>
      <stop offset="1" stop-color="#292937"/>
    </linearGradient>
  </defs>
  <g class="cls-2">
    <g id="Layer_1" data-name="Layer 1">
      <g class="cls-3">
        <g>
          <path class="cls-4" d="M137.39,37.85s2.93-26.43,29.54-33.47c0,0-22.27-10.15-47.23,28.32,0,0,8.32-36.8,20.8-43.36,0,0-28.08,15.92-36.4,42.12,0,0,25.79-59.32,7.17-75.32,0,0,3.23,35-13.41,50.56,0,0,9.9-15.59-6.49-27a54.63,54.63,0,0,1-7.52,30S88.5-9.93,66.66-13c0,0,25,19.75,13.52,37.43,0,0,2.08-11.44-19.76-10.4,0,0,22.93,20.76,9.39,32.22Z"/>
          <path class="cls-5" d="M92.66,59.74a40.18,40.18,0,0,0-27-22.1s20.66-8.41,43.81,23.42a42.92,42.92,0,0,0-5.3-15.9c-6.6-11.39-17.85-17.81-16.67-19.74.2-.31.78-.6,2.68-.22a84.43,84.43,0,0,1,14,9.29C111.6,40.49,120,49.2,123.9,60c0,0-23.92-49.06-6.65-62.29,0,0-3,28.91,12.44,41.82,0,0-9.18-12.91,6-22.37A38.8,38.8,0,0,0,140.5,37.9a20.81,20.81,0,0,1,4-7.41,22.33,22.33,0,0,1,14.09-7.28s-23.15,16.35-12.54,31c0,0-1.93-9.46,18.33-8.6a29.9,29.9,0,0,0-9.07,15c-2.9,11.81,2.71,21.26,3.87,23.12Z"/>
        </g>
        <path class="cls-6" d="M-7316.41-244.64s499.32,33.16,649.11,31.18,531.65-9.19,573.1-9.47,541.44,23.65,722.05,25.92c663.28,8.34,1958.07-36,3137.18-55.4,1347-22.15,2546.74-20.42,2546.74-20.42L302.9,31.51l-8165.23-3.39,35.91-284.74Z"/>
        <path class="cls-7" d="M-7765.43-206.72s397.52-20.72,896.62,46.25,1502.27,2.54,2003,2C-4343.47-159-3300.59-77-2778.29-72.66c768.54,6.36,3072-118.47,3072-118.47L310.05,70.32l-8128.2,6.36Z"/>
        <g>
          <path class="cls-8" d="M-198.16,24.85l7-42s756.25-26,867.25-18c0,0-6-21-17-24,0,0,25-3,27,24,0,0,0-40-16-47,0,0,39,6,36,47l182,8s-11-11-18-14c0,0,20-7,31,6,0,0-13-31-21-35,0,0,22.25-2,28.13,30,0,0,19.87-17,25.87-14.5,0,0-22,26.5-18,27.5,0,0,722.36,20.46,857.36,27.46V53.69Z"/>
          <g>
            <path class="cls-9" d="M71.19,18.66S-83.35-14.44-82.24-47.64,47.18-24,97.71,9.11C-49.41-128.32,26.53-50.22-14.89-96.73s3.57-69.59,77.47.9c59.18,68.37,76.63,88.37,76.63,88.37s-43.15-92.76-60-141.81,38.18-81.69,80.73,3.88c9.37-26.9,10.21-29.56,10.21-29.56s-12.62,40.54.34-6.86,65.5-18.87,36.29,50.65c31.72-25.42-10,3.39,34.47-21.79s98.86,3.34,41.54,60.53S243-51.32,243-51.32L202.85-15.67,309.06-51C381.76-69.78,413-44,330.81-3.53,277.73,17.23,232.68,32.9,232.68,32.9s45.3-.5,119-3.88,72.85,45.58-11.1,44.32C243,52.74,71.19,18.66,71.19,18.66"/>
            <g>
              <path class="cls-10" d="M-4.36-117.4S110.1,7,125.58,18.27c0,0-115.91-133.11-129.94-135.67"/>
              <path class="cls-10" d="M90.06,15.76S-63-35.95-66-38.94,74.6,6,90.06,15.76"/>
            </g>
          </g>
        </g>
        <rect class="cls-1" x="-7732.49" y="-2698.13" width="8000" height="2700"/>
        <rect class="cls-11" x="-7769.41" y="-2737.43" width="8127.09" height="2814.71"/>
        <rect class="cls-1" x="-7769.41" y="-2737.43" width="8127.09" height="2814.71"/>
      </g>
      <g class="cls-12">
        <path class="cls-13" d="M-1953.91,617.77c639,235.82,1338.45,202.51,2075.92,0v-1422H-1953.91Z"/>
        <rect class="cls-1" x="-1954" y="-809.38" width="2087.68" height="1665.16"/>
        <rect class="cls-1" x="-1944.51" y="-786.12" width="2055.03" height="1597.3"/>
        <g>
          <path class="cls-15" d="M-292.46-993.95c66,25.1-172.23-70.42-162.66,1.56,10.66,80.14,10.4,556.69,11.61,735.87,1.27,187.21,1.89,654.58,2.33,764.5s-29.43,213.63-11.43,227.34c32.26,24.57,235.16,235.86,235.16,220.32,8.81-13.14,172.94,92,151.37,50.18s-33.44-80-39.6-101.55a186.44,186.44,0,0,1-6.6-47.8c0-5.37,15.84,5.38,30.37-1.79s27.72-50.18,58.74,1.79,40.92,53.76,62,52,29.71-64.53,7.92-71.69-38.28-46.6-42.9-60.93c5.94-17.93,43.57-23.31,66-5.38a127.79,127.79,0,0,0,46.2,23.3C102.9,761.48,89,720.27,65.94,713.1s-31-21.51-62-17.93S-46,969.52-65.78,894.26s-49.51-180.42-53-414.6,3.25-575.17,4.4-669.08c1-78.09,27.5-187.88,59.33-272.32,23.89-63.41,50.31-111.7,73.7-126.06,28.5-17.47,70.32-73.4,114.63-98.57,40.54-23,83.17-15.88,119.33-21.58,24.64-52.57-5.28-64.53-5.28-64.53s-44-14.33-88,2.4-41.36,31.06-81,28.67S-6.46-657.09-30.22-616.47-131.87-488.63-143.45-430.76c0-234.19-8.8-501.81-3.52-535.27s-21,41.7,2.74-13.25"/>
          <g class="cls-16">
            <path class="cls-17" d="M-83.49,894.33c-19.8-75.28-49.51-180.42-53-414.59s3.24-575.18,4.4-669.09c1-78.09,27.49-187.87,59.32-272.32,23.9-63.41,50.31-111.7,73.71-126.06,28.49-17.47,70.32-73.39,114.63-98.56,40.53-23,83.17-15.89,119.32-21.59,24.65-52.57-5.28-64.52-5.28-64.52A143,143,0,0,0,197-777.85a150.51,150.51,0,0,1,50.28,5.45s29.92,11.95,5.28,64.52c-36.16,5.7-78.79-1.44-119.33,21.59C88.87-661.12,47.05-605.2,18.55-587.73c-23.39,14.36-49.81,62.65-73.7,126.06C-87-377.22-113.52-267.44-114.48-189.35c-1.15,93.91-7.92,434.9-4.4,669.09s33.22,339.31,53,414.59C-51.29,949.7-44.94,693.55-21.37,696-50.46,698.34-65.28,963.55-83.49,894.33Z"/>
          </g>
        </g>
      </g>
      <g>
        <path class="cls-18" d="M42.26,49.69A4.93,4.93,0,0,0,47.07,54h.46a5,5,0,0,0,4.73-4.67,5,5,0,0,0-5-4.75h-.2A5,5,0,0,0,42.26,49.69Zm4.57,4a3.27,3.27,0,0,1-3.32-3,3.16,3.16,0,1,1,6.27-.25A3.29,3.29,0,0,1,46.83,53.72Z"/>
        <path class="cls-19" d="M43.51,50.67a3.14,3.14,0,1,0,6.27-.25,3.16,3.16,0,1,0-6.27.25Zm.64-1.44a1.05,1.05,0,1,1,2.09-.08,1,1,0,1,1-2.09.08Z"/>
        <path class="cls-20" d="M44.15,49.23a1,1,0,1,0,2.09-.08,1.05,1.05,0,1,0-2.09.08Z"/>
        <path class="cls-21" d="M47.58,54h-.51a4.94,4.94,0,0,1-4.8-4.28,5,5,0,0,1,4.84-5.14h.16a5,5,0,0,1,5.07,4.75A5,5,0,0,1,47.58,54Z"/>
      </g>
      <g>
        <path class="cls-22" d="M42.11,48.74a5,5,0,0,1,10,.45,3.81,3.81,0,0,1-.05.59C49.69,48.76,45.51,47.38,42.11,48.74Z"/>
        <path class="cls-23" d="M42.11,48.74c.7-7.14,11.81-5.45,10.29,1.74l-.58-.26c-3-1.33-6.43-2.39-9.71-1.48Zm0,0c3.18-1.55,7-.68,10.1.6l-.67.38c.43-5.75-8.31-6.46-9.43-1Z"/>
      </g>
    </g>
  </g>
</svg>
