<svg xmlns="http://www.w3.org/2000/svg" xmlns:xlink="http://www.w3.org/1999/xlink" width="181.1" height="211.76" viewBox="0 0 181.1 211.76">
  <defs>
    <style>
      .cls-1, .cls-15, .cls-18, .cls-28 {
        fill: none;
      }

      .cls-2 {
        isolation: isolate;
      }

      .cls-3 {
        fill: #775b24;
      }

      .cls-4 {
        fill: #23170d;
      }

      .cls-5, .cls-6 {
        mix-blend-mode: multiply;
        opacity: 0.5;
      }

      .cls-5 {
        fill: url(#linear-gradient);
      }

      .cls-6 {
        fill: url(#linear-gradient-2);
      }

      .cls-7 {
        fill: #724626;
      }

      .cls-8, .cls-9 {
        opacity: 0.39;
      }

      .cls-8 {
        fill: url(#linear-gradient-3);
      }

      .cls-9 {
        fill: url(#linear-gradient-4);
      }

      .cls-10 {
        fill: #8f6c29;
      }

      .cls-11 {
        clip-path: url(#clip-path);
      }

      .cls-12, .cls-16 {
        fill: #bc7b18;
      }

      .cls-13 {
        fill: #bc6b00;
      }

      .cls-14, .cls-25 {
        fill: #fedcae;
      }

      .cls-14, .cls-15 {
        stroke: #894f1a;
      }

      .cls-14, .cls-15, .cls-16, .cls-18, .cls-27, .cls-28 {
        stroke-miterlimit: 10;
      }

      .cls-16, .cls-27 {
        stroke: #bc7b18;
      }

      .cls-17 {
        fill: #e07e1e;
      }

      .cls-18 {
        stroke: #231f20;
      }

      .cls-19 {
        fill: #f6f6f6;
      }

      .cls-20 {
        fill: #3d3123;
      }

      .cls-21 {
        fill: #894f1a;
      }

      .cls-22 {
        fill: #af6104;
      }

      .cls-23, .cls-24 {
        fill: #f2dcad;
      }

      .cls-23 {
        mix-blend-mode: screen;
        opacity: 0.2;
      }

      .cls-26 {
        fill: #911919;
      }

      .cls-27 {
        fill: #cc821f;
      }

      .cls-28 {
        stroke: #5b2d07;
      }
    </style>
    <linearGradient id="linear-gradient" x1="-12345.17" y1="-77.84" x2="-12410.67" y2="-81.79" gradientTransform="matrix(-1, -0.05, -0.05, 1, -12231.97, -335.23)" gradientUnits="userSpaceOnUse">
      <stop offset="0" stop-color="#563628"/>
      <stop offset="0.15" stop-color="#83593d"/>
      <stop offset="0.3" stop-color="#ab784f"/>
      <stop offset="0.43" stop-color="#c38b5a"/>
      <stop offset="0.5" stop-color="#cc925e"/>
      <stop offset="0.64" stop-color="#c98e5b"/>
      <stop offset="0.78" stop-color="#bf8152"/>
      <stop offset="0.93" stop-color="#ae6d43"/>
      <stop offset="1" stop-color="#a4603a"/>
    </linearGradient>
    <linearGradient id="linear-gradient-2" x1="-12335.31" y1="-86.16" x2="-12409.86" y2="-90.65" xlink:href="#linear-gradient"/>
    <linearGradient id="linear-gradient-3" x1="-12401.85" y1="-107.64" x2="-12315.09" y2="-107.64" gradientTransform="matrix(-1, -0.05, -0.05, 1, -12231.97, -335.23)" gradientUnits="userSpaceOnUse">
      <stop offset="0" stop-color="#542c28"/>
      <stop offset="0.16" stop-color="#452422"/>
      <stop offset="0.45" stop-color="#30181a"/>
      <stop offset="0.73" stop-color="#231116"/>
      <stop offset="0.99" stop-color="#1f0f14"/>
    </linearGradient>
    <linearGradient id="linear-gradient-4" x1="-12410.85" y1="-159.35" x2="-12334.09" y2="-159.35" xlink:href="#linear-gradient-3"/>
    <clipPath id="clip-path">
      <path class="cls-1" d="M158.7,51.52c1.89,9,8.6,42.73-.7,73.46l-3.79,4.08-57.74,2.81L9.23,99.75,15.9,47.07,57.51,35.64Z"/>
    </clipPath>
  </defs>
  <g class="cls-2">
    <g id="Layer_1" data-name="Layer 1">
      <g>
        <g>
          <path class="cls-3" d="M98.16,63.3s1.22,32.13,2.66,52.89,10,20.09,22.2,23.34,29.7,1.44,35.89.39,10.78-6.68,11.51-30.52.34-44.48-4-71.59-37.52-27.94-46.3-22.19C105.08,25.45,103.65,28.88,98.16,63.3Z"/>
          <path class="cls-4" d="M162.47,96.78c-2.45,29.29-5.36,37.57-20.88,39-1.43.13-14.15,2.75-15.56,2.72-13.81-.23-18.6-10.07-20.73-25.14-6.11-43.31,2.23-74,2.23-74,5.4-13.67,11.76-16.52,20.31-18.77s9.45-.49,18.73,1.68c4.17,1-4.81,1.46.56,4.1C158,31.69,164.3,75,162.47,96.78Z"/>
          <path class="cls-5" d="M168.52,124.08s-9,20.33-38.84,11.83c-2.7-.77-5.53,0-8.27.62-9.78,2.38-9.12,2.11-18.32.68,0,0-1.25,4.09,24.84,20.94,3.56,2.3.93,18.55,1.74,24.5.93,6.82,3.19,16.27,7.88,15.89,4.44-.37,13,6.07,16.46-19.25,1-7.43.25-23,4.82-25.66C167.38,148.57,167.73,140.57,168.52,124.08Z"/>
          <path class="cls-6" d="M155,148.35c-4.23,2-5.64,6.7-7.2,12.14-1.72,6-.65,21.36-7.38,19.76S132.3,162.16,131.4,157c-.8-4.5-12.92-4-16.23-5.75-4.94-2.64-5.72-9.7-8.93-12.15,11.87.68,21.1,1.43,27.11.3a86.87,86.87,0,0,1,9.65-.85c21.91-1,24.79-13.57,24.79-13.57,0,.42.08.83.1,1.25C166.23,136.91,161.43,145.32,155,148.35Z"/>
          <path class="cls-7" d="M161.13,133.67c5.64,2.59-61.4,14.24-83.38-5.17,0,0-16.27-9.86,30.8-6.89C152.33,127.66,163.68,122.09,161.13,133.67Z"/>
          <path class="cls-8" d="M77.8,127.06c25.9,16.36,79.07,8.51,83.45,3.61.48.53-.05,2.9-.13,3.25,5.64,2.58-61.4,14.24-83.39-5.18,0,0-3.68-2.23-2.46-4.25A7.25,7.25,0,0,0,77.8,127.06Z"/>
          <path class="cls-9" d="M156.19,136.74c6.18-1.05,10.78-6.68,11.51-30.52s0-39.24-4.39-66.36c-2-12.28-3.14-14.18-10-19.31,8.67,4.74,11.58,7.29,13.92,21.84,4.36,27.12,5.12,42.52,4.39,66.36s-5.33,29.47-11.51,30.52-14.55,4.53-39.9,4.61c-2.78,0-24.58-5.91-26.68-7.69,1.08.52,22,3.2,25.17,3.3C131.13,139.91,150,137.79,156.19,136.74Z"/>
          <path class="cls-10" d="M161.69,126.25s-18.06,16.1-83.89.78c0,0-16.26-9.85,30.81-6.88Z"/>
        </g>
        <g class="cls-11">
          <g>
            <g>
              <path class="cls-12" d="M91.73,87.52h0a28.1,28.1,0,0,1-4,14.62,24.48,24.48,0,0,1-1.58,2.27,25.41,25.41,0,0,1-5.26,4.94c-.32.25-.65.49-1,.74-2.65-.22-4.52,0-8.46-1.64A16.48,16.48,0,0,1,61.16,93.73c-.2-4-.34-7.7-3-11.14A12,12,0,0,0,57,81.37a14.91,14.91,0,0,0-3.6-2.62c.66.65,5.42,5.45,4.61,12.17-.75,6.23-5.73,9.55-7.32,10.61C44,106,34.32,105.68,28.09,102c-10.84-6.45-14.52-24.89-8.47-39.43A33.53,33.53,0,0,1,22.55,57C30.29,45.21,45.15,39.53,58,42c13.5,2.55,21.23,13.34,22.26,14.77,7.82,10.92,5.73,21.17,10,28.68A14.58,14.58,0,0,0,91.73,87.52Z"/>
              <path class="cls-13" d="M100.59,105.55a33.69,33.69,0,0,1-29.14,2.91A25.68,25.68,0,0,0,93.21,83.25a15.81,15.81,0,0,0,2.51,2.45,39.8,39.8,0,0,0,2.1,13.92A32.59,32.59,0,0,0,100.59,105.55Z"/>
              <path class="cls-14" d="M89.61,86c-.66.39-2.57-1.75-3.21-2.46-5-5.51-9.63-18.52-14.58-24.48-8.1-9.76-23.63-8.72-26.41-8.53A38.85,38.85,0,0,0,19.73,63.18a33.38,33.38,0,0,1,2.9-5.56,35,35,0,0,1,35.08-15c13.35,2.55,21,13.34,22,14.78C87.45,68.28,85.39,78.53,89.61,86Z"/>
              <path class="cls-15" d="M89.61,86c-.66.39-2.57-1.75-3.21-2.46-5-5.51-9.63-18.52-14.58-24.48-8.1-9.76-23.63-8.72-26.41-8.53A38.85,38.85,0,0,0,19.73,63.18"/>
              <path class="cls-12" d="M175.58,56.83c.17-.34,4.61-11.09,10-9.46,2.14,1.35-1.55,8.82-1.55,8.82Z"/>
              <path class="cls-16" d="M206.94,81a11.09,11.09,0,0,0-2,.13,18.18,18.18,0,0,0-6.7-1.77l-.58,0h0a42.5,42.5,0,0,0-8.24.37h0a16.46,16.46,0,0,0-2.72.06,9.2,9.2,0,0,0,4.82-7.18c.44-5.37-4.23-10-9.45-10.17s-10.23,4-10.2,9.4c0,5.05,4.51,9,9.29,9.27-.58.21-1.15.45-1.71.69l-.22.1A37.54,37.54,0,0,0,171,87l-.09.06c-1-1.44-2-2.89-3-4.27-7.33,1.72-6.8,9.07-6.75,9.39-7.52-2-3.84-12.17-3.6-12.51-1.72.58-2.92,3.77-3.36,3.77s-.94-3.14,1.69-6.13a14.35,14.35,0,0,0,2.72-2.74h0a19.74,19.74,0,0,0,3.26-8,3.25,3.25,0,0,1,.87-1.3c1.12-1.13,3.3-2.65,7-5.85l.33-.26a15.51,15.51,0,0,1,5.38-2.44,42.06,42.06,0,0,1,8.66-1.29,20.12,20.12,0,0,1,4.67.08c.08.26-1.84,2.25-1.41,2.69s9.55,1.9,15,9.48C205.07,71.27,207.67,76.21,206.94,81Z"/>
              <path class="cls-12" d="M179.33,100.26a.06.06,0,0,0,0,0c-.34-1.32-3.93-7-7.87-12.68,0,0,0,0,0,0l-.2-.28-.08-.12c-1-1.41-2-2.82-2.92-4.16a2.53,2.53,0,0,0-.74-.19c-2.57-.29-4.8,3.64-5.46,4.79a6.29,6.29,0,0,0-.9,2.64,5.88,5.88,0,0,0,.1,1.67,5.17,5.17,0,0,1-2.81-1.25c-2.86-2.63-1.33-8.38-1-9.52.14-.53.28-1,.39-1.26,0-.06.11-.27,0-.33s-.15,0-.22,0a6.57,6.57,0,0,0-1.67,1.28,5.86,5.86,0,0,0-1.43,2.25c0,.08,0,.5-.13.51h0a6.51,6.51,0,0,1-.11-2.15,6.9,6.9,0,0,1,1.88-3.88,13.42,13.42,0,0,0,2.12-1.92c.24-.28.46-.55.67-.81a.17.17,0,0,0-.14,0,.29.29,0,0,0-.08,0l-.63.17a23.13,23.13,0,0,1-7.73.38,5.32,5.32,0,0,1-1.41-.36l-.15-.06c-5.33-2.27-11-12.7-20.53-16.72l-.42-.17c-.38-.15-.76-.29-1.15-.42a20.07,20.07,0,0,0-5-1h-.09a39.13,39.13,0,0,0-7.65.77C98.53,61.25,92.68,70.63,92.68,70.63A26.8,26.8,0,0,0,88.8,82.47a34.91,34.91,0,0,0,1.39,14.66s2.74,8.59,9,14.43l.22.19a21.44,21.44,0,0,0,6.4,4.34,4.84,4.84,0,0,1,2.14,1.46,5.36,5.36,0,0,0-.59.38c-3.55,2.48-5.77,7.74-3.64,9.12a1.42,1.42,0,0,0,.41.2,4,4,0,0,0,2.25,0c6.34-1.56,26.48-.83,26.48-.83a8,8,0,0,0,1.37-.57c3.26-1.82-1-4.3-5.26-6.06l-.72-.29-.32-.13c-1.45-.56-2.81-1-3.78-1.34l-.18,0a34.42,34.42,0,0,0,11.82-3.37v.14c.15,6,0,5.27.16,6s1,4.12,4.13,5.41l.22.09a6.61,6.61,0,0,0,1.56.36,67.57,67.57,0,0,0,9.2.12c1.71-.07,2.94-.14,3.14-.12s.29-.4.2-1.14c-.31-2.29-3-4.29-5.62-5a8.74,8.74,0,0,0-2.5-.27h0v0a19.77,19.77,0,0,1,.88-6.08c.41.09.83.17,1.24.23l.21,0a25.31,25.31,0,0,0,3.32.27c.4,0,.8,0,1.19,0a27.86,27.86,0,0,0,5.36-.67l.1,0c7.4-1.68,12.81-5.91,13.68-7.72a5.36,5.36,0,0,1,.73-1.12c1.82-2.23,5.46-4.09,6.35-4.61h0C179.37,100.44,179.35,100.34,179.33,100.26Z"/>
              <path class="cls-17" d="M161.86,125.3a15.25,15.25,0,0,1-2.72.09c-1.74,0-3.86,0-5-.07-.21-1.41-1.46-3.76-5.78-4.83v-6.27a26.88,26.88,0,0,0,9.9-.34c-1,1.44-2.24,3.85-1.82,6.32C156.52,120.12,161.7,120.8,161.86,125.3Z"/>
              <line class="cls-18" x1="158.66" y1="74.57" x2="158.66" y2="74.57"/>
              <path class="cls-19" d="M184.28,66.25H184c-3.45,0-6.68,2.81-6.65,6.33a6.61,6.61,0,0,0,6.31,6.24,4.14,4.14,0,0,0,.61,0,6.6,6.6,0,0,0,6.42-5.73C191,69.49,187.83,66.39,184.28,66.25Zm-3.62,7.84a4.22,4.22,0,1,1,8.38.32,4.19,4.19,0,1,1-8.38-.32Z"/>
              <path class="cls-20" d="M185,69.58a4.45,4.45,0,0,0-4.37,4.51,4.19,4.19,0,1,0,8.38.32A4.45,4.45,0,0,0,185,69.58Zm1.67,4.27a1.46,1.46,0,0,1-1.31-1.47,1.4,1.4,0,1,1,2.78.11A1.45,1.45,0,0,1,186.7,73.85Z"/>
              <path class="cls-21" d="M158.09,125.43a5.13,5.13,0,0,0-2.87-4.68,6,6,0,0,1,2.56,1.69,5.81,5.81,0,0,1,1.3,2.91l-1,.08Z"/>
              <path class="cls-12" d="M165.11,67.14c0-.13-11.36-6.19-.83-19.75,1.87-2,4.48-.35,5.82,2.85s-.11,11.17-.52,12Z"/>
              <path class="cls-22" d="M166.4,47.39C158.19,58,163.3,64,165.92,66.16l-.89,1c0-.13-11.36-6.19-.83-19.75a2.41,2.41,0,0,1,3-.6A2.91,2.91,0,0,0,166.4,47.39Z"/>
              <path class="cls-21" d="M179.37,100.7a21.47,21.47,0,0,1-12-3.42,21,21,0,0,0,11.93,2.42l0,1Z"/>
              <path class="cls-23" d="M158.55,74.76a8.89,8.89,0,0,1-.64.76,13.73,13.73,0,0,1-2,1.84c-2.57,2.91-2.17,6-1.74,6.13h0c.48-.21,1.65-3.2,3.31-3.76l0,.06,0,0,.1,0c-.17.24-2,5.32-.53,9a1.21,1.21,0,0,0,0,.14l-.08.26s-11.07,1.59-13.9-4.41c-6.19-26.48-37-22.27-37-22.27a13.79,13.79,0,0,0-3.5.15c-.36.06-.71.14-1,.22l.42-.34a33.35,33.35,0,0,1,3.46-1.92c.75-.36,1.38-.62,2.62-1.13a37.8,37.8,0,0,1,4.75-1.71c.16-.05.77-.21,1.58-.38a28.94,28.94,0,0,1,5.45-.63c.92,0,1.6,0,2.09,0a23.14,23.14,0,0,1,4.48.68l.57.19.73.28.42.17c9.49,4,15.2,14.45,20.52,16.71l.16.07a5.23,5.23,0,0,0,1.41.36,23.11,23.11,0,0,0,7.73-.39c.32-.07.62-.16.62-.16S158.59,74.72,158.55,74.76Z"/>
              <path class="cls-24" d="M148.73,109.71s9.08.64,14.25-4.17,9.75-1.67,9.44-.52-3.49,7-14,8.86c-7.87,1.38-10.06.41-11.43,0"/>
              <path class="cls-24" d="M135.41,109.77s-6.95,3.34-12.57,3.74c0-.07-2.67,3.49-3.56,4.27,0,0,4.31.11,4.74.06s9.9-2.16,11.55-3.55C135.51,114.4,135.4,110.42,135.41,109.77Z"/>
              <path class="cls-25" d="M206.69,80.79h-.09a12.2,12.2,0,0,1-4.31-2.35c-3.22-2.74-3.09-5.71-7-10.93a28.84,28.84,0,0,0-5.08-5.4c-6.95-5-17.91-.9-21.25.48l.68-1.07c.08-.36.17-.72.25-1.09s.15-.71.22-1.06a8.54,8.54,0,0,1,1-.8A9.94,9.94,0,0,1,175.22,57h0a5.19,5.19,0,0,0,.71-.17c.79-.16,1.66-.31,2.65-.46.75-.12,1.54-.22,2.35-.31s1.83-.19,2.68-.24,1.49-.12,2.31-.13,1.71,0,2.47.06a13.1,13.1,0,0,0-1.06,1.73,1.12,1.12,0,0,0-.11.48,1.07,1.07,0,0,0,.06.27c.17.48,2.23,1,2.74,1.12l2.27.89a24.64,24.64,0,0,1,9.81,7.07l.12.16C204.82,71.05,207.42,76,206.69,80.79Z"/>
              <path class="cls-15" d="M206.54,80.79h-.09a12.2,12.2,0,0,1-4.31-2.35c-3.22-2.74-3.09-5.71-7-10.93a28.51,28.51,0,0,0-5.08-5.4c-6.94-5-17.9-.9-21.24.48l.68-1.07.24-1.09c.08-.36.15-.71.22-1.06a9.46,9.46,0,0,1,1-.8A10,10,0,0,1,175.06,57h0a5.19,5.19,0,0,0,.71-.17c.78-.16,1.66-.31,2.65-.46.75-.12,1.53-.22,2.35-.31s1.82-.19,2.68-.24,1.48-.12,2.31-.13,1.7,0,2.46.06a14.35,14.35,0,0,0-1.06,1.73,1,1,0,0,0-.1.48.85.85,0,0,0,.05.27c.17.48,2.23,1,2.75,1.12l2.27.89a24.55,24.55,0,0,1,9.8,7.07l.12.16C204.67,71.05,207.27,76,206.54,80.79Z"/>
              <path class="cls-13" d="M104.39,127.39a2.89,2.89,0,0,1-1.37-1h0c-1-1.92,1-6.24,4.11-8.41.19-.14.38-.26.57-.38a4.74,4.74,0,0,0-2.08-1.44,21.12,21.12,0,0,1-6.34-4.38l-.13-.13c-8.18-8-10-19.87-10-19.87a29,29,0,0,1,1.15-15.7,23.67,23.67,0,0,1,4.62-7.84,23.24,23.24,0,0,1,7-5.33c-9.72,19.16-4.55,37.79,5.71,42.87,8.22,4.06,18.44-1.2,20.73-2.44a41.05,41.05,0,0,1-3.13,6.94,40.52,40.52,0,0,1-5.87,7.9c4.29,3,6.24,3.75,7.19,3.81a13,13,0,0,1,1.57.21,12.7,12.7,0,0,1,2,.6c1.35.55,4,2.11,3.81,3s-3.28.84-7.61,1.14C126.33,127,107.05,128.35,104.39,127.39Z"/>
              <path class="cls-21" d="M168,82.79a8.73,8.73,0,0,0-6.33,10A6.62,6.62,0,0,1,156.13,87a14.36,14.36,0,0,1,1.09-7.63l.54.72c-1.13.38-2,2-2.74,3.06-.2.24-.33.53-.69.63s-.7-.42-.72-.59a7.15,7.15,0,0,1,2.15-6c.89-.74,1.77-1.49,2.59-2.3a5.09,5.09,0,0,0,.73-.88,4.72,4.72,0,0,1-.64,1,33.61,33.61,0,0,1-2.37,2.5c-1.28,1.48-2.19,4-1.73,5.62a.43.43,0,0,0-.17,0s-.11.06-.08,0c.38-.49.66-1.08,1-1.62a5.28,5.28,0,0,1,2.34-2.23l.7-.28L158,80c-1.55,4-1.88,10.49,3.34,11.82l-.52.46c-.3-4.46,2.7-8.83,7.23-9.44Z"/>
              <path class="cls-21" d="M165.68,66a.5.5,0,0,0,.12.48,1.6,1.6,0,0,0-.19-.16c-6-4.8-4.36-12.75-.28-18.23,1-1.34,2.74-.91,3.64.31a6,6,0,0,1,1.42,3.69,51.51,51.51,0,0,1-.65,7.84,51.38,51.38,0,0,0,.41-7.83,5.81,5.81,0,0,0-1.45-3.47c-.77-1-2.2-1.41-3-.25-3.62,5.14-5.26,12.83.55,17.17l.28.23a.52.52,0,0,1,.12.49l-1-.27Z"/>
              <path class="cls-21" d="M146.46,113.82a23.82,23.82,0,0,1,6.61-10,23.32,23.32,0,0,0-5.65,10.26l-1-.28Z"/>
              <path class="cls-21" d="M141,98.5c-5.24,4.62-4.61,12.62-5.09,19L135.5,115c-.52-5.56-.08-13.5,5.46-16.46Z"/>
              <path class="cls-21" d="M125.05,86.19c5.13,4.78,5.76,12.82,3.25,19.1a35.39,35.39,0,0,1-5.9,9.62c-1.05,1.09-2.06,2.19-3.12,3.25.89-1.21,1.82-2.37,2.73-3.55,6.14-8.28,10.18-19.44,3-28.42Z"/>
              <path class="cls-21" d="M45.68,97.25c-7.79.23-15.95-4.56-18.13-12.36-2.17-7.6.28-16.55,6.61-21.47,9.25-7.74,24.91-5.74,31.81,4.17,6.09,8.6,5.14,20.33,11.47,28.74a16.32,16.32,0,0,0,9.74,5.82,16.19,16.19,0,0,1-10-5.59C70.55,88.3,71.3,76.63,65.24,68.1c-6.66-9.4-21.62-11.27-30.51-4a19.1,19.1,0,0,0-7.06,13c-1.66,11.2,7,19.91,18,20.1Z"/>
              <path class="cls-21" d="M98.31,106.92c-11.58,5.92-29.46,6.21-36.06-7a20.26,20.26,0,0,1-2-10A12.25,12.25,0,0,0,56.3,81.4c-5.9-6-20.81-4-17.86,6.66,1,4.33,9.17,4.91,9.15-.2-.09-2.5-3.31-3.1-5.08-1.83a4,4,0,0,1,3.22-.66c2.57.55,2.76,4.14.82,5.58a6,6,0,0,1-6.6.1c-3-2.09-3.18-6.54-1.56-9.56,3.71-6,13.9-5.34,18.56-.79a13,13,0,0,1,4.26,9.22,19.37,19.37,0,0,0,1.85,9.58c6.41,12.88,23.72,12.64,35.25,7.42Z"/>
              <path class="cls-21" d="M150.42,126.7a.87.87,0,0,1-.06-.45c.11-2.44-2.71-3.39-4.69-3.84,2.25.16,5.24.92,5.62,3.55l0,.25c0,.05.06.24,0,0l-.88.48Z"/>
              <path class="cls-21" d="M133.73,125.86a10.17,10.17,0,0,0-7.49-4.32,11.07,11.07,0,0,1,6.57,2.09,8.8,8.8,0,0,1,1.74,1.66l-.82.57Z"/>
              <path class="cls-22" d="M185.38,48.22c-4.44-1.41-8.21,6.72-9.14,8.87l-.62,0c.16-.34,4.33-11,9.37-9.37A1.31,1.31,0,0,1,185.38,48.22Z"/>
              <path class="cls-14" d="M182.25,62.42h-.46a10.11,10.11,0,0,0-9.74,7.69c0,.08,0,.15-.05.23,0,.23-.07.47-.09.71s0,.52,0,.78,0,.47,0,.7L172,73l0,.23c.75,4.29,4.77,7.51,9.08,7.86l.23,0h0a23.19,23.19,0,0,1,5.61-1.32h0l0,0,.09,0a9.17,9.17,0,0,0,4.77-7.1C192.3,67.22,187.55,62.63,182.25,62.42Zm-5,10.16c0-3.54,3.27-6.35,6.77-6.33h.22c3.56.14,6.77,3.24,6.46,6.85-.27,3.26-3.28,5.58-6.41,5.73a4.14,4.14,0,0,1-.61,0s0,0-.07,0C180.33,78.64,177.27,76,177.24,72.58Z"/>
              <path class="cls-12" d="M192,87.24h0l-.06,0a9.68,9.68,0,0,0-1.41.08h0a18.39,18.39,0,0,0-5.71,1.9c-1.12.52-1.13,8.2-1.11,10.42l-.6.1a31.77,31.77,0,0,1-4,.43h-.11c.07-.41-1-2.38-2.65-5.08-.07-.11-.14-.22-.2-.33-1.41-2.29-3.21-5-5.08-7.82a.25.25,0,0,0,0-.07,38.59,38.59,0,0,1,8.37-5l.22-.1c.59-.25,1.2-.49,1.83-.71h0A23.62,23.62,0,0,1,187,79.8h0a16.5,16.5,0,0,1,4.43.18,2.16,2.16,0,0,1,1,.56l.16.15C194.08,82.08,195.67,85.21,192,87.24Z"/>
              <g>
                <path class="cls-26" d="M195.56,83.29c-6.46-3.51-14.08-4.16-21.27-3.14a41.82,41.82,0,0,1,10.94-.64,29.73,29.73,0,0,1,10.5,2.78l0,0-.21,1Z"/>
                <path class="cls-26" d="M196.08,85.67c-5.6-3.06-12.22-3.66-18.48-2.79a31.65,31.65,0,0,1,16.58.91,21.14,21.14,0,0,1,2.09.89h0l-.21,1Z"/>
                <path class="cls-26" d="M194.82,87.64c-4.9-2.7-10.69-3.25-16.17-2.5a27,27,0,0,1,15.53,1.13l.85.38s-.21,1-.21,1Z"/>
              </g>
              <path class="cls-15" d="M148.37,114.34a27.24,27.24,0,0,0,10.15-.51"/>
              <path class="cls-15" d="M96.11,108A35.09,35.09,0,0,1,90.9,98.6a36,36,0,0,1-2.29-14.19l.24-3.19"/>
              <path class="cls-15" d="M148.48,114.36v6.15l-.08,0-.08,0a17.94,17.94,0,0,0-2.24-.38h0v0A20,20,0,0,1,147,114l.14,0,.65.12C148.14,114.23,148.48,114.36,148.48,114.36Z"/>
              <path class="cls-27" d="M177.35,56.15c.13-.24,3.28-7.86,7.08-6.71,1.53,1-1.1,6.26-1.1,6.26Z"/>
              <path class="cls-1" d="M177.13,56.15c.12-.24,3.27-7.86,7.07-6.71,1.53,1-1.09,6.26-1.09,6.26Z"/>
              <path class="cls-15" d="M175.12,56.83a64.69,64.69,0,0,1,9.38-1.35"/>
              <path class="cls-27" d="M166.09,63.42c0-.08-7.26-4-.53-12.62,1.19-1.26,2.86-.22,3.72,1.82s-.07,7.14-.33,7.66Z"/>
              <path class="cls-1" d="M166.07,63.73c0-.09-7.26-4-.53-12.62,1.18-1.27,2.86-.23,3.71,1.82s-.07,7.14-.33,7.66Z"/>
            </g>
            <path class="cls-28" d="M207.92,81.14c-.2,0-.4-.06-.6-.08,0,0,.19,0,.15,0,.7-4.82-1.9-9.8-4.51-13.43-5.51-7.64-14.44-9.13-14.88-9.58-.06-.06-.21,0-.19-.08a4.69,4.69,0,0,1,.51-1c.44-.65,1.21-1.39.84-2a22.22,22.22,0,0,0-4.46-.08c.88-2,2.71-6.6,1-7.69a3.9,3.9,0,0,0-2.32,0c-4.09,1-7.26,7.63-7.83,8.92a21.74,21.74,0,0,0-3,1.11c-.22.1-.44.21-.67.34a10.83,10.83,0,0,0-1.41.87,29.94,29.94,0,0,0,.33-3.7,12.41,12.41,0,0,0-.54-4.67c-.95-2.27-2.53-3.75-4-3.74a2.36,2.36,0,0,0-1.56.57,3.66,3.66,0,0,0-.43.38c-7.26,9.41-4.1,15.24-1.45,18-.6-.2-1.32.83-1.23,1.26,0,0-1.5,5.37-3.15,7.77,0,0-.22.39-.44.44a22.7,22.7,0,0,1-7.71.39,5.26,5.26,0,0,1-1.4-.36l-.16-.07c-5.31-2.28-11-12.79-20.47-16.84l-.42-.17c-.38-.16-.76-.3-1.15-.43a20.4,20.4,0,0,0-5-1h-.09a39.07,39.07,0,0,0-7.63.78c-10.71,2.72-16.83,8.17-19.81,11.63a19.85,19.85,0,0,0-1.56,2c-.49.71-.73,1.14-.73,1.14a25.23,25.23,0,0,0-1.84,4.42A28.51,28.51,0,0,0,89,81a1.43,1.43,0,0,1-.16.42c-.63,9.16.81,17.94,7.1,26.93l.25.32a30.26,30.26,0,0,0,2.95,3.41l.13.12a21.07,21.07,0,0,0,6.36,4.42,4.67,4.67,0,0,1,1.89,1.25l-.22.14a11.68,11.68,0,0,0-3.78,4.87c-4.22,6.36,7,5.1,12.84,4.86,3.16-1.78,6.85-.38,9.92-.69,3.57-.22,6.45.09,6.89-.65.12,0,.5-.26.6-.32a6.8,6.8,0,0,0,.74-.32c.81-.64,1.16-1.14.67-1.85-.74-1.37-3.48-2.81-6.19-4l-.71-.3-.32-.12c-1.24-.49-2.41-.9-3.32-1.21A34.54,34.54,0,0,0,135.75,115l0,.81c.09,4.25,0,4.43.08,4.85a2.41,2.41,0,0,0,.09.55c.14.69,1.51,4.88,5.86,5.48,2.8.32,12.36,0,12.39,0s.36-.14.26-.83c0,0,0-.46-.05-.48,1,0,7.47,0,7.51-.09a1.79,1.79,0,0,0,0-.68c-.85-3.34-5-4.47-5.39-4.47-.51-1.15.92-5.64,1.73-6.1,0,0,3.31-.77,4.62-1.28a32.31,32.31,0,0,0,6.29-3.42l.81-.69a9.07,9.07,0,0,0,2.15-2,4.93,4.93,0,0,1,.6-1.16,12.77,12.77,0,0,1,1.56-1.77,35,35,0,0,1,4.8-3s.33-.36.31-.44c1.16,0,4.39-.66,4.39-.66a3.5,3.5,0,0,0,1.16,1.56,3.44,3.44,0,0,0,2.33.67,15.79,15.79,0,0,0,6.07-2.11c.2-.18.77-.67,1-.89a7.26,7.26,0,0,0,1.59-3.24c.25,0,1-.08,1.36-.12h.08a3.42,3.42,0,0,0,1.06-.72c.3-.25.75-.7,1-.88a34.14,34.14,0,0,0,5-6.29C207.13,85.54,210.56,81.37,207.92,81.14Z"/>
          </g>
        </g>
      </g>
    </g>
  </g>
</svg>
