<svg id="Layer_1" data-name="Layer 1" xmlns="http://www.w3.org/2000/svg" xmlns:xlink="http://www.w3.org/1999/xlink" width="94.59" height="98.53" viewBox="0 0 94.59 98.53">
  <defs>
    <style>
      .cls-1 {
        fill: none;
      }

      .cls-2 {
        clip-path: url(#clip-path);
      }

      .cls-3 {
        fill: #6bba2d;
      }

      .cls-4 {
        fill: #4aa311;
      }

      .cls-5 {
        fill: #032616;
      }

      .cls-6 {
        fill: #011c24;
      }

      .cls-7 {
        fill: #042f33;
      }

      .cls-8 {
        opacity: 0.5;
        fill: url(#linear-gradient);
      }

      .cls-9 {
        fill: #3d3123;
      }

      .cls-10 {
        fill: #ffe8e2;
      }

      .cls-11 {
        fill: #894f1a;
      }

      .cls-12 {
        fill: #bc7b18;
      }

      .cls-13 {
        fill: #8e4713;
      }
    </style>
    <clipPath id="clip-path">
      <rect class="cls-1" x="-1994.65" y="-2380.53" width="1280" height="720"/>
    </clipPath>
    <linearGradient id="linear-gradient" x1="-4026.46" y1="-4158.43" x2="-3972.63" y2="2342.5" gradientUnits="userSpaceOnUse">
      <stop offset="0.46" stop-color="#fff" stop-opacity="0"/>
      <stop offset="0.5" stop-color="#fef9e8" stop-opacity="0.21"/>
      <stop offset="0.55" stop-color="#fef4d3" stop-opacity="0.39"/>
      <stop offset="0.6" stop-color="#fdf0c1" stop-opacity="0.56"/>
      <stop offset="0.65" stop-color="#fdecb2" stop-opacity="0.69"/>
      <stop offset="0.7" stop-color="#fde9a6" stop-opacity="0.81"/>
      <stop offset="0.76" stop-color="#fce79c" stop-opacity="0.89"/>
      <stop offset="0.82" stop-color="#fce595" stop-opacity="0.95"/>
      <stop offset="0.89" stop-color="#fce491" stop-opacity="0.99"/>
      <stop offset="1" stop-color="#fce490"/>
    </linearGradient>
  </defs>
  <g class="cls-2">
    <path class="cls-3" d="M-7613.58-244.64s499.32,33.16,649.1,31.18,531.65-9.19,573.1-9.47,541.44,23.65,722.06,25.92c663.28,8.34,1958.07-36,3137.17-55.4,1347-22.15,2546.74-20.42,2546.74-20.42L5.72,31.51l-8165.23-3.39,35.91-284.74Z"/>
    <path class="cls-4" d="M-8062.6-206.72s397.52-20.72,896.61,46.25,1502.27,2.54,2003,2C-4640.65-159-3597.77-77-3075.47-72.66c768.54,6.36,3072-118.47,3072-118.47L12.87,70.32l-8128.2,6.36Z"/>
    <g>
      <path class="cls-5" d="M-495.34,24.85l7-42s756.26-26,867.26-18c0,0-6-21-17-24,0,0,25-3,27,24,0,0,0-40-16-47,0,0,39,6,36,47l182,8s-11-11-18-14c0,0,20-7,31,6,0,0-13-31-21-35,0,0,22.25-2,28.12,30,0,0,19.88-17,25.88-14.5,0,0-22,26.5-18,27.5,0,0,722.35,20.46,857.35,27.46V53.69Z"/>
      <g>
        <path class="cls-6" d="M-226,18.66s-154.53-33.1-153.42-66.3S-250-24-199.47,9.11c-147.12-137.43-71.17-59.33-112.6-105.84s3.58-69.59,77.47.9C-175.42-27.46-158-7.46-158-7.46s-43.14-92.76-60-141.81,38.18-81.69,80.73,3.88c9.37-26.9,10.22-29.56,10.22-29.56s-12.63,40.54.33-6.86,65.5-18.87,36.3,50.65c31.71-25.42-10,3.39,34.46-21.79s98.86,3.34,41.54,60.53-39.76,41.1-39.76,41.1L-94.33-15.67,11.89-51C84.58-69.78,115.82-44,33.63-3.53-19.45,17.23-64.49,32.9-64.49,32.9s45.29-.5,119-3.88S127.33,74.6,43.38,73.34C-54.22,52.74-226,18.66-226,18.66"/>
        <g>
          <path class="cls-7" d="M-115.36,20.1,61.42-42.1S-90.21,19-115.36,20.1"/>
          <path class="cls-7" d="M-98.4,39.2S50.05,48.27,73.11,45.28,8.8,55.68-98.4,39.2"/>
          <path class="cls-7" d="M-49.45.31,9.06-.83S-21.73-6-49.45.31"/>
          <path class="cls-7" d="M-13.81,43.71s40.34-9.77,51.87-9.21-26.85,7.15-51.87,9.21"/>
          <path class="cls-7" d="M3.89,47.52s57,14.95,65.77,14.18-56.37-14-65.77-14.18"/>
          <path class="cls-7" d="M-46.83,45.17l55.21,17s-35.8-15.25-55.21-17"/>
        </g>
      </g>
    </g>
    <rect class="cls-8" x="-8066.58" y="-2737.43" width="8127.09" height="2814.71"/>
    <rect class="cls-1" x="-8066.58" y="-2737.43" width="8127.09" height="2814.71"/>
  </g>
  <g>
    <path class="cls-9" d="M45.81,51.81a4.76,4.76,0,0,0,.45,2h0c.25.32.48.58.67.79a25,25,0,0,1,6.74.62,4.74,4.74,0,0,0,1.39-2.82h0c0-.43,0-.88,0-1.36h0a4.64,4.64,0,0,0-9.24.74Zm1.69-.46a1.23,1.23,0,1,1,1.23,1.26A1.25,1.25,0,0,1,47.5,51.35Z"/>
    <path class="cls-1" d="M47.46,51.41a1.23,1.23,0,1,0,1.23-1.27A1.25,1.25,0,0,0,47.46,51.41Z"/>
    <path class="cls-10" d="M43.83,47.52a10.67,10.67,0,0,0,2.43,6.34A4.65,4.65,0,1,1,55,51.13a10.39,10.39,0,0,0-2.32-6.38c-1.65-1.93-5-4-7.08-2.69C43.74,43.27,43.81,46.62,43.83,47.52Z"/>
    <path class="cls-11" d="M55.05,51.08a10.25,10.25,0,0,0-5.38-8.51c-7.19-3.64-6.5,7.84-3.25,11.15l0,.14,0-.14.67.79-.17-.07a24.57,24.57,0,0,1,6.78.73l-.11,0A4.68,4.68,0,0,0,55,52.45l0-1.37Zm0,0,.05,1.37a4.88,4.88,0,0,1-1.39,2.94,25.26,25.26,0,0,0-6.77-.53h-.1l-.06-.07-.69-.8L46,53.85l.05.14c-3.67-3.66-4-15.75,3.77-11.77a10.18,10.18,0,0,1,5.19,8.86Z"/>
    <path class="cls-11" d="M38.78,56.55A23.32,23.32,0,0,1,55.66,56a22.77,22.77,0,0,0-16.58,1.29l-.3-.69Z"/>
  </g>
  <g>
    <path class="cls-12" d="M53.74,46.29a8.4,8.4,0,0,0-1.05-1.54c-1.65-1.93-5-4-7.08-2.69-1.87,1.21-1.8,4.56-1.78,5.46a8.26,8.26,0,0,0,.26,2C45.33,48,48.35,45.23,53.74,46.29Z"/>
    <path class="cls-13" d="M53.74,46.29c-1.53-2.23-4.36-4.52-7.12-4.17-2.66.75-2.49,5.05-2.07,7.29l-.83-.18a9.4,9.4,0,0,1,10-2.94Zm0,0a9.88,9.88,0,0,0-9.28,3.53l-.57.74c-.9-2.87-1.17-8.41,2.56-9.29,3.18-.29,6,2.34,7.29,5Z"/>
  </g>
</svg>
