<svg xmlns="http://www.w3.org/2000/svg" xmlns:xlink="http://www.w3.org/1999/xlink" width="94.59" height="98.53" viewBox="0 0 94.59 98.53">
  <defs>
    <style>
      .cls-1 {
        fill: none;
      }

      .cls-2 {
        isolation: isolate;
      }

      .cls-3 {
        clip-path: url(#clip-path);
      }

      .cls-4 {
        fill: #0e7f2e;
      }

      .cls-5 {
        fill: url(#linear-gradient);
      }

      .cls-6 {
        fill: #71cd33;
      }

      .cls-7 {
        fill: #6bba2d;
      }

      .cls-8 {
        fill: #4aa311;
      }

      .cls-9 {
        fill: #011c24;
      }

      .cls-10 {
        opacity: 0.5;
        fill: url(#linear-gradient-2);
      }

      .cls-11 {
        clip-path: url(#clip-path-2);
      }

      .cls-12 {
        fill: #0c4c29;
      }

      .cls-13 {
        mix-blend-mode: multiply;
        opacity: 0.43;
        fill: url(#linear-gradient-3);
      }

      .cls-14 {
        fill: #3d3123;
      }

      .cls-15 {
        fill: #ffe8e2;
      }

      .cls-16 {
        fill: #894f1a;
      }

      .cls-17 {
        fill: #bc7b18;
      }

      .cls-18 {
        fill: #8e4713;
      }
    </style>
    <clipPath id="clip-path">
      <rect class="cls-1" x="-1994.65" y="-2146.24" width="1280" height="720"/>
    </clipPath>
    <linearGradient id="linear-gradient" x1="-4025.58" y1="286.18" x2="-4025.58" y2="-3928.17" gradientUnits="userSpaceOnUse">
      <stop offset="0.2" stop-color="#ffffca"/>
      <stop offset="0.67" stop-color="#9edcff"/>
      <stop offset="1" stop-color="#4e9dff"/>
    </linearGradient>
    <linearGradient id="linear-gradient-2" x1="-4026.46" y1="-3924.13" x2="-3972.63" y2="2576.8" gradientUnits="userSpaceOnUse">
      <stop offset="0.46" stop-color="#fff" stop-opacity="0"/>
      <stop offset="0.5" stop-color="#fef9e8" stop-opacity="0.21"/>
      <stop offset="0.55" stop-color="#fef4d3" stop-opacity="0.39"/>
      <stop offset="0.6" stop-color="#fdf0c1" stop-opacity="0.56"/>
      <stop offset="0.65" stop-color="#fdecb2" stop-opacity="0.69"/>
      <stop offset="0.7" stop-color="#fde9a6" stop-opacity="0.81"/>
      <stop offset="0.76" stop-color="#fce79c" stop-opacity="0.89"/>
      <stop offset="0.82" stop-color="#fce595" stop-opacity="0.95"/>
      <stop offset="0.89" stop-color="#fce491" stop-opacity="0.99"/>
      <stop offset="1" stop-color="#fce490"/>
    </linearGradient>
    <clipPath id="clip-path-2">
      <rect class="cls-1" x="-1994.65" y="90" width="1280" height="720"/>
    </clipPath>
    <linearGradient id="linear-gradient-3" x1="7558.61" y1="-2224.99" x2="7669.37" y2="-1786.75" gradientTransform="matrix(-0.77, 0.07, 0.01, 0.99, 5777.11, 1173.69)" gradientUnits="userSpaceOnUse">
      <stop offset="0" stop-color="#96880c"/>
      <stop offset="0.31" stop-color="#002405"/>
      <stop offset="0.62" stop-color="#000b00"/>
      <stop offset="1" stop-color="#596b00"/>
    </linearGradient>
  </defs>
  <g class="cls-2">
    <g id="Layer_1" data-name="Layer 1">
      <g class="cls-3">
        <g>
          <path class="cls-4" d="M21.22,28s-5.1-4.12,8.33-13.06S19.8,12.54,9,28C9,28,6.59,12.22,16,.78,16,.78,2.22,8.38-4.43,28c0,0,6.82-24.27-16-38.22,0,0,14.21,33,6.07,39.16Z"/>
          <path class="cls-4" d="M1,28.72S-1.16,10.62,18.31,3.1A43.94,43.94,0,0,0-14.33,28.72S-2.78,11.08-25.65-.83c0,0,11,20.06-3.34,29.55C-29,28.72-11.88,39,1,28.72Z"/>
        </g>
        <path class="cls-5" d="M-8066.23-90.76c2487.49,398.62,5210.4,342.31,8081.29,0V-2494.43H-8066.23Z"/>
        <path class="cls-6" d="M-7764.76-154.63s2581.27-1.66,4403,15.36c1298,12.14,3395.73,9.21,3395.73,9.21L43.19,218l-8211.87,14.3Z"/>
        <path class="cls-7" d="M-7613.58-10.34s499.32,33.15,649.1,31.18,531.65-9.2,573.1-9.47S-5849.94,35-5669.32,37.29c663.28,8.33,1958.07-36,3137.17-55.4C-1185.17-40.27,14.59-38.54,14.59-38.54L5.72,265.8l-8165.23-3.38,35.91-284.75Z"/>
        <path class="cls-8" d="M-8062.6,27.57S-7665.08,6.86-7166,73.82s1502.27,2.55,2003,2c522.31-.55,1565.19,81.46,2087.49,85.78C-2306.93,168-3.47,43.17-3.47,43.17L12.87,304.61-8115.33,311Z"/>
        <path class="cls-9" d="M-226,253s-154.53-33.09-153.42-66.3S-250,210.27-199.47,243.41C-346.59,106-270.64,184.08-312.07,137.56s3.58-69.58,77.47.91c59.18,68.36,76.63,88.36,76.63,88.36S-201.11,134.07-218,85s38.18-81.69,80.73,3.89C-127.88,62-127,59.34-127,59.34s-12.63,40.55.33-6.85,65.5-18.87,36.3,50.64c31.71-25.42-10,3.39,34.46-21.79s98.86,3.34,41.54,60.54S-54.16,183-54.16,183l-40.17,35.65L11.89,183.28c72.69-18.77,103.93,7,21.74,47.48-53.08,20.77-98.12,36.43-98.12,36.43s45.29-.5,119-3.88,72.86,45.59-11.09,44.32C-54.22,287-226,253-226,253"/>
        <rect class="cls-10" x="-8066.58" y="-2503.14" width="8127.09" height="2814.71"/>
        <rect class="cls-1" x="-8066.58" y="-2503.14" width="8127.09" height="2814.71"/>
      </g>
      <g class="cls-11">
        <g>
          <path class="cls-12" d="M-964.74-302.94c9.31-15.83,53.89-10.44,100,11.88-14.18-15.53-19.91-31.5-12.78-36.17,6.31-4.23,20.8,2,34.4,13.94a166.83,166.83,0,0,1-7.12-18c-13.1-39.89-7.94-74.6,11.52-77.62,17.73-2.77,41.1,21.86,55,56.4,2.74-28.65,15.75-49.57,30.71-48,.64.11,1.17.27,1.71.38-27.27-36.08-36-71.34-19.15-80.33,17.61-9.43,56.64,13.55,87,51.34a7.72,7.72,0,0,0,1.19,1.4c-1-3.14-1.76-6.46-2.56-9.72-11.16-49.07-.68-90.33,23.49-92.28,18.22-1.42,39.07,20.21,53,52.12l-.07-.38c-2.49-32.34,8.54-58.16,24.66-57.65,9,.23,17.79,8.8,24.11,22,1-4.09,3-7,6.32-8,5.69-1.7,13.7,2.55,21.32,10.35-.43-14.23,4.21-24.91,11.94-25.2,4.13-.17,8.53,2.76,12.3,7.67-12.26-27.77-12.13-51.83,1.46-56.32,10.5-3.38,26.25,5.72,40.79,22.09-2.63-25.3,5.06-45.46,17.76-45.6,7.65-.11,15.38,6.8,21.32,17.7-.74-22,6.49-38.45,18.19-38.8s24.21,15.83,30.48,37.92a81.64,81.64,0,0,1,6.72-15.69c12-21.86,31.13-35.35,42.68-30.17,2.25-16.81,9.67-28.51,19.56-28.34,9.65.21,19.08,11.77,24.55,28.29,2-10.68,7.05-17.81,13.58-17.69,6.24.11,12.27,6.86,16.31,16.8,5.7-.49,14.1,3.78,22.69,11.08-8.08-16.06-8.94-29.19-.76-32.72s23.59,3.85,38.54,17.55c5.88-8.47,32.73-3.58,59.95,11a160,160,0,0,1,17.85,11.06c-9.41-16.82-12.33-31.71-7.86-38.94l28.5,3.16A112.38,112.38,0,0,1-73.8-636.68c-2.12-7.2-2.37-13.29-.63-17.44l31,3.43a121.2,121.2,0,0,1,24.63,24.37c-.06-8.45,1.22-15.66,3.62-21.24L25.88-643a116,116,0,0,1,17.89,31.38c-.56-5.56.93-9.54,4.64-10.8,6.81-2.44,19,5,29.76,17.4.47-9.34,4-15.7,10.18-16.22,3.59-.32,7.56,1.44,11.49,4.61-2.52-7.29-3.36-13.61-2.46-18.46l44.21,4.83a162.17,162.17,0,0,1,27.66,27.4l.15.14A128.48,128.48,0,0,1,162.1-628q43.5,4.77,87,9.52a237.78,237.78,0,0,1,16.81,23.83c2,3.08,3.72,6.16,5.39,9.28,0,0,0-1.13-.09-1.7A136.19,136.19,0,0,1,272-616q37.8,4.15,75.62,8.27a151.4,151.4,0,0,1,4.17,22,4,4,0,0,1,1.05-.88c11.65-6.63,39,6.84,63.43,30.47-7.42-17.26-10.87-33.18-10.3-45.24l61.47,6.71A178.28,178.28,0,0,1,489.59-561,176.21,176.21,0,0,1,497.42-543c2.41-15,10-25.27,18.66-23.88,9.68,1.54,17.15,17.18,17,35.33,22.16-35,56.25-55,76.49-44.68,18.85,9.63,19,42.24,1.43,75.3,14.41-15.3,31.63-22.69,42.45-17,13.59,7.2,12,32.16-3.45,55.75a24.68,24.68,0,0,1-2,2.88c.64-.27,1.2-.48,1.2-.48,34.51-11.19,68.57-9.72,76.85,3,7.18,11.09-7.65,27.13-34,38.36,28.35-3.31,53.93,1.93,58.17,12.4,3.69,9-9.73,19-31.41,24.71,16.41,6.76,27.36,15.34,26.16,21.86-1,5.09-9.28,7.67-21.12,7.57,24.48,9.18,41.26,22,39.11,30.77s-21.86,10.59-46.44,5.54c36.49,20.3,59.32,44.89,51.88,57.22-6,10.08-30.6,9.05-60.34-1,22.24,12.68,35.6,26.71,32,35.76-4.6,11.5-35,10.78-69.7-1,.45.47.83.88,1.19,1.33,20.28,24.36,27.56,48.42,16.26,53.87-9.14,4.35-27.62-4.8-45.1-21.25a99.45,99.45,0,0,1,1.46,13.92c1.26,31.81-11.42,56.09-28,54.22-14.66-1.68-27.51-22.71-31.34-49.23a76.27,76.27,0,0,1-8.68,10.67c-16,16.26-36.91,23.89-46.61,17.09-7-4.87-6.36-15.7.19-27.38-18.75,5-36.14,3.72-41.23-3.46-3.46-5-.23-11.58,7.5-17.84-17.48,2.71-33,.28-36.58-6.36l-.08-.13c-12.25,9.73-25.57,13.74-33.25,8.94-5.09-3.17-6.69-9.68-5.05-17.55-7.77,12.8-18.26,19.94-27.49,17.06-9.48-2.89-14.87-15.76-14.45-31.75-3.68,7.79-9.23,12.25-15.59,11.57-11.87-1.29-22.31-20.28-23.72-42.81-1.65,1.84-3.43,3.6-5.21,5.43-23.19,22-52.74,31.83-66.06,22.08-4.45-3.32-6.43-8.48-6.33-14.75-4,3.68-8.32,5.4-12.49,4.31a11.56,11.56,0,0,1-4.57-2.51c3,13.77.74,24-7.06,25.79-6.92,1.54-16.58-4-25.85-13.81,3.42,21-1.43,36.78-12.92,37.84-7.81.6-17.07-5.68-25.3-16.15-1.73,4.41-4.64,7.09-8.63,7.46-3.29.28-7-1.1-10.59-3.8,4.82,15.16,3.41,26.94-4.87,29.4s-21.39-4.84-33.72-17.66c-.53,9.26-3.92,15.69-9.49,16.7,14.23,21.75,18,40.35,7.6,46.43-8.79,5.13-25.73.16-44.48-11.66,4.23,18.38.28,33.07-9.24,33.5-7.66.36-16.78-8.74-23-21.91-.94,2.45-43.78-11.37-44.88-9.3,0,0-23,52.62-38,53.93-12.43,1.1-38.95-39.82-38.95-39.82-2.52-1.29-41,7.79-43.65,6,4.83,13.45,4.06,24.4-2.83,26.77-8.44,2.88-23.18-8.41-33.77-25.53-6.92,16.57-17.54,26.66-29.09,25.37-13.58-1.6-24.72-18.8-29.35-42.37-5.5,1.08-13.35-3.28-21.06-11-.63,15.23-6.13,26-15.12,26.83s-19.28-8.84-26.94-23.56c-1,3.58-3,6.08-6.12,6.94-3.63,1.08-8.34-.24-13.12-3.39,1,11.82-2,20.41-9.26,22.55-10.56,3.13-27-8.72-40.23-27.89-.4,11.53-4.39,19.68-11.45,20.78-8.08,1.21-18-6.81-26-19.66a6.08,6.08,0,0,1-1.94,3.71c-2.82,2.38-7.89,2.48-14.14.67,5,5.24,7.29,10.43,6,14.8-3.81,12.94-36.76,14.68-73.57,3.91-2.92-.88-5.77-1.83-8.69-2.78,16.26,19.69,22,39.55,12.82,44.84-4.89,2.81-13.13.74-22.34-4.58,12.69,13.54,18.08,26.46,12.23,32.24-5.68,5.58-20.22,3.09-36.72-5.19,7.46,6.23,11.11,12.32,9.21,16.84-2.85,6.72-17.4,7.94-35.45,3.71l.15.26c2.05,6.92-9.32,14.39-26.39,18.08,11.35,2.71,19.26,7.26,20.14,12.66,1.23,7.93-12.78,15-32.58,17.29,14.64,7.7,23.47,16.78,21.32,23.29-3.1,9.21-26.88,9.88-53.12,1.46A127.25,127.25,0,0,1-631,34.76c17.25,24,22.48,46.56,11.31,53-12.93,7.43-42.41-9.06-66-36.67a155.39,155.39,0,0,1-9.55-12.44c-2.23,20.14-10.91,34.31-22.12,33.75-13.92-.69-26.29-23.83-27.71-51.68,0-.5,0-1.07,0-1.58-20.64,22.18-46.09,33.28-58.85,25-10-6.44-9.57-23.13-.24-41.66-17.68,18.92-37.93,28.23-50.92,21.77-15.88-8-15.39-37,.18-67-17.12,12.8-35.41,17.92-43.94,11.31-8.68-6.8-4.26-23.59,9.65-39.87-10.14,4.22-19.13,4.87-23.95.84-6-5.18-3.38-16.31,5.58-27.77-23,2.66-42.33-1.28-46.17-10.33-4.34-10.4,13.43-23.73,40.29-30.71-31.22-.53-56.28-9.13-58.74-21.11-2.79-13.75,25.33-26.75,62.83-29.07l2,0c-1.37-.6-2.6-1.12-3.91-1.77-31.48-14.88-52.05-35.67-46-46.51,4.88-8.66,25.36-8.29,49.42-.2C-948.41-260.19-973.53-288.2-964.74-302.94Z"/>
          <path class="cls-13" d="M-972.21-160.39c-1.5-7.2,5.64-14.25,18.18-19.57,8.52,3,21.26,3.88,35.44,2.26-9,11.46-11.61,22.58-5.58,27.71,4.75,4,13.89,3.38,24-.78-13.84,16.28-18.35,33.07-9.67,39.87,8.46,6.6,26.83,1.49,44-11.37-15.49,30.06-16.06,59-.18,67,13,6.53,33.16-2.79,50.93-21.7-9.34,18.53-9.87,35.21.24,41.66,12.83,8.22,38.21-2.89,58.82-25a14.83,14.83,0,0,0,.11,1.58c1.35,27.86,13.72,50.93,27.56,51.68,11.29.5,20.05-13.67,22.28-33.75a151.3,151.3,0,0,0,9.53,12.39c23.5,27.64,53.06,44.09,65.83,36.71,11.24-6.46,6-28.92-11.16-52.95a129.6,129.6,0,0,0,15.65,6.08c26.3,8.43,50.1,7.76,53.13-1.46,2.14-6.57-6.69-15.59-21.34-23.3,19.89-2.3,33.9-9.4,32.59-17.22-.88-5.45-8.8-10.07-20.21-12.73,17-3.75,28.43-11.16,26.45-18.07a.41.41,0,0,0-.06-.19c18,4.1,32.6,3,35.45-3.78,1.89-4.52-1.84-10.61-9.29-16.77,16.49,8.27,31,10.7,36.72,5.12,5.86-5.83.45-18.7-12.17-32.24,9.13,5.39,17.32,7.32,22.26,4.52,9.18-5.23,3.37-25.1-12.72-44.84,2.76,1,5.6,1.88,8.61,2.78,36.8,10.83,69.75,9.09,73.56-3.85,1.28-4.44-1-9.55-5.94-14.85,6.24,1.8,11.31,1.76,14-.63a6.1,6.1,0,0,0,2-3.7c8,12.85,17.93,20.88,25.92,19.65,7.22-1.08,11.13-9.18,11.45-20.78,13.32,19.12,29.74,31,40.31,27.84,7.18-2.15,10.17-10.75,9.18-22.5,4.94,3.16,9.56,4.48,13.19,3.4,3.08-.92,5-3.36,6.2-6.93,7.59,14.71,17.8,24.25,26.87,23.48s14.57-11.46,15.2-26.81c7.55,7.8,15.55,12.17,21.05,11,4.49,23.55,15.62,40.81,29.35,42.43,11.48,1.34,22.1-8.81,29-25.38,10.61,17.12,25.41,28.42,33.87,25.53,6.79-2.37,7.56-13.32,2.73-26.77,2.74,1.75,41.13-7.35,43.73-6,0,0,26.45,40.85,38.89,39.74,15-1.31,37.9-53.87,37.9-53.87,1.25-2,44,11.76,45,9.31,6.24,13.11,15.38,22.27,23,21.91,9.53-.43,13.41-15.19,9.24-33.5,18.78,11.76,35.62,16.79,44.5,11.66,10.45-6.08,6.69-24.67-7.62-46.5,5.49-.88,9-7.37,9.5-16.69,12.41,12.89,25.43,20.18,33.71,17.72s9.7-14.18,4.79-29.4c3.71,2.64,7.31,4.08,10.68,3.8,4-.36,6.9-3.05,8.65-7.46,8.22,10.48,17.45,16.75,25.27,16.09,11.5-1,16.35-16.81,13-37.77,9.19,9.73,18.85,15.34,25.78,13.8,7.85-1.73,10.14-12,7-25.79a11.57,11.57,0,0,0,4.5,2.5c4.25,1.1,8.69-.61,12.65-4.3-.25,6.21,1.79,11.43,6.32,14.75,7.43,5.46,20,4.74,33.71-.81-12.65-5.19-20.4-11.8-19.82-18.36,1.07-11,25.57-17.44,55.71-15.23-30.66-10.54-51.11-26.68-47.36-38.48,4.38-13.6,38.86-16.5,77.26-6.44.69.18,1.31.41,2,.58-1-.94-1.95-1.89-2.92-2.9-23.57-23.89-33.27-49.79-21.63-57.81,9.22-6.42,29.26.59,49,15.92-28.7-33.66-39.15-67.65-23-78.44,17.39-11.52,58.9,7.92,93.06,43.46-6-18.95-3.54-35.49,6-37.49,8.42-1.82,19.6,8.55,26.91,24.05a135.44,135.44,0,0,1,2.18-19c5.72-31,20.29-55.92,36.08-64.66,5.12,6.44,8.48,17.46,8.37,29.65a132.29,132.29,0,0,1,20.19-24.78c10.26,11.81,15.07,35.19,12.18,61.83,17.42-25.54,41.11-40.66,55.18-34.3l.91.62A122.41,122.41,0,0,1,611-501c14.41-15.3,31.63-22.69,42.45-17,13.59,7.2,12,32.16-3.45,55.75a24.68,24.68,0,0,1-2,2.88c.64-.27,1.2-.48,1.2-.48,34.51-11.19,68.57-9.72,76.85,3,7.18,11.09-7.65,27.13-34,38.36,28.35-3.31,53.93,1.93,58.17,12.4,3.69,9-9.73,19-31.41,24.71,16.41,6.76,27.36,15.34,26.16,21.86-1,5.09-9.28,7.67-21.12,7.57,24.48,9.18,41.26,22,39.11,30.77s-21.88,10.59-46.44,5.54c4.95,2.79,9.67,5.62,14.06,8.49,1.52,1,3,2,4.48,3l2,1.46c1.14.77,2.2,1.53,3.25,2.29.68.55,1.44,1.1,2.12,1.66,1,.69,1.88,1.43,2.79,2.13.67.55,1.44,1.16,2,1.64.91.76,1.73,1.45,2.55,2.19l1.81,1.63,2.41,2.16c.52.55,1,1,1.57,1.56.75.74,1.57,1.55,2.24,2.35.45.47.82.87,1.27,1.28,1,1.19,2.09,2.4,3,3.52l.3.34c.82,1.06,1.62,2.12,2.29,3.17a5.68,5.68,0,0,1,.73,1.12c.52.79,1,1.51,1.39,2.23a10.34,10.34,0,0,0,.57,1.23c.37.65.65,1.3.94,1.95.14.39.28.77.49,1.22.12.64.34,1.22.47,1.79,0,0,.21.83.26,1.21,0,0,.12,1.15.17,1.72a4.19,4.19,0,0,1,0,1,6.57,6.57,0,0,1-.22,1.74l0,.57a11.71,11.71,0,0,1-1.13,2.57c-6,10.08-30.6,9.05-60.34-1,22.24,12.68,35.6,26.71,32,35.76-4.6,11.5-35,10.78-69.7-1,.45.47.83.88,1.19,1.33,20.28,24.36,27.56,48.42,16.26,53.87-9.14,4.35-27.62-4.8-45.1-21.25a99.45,99.45,0,0,1,1.46,13.92c1.26,31.81-11.42,56.09-28,54.22-14.66-1.68-27.51-22.71-31.34-49.23a76.27,76.27,0,0,1-8.68,10.67c-16,16.26-36.91,23.89-46.61,17.09-7-4.87-6.36-15.7.19-27.38-18.75,5-36.14,3.73-41.23-3.46-3.46-5-.23-11.58,7.5-17.84-17.48,2.71-33,.28-36.58-6.36l-.08-.13c-12.25,9.73-25.57,13.74-33.25,9-5.09-3.18-6.69-9.69-5.05-17.56-7.77,12.8-18.26,19.94-27.49,17.06-9.48-2.89-14.87-15.76-14.45-31.75-3.68,7.79-9.23,12.25-15.59,11.57-11.87-1.29-22.31-20.28-23.72-42.81-1.65,1.84-3.43,3.6-5.21,5.43-2.12,2-4.3,3.8-6.55,5.6-.41.34-.72.64-1.13,1-2.26,1.8-4.51,3.47-6.75,4.95l-.32.29c-19.79,13.31-40.64,18.07-51.31,10.25-4.45-3.32-6.43-8.48-6.33-14.75-4,3.68-8.32,5.4-12.49,4.31a11.56,11.56,0,0,1-4.57-2.51c3,13.77.74,24-7.06,25.79-6.92,1.54-16.58-4-25.85-13.81,3.42,21-1.43,36.79-12.92,37.84-7.81.6-17.07-5.68-25.3-16.15-1.73,4.41-4.64,7.09-8.63,7.46-3.29.28-7-1.1-10.59-3.8,4.82,15.16,3.41,26.94-4.87,29.4s-21.39-4.84-33.72-17.66c-.53,9.26-3.92,15.69-9.49,16.7,14.23,21.75,18,40.35,7.6,46.43-8.79,5.13-25.73.16-44.48-11.66,4.23,18.38.28,33.07-9.24,33.5-7.66.36-16.78-8.74-23-21.91-.94,2.45-43.78-11.37-44.88-9.3,0,0-23,52.62-38,53.93-12.43,1.1-38.95-39.82-38.95-39.82-2.52-1.29-41,7.79-43.65,6,4.83,13.45,4.06,24.4-2.83,26.77-8.44,2.88-23.18-8.41-33.77-25.53-6.92,16.57-17.54,26.66-29.09,25.37-13.58-1.6-24.72-18.8-29.35-42.37-5.5,1.08-13.35-3.28-21.06-11-.63,15.23-6.13,26-15.12,26.83s-19.28-8.84-26.94-23.56c-1,3.58-3,6.08-6.12,6.94-3.63,1.08-8.34-.24-13.12-3.39,1,11.82-2,20.41-9.26,22.55-10.56,3.13-27-8.72-40.23-27.89-.4,11.53-4.39,19.68-11.45,20.78-8.08,1.21-18-6.81-26-19.66a6.08,6.08,0,0,1-1.94,3.71c-2.82,2.38-7.89,2.48-14.14.67,5,5.24,7.29,10.43,6,14.8-3.81,12.94-36.76,14.68-73.57,3.91-2.92-.88-5.77-1.83-8.69-2.78,16.25,19.69,22,39.55,12.82,44.84-4.89,2.81-13.13.74-22.34-4.58,12.69,13.54,18.08,26.46,12.23,32.24-5.68,5.58-20.22,3.09-36.72-5.18,7.46,6.22,11.11,12.31,9.21,16.83-2.85,6.72-17.4,7.94-35.45,3.71l.15.26c2.05,6.92-9.32,14.39-26.39,18.08,11.35,2.71,19.26,7.26,20.14,12.66,1.23,7.93-12.78,15-32.58,17.29,14.64,7.7,23.47,16.78,21.32,23.29-3.1,9.21-26.88,9.88-53.12,1.46A127.25,127.25,0,0,1-631,34.76c17.25,24,22.48,46.56,11.31,53-12.93,7.43-42.41-9.06-66-36.67a155.39,155.39,0,0,1-9.55-12.44c-2.23,20.14-10.91,34.31-22.12,33.75-13.92-.69-26.29-23.83-27.71-51.68,0-.5,0-1.07,0-1.58-20.64,22.18-46.09,33.28-58.85,25-10-6.44-9.57-23.13-.24-41.66-17.68,18.92-37.93,28.23-50.92,21.77-15.95-8-15.39-37,.18-67-17.12,12.8-35.41,17.92-43.94,11.31-8.68-6.8-4.26-23.59,9.65-39.87-10.14,4.22-19.13,4.87-23.95.84-6-5.18-3.38-16.31,5.58-27.77-23,2.66-42.33-1.28-46.17-10.33-4.34-10.4,13.43-23.73,40.29-30.71C-944.69-139.81-969.75-148.41-972.21-160.39Z"/>
        </g>
      </g>
      <path class="cls-14" d="M45.81,51.81a4.76,4.76,0,0,0,.45,2h0c.25.32.48.58.67.79a25,25,0,0,1,6.74.62,4.74,4.74,0,0,0,1.39-2.82h0c0-.43,0-.88,0-1.36h0a4.64,4.64,0,0,0-9.24.74Zm1.69-.46a1.23,1.23,0,1,1,1.23,1.26A1.25,1.25,0,0,1,47.5,51.35Z"/>
      <path class="cls-1" d="M47.46,51.41a1.23,1.23,0,1,0,1.23-1.27A1.25,1.25,0,0,0,47.46,51.41Z"/>
      <path class="cls-15" d="M43.83,47.52a10.67,10.67,0,0,0,2.43,6.34A4.65,4.65,0,1,1,55,51.13a10.39,10.39,0,0,0-2.32-6.38c-1.65-1.93-5-4-7.08-2.69C43.74,43.27,43.81,46.62,43.83,47.52Z"/>
      <path class="cls-16" d="M55.05,51.08a10.25,10.25,0,0,0-5.38-8.51c-7.19-3.64-6.5,7.84-3.25,11.15l0,.14,0-.14.67.79-.17-.07a24.57,24.57,0,0,1,6.78.73l-.11,0A4.68,4.68,0,0,0,55,52.45l0-1.37Zm0,0,.05,1.37a4.88,4.88,0,0,1-1.39,2.94,25.26,25.26,0,0,0-6.77-.53h-.1l-.06-.07-.69-.8L46,53.85l.05.14c-3.67-3.66-4-15.75,3.77-11.77a10.18,10.18,0,0,1,5.19,8.86Z"/>
      <g>
        <path class="cls-17" d="M55.05,51.08h0a2.36,2.36,0,0,0,0-.28,10.52,10.52,0,0,0-2.32-6c-1.65-1.93-5-4-7.08-2.69-1.87,1.21-1.8,4.56-1.78,5.46a11.12,11.12,0,0,0,2.43,6.33h0s.48.58.67.79a25,25,0,0,1,6.74.62,4.74,4.74,0,0,0,1.39-2.82h0C55.08,52,55.08,51.56,55.05,51.08Z"/>
        <path class="cls-18" d="M55.05,51.08a11.14,11.14,0,0,0-2.8-6.36c-1.45-1.42-3.63-2.93-5.69-2.57-2.13.62-2.25,3.44-2.23,5.37a10.51,10.51,0,0,0,2.26,6l.1.29-.1-.28.65.78-.32-.13a24.37,24.37,0,0,1,6.8.82l-.21.06A4.56,4.56,0,0,0,55,52.44c0,.06.07-1.37.07-1.36Zm0,0,.1,1.37a5,5,0,0,1-1.4,3.07,25.06,25.06,0,0,0-6.8-.45h-.19l-.13-.14-.71-.8-.1-.29.1.28C42,50.31,42,37.85,50,42.05a10.12,10.12,0,0,1,5.1,9Z"/>
      </g>
      <path class="cls-16" d="M38.78,56.55A23.32,23.32,0,0,1,55.66,56a22.77,22.77,0,0,0-16.58,1.29l-.3-.69Z"/>
    </g>
  </g>
</svg>
