<svg id="Layer_1" data-name="Layer 1" xmlns="http://www.w3.org/2000/svg" width="417.18" height="228.24" viewBox="0 0 417.18 228.24">
  <defs>
    <style>
      .cls-1, .cls-10 {
        fill: #bc7b18;
      }

      .cls-2 {
        fill: #bc6b00;
      }

      .cls-24, .cls-26, .cls-3 {
        fill: #fedcae;
      }

      .cls-25, .cls-26, .cls-3, .cls-30, .cls-34 {
        stroke: #894f1a;
      }

      .cls-10, .cls-11, .cls-14, .cls-23, .cls-25, .cls-26, .cls-28, .cls-3, .cls-30, .cls-34, .cls-35 {
        stroke-miterlimit: 10;
      }

      .cls-4 {
        fill: #894f1a;
      }

      .cls-5 {
        fill: #ad6004;
      }

      .cls-6 {
        fill: #935007;
      }

      .cls-7 {
        fill: #fcc589;
      }

      .cls-8 {
        fill: #c8a179;
      }

      .cls-9 {
        fill: #ffbe72;
      }

      .cls-10, .cls-28 {
        stroke: #bc7b18;
      }

      .cls-11, .cls-14, .cls-23, .cls-25, .cls-29, .cls-30, .cls-34, .cls-35 {
        fill: none;
      }

      .cls-11, .cls-14 {
        stroke: #231f20;
      }

      .cls-12 {
        fill: #f3d9ab;
      }

      .cls-13 {
        fill: #f3daac;
      }

      .cls-14, .cls-34 {
        stroke-width: 0.25px;
      }

      .cls-15 {
        fill: #f6f6f6;
      }

      .cls-16 {
        fill: #3d3123;
      }

      .cls-17 {
        fill: #fff;
      }

      .cls-18 {
        fill: #231f20;
      }

      .cls-19 {
        fill: #af6104;
      }

      .cls-20 {
        fill: #874207;
      }

      .cls-21 {
        fill: #9e4808;
      }

      .cls-22 {
        fill: #f76f6f;
      }

      .cls-23 {
        stroke: #800001;
      }

      .cls-25, .cls-26 {
        stroke-width: 0.5px;
      }

      .cls-27 {
        fill: #911919;
      }

      .cls-28 {
        fill: #cc821f;
      }

      .cls-31 {
        fill: #7f0000;
      }

      .cls-32 {
        fill: #ce4545;
      }

      .cls-33 {
        fill: #590000;
      }

      .cls-35 {
        stroke: #5b2d07;
      }
    </style>
  </defs>
  <g>
    <g>
      <path class="cls-1" d="M172.11,103.29h0a29.43,29.43,0,0,1-2.33,16.7,24.86,24.86,0,0,1-1.49,2.76,29.62,29.62,0,0,1-5.36,6.32l-1.05,1c-3.13.21-5.28.77-10.15-.35-12.59-2.89-14.43-14.06-14.4-14.38-.87-4.36-1.63-8.39-5.34-11.69a17,17,0,0,0-1.47-1.16,17.67,17.67,0,0,0-4.63-2.24c.87.59,7.2,5,7.33,12.54.12,6.95-5.18,11.45-6.86,12.87-7.19,6.1-18.53,7.34-26.4,4.35-13.72-5.21-21-24.79-16.21-41.75a36.16,36.16,0,0,1,2.54-6.59c7.17-14.23,23.65-23,39.12-22.52,16.2.49,27,11,28.4,12.39,10.89,10.62,10.09,22.21,16.28,29.71A17.11,17.11,0,0,0,172.11,103.29Z"/>
      <path class="cls-2" d="M185.36,121.53a41.93,41.93,0,0,1-14.65,7.35,42.76,42.76,0,0,1-19,.81,31.64,31.64,0,0,0,16.6-11.8c6-8.64,3.17-13.24,2.46-15.87,2.25,2.73,17.56,9.48,19.81,8.84C196.86,109.08,183.86,119.8,185.36,121.53Z"/>
      <path class="cls-3" d="M169.39,102c-.7.55-3.29-1.47-4.15-2.14-6.67-5.2-14.22-18.65-21-24.33-11-9.31-29-5.52-32.27-4.84A46.86,46.86,0,0,0,84,88.9a36.65,36.65,0,0,1,2.5-6.58c7.07-14.22,23.36-22.95,38.65-22.46,16,.52,26.69,11,28.11,12.44C164,82.94,163.26,94.52,169.39,102Z"/>
      <path class="cls-4" d="M119.78,121.8c-12.56,2.09-25-5.4-25.12-18.94a21.46,21.46,0,0,1,6.51-16.34c10.63-10.73,31.15-10.27,40.11,2.35,5.39,7.15,7.26,16.36,12.65,23.44a19.43,19.43,0,0,0,15.2,7.78,19.52,19.52,0,0,1-15.58-7.47c-7.23-9.23-8.81-22.65-19.31-29.14-10-5.81-24.12-4.57-32.43,3.68a20.86,20.86,0,0,0-6.38,15.69c-.09,13.2,12.12,20.6,24.35,19Z"/>
      <path class="cls-4" d="M182.91,123.42c-12.38,8.1-32.35,12-42.84-1a19.93,19.93,0,0,1-4-8.93,13.75,13.75,0,0,0-6.37-10.89c-5.65-3.84-16.6-3-20.08,3.32-2.21,4.69.72,11,6.48,10.07,2.42-.24,5.1-2.06,4.45-4.79s-4.43-2.73-6.24-1.1a5,5,0,0,1,3.57-1.27c3.11.07,4,4.08,1.87,6a7.41,7.41,0,0,1-7.52,1.22c-3.85-1.66-4.94-6.86-3.3-10.45,3.55-7,15.26-7.86,21.28-3.81a14.06,14.06,0,0,1,6.55,9.63,19.67,19.67,0,0,0,4,10.44,22.53,22.53,0,0,0,12.69,7.78c5,1.21,10.18.46,15.19-.49a45.41,45.41,0,0,0,14.25-5.68Z"/>
    </g>
    <path class="cls-5" d="M269,94.07c2.52,5.78,18,8,23.09,8.65s16.3-1.52,23.81-4.39,8.31-3.18,9.66-2.67c1.2.46,7.59.23,9,.17.57-.43.51-1.08-.49-2.09-3.84-3.86-12.52-2.72-22-1.28s-8-.1-15.07-3.28-18.17-2.9-18.17-2.9c-3.17.64-7.89,4-9.47,6.77A4.4,4.4,0,0,0,269,94.07Z"/>
    <path class="cls-5" d="M156.06,180a4,4,0,0,1-.75-3.74,55.12,55.12,0,0,0,2-8.33c.25-2,11-12.25,15.25-14.22s13.63.12,32.35-3.53,19.47-25.78,19.47-25.78c-7.4-16.47-41.07-2.31-43,2.82-2.29,6.15-.35,17.29-9.4,19.71s-12.78,13.3-15.74,16.79-.75,6.42-1.78,10.27C153.64,177,153.62,180,156.06,180Z"/>
    <path class="cls-6" d="M277.58,102.24c7.89-.14,11.31,4.17,18,3.3s21-5.12,26.62-7.28c4.18-1.6,10.72-1.19,12.3-2.43-1.4.06-7.79.29-9-.17-1.35-.51-2.15-.21-9.66,2.67s-18.72,5.09-23.81,4.39S271.5,99.85,269,94.07C268.27,97.17,270.55,102.36,277.58,102.24Z"/>
    <path class="cls-6" d="M156.06,180a6.58,6.58,0,0,0,2.8-.79c5.19-2.49,4.6-6,5-8.92s7.57-9.53,11.13-10.76,13.83.56,30-2.23,20.28-19.11,20.28-19.11c1.06-6,.63-10.51-.85-13.79,0,0-.74,22.13-19.47,25.78s-28.13,1.56-32.35,3.53-15,12.18-15.25,14.22a55.12,55.12,0,0,1-2,8.33A4,4,0,0,0,156.06,180Z"/>
    <path class="cls-1" d="M192.31,142.22c7.91-8.21,28.12-19.28,28.12-19.28s9.5,4.29,27.42-5.07S270.71,98.3,270.71,98.3s6.58-2.22,10.13-5.29,4.71-11.21,6.09-7.57a5.63,5.63,0,0,0,.51,1h0c.37.09,7-26.14,7-26.14a25,25,0,0,0-8.1,2.62h0a60.36,60.36,0,0,0-23.44,10.34c-11.83,8.52-47.19,27-63.53,33.27S181.7,117,181,123.71C180.51,128.81,182.61,138.34,192.31,142.22Z"/>
    <path class="cls-7" d="M192.31,142.22a23,23,0,0,0,4.62,1.28c.06-.14.11-.29.17-.43,2.42-6.34,23.46-9.29,40.13-15.59s36.38-20.94,42.38-26.17,7.83-14.86,7.83-14.86a5.63,5.63,0,0,1-.51-1c-1.38-3.64-2.54,4.49-6.09,7.57s-10.13,5.29-10.13,5.29-4.95,10.21-22.86,19.57-27.42,5.07-27.42,5.07S200.22,134,192.31,142.22Z"/>
    <path class="cls-8" d="M196.93,143.5a32.22,32.22,0,0,0,6.93.4c19.66-.85,40.8-12.46,54.33-19.42s24.32-17.26,32.4-21.89c4.09-2.35,3.61-6.22,2.33-10.47.53.13,1.07.25,1.62.34,0,0-5.1-2.78-7.09-6h0s-1.82,9.63-7.83,14.86-25.7,19.88-42.38,26.17-37.71,9.25-40.13,15.59C197,143.21,197,143.36,196.93,143.5Z"/>
    <path class="cls-1" d="M269.39,94.84c1.78,6,16.87,10.14,21.83,11.46s16.36.52,24.17-1.39,8.64-2.12,9.92-1.44c1.13.6,7.5,1.17,8.9,1.28.61-.35.63-1-.23-2.13-3.32-4.3-12.08-4.26-21.64-4s-7.9-1.09-14.54-5.13-17.67-5.14-17.67-5.14c-3.22.24-8.32,3-10.24,5.53A3.85,3.85,0,0,0,269.39,94.84Z"/>
    <path class="cls-1" d="M171.27,189.67a4,4,0,0,1-1.68-3.42,55.65,55.65,0,0,0-.22-8.56c-.28-2,7.56-14.66,11.14-17.64s13.2-3.35,30.38-11.64,12.26-29.89,12.26-29.89c-11.35-14-40.3,8.22-40.85,13.67-.65,6.53,4.06,16.81-4.08,21.46s-9,16.11-10.94,20.24.91,6.4.89,10.38C168.16,187.35,168.89,190.25,171.27,189.67Z"/>
    <path class="cls-5" d="M276.91,104c7.84.85,10.69,5.56,17.47,5.53s21.45-2.47,27.32-3.91c4.34-1.06,10.78.16,12.51-.88-1.4-.11-7.77-.68-8.9-1.28-1.28-.68-2.11-.48-9.92,1.44s-19.21,2.72-24.17,1.39-20.05-5.41-21.83-11.46C268.29,97.82,269.91,103.26,276.91,104Z"/>
    <path class="cls-5" d="M171.27,189.67a6.58,6.58,0,0,0,2.5-1.47c4.39-3.73,2.92-7,2.54-9.9s4.89-11.14,8-13.23,13.52-3,28.41-9.79,14.74-23.64,14.74-23.64c-.5-6.09-2.06-10.33-4.33-13.12,0,0,4.92,21.59-12.26,29.89s-26.81,8.66-30.38,11.64-11.42,15.61-11.14,17.64a55.65,55.65,0,0,1,.22,8.56A4,4,0,0,0,171.27,189.67Z"/>
    <g>
      <path class="cls-9" d="M316.24,65c-.12,1.27-.33,2.71-.59,4.44-1.61,1.31-8,5.89-11,2.37h0c2.48-3.37-.27-5.5-2.2-6.12l-.21-.06a2.38,2.38,0,0,0-1.29-.12,16.74,16.74,0,0,0-1.6.55,43.09,43.09,0,0,1,7.38-3.84c.14.66.43,1.5,1,1.63C308.75,64.1,314.25,62.6,316.24,65Z"/>
      <path class="cls-1" d="M277,51.29c0-.38-.52-12,5-12.79,2.52.31,2.33,8.65,2.33,8.65Z"/>
      <path class="cls-10" d="M315.66,59.93a11.5,11.5,0,0,0-1.74,1,18.28,18.28,0,0,0-6.83,1.23l-.54.2h0v0a43,43,0,0,0-7.31,3.81h0a18,18,0,0,0-2.45,1.21,9.16,9.16,0,0,0,1.33-8.54c-1.86-5.06-8-7.24-12.86-5.22s-7.56,8-5.26,12.84c2.16,4.56,7.89,6.23,12.34,4.46-.44.44-.86.9-1.26,1.35l-.16.18a37.63,37.63,0,0,0-5.31,8.13.93.93,0,0,0-.05.1c-1.51-.89-3-1.77-4.51-2.61-5.91,4.65-2.32,11.1-2.15,11.36-7.65,1.39-8.62-9.4-8.54-9.81-1.32,1.26-1.06,4.65-1.46,4.84s-2.18-2.44-1.06-6.27a14.65,14.65,0,0,0,1.31-3.63h0a19.83,19.83,0,0,0-.44-8.65,3.07,3.07,0,0,1,.24-1.55c.53-1.49,1.86-3.8,3.89-8.27l.18-.37a15.79,15.79,0,0,1,3.85-4.5,42.15,42.15,0,0,1,7.31-4.82,21.93,21.93,0,0,1,4.26-1.92c.18.21-.72,2.83-.14,3s9.45-2.32,17.64,2.23C309.84,51.9,314.29,55.27,315.66,59.93Z"/>
      <path class="cls-9" d="M311.72,77.83a6.68,6.68,0,0,1,0,3.55,7.39,7.39,0,0,1-2.28,3.37C308.09,86,306.08,88,304,87.42a3.29,3.29,0,0,1-1.52-1l-.08.06c-1-2-4.2-9-3.41-9.92.15.38.34.82.56,1.31,1.35,2.92,4,7.19,7.29,5.07a6.24,6.24,0,0,0,2-1.95,3,3,0,0,0,.44-1.3v0a6.19,6.19,0,0,0,0-.73C309.59,78.88,311.2,78.1,311.72,77.83Z"/>
      <line class="cls-11" x1="269.18" y1="74.52" x2="269.19" y2="74.52"/>
      <path class="cls-12" d="M316.71,65.45a8.55,8.55,0,0,0-.71,1.64,8,8,0,0,0-.35,2.39c-1.61,1.31-8,5.89-11,2.37h0c2.48-3.37-.27-5.5-2.2-6.12l-.21-.06a2.38,2.38,0,0,0-1.29-.12,16.74,16.74,0,0,0-1.6.55,43.09,43.09,0,0,1,7.38-3.84,25.5,25.5,0,0,1,3.44-1c1.75-.39,2-.28,3.64-.66,2.64-.63,3.2-1.25,3.69-.87C318.46,60.44,317.65,63.67,316.71,65.45Z"/>
      <path class="cls-13" d="M316,69.28a4.81,4.81,0,0,1-.38.33c.26-1.75.47-3.2.58-4.48a1.37,1.37,0,0,1,.17.23,2.11,2.11,0,0,1,.18.32h0a22.21,22.21,0,0,0,.79-3.26,11.67,11.67,0,0,0,.08-2.64,1.23,1.23,0,0,1,.64-.08,1.79,1.79,0,0,1,1.1.81,4.56,4.56,0,0,1,.78,1.4,6.12,6.12,0,0,1,.23,3,5.23,5.23,0,0,1-1.35,3A5,5,0,0,1,316,69.28Z"/>
      <path class="cls-14" d="M311.85,77.72s0,.06,0,.09"/>
      <path class="cls-15" d="M315.56,69.52c0,.19-.05.39-.09.6a27.46,27.46,0,0,1-1.3,4.66A7.44,7.44,0,0,1,312.93,77c-.43.26-.88.52-1.35.77s-2.14,1.08-2.39,1.21c-1.12.51-2.19.94-3.19,1.3a17.8,17.8,0,0,0-1.22-4.78,18.35,18.35,0,0,0-1.53-2.93l-.05-.07a10.81,10.81,0,0,1,1.24-.69.21.21,0,0,1,0-.06h0l.07.07C307.59,75.42,314,70.83,315.56,69.52Z"/>
      <path class="cls-15" d="M288.88,56.14l-.05,0-.2.08c-3.12,1.48-4.86,5.38-3.35,8.56a6.62,6.62,0,0,0,8.36,3,5.62,5.62,0,0,0,.56-.25,6.6,6.6,0,0,0,3.39-7.91C296.34,56.23,292.15,54.77,288.88,56.14Zm0,8.63a4.22,4.22,0,1,1,7.73-3.25,4.19,4.19,0,1,1-7.73,3.25Z"/>
      <path class="cls-16" d="M291,58.84a4.46,4.46,0,0,0-2,5.93,4.19,4.19,0,1,0,7.73-3.25A4.46,4.46,0,0,0,291,58.84ZM294.28,62a1.44,1.44,0,0,1-1.8-.77A1.4,1.4,0,1,1,295,60.15,1.44,1.44,0,0,1,294.28,62Z"/>
      <path class="cls-17" d="M295.05,60.15a1.4,1.4,0,1,1-1.89-.89A1.47,1.47,0,0,1,295.05,60.15Z"/>
      <path class="cls-18" d="M308.93,78.84a18.94,18.94,0,0,0,1.63-6.39,19.21,19.21,0,0,1-.93,6.66l-.7-.27Z"/>
      <path class="cls-1" d="M271.89,65.06c0-.13-12.92-.8-9.12-17.55.86-2.58,3.92-2.21,6.49.12s4.62,10.18,4.59,11.09Z"/>
      <path class="cls-19" d="M264.69,46.62c-3,13,4.21,16.33,7.51,17.2l-.39,1.28c0-.14-12.92-.81-9.11-17.55a2.41,2.41,0,0,1,2.43-1.79A2.68,2.68,0,0,0,264.69,46.62Z"/>
      <path class="cls-4" d="M299,89.43a21.48,21.48,0,0,1-12.29,2,21,21,0,0,0,11.84-2.86l.45.89Z"/>
      <g>
        <path class="cls-20" d="M304.12,73.7c-3.55,2.25-2.73,6.41-2.27,8a19.71,19.71,0,0,1-2.9-5,19,19,0,0,1,4.42-4.25C303.61,72.82,303.87,73.24,304.12,73.7Z"/>
        <path class="cls-21" d="M309.41,79A2.84,2.84,0,0,1,309,81,6.29,6.29,0,0,1,307,83c-1.82,1.2-3.46.46-4.8-.94l-.31-.34c-.46-1.63-1.28-5.79,2.27-8q.13.24.27.51c.19.4.39.81.57,1.26a17.65,17.65,0,0,1,1.22,4.82C307.2,79.93,308.28,79.49,309.41,79Z"/>
        <path class="cls-22" d="M309.45,78.89a2.94,2.94,0,0,1-.4,2.06,6.34,6.34,0,0,1-2.06,2,3.16,3.16,0,0,1-3.75,0h0s-.81-4.76,2.49-5.29a17.65,17.65,0,0,1,.49,2.61C307.23,79.84,308.32,79.41,309.45,78.89Z"/>
      </g>
      <ellipse class="cls-23" cx="306.13" cy="66.35" rx="0.33" ry="0.42" transform="translate(0.68 135.76) rotate(-25.03)"/>
      <ellipse class="cls-23" cx="307.62" cy="68.24" rx="0.33" ry="0.42" transform="translate(-7.46 71.81) rotate(-13.16)"/>
      <ellipse class="cls-23" cx="307.39" cy="70.56" rx="0.33" ry="0.42" transform="translate(-7.99 71.82) rotate(-13.16)"/>
      <path class="cls-24" d="M315.34,59.83l-.09,0a12.41,12.41,0,0,1-4.89-.3c-4.08-1.12-5.22-3.87-11-6.94a28.32,28.32,0,0,0-6.89-2.74c-8.41-1.61-16.6,6.76-19,9.42l.16-1.26c-.08-.36-.15-.72-.24-1.09s-.16-.71-.25-1.05a9.41,9.41,0,0,1,.57-1.15,10,10,0,0,1,3.05-3.2h0a4.68,4.68,0,0,0,.57-.45c.65-.48,1.38-1,2.21-1.54.63-.43,1.3-.85,2-1.28s1.57-.94,2.33-1.35,1.29-.73,2-1.09,1.55-.71,2.26-1a15.44,15.44,0,0,0-.23,2,1,1,0,0,0,.11.48,1,1,0,0,0,.16.22c.36.36,2.44,0,3-.14l2.43-.15a24.58,24.58,0,0,1,11.88,2.25l.17.1C309.52,51.8,314,55.18,315.34,59.83Z"/>
      <path class="cls-25" d="M315.2,59.9l-.09,0a12,12,0,0,1-4.89-.3c-4.08-1.12-5.22-3.87-11-6.93A28.46,28.46,0,0,0,292.34,50c-8.41-1.6-16.6,6.76-19,9.43l.16-1.26c-.08-.36-.15-.72-.24-1.09s-.16-.71-.25-1.06a9.31,9.31,0,0,1,.57-1.14,10.08,10.08,0,0,1,3-3.21h0a4.58,4.58,0,0,0,.57-.44c.65-.49,1.38-1,2.21-1.54.63-.43,1.3-.86,2-1.29s1.57-.93,2.33-1.34,1.29-.74,2-1.1,1.55-.71,2.26-1a15.44,15.44,0,0,0-.23,2,1,1,0,0,0,.11.48,1,1,0,0,0,.16.22c.36.36,2.44,0,3-.15l2.43-.15a24.52,24.52,0,0,1,11.88,2.26l.17.09C309.38,51.87,313.82,55.24,315.2,59.9Z"/>
      <path class="cls-4" d="M281.16,78a8.72,8.72,0,0,0-1.52,11.71,8,8,0,0,1-4.52-.23c-3.66-1.79-5-6.19-5.2-10l.79.43c-1.07,1-.89,3.21-1.37,4.59-.38.7-1.13,0-1.33-.38a7.53,7.53,0,0,1-.36-6c.5-1,1-2.09,1.37-3.18a4.72,4.72,0,0,0,.3-1.1,17.61,17.61,0,0,1-1.27,4.4c-.46,1.89-.46,4.2.78,5.76,0,.06.18.11,0,.07s-.13,0-.17,0-.07.09-.05.06c.13-.61.14-1.26.24-1.91a5.28,5.28,0,0,1,1.18-3l.52-.55.27,1c.31,4.33,2.74,10.3,8,9.29l-.28.64c-2.16-3.92-1.29-9.14,2.56-11.61Z"/>
      <path class="cls-4" d="M271.93,63.82a.48.48,0,0,0,.32.38l-.24-.06a10.61,10.61,0,0,1-7.35-6.35,18.67,18.67,0,0,1-.62-10c.68-2.65,3.71-1.53,5.08-.12a5,5,0,0,1,1.2,1.6A52.2,52.2,0,0,1,273,56.6a50.82,50.82,0,0,0-2.94-7.26,5.86,5.86,0,0,0-2.78-2.54c-1.17-.58-2.58-.32-2.83,1a18.06,18.06,0,0,0,.84,9.67,9.78,9.78,0,0,0,6.91,5.68c.31,0,.62.13.68.48l-1,.16Z"/>
      <path class="cls-19" d="M282.24,39.34c-4.62.6-4.6,9.56-4.53,11.91l-.53.3c0-.38-.73-11.78,4.51-12.45A1.14,1.14,0,0,1,282.24,39.34Z"/>
      <path class="cls-26" d="M285.41,53.53l-.42.19a10.12,10.12,0,0,0-5.57,11.09l.06.23c.06.22.13.45.21.68s.2.48.31.71.21.43.32.63.16.26.25.39l.13.19c2.49,3.57,7.5,4.79,11.56,3.28l.21-.08h0A22.73,22.73,0,0,1,297,67.27h0l0,0,.06-.08a9.18,9.18,0,0,0,1.31-8.46C296.55,53.63,290.31,51.48,285.41,53.53Zm-.23,11.33c-1.52-3.2.27-7.14,3.45-8.61l.2-.08c3.29-1.39,7.5.06,8.75,3.47,1.13,3.06-.61,6.44-3.38,7.9a5.62,5.62,0,0,1-.56.25s0,0-.06,0C290.54,69,286.64,67.93,285.18,64.86Z"/>
      <path class="cls-1" d="M304.75,71.9h0l0,.06a8.81,8.81,0,0,0-1.24.68h0a18.72,18.72,0,0,0-4.37,4.14c-.79.94,2.45,7.9,3.41,9.91L302,87a29,29,0,0,1-3.46,2.09l-.1.05c-.11-.4-8.86,3.65-11.5,1.91-.11-.07-4.48,2.11-7.21-1.47-2.43-3.19-1.74-10.45.95-10.61.41-.84,7.2-3.06,10.36-6.62a1.46,1.46,0,0,1,.16-.19c.43-.48.88-1,1.35-1.42h0a22.7,22.7,0,0,1,4.53-3.5h0a16.77,16.77,0,0,1,4.09-1.71,2.21,2.21,0,0,1,1.16.08l.2.07C304.45,66.34,307.22,68.5,304.75,71.9Z"/>
      <g>
        <path class="cls-27" d="M306.31,66.81C299,66.36,291.79,69,285.7,73a41.62,41.62,0,0,1,9.65-5.2A29.57,29.57,0,0,1,306,65.83s0,0,0,0l.23,1Z"/>
        <path class="cls-27" d="M307.78,68.75c-6.37-.41-12.62,1.85-17.92,5.28a31.64,31.64,0,0,1,15.4-6.19c.74-.06,1.53-.09,2.28-.08h0l.22,1Z"/>
        <path class="cls-27" d="M307.47,71.06c-5.57-.37-11.05,1.58-15.71,4.58a27.11,27.11,0,0,1,14.56-5.55h.93s.22,1,.22,1Z"/>
      </g>
      <path class="cls-28" d="M278.33,49.92c0-.27-.37-8.51,3.57-9.07,1.79.22,1.65,6.13,1.65,6.13Z"/>
      <path class="cls-29" d="M278.12,50c0-.27-.36-8.51,3.58-9.08,1.78.23,1.65,6.14,1.65,6.14Z"/>
      <path class="cls-30" d="M276.59,51.48a65.05,65.05,0,0,1,7.93-5.2"/>
      <path class="cls-28" d="M271.2,61.27c0-.08-8.25-.51-5.82-11.21.54-1.65,2.5-1.41,4.14.08s3,6.5,2.93,7.08Z"/>
      <path class="cls-29" d="M271.3,61.56c0-.08-8.25-.51-5.82-11.21.55-1.65,2.5-1.41,4.14.08s3,6.5,2.94,7.08Z"/>
      <g>
        <path class="cls-31" d="M314.5,68.69c-.65.2-1.72-.56-3.42-1.29-2-.85-3.17-.76-4.17-1.3s1.31-3.94,4.51-5.28c3-1.27,4.86-.91,5.16.34S316.56,67.9,314.5,68.69Z"/>
        <path class="cls-32" d="M315.33,60.77c-2.84-.18-6,1.55-8.11,3.37a10.27,10.27,0,0,1,4.2-3.32c3-1.27,4.86-.91,5.16.34a9.47,9.47,0,0,1-.07,1.46C316.29,61.46,316,60.86,315.33,60.77Z"/>
        <path class="cls-33" d="M307.23,64.12c-.09,1.48,2.75,1,4.24,1.52,1.14.4,2.19,1.73,3.11,1.41,1.26-.6,1.51-3.17,2.07-5.42.16,1.79-.29,6.35-2.15,7.06-.65.2-1.72-.56-3.42-1.29-2-.85-3.17-.76-4.17-1.3C306.42,65.82,306.6,65,307.23,64.12Z"/>
        <path class="cls-34" d="M306.62,65.55c0,.25.09.34.16.38a5.91,5.91,0,0,0,1.6.5,13.38,13.38,0,0,1,2.74.85c.55.23,1,.47,1.46.68.88.43,1.57.78,1.93.67l.08,0h0c1.91-.89,2.24-6.34,1.94-7.54a1.11,1.11,0,0,0-.63-.77c-.88-.45-2.49-.24-4.43.58l-.32.14C308.49,62.24,306.66,64.56,306.62,65.55Z"/>
      </g>
    </g>
    <path class="cls-35" d="M154.44,174c-.8,3-.82,6,1.62,6a6.58,6.58,0,0,0,2.8-.79c5.19-2.49,4.6-6,5-8.92.26-2.11,4.14-6.18,7.61-8.72-2.2,4.71-3,9.84-4.17,12.32-2,4.12.91,6.4.89,10.38,0,3.08.72,6,3.1,5.4a6.58,6.58,0,0,0,2.5-1.47c4.39-3.73,2.92-7,2.54-9.9s4.89-11.14,8-13.23,13.52-3,28.41-9.79a24.78,24.78,0,0,0,13.52-16.11c12.13-4.22,23.51-10.36,31.93-14.69,10.5-5.4,19.34-12.81,26.56-18,3.05,1.5,5.67,3.09,9.63,3.08,6.78,0,21.46-2.47,27.32-3.91,4.34-1.06,10.78.16,12.51-.88.61-.35.63-1-.23-2.13-2.23-2.88-6.91-3.81-12.63-4l.88-.32c4.18-1.6,10.72-1.19,12.3-2.43.57-.43.51-1.08-.49-2.09-3.84-3.86-12.52-2.72-22-1.28-9.12,1.38-8.06,0-14.37-2.95l.7-.34a0,0,0,0,1,0,0l.1-.05A29,29,0,0,0,302,87l.5-.34c-.61-1.28-.65-1.42-.06-.17l.08-.06a3.29,3.29,0,0,0,1.52,1c2.07.56,4.08-1.39,5.39-2.67a7.48,7.48,0,0,0,2.29-3.37,6.76,6.76,0,0,0,0-3.55c-.52.27.78-.53,1.21-.79a7.44,7.44,0,0,0,1.24-2.26,27.46,27.46,0,0,0,1.3-4.66c0-.2.06-.38.09-.57l.06,0,0,.11a4.81,4.81,0,0,0,.38-.33l.41-.08h0l0,0a4.94,4.94,0,0,0,1.47-.6,10.22,10.22,0,0,0,1.52-1c3-2,1.36-8.7-.81-7.91-.21.07-3.06.33-2.93.28-1.37-4.66-5.82-8-9.73-10.2-8.18-4.55-17.05-2-17.63-2.23s.32-2.83.14-3a19.56,19.56,0,0,0-4.07,1.8c0-2.14-.31-7.52-2.33-7.77-5.2.74-5.07,11-5,12.59l-.13.11c-.48.41-.92.83-1.35,1.25a9.67,9.67,0,0,0-2,2.38l-.08.15c-.12.19-.24.37-.34.56-.82-2.74-2.24-6.43-3.86-7.91-1.81-1.64-3.85-2.3-5.2-1.66a2.4,2.4,0,0,0-1.36,1.58C260.08,59.08,265.38,63,269,64.35a3,3,0,0,0-.24,1.54c.08.59.43,1.76.62,3.31a60.66,60.66,0,0,0-6.46,4.08c-11.83,8.52-47.19,27-63.53,33.27-1,.38-1.91.75-2.79,1.12h0c-1.86-.26-13.81,8-12.77,7.93-2,2.47-2.45,5-2.76,8.11a17.3,17.3,0,0,0,.13,4.13c-2,6.24-.44,16.75-9.19,19.09-9.06,2.42-12.78,13.3-15.74,16.79S155.47,170.14,154.44,174ZM292.35,60.73a1.36,1.36,0,0,1,2.37-1.1,1.36,1.36,0,0,0-2.37,1.1Z"/>
  </g>
</svg>
