<svg id="Layer_1" data-name="Layer 1" xmlns="http://www.w3.org/2000/svg" width="417.18" height="228.24" viewBox="0 0 417.18 228.24">
  <defs>
    <style>
      .cls-1 {
        fill: #ad6004;
      }

      .cls-2 {
        fill: #935007;
      }

      .cls-3, .cls-7 {
        fill: #bc7b18;
      }

      .cls-4 {
        fill: #fcc589;
      }

      .cls-5 {
        fill: #c8a179;
      }

      .cls-6 {
        fill: #ffbe72;
      }

      .cls-26, .cls-7 {
        stroke: #bc7b18;
      }

      .cls-11, .cls-21, .cls-23, .cls-24, .cls-26, .cls-28, .cls-32, .cls-33, .cls-35, .cls-7, .cls-8 {
        stroke-miterlimit: 10;
      }

      .cls-11, .cls-21, .cls-23, .cls-27, .cls-28, .cls-32, .cls-33, .cls-8 {
        fill: none;
      }

      .cls-11, .cls-8 {
        stroke: #231f20;
      }

      .cls-9 {
        fill: #f3d9ab;
      }

      .cls-10 {
        fill: #f3daac;
      }

      .cls-11, .cls-32 {
        stroke-width: 0.25px;
      }

      .cls-12 {
        fill: #f6f6f6;
      }

      .cls-13 {
        fill: #3d3123;
      }

      .cls-14 {
        fill: #fff;
      }

      .cls-15 {
        fill: #231f20;
      }

      .cls-16 {
        fill: #af6104;
      }

      .cls-17 {
        fill: #894f1a;
      }

      .cls-18 {
        fill: #874207;
      }

      .cls-19 {
        fill: #9e4808;
      }

      .cls-20 {
        fill: #f76f6f;
      }

      .cls-21 {
        stroke: #800001;
      }

      .cls-22, .cls-24, .cls-35 {
        fill: #fedcae;
      }

      .cls-23, .cls-24, .cls-28, .cls-32, .cls-35 {
        stroke: #894f1a;
      }

      .cls-23, .cls-24 {
        stroke-width: 0.5px;
      }

      .cls-25 {
        fill: #911919;
      }

      .cls-26 {
        fill: #cc821f;
      }

      .cls-29 {
        fill: #7f0000;
      }

      .cls-30 {
        fill: #ce4545;
      }

      .cls-31 {
        fill: #590000;
      }

      .cls-33 {
        stroke: #5b2d07;
      }

      .cls-34 {
        fill: #bc6b00;
      }
    </style>
  </defs>
  <g>
    <path class="cls-1" d="M268.74,123.48c-1.75,6.06,8.77,17.62,12.25,21.4s13.51,9.24,21.13,11.82,8.43,2.86,9.13,4.12,5.7,5,6.82,5.87c.71,0,1.08-.51.95-1.92-.49-5.42-7.89-10.09-16.09-15s-6.07-5.16-9.5-12.14-12.14-13.84-12.14-13.84c-2.84-1.52-8.61-2-11.6-.83A4,4,0,0,0,268.74,123.48Z"/>
    <path class="cls-1" d="M127,117.52a4,4,0,0,1,1.81-3.36,55.77,55.77,0,0,0,6.83-5.15c1.49-1.41,16.32-2.38,20.83-1.21s10.4,8.79,27.14,17.94S215,118.33,215,118.33c4.82-17.41-30.14-28-34.89-25.27-5.69,3.26-11.32,13.08-19.83,9.16s-18.32,2.08-22.82,2.87-4.68,4.47-7.93,6.77C127.05,113.64,125.12,115.93,127,117.52Z"/>
    <path class="cls-2" d="M270.15,135.26c6.16,4.93,6,10.43,11.76,14.05s19.42,9.45,25.14,11.4c4.23,1.43,9,5.92,11,6-1.12-.85-6.18-4.75-6.82-5.87s-1.51-1.53-9.13-4.12-17.66-8-21.13-11.82-14-15.34-12.25-21.4C266.21,125.41,264.65,130.86,270.15,135.26Z"/>
    <path class="cls-2" d="M127,117.52a6.52,6.52,0,0,0,2.65,1.18c5.59,1.4,7.4-1.71,9.54-3.69s11.9-2.5,15.42-1.18,10.29,9.26,24.49,17.41,27.81-1.76,27.81-1.76c4.66-3.95,7.19-7.69,8.15-11.15,0,0-14.71,16.56-31.45,7.41S160.94,109,156.44,107.8s-19.34-.2-20.83,1.21a55.77,55.77,0,0,1-6.83,5.15A4,4,0,0,0,127,117.52Z"/>
    <path class="cls-3" d="M179,111.59c11.33-1.27,34,3.11,34,3.11s4.57,9.37,24.33,13.61,30.09-.47,30.09-.47,6.48,2.49,11.18,2.39,10.77-5.62,9.52-1.93a6.1,6.1,0,0,0-.26,1.1h0c.22.31,22.05-15.66,22.05-15.66a25.38,25.38,0,0,0-7.9-3.16h0a60.42,60.42,0,0,0-24.65-7c-14.54-1-53.53-9.39-70.14-14.95s-20.25-3.21-25,1.51C178.47,93.73,174,102.4,179,111.59Z"/>
    <path class="cls-4" d="M179,111.59a23.23,23.23,0,0,0,2.74,3.94l.41-.23c5.91-3.34,24,7.83,40.83,13.63s41.37,7.1,49.33,6.91,15.51-6.44,15.51-6.44a6.1,6.1,0,0,1,.26-1.1c1.25-3.69-4.83,1.84-9.52,1.93s-11.18-2.39-11.18-2.39-10.33,4.7-30.09.47S213,114.7,213,114.7,190.32,110.32,179,111.59Z"/>
    <path class="cls-5" d="M181.73,115.53a32.06,32.06,0,0,0,5.07,4.72C202.48,132.16,226.16,136.71,241,140s29.74,2.24,38.91,3.83c4.65.81,6.75-2.48,8.48-6.56.32.43.66.86,1,1.29,0,0-2.15-5.4-1.62-9.15h0s-7.55,6.25-15.51,6.44-32.48-1.11-49.33-6.91-34.92-17-40.83-13.63Z"/>
    <path class="cls-3" d="M268.57,124.33c-2.5,5.8,6.5,18.58,9.48,22.76s12.26,10.85,19.49,14.36,8,3.89,8.55,5.23c.49,1.19,5,5.69,6,6.67.7.12,1.13-.37,1.18-1.79.2-5.43-6.57-11-14.08-16.9s-5.39-5.88-7.92-13.24S281,126.19,281,126.19c-2.63-1.88-8.3-3-11.41-2.28A3.88,3.88,0,0,0,268.57,124.33Z"/>
    <path class="cls-1" d="M268.49,136.19c5.5,5.66,4.69,11.11,9.92,15.41S296.5,163.4,301.94,166c4,2,8.19,7,10.18,7.31-1-1-5.54-5.48-6-6.67-.54-1.34-1.31-1.71-8.55-5.23S281,151.28,278.05,147.09s-12-17-9.48-22.76C265.82,125.93,263.59,131.14,268.49,136.19Z"/>
    <g>
      <path class="cls-6" d="M323.65,131.31c-.9.91-2,1.88-3.29,3-2.08,0-9.9-.56-10-5.2h0c4.06-1,3.3-4.41,2.21-6.12l-.12-.18a2.34,2.34,0,0,0-.92-.91c-.52-.23-1.05-.43-1.58-.61a44.16,44.16,0,0,1,8.13,1.76c-.32.6-.62,1.43-.24,1.93C318.49,125.81,323.68,128.17,323.65,131.31Z"/>
      <path class="cls-3" d="M302.23,95.68c.25-.29,7.27-9.56,12-6.63,1.73,1.85-3.73,8.14-3.73,8.14Z"/>
      <path class="cls-7" d="M326.46,127a11.49,11.49,0,0,0-1.95-.37,18,18,0,0,0-6-3.41l-.54-.19h0a42.43,42.43,0,0,0-8.06-1.73h0a17.55,17.55,0,0,0-2.65-.62,9.21,9.21,0,0,0,6.48-5.73c1.79-5.08-1.58-10.71-6.57-12.23s-10.92,1.32-12.25,6.52c-1.24,4.89,2.1,9.84,6.65,11.31q-.93.09-1.83.24l-.24,0a37.82,37.82,0,0,0-9.28,2.86l-.1,0c-.59-1.66-1.2-3.31-1.8-4.89-7.52-.2-8.87,7.06-8.91,7.37-6.77-3.81-.63-12.74-.31-13-1.82.12-3.78,2.9-4.21,2.79s-.12-3.27,3.18-5.51a14.61,14.61,0,0,0,3.33-2h0a19.93,19.93,0,0,0,5.19-7,3.19,3.19,0,0,1,1.17-1c1.36-.81,3.86-1.73,8.28-3.88l.37-.17a15.56,15.56,0,0,1,5.83-1,42.5,42.5,0,0,1,8.71.94,20.74,20.74,0,0,1,4.5,1.26c0,.27-2.36,1.71-2.05,2.24s8.75,4.25,12.15,13C327.11,117.11,328.38,122.55,326.46,127Z"/>
      <path class="cls-6" d="M312,138.26a6.65,6.65,0,0,1-2.29,2.72,7.45,7.45,0,0,1-3.91,1.13c-1.83.15-4.61.37-5.85-1.38a3.29,3.29,0,0,1-.57-1.7h-.09c.54-2.15,2.49-9.58,3.7-9.8-.12.38-.26.84-.4,1.35-.83,3.11-1.52,8.09,2.37,8.56a6.24,6.24,0,0,0,2.82-.19,3,3,0,0,0,1.18-.72h0a5.51,5.51,0,0,0,.45-.57C309.69,137.72,311.43,138.15,312,138.26Z"/>
      <line class="cls-8" x1="281.38" y1="108.57" x2="281.38" y2="108.57"/>
      <path class="cls-9" d="M323.75,131.93a8.44,8.44,0,0,0-1.59.8,8.32,8.32,0,0,0-1.8,1.62c-2.08,0-9.9-.56-10-5.2h0c4.06-1,3.3-4.41,2.21-6.12l-.12-.18a2.34,2.34,0,0,0-.92-.91c-.52-.23-1.05-.43-1.58-.61a44.16,44.16,0,0,1,8.13,1.76,26.17,26.17,0,0,1,3.3,1.42c1.59.81,1.74,1.08,3.22,1.81,2.44,1.2,3.26,1.08,3.4,1.69C328.29,129.19,325.61,131.16,323.75,131.93Z"/>
      <path class="cls-10" d="M320.74,134.41a2.57,2.57,0,0,1-.5,0c1.32-1.18,2.4-2.16,3.31-3.08,0,.09,0,.19,0,.29a2.88,2.88,0,0,1-.07.36h0a22.25,22.25,0,0,0,2.7-2,12.24,12.24,0,0,0,1.74-2,1.26,1.26,0,0,1,.54.35,1.83,1.83,0,0,1,.34,1.33,4.7,4.7,0,0,1-.3,1.57,6.15,6.15,0,0,1-1.73,2.45,5.22,5.22,0,0,1-2.94,1.42A5,5,0,0,1,320.74,134.41Z"/>
      <path class="cls-11" d="M312.17,138.27a.3.3,0,0,1,0,.08"/>
      <path class="cls-12" d="M320.27,134.33l-.45.4a27.14,27.14,0,0,1-4,2.75,7.48,7.48,0,0,1-2.4,1c-.49-.08-1-.17-1.54-.28s-2.33-.52-2.6-.6c-1.19-.31-2.29-.66-3.29-1a17.75,17.75,0,0,0,2.11-4.46,17.13,17.13,0,0,0,.69-3.23s0-.05,0-.08a10.5,10.5,0,0,1,1.38.26l.08,0h0a.34.34,0,0,0,0,.1C310.37,133.78,318.19,134.31,320.27,134.33Z"/>
      <path class="cls-12" d="M308.27,107h0l-.21-.06A6.29,6.29,0,1,0,304.5,119a4,4,0,0,0,.59.16,6.59,6.59,0,0,0,7.66-3.92C314,111.82,311.66,108,308.27,107Zm-5.48,6.67a4.22,4.22,0,1,1,8,2.43,4.19,4.19,0,1,1-8-2.43Z"/>
      <path class="cls-13" d="M308.16,110.4a4.45,4.45,0,0,0-5.37,3.26,4.19,4.19,0,1,0,8,2.43A4.46,4.46,0,0,0,308.16,110.4Zm.53,4.56a1.46,1.46,0,0,1-.9-1.75,1.4,1.4,0,1,1,2.67.81A1.46,1.46,0,0,1,308.69,115Z"/>
      <path class="cls-14" d="M310.46,114a1.4,1.4,0,1,1-2.67-.81,1.4,1.4,0,1,1,2.67.81Z"/>
      <path class="cls-15" d="M309.21,137.26a18.71,18.71,0,0,0,5.34-3.87,19.38,19.38,0,0,1-5,4.53l-.37-.66Z"/>
      <path class="cls-3" d="M289.5,103c.07-.11-9.43-8.87,4.19-19.32,2.3-1.45,4.43.79,4.91,4.23s-2.94,10.78-3.54,11.46Z"/>
      <path class="cls-16" d="M295.74,84.22c-10.62,8.14-7.2,15.26-5.21,18l-1.11.73c.07-.12-9.43-8.87,4.19-19.33a2.41,2.41,0,0,1,3,.18A2.58,2.58,0,0,0,295.74,84.22Z"/>
      <path class="cls-17" d="M294.81,139.08a21.47,21.47,0,0,1-10.72-6.33A21,21,0,0,0,295,138.1l-.22,1Z"/>
      <g>
        <path class="cls-18" d="M308.79,130.23c-4.17-.53-6.19,3.2-6.87,4.75a19,19,0,0,1,1-5.74,18.9,18.9,0,0,1,6.11-.45C309,129.24,308.89,129.72,308.79,130.23Z"/>
        <path class="cls-19" d="M309.5,137.67a2.93,2.93,0,0,1-1.62,1.34,6.37,6.37,0,0,1-2.86.21c-2.16-.24-2.95-1.85-3.08-3.79,0-.15,0-.3,0-.45.68-1.55,2.7-5.28,6.87-4.75l-.12.57c-.1.43-.22.88-.36,1.33a18.05,18.05,0,0,1-2.14,4.5C307.19,137,308.3,137.35,309.5,137.67Z"/>
        <path class="cls-20" d="M309.58,137.63A2.93,2.93,0,0,1,308,139a6.49,6.49,0,0,1-2.86.22,3.15,3.15,0,0,1-2.85-2.43h0s2.42-4.18,5.3-2.48a18.16,18.16,0,0,1-1.3,2.32C307.27,137,308.38,137.31,309.58,137.63Z"/>
      </g>
      <ellipse class="cls-21" cx="315.03" cy="125.87" rx="0.42" ry="0.33" transform="translate(113.6 398.84) rotate(-75.35)"/>
      <ellipse class="cls-21" cx="314.97" cy="128.27" rx="0.42" ry="0.33" transform="translate(59.55 352.82) rotate(-63.48)"/>
      <ellipse class="cls-21" cx="313.31" cy="129.91" rx="0.42" ry="0.33" transform="translate(57.17 352.25) rotate(-63.48)"/>
      <path class="cls-22" d="M326.28,126.73l-.09,0a12.36,12.36,0,0,1-3.58-3.36c-2.42-3.46-1.54-6.31-4-12.34a29,29,0,0,0-3.55-6.52c-5.45-6.61-17.1-5.4-20.68-4.9l.93-.87.51-1,.49-1a9.12,9.12,0,0,1,1.17-.52,10,10,0,0,1,4.39-.52h0a5.61,5.61,0,0,0,.72,0c.8,0,1.69.11,2.68.22.76.08,1.55.17,2.36.29s1.81.29,2.65.45,1.47.26,2.26.46,1.65.44,2.38.68a15.65,15.65,0,0,0-1.47,1.4,1.05,1.05,0,0,0-.22.44,1.09,1.09,0,0,0,0,.27c.05.51,1.91,1.52,2.38,1.79,0,0,.67.49,2,1.44a24.59,24.59,0,0,1,7.7,9.31s0,.09.07.19C326.93,116.83,328.19,122.27,326.28,126.73Z"/>
      <path class="cls-23" d="M326.13,126.69l-.09,0a12.36,12.36,0,0,1-3.58-3.36c-2.42-3.46-1.54-6.31-4-12.34a28.58,28.58,0,0,0-3.55-6.52c-5.45-6.6-17.1-5.4-20.67-4.9l.92-.87q.25-.48.51-1l.49-1a9.12,9.12,0,0,1,1.17-.52,10,10,0,0,1,4.39-.52h0a5.61,5.61,0,0,0,.72,0c.8,0,1.69.11,2.68.22.76.08,1.55.17,2.36.29s1.81.29,2.65.45,1.47.26,2.26.46,1.65.44,2.38.68a15.65,15.65,0,0,0-1.47,1.4,1.05,1.05,0,0,0-.22.44,1.14,1.14,0,0,0,0,.28c0,.5,1.91,1.51,2.38,1.78,0,0,.67.49,2,1.44a24.59,24.59,0,0,1,7.7,9.31s0,.09.07.19C326.78,116.8,328.05,122.23,326.13,126.69Z"/>
      <path class="cls-17" d="M288.38,118.89a8.73,8.73,0,0,0-8.65,8c-2.73-1.39-4.36-3.83-4-7a14.39,14.39,0,0,1,3-7.11l.34.84c-1.19.08-2.49,1.45-3.42,2.26a1.41,1.41,0,0,1-.83.44c-.41,0-.57-.58-.55-.75a7.14,7.14,0,0,1,3.61-5.31c1-.49,2.09-1,3.09-1.58a4.74,4.74,0,0,0,.93-.66,5.26,5.26,0,0,1-.86.77c-.91.65-2,1.31-2.92,1.81-1.62,1.11-3.13,3.27-3.1,5-.06,0-.13,0-.16-.07s-.12,0-.08,0c.49-.38.91-.88,1.4-1.3a5.29,5.29,0,0,1,2.83-1.57l.74-.09-.41.93c-2.53,3.53-4.47,9.68.25,12.28l-.63.31c.84-4.39,4.84-7.86,9.39-7.3Z"/>
      <path class="cls-17" d="M290.33,102.08a.5.5,0,0,0,0,.5l-.15-.2c-3.25-4.18-2.46-10.16.82-14.06a24.82,24.82,0,0,1,3.52-3.65c2.21-1.61,3.83,1.19,4,3.15a4.66,4.66,0,0,1-.1,2,51.85,51.85,0,0,1-2.61,7.42,50.62,50.62,0,0,0,2.37-7.47,5.79,5.79,0,0,0-.52-3.73c-.53-1.19-1.78-1.89-2.83-1a18,18,0,0,0-5.53,8,9.76,9.76,0,0,0,1.7,8.78c.2.24.39.49.21.8l-.86-.51Z"/>
      <path class="cls-16" d="M313.89,89.83c-3.94-2.49-9.64,4.42-11.09,6.27l-.6-.11c.24-.29,7-9.54,11.42-6.7A1.15,1.15,0,0,1,313.89,89.83Z"/>
      <path class="cls-24" d="M307.27,102.77l-.44-.12a10.12,10.12,0,0,0-11.37,5,1.47,1.47,0,0,0-.1.22,6.5,6.5,0,0,0-.27.66c-.09.24-.16.49-.23.74s-.1.46-.14.69-.05.31-.07.46l0,.23a10.05,10.05,0,0,0,6.81,9.9l.22.08h0a23.32,23.32,0,0,1,5.77.15h0l.05,0,.1,0A9.2,9.2,0,0,0,314,115C315.78,110,312.35,104.31,307.27,102.77Zm-7.41,8.57c.87-3.43,4.76-5.32,8.15-4.42l.21.06c3.41,1,5.73,4.84,4.52,8.26-1.09,3.08-4.58,4.57-7.65,3.92a4,4,0,0,1-.59-.16h-.06C301.32,118,299,114.64,299.86,111.34Z"/>
      <path class="cls-3" d="M310.43,129.25h0l-.07,0A10.35,10.35,0,0,0,309,129h0a18.52,18.52,0,0,0-6,.39c-1.22.22-3.16,7.66-3.71,9.81l-.6-.06a28,28,0,0,1-4-.6l-.1,0c.17-.38-9.16-2.85-10.08-5.88,0-.12-4.8-1.23-4.61-5.73.17-4,5.34-9.15,7.51-7.56.85-.38,7.49,2.25,12.2,1.51l.24,0c.64-.1,1.29-.18,2-.23h0a23.5,23.5,0,0,1,5.73.2h0a16.27,16.27,0,0,1,4.25,1.29,2.15,2.15,0,0,1,.83.8l.12.18C313.74,124.78,314.49,128.22,310.43,129.25Z"/>
      <g>
        <path class="cls-25" d="M314.87,126.33c-5.35-5-12.57-7.59-19.78-8.42a41.53,41.53,0,0,1,10.75,2.15,29.68,29.68,0,0,1,9.45,5.34s0,0,0,0l-.45.89Z"/>
        <path class="cls-25" d="M314.77,128.76c-4.64-4.38-10.9-6.63-17.17-7.37a31.6,31.6,0,0,1,15.81,5.07,22.1,22.1,0,0,1,1.8,1.39s0,0,0,0l-.45.89Z"/>
        <path class="cls-25" d="M313.06,130.35c-4.06-3.85-9.52-5.85-15-6.51a27,27,0,0,1,14.75,5l.72.58s-.45.89-.45.9Z"/>
      </g>
      <path class="cls-26" d="M304.12,95.47c.18-.2,5.16-6.78,8.55-4.7,1.23,1.31-2.65,5.78-2.65,5.78Z"/>
      <path class="cls-27" d="M303.9,95.42c.18-.21,5.16-6.79,8.55-4.71,1.23,1.31-2.65,5.78-2.65,5.78Z"/>
      <path class="cls-28" d="M301.79,95.57a64.06,64.06,0,0,1,9.42,1.05"/>
      <path class="cls-26" d="M291.39,99.65c.05-.07-6-5.66,2.68-12.34,1.47-.92,2.82.51,3.13,2.7s-1.87,6.89-2.26,7.33Z"/>
      <path class="cls-27" d="M291.28,99.94c.05-.07-6-5.66,2.68-12.34,1.47-.92,2.83.51,3.14,2.7s-1.88,6.89-2.26,7.33Z"/>
      <g>
        <path class="cls-29" d="M320,133c-.63-.26-1-1.53-1.81-3.18-1-1.9-2-2.6-2.38-3.66-.45-1.23,3.53-2.19,6.84-1.19,3.14,1,4.32,2.41,3.76,3.57S322.06,133.72,320,133Z"/>
        <path class="cls-30" d="M325.68,127.44c-2.07-2-5.61-2.63-8.4-2.58a10.29,10.29,0,0,1,5.35.12c3.14,1,4.32,2.41,3.76,3.57a9.67,9.67,0,0,1-1,1.07C326,128.59,326.1,127.91,325.68,127.44Z"/>
        <path class="cls-31" d="M317.3,124.86c-1,1.07,1.5,2.5,2.3,3.87.62,1,.58,2.73,1.49,3.07,1.35.35,3.19-1.48,5.06-2.85-1,1.48-4.28,4.7-6.17,4.06-.63-.26-1-1.53-1.81-3.18-1-1.9-2-2.6-2.38-3.66C315.59,125.64,316.24,125.15,317.3,124.86Z"/>
        <path class="cls-32" d="M315.92,125.56c-.17.19-.15.32-.12.4a6.42,6.42,0,0,0,.91,1.41,12.76,12.76,0,0,1,1.57,2.4c.27.53.49,1,.69,1.45.39.9.71,1.6,1.06,1.75l.08,0h0c2,.54,5.77-3.45,6.31-4.56a1.13,1.13,0,0,0,0-1c-.4-.91-1.77-1.77-3.78-2.38l-.34-.1C319.47,124.21,316.58,124.83,315.92,125.56Z"/>
      </g>
    </g>
    <path class="cls-3" d="M132.5,134.67a4,4,0,0,1,.89-3.7,55.63,55.63,0,0,0,5.3-6.73c1.08-1.74,15.18-6.46,19.83-6.47s12.3,5.86,30.82,10.44S217.86,113,217.86,113c.23-18.06-36.27-19.41-40.17-15.56-4.67,4.6-7.61,15.53-16.84,13.91s-17.19,6.67-21.34,8.59-3.39,5.51-5.95,8.56C131.58,130.9,130.3,133.61,132.5,134.67Z"/>
    <path class="cls-1" d="M132.5,134.67a6.63,6.63,0,0,0,2.87.47c5.75-.07,6.72-3.54,8.27-6s10.88-5.45,14.62-5.06,12.31,6.33,28.12,10.6,26.44-8.78,26.44-8.78c3.5-5,5-9.27,5-12.86,0,0-10,19.76-28.52,15.17s-26.17-10.44-30.82-10.44-18.75,4.73-19.83,6.47a55.63,55.63,0,0,1-5.3,6.73A4,4,0,0,0,132.5,134.67Z"/>
    <path class="cls-33" d="M129.56,111.86c-2.51,1.78-4.44,4.07-2.59,5.66a6.52,6.52,0,0,0,2.65,1.18c5.59,1.4,7.4-1.71,9.54-3.69,1.54-1.45,7.13-2.11,11.42-1.85-4.7,2.22-8.58,5.67-11.07,6.82-4.15,1.92-3.39,5.51-5.95,8.56-2,2.36-3.26,5.06-1.06,6.13a6.63,6.63,0,0,0,2.87.47c5.75-.07,6.72-3.54,8.27-6s10.88-5.45,14.62-5.06,12.31,6.33,28.12,10.6a24.82,24.82,0,0,0,20.69-3.76c12,4.49,24.7,7,34,9.08,11.53,2.54,23.07,2.49,32,3.08,1.39,3.11,2.39,6,5.44,8.52,5.24,4.31,18.09,11.8,23.53,14.44,4,2,8.19,7,10.18,7.31.7.12,1.13-.37,1.18-1.79.13-3.64-2.87-7.34-7.13-11.17l.88.32c4.23,1.43,9,5.92,11,6,.71,0,1.08-.51.95-1.92-.49-5.42-7.89-10.09-16.09-15-7.9-4.76-6.21-5.14-9.17-11.44l.75.18v0l.1,0a28,28,0,0,0,4,.6l.6.06c.35-1.37.41-1.51.07-.17h.09a3.29,3.29,0,0,0,.57,1.7c1.24,1.75,4,1.53,5.85,1.38a7.45,7.45,0,0,0,3.91-1.13,6.65,6.65,0,0,0,2.29-2.72,8.52,8.52,0,0,1,1.44.18,7.48,7.48,0,0,0,2.4-1,27.14,27.14,0,0,0,4-2.75l.42-.38h.08l-.08.07a2.57,2.57,0,0,0,.5,0l.37.2h0a5,5,0,0,0,1.52.47,9.16,9.16,0,0,0,1.82.18c3.61.34,6.6-5.83,4.43-6.61-.21-.08-2.57-1.69-2.44-1.65,1.92-4.46.65-9.9-1-14.06-3.4-8.73-11.84-12.44-12.15-13s2.05-2,2.05-2.24a19.2,19.2,0,0,0-4.29-1.21c1.35-1.67,4.57-6,3.18-7.47-4.48-2.75-10.93,5.23-11.93,6.48h-.17c-.62,0-1.23,0-1.84.09a9.77,9.77,0,0,0-3,.57l-.16.07a6.45,6.45,0,0,0-.62.21c1.12-2.63,2.38-6.38,2.07-8.55-.34-2.42-1.49-4.23-2.94-4.6a2.43,2.43,0,0,0-2.05.34c-9.38,7.21-7.79,13.6-5.92,16.92a3.15,3.15,0,0,0-1.16,1c-.32.52-.8,1.64-1.64,3a60.51,60.51,0,0,0-7.58-1c-14.54-1-53.53-9.39-70.14-14.95-1-.33-1.95-.64-2.86-.92h0c-1.27-1.39-15.76-2.63-14.88-2-3.12.63-5.1,2.3-7.31,4.48a17.32,17.32,0,0,0-2.53,3.26c-5.51,3.56-11,12.62-19.28,8.83-8.51-3.92-18.32,2.08-22.82,2.87S132.81,109.56,129.56,111.86Zm178.45.88a1.46,1.46,0,0,1,1.57-.62,1.44,1.44,0,0,1,1,1.29,1.45,1.45,0,0,0-1-1.29,1.48,1.48,0,0,0-1.57.62Z"/>
    <g>
      <path class="cls-3" d="M166.34,87.23l1.39,1c.73,1.72,2,4.46.77,12a24.8,24.8,0,0,1-.62,2.77,26.47,26.47,0,0,1-3.07,6.77c-.21.36-.44.72-.66,1.09-2.62.87-4.33,1.83-8.75,1.88A16.79,16.79,0,0,1,139.7,103c-1.78-3.68-3.38-7.1-7.33-9.24a14.79,14.79,0,0,0-1.53-.71,15.86,15.86,0,0,0-4.49-1c.88.34,7.34,2.93,9.23,9.57,1.76,6.16-1.7,11.3-2.8,12.93-4.69,7-14.06,10.52-21.49,9.56-12.94-1.67-23.78-17.51-23.75-33.62a33.78,33.78,0,0,1,.61-6.41c2.74-14.19,14.73-25.54,28-28.46,13.95-3.06,25.63,4,27.18,4.89,11.82,7.09,12.86,18.61,19.92,23.93A36.74,36.74,0,0,0,166.34,87.23Z"/>
      <path class="cls-34" d="M181.25,95.72c-2.52,2.77-5,8.41-9.85,12.16-6,4.69-12.8,4.64-16,4.82a28.27,28.27,0,0,0,11.36-14.07c1.64-4.5,1.78-8.44.55-10.63,4.5,2.58,14.29,1.78,16.06.73C188.28,85.79,181.25,95.72,181.25,95.72Z"/>
      <path class="cls-35" d="M167.61,88.64c-.47.63-4.92-.06-9.45-3.82-5.86-4.88-14.87-15-22-18.65-11.63-5.89-26.1,1.36-28.69,2.67A40.59,40.59,0,0,0,87.9,91.05a34.43,34.43,0,0,1,.57-6.39C91.13,70.5,103,59.23,116.13,56.36c13.8-3,25.39,4.06,26.93,5C154.8,68.48,160.59,83.29,167.61,88.64Z"/>
      <path class="cls-17" d="M126.26,112.58c-7.27,3.32-17,2.24-22.21-4.23-5.17-6.31-6.32-15.83-2.18-23,5.2-9.71,17.93-14.22,28.24-10.69,10.55,3.76,14.87,15.25,23,22A17.12,17.12,0,0,0,168,100.41a17.2,17.2,0,0,1-15.18-3.33c-8.26-6.58-12.6-17.79-23-21.53-9.86-3.27-22.09,1-27.14,10.27A19.42,19.42,0,0,0,101,101c2.91,11.36,14.76,15.82,25.23,11.6Z"/>
      <path class="cls-17" d="M184,91.32c-3.68,6.46-7.82,13.05-13.9,17.52-6.49,3.77-14.7,5.6-21.85,2.59a19.16,19.16,0,0,1-10.54-10.59,12.6,12.6,0,0,0-4.25-5.69c-5.75-4.45-15.35-2.67-19,3.59a7.31,7.31,0,0,0,2.73,9.34c3,1.64,8.48-.77,7.36-4.6-.77-2.81-4.46-2.27-5.78-.16,1.34-2.3,5.11-2.88,6,.07,1.34,4.18-4.57,7-7.9,5.21a8,8,0,0,1-3.19-10.23c3.9-6.85,14.1-8.73,20.34-4a13.26,13.26,0,0,1,4.58,6.13,18.18,18.18,0,0,0,10,10.13c6.88,2.95,14.9,1.35,21.24-2.21C176,104.1,180.19,97.62,184,91.32Z"/>
    </g>
  </g>
</svg>
