<svg xmlns="http://www.w3.org/2000/svg" xmlns:xlink="http://www.w3.org/1999/xlink" width="196.24" height="218.82" viewBox="0 0 196.24 218.82">
  <defs>
    <style>
      .cls-1, .cls-15, .cls-19, .cls-32, .cls-39 {
        fill: none;
      }

      .cls-2 {
        isolation: isolate;
      }

      .cls-3 {
        fill: #775b24;
      }

      .cls-4 {
        fill: #23170d;
      }

      .cls-5, .cls-6 {
        mix-blend-mode: multiply;
        opacity: 0.5;
      }

      .cls-5 {
        fill: url(#linear-gradient);
      }

      .cls-6 {
        fill: url(#linear-gradient-2);
      }

      .cls-7 {
        fill: #724626;
      }

      .cls-8, .cls-9 {
        opacity: 0.39;
      }

      .cls-8 {
        fill: url(#linear-gradient-3);
      }

      .cls-9 {
        fill: url(#linear-gradient-4);
      }

      .cls-10 {
        fill: #8f6c29;
      }

      .cls-11 {
        clip-path: url(#clip-path);
      }

      .cls-12, .cls-17 {
        fill: #bc7b18;
      }

      .cls-13 {
        fill: #bc6b00;
      }

      .cls-14, .cls-33 {
        fill: #fedcae;
      }

      .cls-14, .cls-15 {
        stroke: #894f1a;
      }

      .cls-14, .cls-15, .cls-17, .cls-19, .cls-32, .cls-35, .cls-39 {
        stroke-miterlimit: 10;
      }

      .cls-16 {
        fill: #ffbe72;
      }

      .cls-17, .cls-35 {
        stroke: #bc7b18;
      }

      .cls-18 {
        fill: #e07e1e;
      }

      .cls-19 {
        stroke: #231f20;
      }

      .cls-20 {
        fill: #f3d9ab;
      }

      .cls-21 {
        fill: #f6f6f6;
      }

      .cls-22 {
        fill: #3d3123;
      }

      .cls-23 {
        fill: #fff;
      }

      .cls-24 {
        fill: #894f1a;
      }

      .cls-25 {
        fill: #231f20;
      }

      .cls-26 {
        fill: #af6104;
      }

      .cls-27 {
        fill: #874207;
      }

      .cls-28 {
        fill: #9e4808;
      }

      .cls-29 {
        fill: #f76f6f;
      }

      .cls-30, .cls-31 {
        fill: #f2dcad;
      }

      .cls-30 {
        mix-blend-mode: screen;
        opacity: 0.2;
      }

      .cls-32 {
        stroke: #800001;
      }

      .cls-34 {
        fill: #911919;
      }

      .cls-35 {
        fill: #cc821f;
      }

      .cls-36 {
        fill: #7f0000;
      }

      .cls-37 {
        fill: #ce4545;
      }

      .cls-38 {
        fill: #590000;
      }

      .cls-39 {
        stroke: #5b2d07;
      }
    </style>
    <linearGradient id="linear-gradient" x1="-7786.3" y1="148.84" x2="-7851.79" y2="144.9" gradientTransform="matrix(1, -0.05, 0.05, 1, 7857.08, -345.71)" gradientUnits="userSpaceOnUse">
      <stop offset="0" stop-color="#563628"/>
      <stop offset="0.15" stop-color="#83593d"/>
      <stop offset="0.3" stop-color="#ab784f"/>
      <stop offset="0.43" stop-color="#c38b5a"/>
      <stop offset="0.5" stop-color="#cc925e"/>
      <stop offset="0.64" stop-color="#c98e5b"/>
      <stop offset="0.78" stop-color="#bf8152"/>
      <stop offset="0.93" stop-color="#ae6d43"/>
      <stop offset="1" stop-color="#a4603a"/>
    </linearGradient>
    <linearGradient id="linear-gradient-2" x1="-7776.44" y1="140.52" x2="-7850.98" y2="136.03" xlink:href="#linear-gradient"/>
    <linearGradient id="linear-gradient-3" x1="-7842.97" y1="119.04" x2="-7756.21" y2="119.04" gradientTransform="matrix(1, -0.05, 0.05, 1, 7857.08, -345.71)" gradientUnits="userSpaceOnUse">
      <stop offset="0" stop-color="#542c28"/>
      <stop offset="0.16" stop-color="#452422"/>
      <stop offset="0.45" stop-color="#30181a"/>
      <stop offset="0.73" stop-color="#231116"/>
      <stop offset="0.99" stop-color="#1f0f14"/>
    </linearGradient>
    <linearGradient id="linear-gradient-4" x1="-7851.97" y1="67.33" x2="-7775.21" y2="67.33" xlink:href="#linear-gradient-3"/>
    <clipPath id="clip-path">
      <path class="cls-1" d="M29.51,61.17c-.59-.14-6,36-.13,57.38,5.75,21,33.39,16.88,33.39,16.88l75.88-2.2s48-24.47,38.66-60.67S124.72,28.07,99.15,45.75,29.51,61.17,29.51,61.17Z"/>
    </clipPath>
  </defs>
  <g class="cls-2">
    <g id="Layer_1" data-name="Layer 1">
      <g>
        <g>
          <path class="cls-3" d="M91.44,66.83S90.21,99,88.77,119.72s-10,20.09-22.2,23.34-29.7,1.44-35.89.39-10.78-6.68-11.51-30.52-.33-44.48,4-71.6S60.72,13.4,69.51,19.15C84.51,29,85.94,32.41,91.44,66.83Z"/>
          <path class="cls-4" d="M27.12,100.31c2.46,29.29,5.37,37.57,20.88,39,1.43.13,14.16,2.74,15.56,2.72,13.82-.23,18.6-10.07,20.73-25.14,6.11-43.31-2.23-74-2.23-74C76.66,29.18,70.3,26.33,61.75,24.08S52.3,23.59,43,25.75c-4.17,1,4.81,1.47-.56,4.11C31.56,35.22,25.29,78.5,27.12,100.31Z"/>
          <path class="cls-5" d="M21.07,127.61s9,20.33,38.84,11.83c2.71-.77,5.53-.05,8.27.62,9.78,2.38,9.13,2.11,18.32.68,0,0,1.25,4.09-24.84,20.94-3.56,2.3-.93,18.55-1.74,24.5C59,193,56.73,202.45,52,202.07c-4.44-.37-13,6.07-16.46-19.26-1-7.42-.24-22.95-4.82-25.66C22.21,152.1,21.86,144.1,21.07,127.61Z"/>
          <path class="cls-6" d="M34.55,151.88c4.23,2,5.65,6.7,7.2,12.14,1.73,6,.65,21.36,7.38,19.76s8.16-18.09,9.07-23.26c.79-4.5,12.91-4,16.23-5.75,4.93-2.64,5.72-9.7,8.92-12.15-11.87.68-21.1,1.43-27.11.3a84.54,84.54,0,0,0-9.65-.85c-21.91-1-24.79-13.57-24.79-13.57,0,.42-.07.83-.1,1.25C23.37,140.44,28.16,148.85,34.55,151.88Z"/>
          <path class="cls-7" d="M28.46,137.2c-5.64,2.59,61.4,14.24,83.39-5.17,0,0,16.26-9.86-30.81-6.89C37.26,131.19,25.92,125.62,28.46,137.2Z"/>
          <path class="cls-8" d="M111.79,130.59C85.89,147,32.72,139.1,28.34,134.2c-.47.53.05,2.89.13,3.25-5.63,2.58,61.41,14.24,83.39-5.18,0,0,3.68-2.23,2.46-4.25A7.25,7.25,0,0,1,111.79,130.59Z"/>
          <path class="cls-9" d="M33.41,140.27c-6.19-1.05-10.79-6.68-11.52-30.52s0-39.24,4.4-66.36c2-12.29,3.14-14.18,10-19.31C27.6,28.82,24.7,31.37,22.35,45.92,18,73,17.23,88.44,18,112.28s5.33,29.47,11.51,30.52,14.55,4.52,39.91,4.61c2.77,0,24.58-5.92,26.68-7.69-1.09.52-22,3.19-25.18,3.3C58.47,143.44,39.59,141.32,33.41,140.27Z"/>
          <path class="cls-10" d="M27.9,129.78s18.06,16.1,83.89.78c0,0,16.27-9.85-30.8-6.88Z"/>
        </g>
        <g class="cls-11">
          <g>
            <g>
              <path class="cls-12" d="M39.75,91.22h0a28.08,28.08,0,0,1-4,14.62,20.72,20.72,0,0,1-1.59,2.27,25.51,25.51,0,0,1-5.25,5c-.32.24-.65.49-1,.73-2.65-.21-4.52,0-8.46-1.63A16.54,16.54,0,0,1,9.17,97.43c-.19-4-.33-7.71-3-11.14A14.94,14.94,0,0,0,5,85.06a14.55,14.55,0,0,0-3.6-2.61c.66.64,5.41,5.44,4.61,12.16-.75,6.24-5.74,9.56-7.32,10.62-6.76,4.51-16.4,4.14-22.62.44-10.84-6.44-14.52-24.89-8.47-39.43a33.43,33.43,0,0,1,2.93-5.55c7.73-11.79,22.6-17.47,35.48-15C19.55,48.21,27.28,59,28.31,60.43,36.13,71.34,34,81.6,38.31,89.1A15.24,15.24,0,0,0,39.75,91.22Z"/>
              <path class="cls-13" d="M48.61,109.25a33.8,33.8,0,0,1-29.14,2.91,26.09,26.09,0,0,0,15.33-8.39,26.13,26.13,0,0,0,6.43-16.83,15.44,15.44,0,0,0,2.51,2.46,39.84,39.84,0,0,0,2.1,13.92A32.59,32.59,0,0,0,48.61,109.25Z"/>
              <path class="cls-14" d="M37.63,89.73c-.66.4-2.58-1.74-3.21-2.45-5-5.52-9.63-18.52-14.58-24.48C11.74,53-3.79,54.08-6.58,54.27a38.77,38.77,0,0,0-25.67,12.6,33.29,33.29,0,0,1,2.9-5.55,35,35,0,0,1,35.08-15c13.35,2.55,21,13.34,22,14.77C35.47,72,33.41,82.23,37.63,89.73Z"/>
              <path class="cls-15" d="M37.63,89.73c-.66.4-2.58-1.74-3.21-2.45-5-5.52-9.63-18.52-14.58-24.48C11.74,53-3.79,54.08-6.58,54.27a38.77,38.77,0,0,0-25.67,12.6"/>
              <path class="cls-16" d="M153.33,89.59c-.64,1.1-1.45,2.31-2.42,3.77-2,.51-9.72,2-11-2.51h0c3.68-2,2.08-5.11.59-6.48l-.15-.15a2.55,2.55,0,0,0-1.13-.65,16,16,0,0,0-1.68-.18,43.64,43.64,0,0,1,8.31-.36c-.15.66-.24,1.54.26,1.93C146.94,85.57,152.56,86.54,153.33,89.59Z"/>
              <path class="cls-12" d="M123.6,60.53c.17-.35,4.61-11.09,10-9.46,2.14,1.35-1.55,8.82-1.55,8.82Z"/>
              <path class="cls-17" d="M155,84.71a11.61,11.61,0,0,0-2,.14,18.24,18.24,0,0,0-6.71-1.78l-.57,0h0a43.76,43.76,0,0,0-8.24.36h0a16.43,16.43,0,0,0-2.72.07,9.23,9.23,0,0,0,4.81-7.19c.45-5.36-4.22-10-9.44-10.16s-10.23,4-10.2,9.4c0,5,4.51,9,9.29,9.27-.58.21-1.16.44-1.71.69l-.22.09A38.52,38.52,0,0,0,119,90.69l-.08.07c-1-1.45-2-2.89-3-4.27-7.33,1.71-6.8,9.07-6.76,9.38-7.51-2-3.83-12.16-3.59-12.5-1.72.58-2.92,3.76-3.36,3.76S101.29,84,103.92,81a14.31,14.31,0,0,0,2.72-2.73h0a19.71,19.71,0,0,0,3.26-8,3.25,3.25,0,0,1,.87-1.3c1.12-1.13,3.3-2.65,7-5.84l.32-.26a15.76,15.76,0,0,1,5.39-2.45,42,42,0,0,1,8.66-1.28,21.29,21.29,0,0,1,4.67.07c.08.27-1.84,2.26-1.41,2.69s9.54,1.9,15,9.48C153.09,75,155.69,79.91,155,84.71Z"/>
              <path class="cls-12" d="M127.35,104s0,0,0,0c-.34-1.31-3.93-7-7.87-12.67l0,0c-.07-.1-.14-.19-.2-.29a.83.83,0,0,1-.08-.12c-1-1.41-2-2.81-2.93-4.15a2.64,2.64,0,0,0-.73-.2c-2.57-.29-4.81,3.64-5.46,4.8a6.24,6.24,0,0,0-.9,2.64,5.83,5.83,0,0,0,.09,1.66,5,5,0,0,1-2.8-1.24c-2.86-2.63-1.33-8.38-1-9.53.15-.53.29-1,.4-1.25,0-.06.11-.28,0-.33s-.15,0-.21,0A6.57,6.57,0,0,0,104,84.51a5.78,5.78,0,0,0-1.43,2.25c0,.07,0,.5-.13.51h0a6.53,6.53,0,0,1-.11-2.15,6.83,6.83,0,0,1,1.88-3.88,14.54,14.54,0,0,0,2.12-1.93q.36-.4.66-.81a.25.25,0,0,0-.13,0,.13.13,0,0,0-.09,0l-.62.16a23.07,23.07,0,0,1-7.73.39,5.23,5.23,0,0,1-1.41-.36l-.16-.07c-5.32-2.26-11-12.69-20.52-16.71l-.42-.17a12.19,12.19,0,0,0-1.15-.42,20.57,20.57,0,0,0-5-1h-.09a39.32,39.32,0,0,0-7.66.77C46.55,64.94,40.69,74.33,40.69,74.33a26.77,26.77,0,0,0-3.87,11.84,34.92,34.92,0,0,0,1.39,14.66s2.74,8.59,9,14.42l.22.2a21.32,21.32,0,0,0,6.4,4.33,5,5,0,0,1,2.14,1.46,5.94,5.94,0,0,0-.59.38c-3.55,2.48-5.77,7.75-3.64,9.13a1.74,1.74,0,0,0,.41.2,4.05,4.05,0,0,0,2.24,0c6.35-1.57,26.49-.83,26.49-.83a8.65,8.65,0,0,0,1.36-.58c3.27-1.81-1-4.29-5.25-6l-.72-.3-.32-.12c-1.45-.57-2.82-1-3.78-1.34l-.18-.06a34.48,34.48,0,0,0,11.82-3.36v.13c.14,6,0,5.27.16,6s1,4.11,4.13,5.41l.22.08a6.6,6.6,0,0,0,1.56.37,69.23,69.23,0,0,0,9.2.12c1.7-.07,2.94-.14,3.14-.12s.29-.41.2-1.14c-.31-2.3-3-4.3-5.62-5a8.69,8.69,0,0,0-2.5-.26h0v-.06a19.9,19.9,0,0,1,.87-6.07c.42.09.84.16,1.25.22a1.52,1.52,0,0,0,.21,0,25.35,25.35,0,0,0,3.32.28h1.19a27.86,27.86,0,0,0,5.36-.68l.1,0c7.4-1.68,12.81-5.91,13.67-7.72a5.7,5.7,0,0,1,.74-1.12c1.82-2.22,5.46-4.08,6.35-4.6h0C127.39,104.13,127.37,104,127.35,104Z"/>
              <path class="cls-18" d="M109.88,129a17.13,17.13,0,0,1-2.72.08c-1.74,0-3.87,0-5-.06-.21-1.42-1.46-3.77-5.78-4.83v-6.28a26.88,26.88,0,0,0,9.9-.33c-1,1.43-2.25,3.84-1.83,6.32C104.54,123.82,109.72,124.5,109.88,129Z"/>
              <path class="cls-16" d="M143.82,99.26a6.69,6.69,0,0,1-1.53,3.2,7.4,7.4,0,0,1-3.5,2.09c-1.73.61-4.37,1.53-6,.14a3.34,3.34,0,0,1-1-1.5l-.09,0c0-2.22,0-9.91,1.1-10.43,0,.4,0,.89,0,1.42,0,3.22.57,8.2,4.46,7.68a6.24,6.24,0,0,0,2.67-.9,3.08,3.08,0,0,0,1-1v0a2.63,2.63,0,0,0,.27-.66H142C142.63,99.31,143.24,99.29,143.82,99.26Z"/>
              <line class="cls-19" x1="106.68" y1="78.27" x2="106.68" y2="78.27"/>
              <path class="cls-20" d="M153.58,90.15a8.85,8.85,0,0,0-1.34,1.19,8.39,8.39,0,0,0-1.33,2c-2,.51-9.72,2-11-2.51h0c3.68-2,2.08-5.11.59-6.48l-.15-.15a2.55,2.55,0,0,0-1.13-.65,16,16,0,0,0-1.68-.18,43.64,43.64,0,0,1,8.31-.36,28.75,28.75,0,0,1,3.55.54c1.75.38,2,.6,3.58.93,2.66.55,3.42.23,3.71.79C157.29,86.36,155.19,88.94,153.58,90.15Z"/>
              <path class="cls-19" d="M144,99.22s0,.06,0,.09"/>
              <path class="cls-21" d="M150.82,93.36l-.33.5a27.13,27.13,0,0,1-3.16,3.67,7.47,7.47,0,0,1-2.08,1.53l-1.55.13c-.58,0-1.19.06-1.81.07H141c-1.23,0-2.38-.06-3.44-.16a17.74,17.74,0,0,0,.77-8.15s0-.06,0-.08a9.65,9.65,0,0,1,1.41-.1l.07,0h0l0,.09C141.1,95.33,148.81,93.87,150.82,93.36Z"/>
              <path class="cls-21" d="M132.3,70H132c-3.45,0-6.67,2.82-6.65,6.34a6.64,6.64,0,0,0,6.32,6.24c.2,0,.41,0,.61,0a6.59,6.59,0,0,0,6.42-5.72C139,73.18,135.84,70.09,132.3,70Zm-3.62,7.83a4.21,4.21,0,1,1,8.37.33,4.19,4.19,0,1,1-8.37-.33Z"/>
              <path class="cls-22" d="M133.05,73.27a4.46,4.46,0,0,0-4.37,4.51,4.19,4.19,0,1,0,8.37.33A4.45,4.45,0,0,0,133.05,73.27Zm1.67,4.28a1.46,1.46,0,0,1-1.31-1.47,1.4,1.4,0,1,1,2.78.11A1.46,1.46,0,0,1,134.72,77.55Z"/>
              <path class="cls-23" d="M136.19,76.19a1.39,1.39,0,1,1-2.78-.11,1.4,1.4,0,1,1,2.78.11Z"/>
              <path class="cls-24" d="M106.1,129.13a5.14,5.14,0,0,0-2.86-4.68,6,6,0,0,1,2.56,1.68,5.84,5.84,0,0,1,1.3,2.92l-1,.08Z"/>
              <path class="cls-25" d="M140.78,98.9a18.73,18.73,0,0,0,4.27-5,19.17,19.17,0,0,1-3.58,5.72l-.69-.72Z"/>
              <path class="cls-12" d="M113.13,70.84c0-.13-11.36-6.2-.83-19.76,1.86-2,4.48-.35,5.82,2.85s-.11,11.18-.52,12Z"/>
              <path class="cls-26" d="M114.41,51.08c-8.2,10.57-3.1,16.58-.47,18.77l-.89,1c0-.13-11.37-6.2-.83-19.76a2.4,2.4,0,0,1,3-.59A2.9,2.9,0,0,0,114.41,51.08Z"/>
              <path class="cls-24" d="M127.39,104.39a21.54,21.54,0,0,1-12-3.41,20.91,20.91,0,0,0,11.93,2.41l0,1Z"/>
              <g>
                <path class="cls-27" d="M138.68,92.3c-4.17.54-5.18,4.65-5.45,6.33a19.49,19.49,0,0,1-.49-5.8,18.91,18.91,0,0,1,5.79-2C138.6,91.29,138.65,91.78,138.68,92.3Z"/>
                <path class="cls-28" d="M141.25,99.32A2.92,2.92,0,0,1,140,101a6.31,6.31,0,0,1-2.7.93c-2.16.32-3.33-1-3.95-2.89-.05-.14-.09-.28-.13-.43.27-1.68,1.28-5.79,5.45-6.33l0,.58c0,.44,0,.9,0,1.38a17.61,17.61,0,0,1-.93,4.89C138.84,99.25,140,99.31,141.25,99.32Z"/>
                <path class="cls-29" d="M141.32,99.26a2.93,2.93,0,0,1-1.24,1.7,6.36,6.36,0,0,1-2.71.93,3.12,3.12,0,0,1-3.37-1.62h0s1.28-4.66,4.5-3.74a17.5,17.5,0,0,1-.67,2.57C138.9,99.19,140.07,99.25,141.32,99.26Z"/>
              </g>
              <path class="cls-30" d="M106.57,78.46a8.89,8.89,0,0,1-.64.76,13.73,13.73,0,0,1-2,1.84c-2.57,2.91-2.17,6-1.74,6.12h0c.47-.2,1.65-3.19,3.31-3.75a.11.11,0,0,0,0,0h0l.1,0c-.17.24-2.05,5.33-.54,9,0,0,0,.1,0,.14l-.08.25s-11.07,1.59-13.9-4.41C84.86,62,54,66.17,54,66.17a13.34,13.34,0,0,0-3.5.15,10.6,10.6,0,0,0-1,.22l.43-.34a33.12,33.12,0,0,1,3.46-1.93c.75-.36,1.37-.61,2.62-1.13a40.76,40.76,0,0,1,4.74-1.71c.17,0,.77-.2,1.59-.37a28.32,28.32,0,0,1,5.45-.64c.91,0,1.6,0,2.09,0a23.14,23.14,0,0,1,4.48.68l.56.19c.28.09.49.18.74.27l.42.17c9.48,4,15.2,14.45,20.52,16.72l.16.06a4.88,4.88,0,0,0,1.41.36,22.82,22.82,0,0,0,7.72-.38l.63-.17C106.59,78.35,106.61,78.41,106.57,78.46Z"/>
              <path class="cls-31" d="M96.75,113.41s9.07.64,14.25-4.17,9.74-1.68,9.44-.52-3.49,7-14,8.86c-7.87,1.37-10.06.41-11.43,0"/>
              <path class="cls-31" d="M83.42,113.46s-6.94,3.34-12.56,3.75c0-.07-2.67,3.48-3.56,4.26,0,0,4.3.12,4.74.07s9.9-2.17,11.55-3.56C83.53,118.1,83.41,114.11,83.42,113.46Z"/>
              <ellipse class="cls-32" cx="143.62" cy="86.5" rx="0.33" ry="0.42"/>
              <ellipse class="cls-32" cx="144.16" cy="88.84" rx="0.42" ry="0.33" transform="translate(27.56 211.64) rotate(-78.13)"/>
              <ellipse class="cls-32" cx="142.97" cy="90.85" rx="0.42" ry="0.33" transform="translate(24.65 212.07) rotate(-78.13)"/>
              <path class="cls-33" d="M154.71,84.49h-.09a12.21,12.21,0,0,1-4.31-2.34c-3.22-2.74-3.09-5.72-7-10.93a28.62,28.62,0,0,0-5.09-5.41c-6.94-5-17.9-.9-21.24.49l.68-1.08c.08-.35.16-.72.24-1.08s.15-.72.22-1.07a11.11,11.11,0,0,1,1-.79,9.94,9.94,0,0,1,4.12-1.61h0a5.1,5.1,0,0,0,.71-.16c.78-.16,1.66-.32,2.65-.46.75-.12,1.54-.23,2.35-.32s1.82-.18,2.68-.23,1.49-.12,2.31-.13,1.7,0,2.47.06a16,16,0,0,0-1.07,1.72,1,1,0,0,0-.1.48,1.39,1.39,0,0,0,.05.27c.18.48,2.23,1,2.75,1.13,0,0,.78.3,2.27.89A24.53,24.53,0,0,1,150.11,71l.12.16C152.84,74.75,155.44,79.69,154.71,84.49Z"/>
              <path class="cls-15" d="M154.56,84.49h-.09a12.21,12.21,0,0,1-4.31-2.34c-3.22-2.74-3.09-5.72-7-10.93a28.65,28.65,0,0,0-5.08-5.41c-6.94-5-17.91-.9-21.24.49l.68-1.08c.08-.35.16-.72.24-1.08s.15-.72.22-1.07a10.91,10.91,0,0,1,1-.79,10,10,0,0,1,4.12-1.61h0a4.68,4.68,0,0,0,.7-.16c.79-.16,1.67-.32,2.65-.46.76-.12,1.54-.23,2.36-.32s1.82-.18,2.68-.23,1.48-.12,2.3-.13,1.71,0,2.47.06a14,14,0,0,0-1.06,1.72,1,1,0,0,0-.1.48.85.85,0,0,0,0,.27c.17.48,2.23,1,2.75,1.13,0,0,.77.3,2.27.89A24.45,24.45,0,0,1,150,71l.12.16C152.69,74.75,155.28,79.69,154.56,84.49Z"/>
              <path class="cls-13" d="M52.4,131.08a3,3,0,0,1-1.37-1h0c-1-1.92,1-6.23,4.11-8.41.19-.13.38-.26.57-.37a4.76,4.76,0,0,0-2.08-1.45,20.83,20.83,0,0,1-6.35-4.38l-.13-.12c-8.17-8-10-19.87-10-19.87a28.9,28.9,0,0,1,1.15-15.71A23.65,23.65,0,0,1,43,71.93a23.24,23.24,0,0,1,7-5.33c-9.73,19.15-4.55,37.79,5.71,42.86,8.22,4.06,18.44-1.19,20.72-2.43a40.38,40.38,0,0,1-9,14.84c4.29,2.95,6.24,3.74,7.19,3.81a11.09,11.09,0,0,1,1.57.21,11.62,11.62,0,0,1,2,.6c1.35.55,4,2.11,3.8,3s-3.27.84-7.6,1.15C74.35,130.68,55.06,132.05,52.4,131.08Z"/>
              <path class="cls-24" d="M116.06,86.49a8.71,8.71,0,0,0-6.33,10c-3-.65-5.19-2.6-5.58-5.72a14.29,14.29,0,0,1,1.09-7.64l.53.73c-1.12.38-2,2-2.73,3.05-.2.25-.34.54-.69.64s-.7-.42-.72-.59a7.15,7.15,0,0,1,2.15-6c.88-.74,1.76-1.5,2.58-2.31a4.73,4.73,0,0,0,.74-.87,5.53,5.53,0,0,1-.64,1,33.42,33.42,0,0,1-2.37,2.49c-1.28,1.48-2.19,4-1.74,5.62a.36.36,0,0,0-.17,0s-.1.05-.07,0c.38-.49.66-1.07,1-1.61a5.31,5.31,0,0,1,2.33-2.23l.7-.28-.16,1c-1.55,4.06-1.88,10.5,3.34,11.82l-.52.47c-.3-4.47,2.69-8.84,7.23-9.44Z"/>
              <path class="cls-24" d="M113.7,69.73a.49.49,0,0,0,.12.48l-.44-.36c-5.74-4.81-4-12.67,0-18a2,2,0,0,1,1.93-.83c1.42.31,2.2,1.64,2.73,2.86a4.71,4.71,0,0,1,.41,2,51.4,51.4,0,0,1-.65,7.84,52.49,52.49,0,0,0,.41-7.82,5.84,5.84,0,0,0-1.45-3.48c-.77-1-2.2-1.41-3-.24-3.62,5.14-5.26,12.83.54,17.16a3.11,3.11,0,0,1,.28.23.52.52,0,0,1,.13.5l-1-.28Z"/>
              <path class="cls-24" d="M94.48,117.52a23.82,23.82,0,0,1,6.61-10,23.17,23.17,0,0,0-5.65,10.26l-1-.28Z"/>
              <path class="cls-24" d="M89,102.2c-5.24,4.62-4.61,12.62-5.1,19l-.36-2.56c-.52-5.56-.08-13.5,5.46-16.45Z"/>
              <path class="cls-24" d="M73.07,89.88c5.13,4.78,5.76,12.83,3.25,19.11a35.32,35.32,0,0,1-5.91,9.62c-1,1.08-2.06,2.19-3.11,3.24.89-1.21,1.82-2.37,2.73-3.55,6.14-8.27,10.17-19.43,3-28.42Z"/>
              <path class="cls-24" d="M-6.31,100.94c-7.78.24-15.94-4.56-18.12-12.35C-26.6,81-24.15,72-17.82,67.11c9.25-7.73,24.91-5.73,31.8,4.18,6.1,8.6,5.14,20.33,11.48,28.73a16.24,16.24,0,0,0,9.74,5.82,16.18,16.18,0,0,1-10-5.58C18.56,92,19.32,80.33,13.26,71.8c-6.66-9.41-21.63-11.28-30.51-4a19.1,19.1,0,0,0-7.06,13c-1.66,11.2,7,19.9,18,20.09Z"/>
              <path class="cls-24" d="M46.33,110.62c-11.58,5.92-29.47,6.2-36.06-7a20.22,20.22,0,0,1-2-9.94,12.3,12.3,0,0,0-3.94-8.57c-5.89-6-20.8-3.94-17.85,6.67,1,4.33,9.17,4.9,9.14-.21-.08-2.5-3.3-3.1-5.07-1.83a4,4,0,0,1,3.22-.66c2.57.56,2.75,4.15.82,5.59a6,6,0,0,1-6.6.1c-3-2.09-3.18-6.54-1.56-9.57C-9.88,79.16.3,79.85,5,84.39a13,13,0,0,1,4.27,9.23,19.37,19.37,0,0,0,1.85,9.58c6.41,12.88,23.71,12.63,35.25,7.42Z"/>
              <path class="cls-24" d="M98.44,130.39a.83.83,0,0,1-.06-.44c.11-2.45-2.71-3.4-4.69-3.85,2.25.16,5.24.92,5.62,3.56l0,.25s.05.23,0,0l-.88.47Z"/>
              <path class="cls-24" d="M81.75,129.56a10.19,10.19,0,0,0-7.49-4.32,11.13,11.13,0,0,1,6.57,2.08A9.16,9.16,0,0,1,82.57,129l-.82.57Z"/>
              <path class="cls-26" d="M133.4,51.92c-4.45-1.41-8.22,6.71-9.14,8.87l-.62.05c.16-.35,4.33-11,9.36-9.38A1.27,1.27,0,0,1,133.4,51.92Z"/>
              <path class="cls-14" d="M130.27,66.12h-.47a10.1,10.1,0,0,0-9.74,7.69,2.23,2.23,0,0,1,0,.23c0,.23-.07.47-.09.71s0,.51,0,.77,0,.47,0,.71,0,.3.06.46l0,.22a10.08,10.08,0,0,0,9.09,7.87h.23A23.37,23.37,0,0,1,135,83.47h0l0,0,.09,0a9.16,9.16,0,0,0,4.76-7.11C140.32,70.91,135.57,66.32,130.27,66.12Zm-5,10.16c0-3.54,3.26-6.35,6.76-6.34h.22c3.57.14,6.77,3.23,6.47,6.85a6.62,6.62,0,0,1-6.41,5.72c-.2,0-.41,0-.61,0h-.07C128.35,82.33,125.29,79.68,125.26,76.28Z"/>
              <path class="cls-12" d="M140,90.93h0l-.06,0a11.36,11.36,0,0,0-1.41.09h0a18.83,18.83,0,0,0-5.71,1.9c-1.12.52-1.12,8.2-1.1,10.42l-.6.1a28.62,28.62,0,0,1-4,.43H127c.07-.41-1-2.38-2.65-5.08l-.21-.32c-1.4-2.29-3.2-5.06-5.07-7.83l0-.06a38.18,38.18,0,0,1,8.37-5.05l.22-.1c.59-.26,1.2-.49,1.83-.71h0A23.17,23.17,0,0,1,135,83.5h0a16.92,16.92,0,0,1,4.43.17,2.2,2.2,0,0,1,1,.57l.16.14C142.09,85.78,143.69,88.91,140,90.93Z"/>
              <g>
                <path class="cls-34" d="M143.58,87c-6.46-3.5-14.08-4.15-21.27-3.13a41.35,41.35,0,0,1,10.94-.64A29.71,29.71,0,0,1,143.75,86s0,0,0,0l-.21,1Z"/>
                <path class="cls-34" d="M144.1,89.37c-5.61-3.07-12.23-3.67-18.48-2.8a31.65,31.65,0,0,1,16.58.91c.69.26,1.42.57,2.09.89,0,0,0,0,0,0l-.2,1Z"/>
                <path class="cls-34" d="M142.84,91.34c-4.9-2.7-10.69-3.25-16.17-2.51A27,27,0,0,1,142.2,90l.84.38s-.2,1-.2,1Z"/>
              </g>
              <path class="cls-15" d="M96.39,118a26.73,26.73,0,0,0,4.94.23,27.65,27.65,0,0,0,5.21-.73"/>
              <path class="cls-15" d="M44.13,111.64a35.09,35.09,0,0,1-5.21-9.35,35.9,35.9,0,0,1-2.29-14.18l.24-3.2"/>
              <path class="cls-15" d="M96.5,118.05v6.16l-.08,0-.08,0a20.29,20.29,0,0,0-2.24-.39h0v0a19.9,19.9,0,0,1,.87-6.07l.14,0,.65.13Z"/>
              <path class="cls-35" d="M125.37,59.85c.12-.25,3.27-7.87,7.08-6.71,1.52,1-1.1,6.26-1.1,6.26Z"/>
              <path class="cls-1" d="M125.14,59.85c.12-.25,3.28-7.87,7.08-6.71,1.53,1-1.1,6.26-1.1,6.26Z"/>
              <path class="cls-15" d="M123.14,60.53a63.73,63.73,0,0,1,9.38-1.36"/>
              <path class="cls-35" d="M114.11,67.11c0-.08-7.26-4-.53-12.61,1.19-1.27,2.86-.23,3.72,1.82s-.08,7.13-.34,7.66Z"/>
              <path class="cls-1" d="M114.08,67.42c0-.08-7.26-4-.53-12.62,1.19-1.26,2.87-.22,3.72,1.82s-.07,7.14-.33,7.66Z"/>
              <g>
                <path class="cls-36" d="M150.2,92.16c-.67-.09-1.32-1.24-2.54-2.62-1.42-1.6-2.56-2-3.23-2.94s2.85-3,6.32-2.88c3.27.13,4.78,1.24,4.53,2.5S152.4,92.32,150.2,92.16Z"/>
                <path class="cls-37" d="M154.31,85.33c-2.49-1.36-6.09-1.13-8.77-.37a10.19,10.19,0,0,1,5.21-1.24c3.27.13,4.78,1.24,4.53,2.5a9.21,9.21,0,0,1-.69,1.29C154.88,86.36,154.84,85.68,154.31,85.33Z"/>
                <path class="cls-38" d="M145.56,85c-.72,1.29,2.08,2,3.2,3.16.86.84,1.25,2.5,2.21,2.59,1.4,0,2.72-2.23,4.18-4-.62,1.69-3,5.63-5,5.49-.67-.09-1.32-1.24-2.54-2.62-1.42-1.6-2.56-2-3.23-2.94C144.1,86.13,144.6,85.5,145.56,85Z"/>
                <path class="cls-15" d="M144.39,86a.36.36,0,0,0,0,.41,6,6,0,0,0,1.24,1.13,14.08,14.08,0,0,1,2.13,1.93c.39.44.73.86,1,1.24.62.76,1.1,1.36,1.47,1.41h.09c2.11,0,4.71-4.8,4.95-6a1.13,1.13,0,0,0-.24-1c-.61-.78-2.17-1.27-4.26-1.35h-.35C147.49,83.77,144.85,85.1,144.39,86Z"/>
              </g>
            </g>
            <path class="cls-39" d="M155.94,84.84a4.11,4.11,0,0,0-.6-.08s.19-.05.15-.05c.69-4.83-1.91-9.8-4.52-13.43-5.5-7.64-14.43-9.14-14.87-9.58-.06-.06-.21,0-.19-.09a4.69,4.69,0,0,1,.51-1c.44-.64,1.21-1.38.84-1.94a21.41,21.41,0,0,0-4.46-.08c.88-2,2.7-6.6,1-7.69a3.87,3.87,0,0,0-2.31,0c-4.09.95-7.26,7.64-7.83,8.93a19.47,19.47,0,0,0-3,1.11l-.67.33a10.2,10.2,0,0,0-1.41.87,29.94,29.94,0,0,0,.33-3.7,12.14,12.14,0,0,0-.55-4.66c-.94-2.27-2.52-3.76-4-3.74a2.35,2.35,0,0,0-1.56.56,4.88,4.88,0,0,0-.43.38c-7.27,9.42-4.1,15.25-1.45,18-.6-.2-1.32.82-1.23,1.26,0,0-1.51,5.37-3.15,7.77,0,0-.22.39-.44.44a22.7,22.7,0,0,1-7.71.39,5.16,5.16,0,0,1-1.4-.36l-.16-.07c-5.31-2.28-11-12.8-20.47-16.85l-.42-.17c-.38-.15-.76-.29-1.15-.42a20,20,0,0,0-4.95-1h-.09a40,40,0,0,0-7.63.77C51.33,63.5,45.21,68.94,42.23,72.41a17.62,17.62,0,0,0-1.56,2c-.49.71-.73,1.15-.73,1.15A25.22,25.22,0,0,0,38.09,80,29.6,29.6,0,0,0,37,84.68a1.43,1.43,0,0,1-.16.42c-.63,9.16.81,17.94,7.1,26.94l.25.32a28.39,28.39,0,0,0,2.95,3.4l.13.13a21,21,0,0,0,6.36,4.41,4.77,4.77,0,0,1,1.89,1.25l-.22.15a11.71,11.71,0,0,0-3.79,4.87c-4.21,6.36,7,5.09,12.85,4.86,3.15-1.79,6.85-.39,9.92-.69,3.57-.22,6.45.09,6.89-.65l.6-.32a5.23,5.23,0,0,0,.74-.33c.81-.63,1.16-1.13.67-1.85-.74-1.37-3.48-2.81-6.19-4l-.71-.29-.32-.13c-1.24-.49-2.41-.9-3.33-1.2a34.3,34.3,0,0,0,11.16-3.29l0,.82c.09,4.25,0,4.43.08,4.85a2.94,2.94,0,0,0,.08.54c.15.7,1.51,4.88,5.87,5.49,2.8.31,12.36,0,12.39,0s.36-.13.26-.82c0,0,0-.46,0-.48,1,0,7.47,0,7.5-.09a1.73,1.73,0,0,0,0-.69c-.85-3.34-5-4.47-5.39-4.46-.52-1.15.92-5.64,1.73-6.11,0,0,3.3-.76,4.62-1.27a32.87,32.87,0,0,0,6.29-3.42l.81-.7a9.07,9.07,0,0,0,2.15-2,5.07,5.07,0,0,1,.6-1.15,12.22,12.22,0,0,1,1.56-1.77,35,35,0,0,1,4.8-3s.33-.37.31-.45c1.16,0,4.39-.65,4.39-.65a3.63,3.63,0,0,0,1.16,1.56,3.44,3.44,0,0,0,2.33.66,15.45,15.45,0,0,0,6.07-2.11c.2-.18.77-.66,1-.89a7.26,7.26,0,0,0,1.59-3.24c.25,0,1-.08,1.36-.12h.08a3.42,3.42,0,0,0,1.06-.72c.3-.24.75-.69,1-.87a34.29,34.29,0,0,0,5-6.3C155.15,89.24,158.58,85.07,155.94,84.84Z"/>
          </g>
        </g>
      </g>
    </g>
  </g>
</svg>
