<svg id="Layer_1" data-name="Layer 1" xmlns="http://www.w3.org/2000/svg" xmlns:xlink="http://www.w3.org/1999/xlink" width="112" height="103.29" viewBox="0 0 112 103.29">
  <defs>
    <style>
      .cls-1 {
        fill: none;
      }

      .cls-2 {
        clip-path: url(#clip-path);
      }

      .cls-3 {
        fill: #6d616a;
      }

      .cls-4 {
        fill: #877884;
      }

      .cls-5 {
        fill: #a395a1;
      }

      .cls-6 {
        fill: #b2afb1;
      }

      .cls-7 {
        clip-path: url(#clip-path-2);
      }

      .cls-8 {
        clip-path: url(#clip-path-3);
      }

      .cls-9 {
        opacity: 0.68;
        fill: url(#linear-gradient);
      }
    </style>
    <clipPath id="clip-path">
      <rect class="cls-1" x="-2421.24" y="-1040.18" width="1280" height="720"/>
    </clipPath>
    <clipPath id="clip-path-2">
      <rect class="cls-1" x="-2417.72" y="86.41" width="1280" height="720"/>
    </clipPath>
    <clipPath id="clip-path-3">
      <rect class="cls-1" x="-2581.24" y="-3.59" width="1600" height="900"/>
    </clipPath>
    <linearGradient id="linear-gradient" x1="-2232.17" y1="100.19" x2="219.07" y2="100.19" gradientTransform="matrix(1, 0.01, -0.01, 1, -11.4, 17.92)" gradientUnits="userSpaceOnUse">
      <stop offset="0.01" stop-color="#9cce16" stop-opacity="0.2"/>
      <stop offset="0.06" stop-color="#90c91e" stop-opacity="0.34"/>
      <stop offset="0.15" stop-color="#7cc12c" stop-opacity="0.58"/>
      <stop offset="0.24" stop-color="#6cbb37" stop-opacity="0.76"/>
      <stop offset="0.32" stop-color="#61b73f" stop-opacity="0.89"/>
      <stop offset="0.4" stop-color="#5ab443" stop-opacity="0.97"/>
      <stop offset="0.48" stop-color="#58b345"/>
      <stop offset="0.58" stop-color="#59b344" stop-opacity="0.98"/>
      <stop offset="0.67" stop-color="#5db541" stop-opacity="0.93"/>
      <stop offset="0.74" stop-color="#63b73c" stop-opacity="0.83"/>
      <stop offset="0.81" stop-color="#6bba35" stop-opacity="0.7"/>
      <stop offset="0.87" stop-color="#76bd2d" stop-opacity="0.53"/>
      <stop offset="0.93" stop-color="#83c222" stop-opacity="0.33"/>
      <stop offset="0.96" stop-color="#8bc51b" stop-opacity="0.2"/>
    </linearGradient>
  </defs>
  <g>
    <rect class="cls-3" x="16.54" y="10.48" width="82.42" height="82.42" rx="8.14"/>
    <path class="cls-4" d="M27.57,22.27C16.24,13.77,18.73,11,24.44,10.48H91.26a7.58,7.58,0,0,1,3.42.74c1.75.88,2.55,2.5-3.61,7.81Z"/>
    <path class="cls-4" d="M24.83,84.07c-6,4.71-7.61,8.11-.2,8.83H90.44c3,0,10.66-1.42.49-8.55Z"/>
    <path class="cls-5" d="M25.69,19.12c-6.64-5.92-7.47-7.58-9-2.58a13.55,13.55,0,0,0-.2,3.38V85c.21,4.07,3.31,9.81,8.56-.38Z"/>
    <rect class="cls-6" x="22.1" y="16.03" width="71.32" height="71.32" rx="8.14"/>
  </g>
  <g class="cls-7">
    <g class="cls-8">
      <path class="cls-9" d="M198,159c-1.31-.93-1.61,4.46-3.2,3.56-2.22-1.26-2.2-8.15-3.53-14.16.22,7.51-.21,14.55-3.33,12.51-.3-.2-1.5,13.07-4.88,9.2-2.32-2.64-4-12.4-4.89-18.28-1.21,23.37-10.09-3.55-12-11.22a132.58,132.58,0,0,1-2,27.11c-2.88-2.6-3.09-8.45-4.82-14.51-2.61-9.12-7.38-15-9.84-21.3,2.19,9.14,4.39,31.35-1,36.83-2.23,2.26-8.16-6.21-10-9.61-.14,1.34-.4,2.31-.52,3.93-1.53.48-3-.79-4.37-1.89-.1,2.19-.77,3.92-.91,5.84-2.72-3.52-5.2-11.75-6.91-18.58,0,8.71-.27,21.85-3.48,18.83s-5.07-12.22-7.53-18.64c-1.87-4.91-4.38-7.06-7-19.94,1,11.81-.39,21.22-1,32.43-2.53-1.83-3.27-10.93-4.34-13.91a42.1,42.1,0,0,1-.46,14.36c-3.37-.75-4.69-10.43-6.49-16.92-.55,3.78-1.24,7.41-2.32,9.37-.69-10.12-4.81-23.12-7.49-27.17,1.45,5.19-1.7,26.08-3.14,27.87-3,3.71-4.63-13.34-6.88-21.68,2.31,13.57.39,35.05-2.38,43-.76-8.69-3.54-14.33-5.9-19.55-1.13-2.52-6.24-9.75-6.26-14.42-1,10.78-4.55,16.7-7.32,14.42-3.61-3-4.44-16.23-4.74-26-.45,12.67-2.4,26.67-7.28,25.6-4.58-1-7.41-17-8.43-28-.44,4.33-.65,12.57-1.82,15.78-3.55,9.72-7.52-2.64-9.14-12.91.62,7.47.05,14.75-2.34,20.82.23-15.6-2.42-28.23-2.36-46-.77,7.08-2.32,3.47-5.71,27-1,.58-.26-11.44-2.13-13.13-.39,4.9-2.26,13.81-2.1,19.13-2.49-1.41-1.89-9-2.2-10.8-3.86,4.82-5.34,17.86-9.65,4.45-.15,1.82-3.12,9.2-3.17,10.81-6.64-9.83-16.14-24.58-13.1-48.2-1.85,5.15-5.28,14.84-4.46,33.85-1.24,1.24-4.2-8.07-5.14-12.1-1.88,5.24-2.81,20.29-6.58,21.81-4.34,1.76-3.47-15.14-5.11-20.52-1.75,17.8-4.8,30.58-6.86,29.87-3.64-1.24-4.59-4.62-7.16-10.94-3.14,22.94-6.69-4.62-6.68-16.71-.49,8.09-1.33,26.07-3.9,29.07-3.46,4.08-9.81-10.47-13.27-13.46-1.73-1.51-2.08,1.25-3.82.86-7-1.59-6.81-13.15-6.7-29.44-2.11,8.61-5,28.3-9,31.25-3.76,2.84-5.11-10.15-8.19-8.87-3.38,1.43-3,16.44-7.14,12.09-2.26-2.37-3.48-13.66-5.57-15s-4,6.23-6.75,5c-1.17-12.53-5-31.68-8.82-38.41-1.29,9.14-.63,19.86-2.09,28.71-1.75,10.54-5.42,15.5-7.36,2.49-4.07,12-5.5,9.94-8.19-5.73-.76,4.17-1.57,8.67-2.76,11.73-3.65-8.54-5.93-27.91-5.46-41.15C-164.33,108-169,148.93-178,120.77c-3.25-10.17-4.29-22.1-4.1-35.54,0-2.86-.2-21.87.17-23.22-4,14.83-5.39,42-6.82,60-2.31-6.1-3.62-14.53-4.51-21.44-.31,5.87-.16,11.84-.37,17.66-1.93.47-3.59-3.63-5.36-3.49s-3.57,5.36-5.28,3.45c-2-2.27-2.33-15.35-2.52-22.07-.46,11.51-3.28,37.46-7.17,37.94-2.41.28-2.71-5.83-4.12-10-4,10.57-4.1-2.75-4.16-12.37-6.58,22.52-9.7-7.21-4-26.57-3.42,8.05-16,36.14-15.87,38.11-.34-7.24.67-21.65-.54-27.71-.3-1.53-5.91,20.48-5.82,26.07-2.51-3.68-1.82-21.42-6.58-31.25-.33,19.77-6.12,29.09-10.12,11.43-1.51,3.51-2.65,11.3-4.78,10.82-3.38-.74-3.86-18.21-4.18-25-.59,5.7-2.79,23.28-5.93,20.86-1.07-.83-5.17-24-4.59-30.13-1.92,5.12-4,18.46-5.51,21.76-1.76,3.87-2.73,1.8-4.21-6.31,0,4.57-.8,15.14-3,15.41-2.34.29-4.33-18.25-4.83-22.44.13,7.33.5,29.94-3.51,31-2.39-9.78-7.22-18.89-11.33-14.48-.06-5.55-.83-10.76-2.31-14.51-.73,1.67-4.3,18.56-4.55,18.5-4.3-1.19-4.46-13.42-6.34-16.92-.32,4.23-1.79,7-4.05,6-1.21-6.19-2.5-15.16-5.72-18.1-1.9,5.72-4.85,21.9-9.37,18.9-2.81-1.85-4.78-14.79-3.56-19.23-2,3.42-6.14,18.86-9.66,16.6-1-.64-5.1-13.7-8-13,2.8,1.8,2.39,12.53-.48,13-.61.09-5.72-8.85-5.86-6.67-.31,5.35-1.8,9.6-3.64,8.48,0-1-.46-11.26-.48-11.23-2.57,4.37-4.46,11-7.51,16.36,3.77-12.61-3.91-17.34-4.43-25.86-1.92,19-6.44,38.44-12.51,22.9-1.11,3.44-2.31,8.84-4.08,9.33-.35.08-3.09-24.11-4.28-26.42-.09,6.08-1.66,10.48-2.55,15.86C-419,90.51-421.61,81-421.34,64.5c-1.24,15.54-9.17,53.77-12.44,21,.08,12-4.55,29.24-7.07,12.21-1.72,8.95-4.93,5.28-5.37-3.91-1.44,6.4-2.74,20.28-5.89,19.66-1.67-13.35-.27-27.56-4.36-38.85-.24,6.61-.93,15.81-2.94,20.1-4.18,9-17.64.92-15.13-10.5-2.29,4.69-2,23.61-4.59,31.9-5.13-2.26-6.27-27-10.74-28.58-.9-.31-3.09,6.46-4.14,7.23-3.79,2.8-3.37-1.88-3.68-12.44-1.59,3.73-4.14,14.06-6.42,12.37-4.5-3.39-.75-21.29-1.09-28.72-3.61,6.18-6.31,19.48-9.49,27.75-3.9,10.17-4.32,6.83-7-3.32-4.77-18.24-2.64,8.6-8,10.19-2.94.86-4.1-9.26-5-15-1.15,4.63-2,15.34-4.45,13.63-2.25-1.58-2.75-13.38-3-18.53-.31,14.21-4.83,21.61-7.55,11.61-2.34-8.62-2.47-24.41-2.85-35.16-.6,16.53-.41,34.65-6.34,38.09-5.75,3.32-7.57-15.26-10-26.19-.14,5.21-.59,13.92-2.87,10.58-.16,1.75-2.47,15.39-3.69,12.27-1.95-5.06-3.38-12.27-4.09-22.45-.29,10.84-.84,25.54-3.74,31.3s-7.34-3-9.93-8.64C-595,88.33-599,65.74-596.8,60.68c-3,3.74-4.76,20.08-8.92,24.17-3-15.54-3.62,20.6-7.15,23.36-3.13,2.42-8-19.38-9.7-21.56-.25,6.58.27,16.49-2,21-3.47,6.92-5.41-4.17-6.52-12.65.05,8-1.93,15.13-4.92,13.61-.72-.37-7.55-15-7.57-16,0,1.72-.07,3.45,0,5.19-4.88,5.67-9.42-.25-13.71-6.95,5.5,17.67-13.38,9.77-14.06,1-1.58,2.59-2.61,10.12-4.81,13-1.92-6.83-4-15.72-6.73-19.82-.48,5.06-1.87,9.68-3.65,11.47.19-.17-6.11-24.91-6.57-27.24-2.84,2.08-4.88,8.45-7.68,10.94-3.9,3.49-3.88,1.15-4.44-11.95-1,8.72-6.23,27.12-9.62,25.41s-2.05-19.63-1.93-27.43c-3.59,29.11-13.58,7.75-15.32-13.47-.21,1.89-.13,24.25-1.2,22.54-1.38-2.19-1.7-4.92-2.22-11.39-.25,26.86-4.69,17.53-7.86,1.91-1,8.7-1,23.67-3.45,30.47-4.06-7.16-5.48-27.76-7.38-39.8-1.18,9.14-4.06,17.77-7.68,17.82-1.37,0-1.83-6.73-1.26-7.06-2,.38-3,5-4.13,5.3-2.8.7-3.66-11.28-3.74-15.36-.38,3.83-.6,12.13-2.06,14.49-1.39,2.2-5.35,1-7,.64-2.34-.51-3.3-5-5.29-5.56-.61-.14-3.66,5.6-5.55,2.34-1.53-2.61-2-11-2.51-14.72-1.29,4.34-3.21,9.43-5.44,12-6,7-4.9-3-9.16-10.87,1.55,16-1.68,22.2-2,23-4.07,11-7-5.35-8.77-19,.42,6.33,1.29,18.51-.23,23-1.71,5-3.73,2.45-4.09-5.27-1.74,10.45-6.18,9-6.52-4.15-2.06,13-4.47,3.62-6.11-4.26.07,5.28-2.27,14.37-4.21,11.56s-1-15.34-1-20.15c-2.81,6-4.11,15.36-6.41,21.74-3.62,10.06-3.22,4.06-5.23-4.67C-855,98.7-863,74.48-864.78,59.49c.76,16.06-1.89,27.36-6.53,21.77-3.77-4.54-5.54-17.52-9.26-4-1.46-3-5.75-14.54-7.32-17.85.68,6.4.64,13.86-1.25,18.29-1.34,3.2-5,2.54-6.77,5.13-.17.26-4.4-1.09-4.15-4.74-3.42,4.12-5.62,3.79-7.19-4.11-1,3-3.11,13-4.9,9.54-2.05-4,.32-20.74.21-26.31-2.32,7.67-5.08,13.54-5.89,23.73-1.92,1.26-10.53.39-9.31-8-1.23.9-10.14,24.14-8.07,6.3-2.52,11.21-3.87,22.26-9,14.72-5.7-8.31-4.26-23.19-3.6-37.39-1.14,10.59-2.56,27.19-5.56,34.81-1.29,3.25-3.26,5.84-5,4.31-1.43-1.25-2.71-5.86-2.85-9.38-5.76,13-7.13-5.9-8.73-18.32.37,9.44-2.89,19.14-5.57,21.82-4.1,4.13-3.74-3.07-6.83-8.75-4.19,13.94-8.46,9.25-6-9.35-2.47,1.53-5.34,11-6.39,17.2-.61-10.21-8.53-21.43-10.34-22.6,3.43,6.62,2.39,29.82-1.61,30.77.27-6.65-2.21-10.56-3.83-13.87-1.6,8.36-1.63,18.45-5.92,17.42-2.09-.48-5.81-6.39-7-15.66-.27,40.79-18.32-4.27-23.47-10.79-.06,6.18-1.09,12.63-2.69,16.61-2.14-12.52-9-22.77-11.29-26.2a52,52,0,0,1,1.11,24c-2.82,13.38-4.84,3.93-7.32-.56-.76-1.37-5.45-6-9-5.54-3.28-.53-7.63,4-8.33,5.29-2.31,4.42-4.22,13.82-6.73.36a56.12,56.12,0,0,1,1.17-24c-2.1,3.36-8.49,13.43-10.54,25.89-1.45-4-2.36-10.5-2.37-16.68-4.78,6.38-21.64,51-21.64,10.16-1.15,9.23-4.61,15-6.53,15.47-4,.91-3.92-9.18-5.33-17.58-1.52,3.26-3.82,7.11-3.61,13.76-3.67-1.06-4.49-24.29-1.29-30.8-1.67,1.11-9,12.11-9.64,22.31-.93-6.23-3.51-15.78-5.77-17.37,2.17,18.67-1.78,23.24-5.55,9.19-2.87,5.59-2.58,12.8-6.33,8.56-2.44-2.75-5.38-12.53-5-22-1.55,12.37-2.92,31.28-8.14,18.07-.15,3.52-1.35,8.09-2.67,9.31-1.6,1.48-3.39-1.16-4.55-4.44-2.71-7.7-3.92-24.35-4.9-35,.52,14.21,1.75,29.13-3.54,37.29-4.8,7.4-6-3.69-8.22-15,1.79,17.89-6.25-5.58-7.38-6.51,1.07,8.37-6.84,9-8.6,7.69-.68-10.21-3.18-16.16-5.27-23.88-.13,5.56,1.94,22.33,0,26.3-1.66,3.46-3.5-6.68-4.44-9.66-1.5,7.85-3.52,8.12-6.64,3.91.21,3.66-3.68,4.89-3.84,4.63-1.61-2.64-5-2.08-6.19-5.31-1.71-4.49-1.7-11.94-1-18.33-1.46,3.27-5.47,14.66-6.84,17.65-3.33-13.62-5-.68-8.53,3.76-4.3,5.46-6.66-5.91-5.87-22-1.72,15-9.22,38.94-11.3,17.5-1.9,8.67-1.57,14.68-4.84,4.52-2.07-6.43-3.21-15.82-5.75-21.9-.08,4.81.73,17.4-1.05,20.12s-3.9-6.4-3.81-11.68c-1.55,7.84-3.82,17.12-5.64,4.1-.39,13.19-4.48,14.47-6,4-.39,7.71-2.26,10.19-3.8,5.16-1.37-4.52-.5-16.68-.07-23-1.72,13.57-4.5,29.82-8.18,18.73-.28-.86-3.22-7.18-1.69-23.11-4,7.75-3,17.76-8.49,10.62-2-2.62-3.76-7.77-4.92-12.14-.52,3.74-1,12.09-2.4,14.66-1.76,3.2-4.52-2.62-5.09-2.49-1.83.48-2.74,5-4.89,5.41-1.55.32-5.19,1.4-6.46-.83-1.33-2.4-1.48-10.7-1.8-14.55-.1,4.08-1,16-3.53,15.26-1.08-.32-2-5-3.77-5.41.52.34.06,7.08-1.2,7-3.33-.14-5.92-8.85-6.95-18-1.82,12-3.26,32.55-7,39.6-2.2-6.86-2.13-21.84-3-30.57-3,15.54-7.15,24.75-7.21-2.11-.52,6.45-.83,9.17-2.12,11.33-1,1.68-.78-20.68-1-22.57-1.73,21.17-11,42.25-14.16,13.05.06,7.8,1.24,25.71-2,27.38s-7.83-16.92-8.68-25.67c-.6,13.08-.59,15.42-4.15,11.83-2.56-2.57-4.4-9-7-11.15-.44,2.31-6.38,26.88-6.2,27.06-1.63-1.84-2.88-6.49-3.29-11.57-2.5,4-4.5,12.86-6.31,19.64-2-3-2.9-10.52-4.33-13.16-.68,8.79-18.09,16.18-12.92-1.34-4,6.59-8.19,12.38-12.64,6.57.08-1.73,0-3.46,0-5.18,0,1.08-6.39,15.48-7,15.83-2.77,1.44-4.54-5.78-4.44-13.74-1.07,8.45-2.93,19.48-6.07,12.47-2-4.55-1.51-14.44-1.7-21-1.54,2.14-6.18,23.8-9,21.29-3.23-2.85-3.57-39-6.43-23.54-3.79-4.2-5.29-20.6-8-24.42,2,5.13-1.84,27.6-3.46,31.34-2.42,5.6-6.54,14.22-9.18,8.37s-3-20.55-3.25-31.4c-.71,10.16-2.07,17.33-3.89,22.34-1.14,3.09-3.18-10.62-3.32-12.37-2.11,3.28-2.48-5.45-2.57-10.65-2.28,10.85-4.07,29.38-9.33,25.91-5.44-3.6-5.15-21.71-5.6-38.26-.41,10.75-.63,26.53-2.84,35.08-2.55,9.93-6.67,2.4-6.87-11.82-.27,5.15-.81,16.94-2.89,18.46-2.27,1.64-3-9.09-4-13.75-.89,5.67-2,15.76-4.73,14.82-4.93-1.74-2.81-28.51-7.3-10.41-2.51,10.08-2.92,13.41-6.44,3.14-2.87-8.36-5.27-21.73-8.55-28-.36,7.41,3,25.41-1.18,28.68-2.1,1.62-4.39-8.77-5.83-12.54-.34,10.55,0,15.24-3.45,12.34-1-.81-2.93-7.63-3.76-7.34-4.12,1.42-5.32,26.16-10,28.28-2.36-8.35-1.94-27.26-4-32,2.23,11.49-10.18,19.16-14,10.09-1.82-4.35-2.4-13.57-2.58-20.18-3.83,11.18-2.63,25.43-4.25,38.74-2.89.52-4-13.39-5.29-19.82-.46,9.18-3.44,12.75-5,3.76-2.42,17-6.57-.44-6.43-12.4-3.2,32.7-10.25-5.73-11.3-21.31.15,16.52-2.3,26-4.74,32.51-.78-5.4-2.2-9.84-2.25-15.93-1.1,2.28-3.77,26.39-4.09,26.31-1.63-.55-2.7-6-3.69-9.45-5.68,15.38-9.71-4.23-11.36-23.23-.53,8.5-7.61,13-4.24,25.73-2.76-5.48-4.45-12.12-6.79-16.55,0,0-.48,10.2-.51,11.21-1.7,1.07-3-3.22-3.3-8.57-.11-2.19-4.87,6.61-5.42,6.51-2.64-.51-3-11.26-.36-13-2.68-.72-6.57,12.22-7.45,12.84-3.25,2.16-7-13.39-8.78-16.87,1.1,4.48-.79,17.36-3.38,19.14-4.18,2.87-6.79-13.39-8.5-19.16-3,2.85-4.22,11.79-5.36,18-2.09.9-3.42-1.89-3.69-6.13-1.75,3.45-2,15.68-5.94,16.75-.23.05-3.4-16.93-4.06-18.62a45.7,45.7,0,0,0-2.22,14.44c-3.75-4.52-8.24,4.46-10.5,14.18-3.68-1.14-3.2-23.75-3-31.07-.49,4.18-2.43,22.66-4.58,22.31s-2.69-10.92-2.64-15.49c-1.41,8.07-2.32,10.11-3.91,6.2-1.36-3.35-3.2-16.74-4.93-21.91.5,6.14-3.41,29.21-4.41,30-2.9,2.34-4.81-15.31-5.32-21-.33,6.8-.89,24.26-4,24.91-2,.42-3-7.4-4.32-11-3.79,17.55-9.05,8.07-9.23-11.7-4.44,9.7-3.91,27.45-6.24,31.07.11-5.59-4.9-27.75-5.19-26.22-1.15,6-.31,20.45-.67,27.68.1-2-11.26-30.39-14.35-38.53,5.16,19.52,2.1,49.16-3.8,26.46-.12,9.62-.27,22.93-3.9,12.26-1.33,4.08-1.63,10.18-3.85,9.84-3.57-.59-6-26.61-6.36-38.13-.22,6.71-.58,19.77-2.45,22-1.59,1.87-3.24-3.43-4.83-3.59s-3.18,3.87-5,3.35c-.16-5.83,0-11.79-.23-17.67-.86,6.88-2.11,15.27-4.28,21.31-1.2-18-2.27-45.2-5.89-60.13.33,1.36,0,20.36,0,23.22.09,13.44-.94,25.34-4,35.43-8.44,27.91-12.51-13.11-15.31-31.82.36,13.25-1.86,32.55-5.27,41a79.84,79.84,0,0,1-2.46-11.81c-2.57,15.6-3.89,17.68-7.56,5.51-1.87,13-5.21,7.9-6.75-2.69-1.29-8.88-.62-19.58-1.74-28.76-3.6,6.63-7.19,25.68-8.35,38.17-2.54,1.18-4.11-6.53-6.18-5.16-1.92,1.27-3.11,12.52-5.2,14.83-3.8,4.25-3.4-10.75-6.5-12.28-2.81-1.36-4.14,11.59-7.57,8.65-3.6-3-6.16-22.82-8-31.48,0,16.28.08,27.84-6.34,29.25-1.61.34-1.91-2.42-3.52-1-3.19,2.9-9.12,17.28-12.27,13.1-2.34-3.06-3-21.06-3.41-29.17-.06,12.09-3.49,39.55-6.24,16.54-2.41,6.24-3.29,9.59-6.65,10.74-1.9.65-4.62-12.21-6.12-30.06-1.54,5.34-.85,22.27-4.82,20.39-3.46-1.63-4.22-16.7-5.92-22-.89,4-3.66,13.24-4.8,12,.88-19-2.22-28.77-3.88-34,2.64,23.7-6.18,38.19-12.35,47.85,0-1.62-2.72-9.08-2.84-10.91-4,13.3-5.32.22-8.84-4.71-.3,1.81.2,9.41-2.09,10.74.18-5.31-1.48-14.27-1.81-19.18-1.73,1.64-1.12,13.68-2,13.07-3-23.57-4.41-20-5.08-27.1-.06,17.73-2.57,30.28-2.45,45.9-2.16-6.15-2.65-13.44-2-20.89-1.55,10.23-5.28,22.47-8.48,12.67-1-3.24-1.19-11.5-1.57-15.84-1,10.93-3.71,26.9-7.93,27.77-4.48.93-6.19-13.12-6.53-25.8-.33,9.77-1.18,23-4.52,25.88-2.56,2.21-5.8-3.81-6.63-14.62-.05,4.68-4.79,11.76-5.84,14.25-2.21,5.16-4.8,10.73-5.55,19.39-2.5-8.06-4.13-29.59-1.92-43.1-2.12,8.28-3.73,25.29-6.46,21.49-1.31-1.83-4.07-22.79-2.71-27.95-2.49,4-6.36,16.87-7.05,27-1-2-1.6-5.64-2.08-9.44-1.69,6.45-3,16.09-6.07,16.74a46,46,0,0,1-.33-14.37c-1,3-1.74,12-4.08,13.8-.44-11.23-1.65-20.67-.67-32.46-2.45,12.82-4.77,14.89-6.52,19.75-2.3,6.35-4,15.45-7,18.44s-3.18-10.21-3.08-18.92c-1.61,6.78-3.94,14.94-6.47,18.39-.11-1.92-.71-3.67-.79-5.86-1.29,1.06-2.63,2.29-4,1.77-.09-1.63-.33-2.61-.45-4-1.72,3.35-7.22,11.66-9.25,9.34-4.89-5.62-2.72-27.77-.66-36.85-2.3,6.27-6.72,12-9.17,21-1.63,6-1.86,11.85-4.53,14.37a144.7,144.7,0,0,1-1.66-27.17c-1.75,7.63-10.08,34.31-11.05,10.9-.89,5.86-2.46,15.57-4.61,18.15-3.13,3.77-4.15-9.52-4.43-9.33-2.87,1.95-3.22-5.1-3-12.6-1.26,6-1.29,12.87-3.33,14.07-1.47.85-1.71-4.55-2.92-3.65-.73.53-1.51,5.38-2.63,11.64l-.05,16.4L-1079.94,169l6.81.1L200.71,187.07l0-16.4C199.58,164.37,198.77,159.5,198,159Z"/>
    </g>
  </g>
</svg>
