<svg xmlns="http://www.w3.org/2000/svg" xmlns:xlink="http://www.w3.org/1999/xlink" width="94.59" height="98.53" viewBox="0 0 94.59 98.53">
  <defs>
    <style>
      .cls-1, .cls-14 {
        fill: none;
      }

      .cls-2 {
        isolation: isolate;
      }

      .cls-3 {
        clip-path: url(#clip-path);
      }

      .cls-4 {
        clip-path: url(#clip-path-2);
      }

      .cls-5 {
        fill: url(#linear-gradient);
      }

      .cls-6 {
        opacity: 0.47;
      }

      .cls-7 {
        fill: url(#linear-gradient-2);
      }

      .cls-8 {
        fill: url(#linear-gradient-3);
      }

      .cls-9 {
        mix-blend-mode: screen;
        opacity: 0.5;
      }

      .cls-10 {
        opacity: 0.58;
        fill: url(#linear-gradient-4);
      }

      .cls-11 {
        fill: #f6f6f6;
      }

      .cls-12 {
        fill: #3d3123;
      }

      .cls-13 {
        fill: #fff;
      }

      .cls-14 {
        stroke: #894f1a;
        stroke-miterlimit: 10;
        stroke-width: 0.5px;
      }
    </style>
    <clipPath id="clip-path">
      <rect class="cls-1" x="-1697.47" y="-2497.71" width="1280" height="720"/>
    </clipPath>
    <clipPath id="clip-path-2">
      <rect class="cls-1" x="-1697.47" y="-261.47" width="1280" height="720"/>
    </clipPath>
    <linearGradient id="linear-gradient" x1="-915.95" y1="723.59" x2="-915.95" y2="-1769.59" gradientUnits="userSpaceOnUse">
      <stop offset="0.2" stop-color="#ffffca"/>
      <stop offset="0.67" stop-color="#9edcff"/>
      <stop offset="1" stop-color="#4e9dff"/>
    </linearGradient>
    <linearGradient id="linear-gradient-2" x1="-622.5" y1="479.99" x2="-70.8" y2="-95.43" gradientUnits="userSpaceOnUse">
      <stop offset="0.01" stop-color="#987ce4"/>
      <stop offset="0.23" stop-color="#919fdf"/>
      <stop offset="0.45" stop-color="#8bbcdb"/>
      <stop offset="0.64" stop-color="#87cdd9"/>
      <stop offset="0.78" stop-color="#86d3d8"/>
    </linearGradient>
    <linearGradient id="linear-gradient-3" x1="11461.79" y1="-119.22" x2="12051.14" y2="-119.22" gradientTransform="matrix(-0.73, 0, 0, 1, 8509.65, 0)" gradientUnits="userSpaceOnUse">
      <stop offset="0" stop-color="#8a5f3c"/>
      <stop offset="0.24" stop-color="#744d29"/>
      <stop offset="0.66" stop-color="#52300b"/>
      <stop offset="0.89" stop-color="#452500"/>
    </linearGradient>
    <linearGradient id="linear-gradient-4" x1="11511.74" y1="-1374.17" x2="11511.74" y2="693.9" gradientTransform="matrix(-0.73, 0, 0, 1, 8509.65, 0)" gradientUnits="userSpaceOnUse">
      <stop offset="0.21" stop-color="#cc925e"/>
      <stop offset="0.48" stop-color="#a56752"/>
      <stop offset="0.8" stop-color="#6d3134"/>
      <stop offset="1" stop-color="#292937"/>
    </linearGradient>
  </defs>
  <g class="cls-2">
    <g id="Layer_1" data-name="Layer 1">
      <g class="cls-4">
        <path class="cls-5" d="M-1953.91,500.59c639,235.83,1338.45,202.51,2075.92,0v-1422H-1953.91Z"/>
        <g class="cls-6">
          <path class="cls-7" d="M-873.71,211.53s223.35,31.9,412.57-112.89c0,0,76.38-53.5,192.47-51,93.24,2,279.9,49.27,338.28,192.4,0,0,8.43,30.5,1,47.53l-953.23-3.25Z"/>
        </g>
        <rect class="cls-1" x="-1954" y="-926.55" width="2087.68" height="1665.16"/>
        <rect class="cls-1" x="-1944.51" y="-903.3" width="2055.03" height="1597.3"/>
        <g>
          <path class="cls-8" d="M-292.46-1111.12c66,25.09-172.23-70.43-162.66,1.56,10.66,80.14,10.4,556.68,11.61,735.86,1.27,187.21,1.89,654.58,2.33,764.51s-29.43,213.62-11.43,227.33C-420.35,642.71-217.45,854-217.45,838.46c8.81-13.13,172.94,92,151.37,50.18s-33.44-80-39.6-101.55a186.44,186.44,0,0,1-6.6-47.8c0-5.37,15.84,5.38,30.37-1.78s27.72-50.19,58.74,1.78,40.92,53.77,62,52,29.71-64.52,7.92-71.69S8.51,673,3.89,658.65c5.94-17.92,43.57-23.3,66-5.38a127.72,127.72,0,0,0,46.2,23.31C102.9,644.31,89,603.09,65.94,595.92s-31-21.51-62-17.92S-46,852.34-65.78,777.08s-49.51-180.42-53-414.59,3.25-575.18,4.4-669.09c1-78.09,27.5-187.87,59.33-272.32,23.89-63.4,50.31-111.7,73.7-126.05,28.5-17.48,70.32-73.4,114.63-98.57,40.54-23,83.17-15.89,119.33-21.59,24.64-52.57-5.28-64.52-5.28-64.52s-44-14.33-88,2.39-41.36,31.06-81,28.68S-6.46-774.27-30.22-733.65-131.87-605.81-143.45-547.94c0-234.18-8.8-501.81-3.52-535.27s-21,41.7,2.74-13.25"/>
          <g class="cls-9">
            <path class="cls-10" d="M-83.49,777.15c-19.8-75.27-49.51-180.42-53-414.59s3.24-575.18,4.4-669.09c1-78.09,27.49-187.87,59.32-272.32,23.9-63.4,50.31-111.7,73.71-126,28.49-17.47,70.32-73.4,114.63-98.57,40.53-23,83.17-15.88,119.32-21.59,24.65-52.56-5.28-64.52-5.28-64.52A143,143,0,0,0,197-895a150.82,150.82,0,0,1,50.28,5.45s29.92,12,5.28,64.52c-36.16,5.71-78.79-1.44-119.33,21.59C88.87-778.3,47.05-722.37,18.55-704.9c-23.39,14.35-49.81,62.65-73.7,126C-87-494.4-113.52-384.62-114.48-306.53c-1.15,93.91-7.92,434.9-4.4,669.09s33.22,339.32,53,414.59c14.56,55.37,20.91-200.77,44.48-198.33C-50.46,581.16-65.28,846.37-83.49,777.15Z"/>
          </g>
        </g>
      </g>
      <g>
        <path class="cls-11" d="M42.26,49.69A4.93,4.93,0,0,0,47.07,54h.46a5,5,0,0,0,4.73-4.67,5,5,0,0,0-5-4.75h-.2A5,5,0,0,0,42.26,49.69Zm4.57,4a3.27,3.27,0,0,1-3.32-3,3.16,3.16,0,1,1,6.27-.25A3.29,3.29,0,0,1,46.83,53.72Z"/>
        <path class="cls-12" d="M43.51,50.67a3.14,3.14,0,1,0,6.27-.25,3.16,3.16,0,1,0-6.27.25Zm.64-1.44a1.05,1.05,0,1,1,2.09-.08,1,1,0,1,1-2.09.08Z"/>
        <path class="cls-13" d="M44.15,49.23a1,1,0,1,0,2.09-.08,1.05,1.05,0,1,0-2.09.08Z"/>
        <path class="cls-14" d="M47.58,54h-.51a4.94,4.94,0,0,1-4.8-4.28,5,5,0,0,1,4.84-5.14h.16a5,5,0,0,1,5.07,4.75A5,5,0,0,1,47.58,54Z"/>
      </g>
    </g>
  </g>
</svg>
