<svg xmlns="http://www.w3.org/2000/svg" xmlns:xlink="http://www.w3.org/1999/xlink" width="94.59" height="98.53" viewBox="0 0 94.59 98.53">
  <defs>
    <style>
      .cls-1, .cls-23 {
        fill: none;
      }

      .cls-2 {
        isolation: isolate;
      }

      .cls-3 {
        clip-path: url(#clip-path);
      }

      .cls-4 {
        fill: #0e7f2e;
      }

      .cls-5 {
        fill: #00bc3e;
      }

      .cls-6 {
        fill: url(#linear-gradient);
      }

      .cls-7 {
        fill: #71cd33;
      }

      .cls-8 {
        fill: #6bba2d;
      }

      .cls-9 {
        fill: #4aa311;
      }

      .cls-10 {
        fill: #011c24;
      }

      .cls-11 {
        fill: #042f33;
      }

      .cls-12, .cls-16 {
        opacity: 0.5;
      }

      .cls-12 {
        fill: url(#linear-gradient-2);
      }

      .cls-13 {
        clip-path: url(#clip-path-2);
      }

      .cls-14 {
        fill: url(#linear-gradient-3);
      }

      .cls-15 {
        fill: url(#linear-gradient-4);
      }

      .cls-16 {
        mix-blend-mode: screen;
      }

      .cls-17 {
        opacity: 0.58;
        fill: url(#linear-gradient-5);
      }

      .cls-18 {
        fill: #0c4c29;
      }

      .cls-19 {
        mix-blend-mode: multiply;
        opacity: 0.43;
        fill: url(#linear-gradient-6);
      }

      .cls-20 {
        fill: #f6f6f6;
      }

      .cls-21 {
        fill: #3d3123;
      }

      .cls-22 {
        fill: #fff;
      }

      .cls-23 {
        stroke: #894f1a;
        stroke-miterlimit: 10;
        stroke-width: 0.5px;
      }

      .cls-24 {
        fill: #bc7b18;
      }

      .cls-25 {
        fill: #8e4713;
      }
    </style>
    <clipPath id="clip-path">
      <rect class="cls-1" x="-1697.47" y="-2146.24" width="1280" height="720"/>
    </clipPath>
    <linearGradient id="linear-gradient" x1="-3728.41" y1="286.18" x2="-3728.41" y2="-3928.17" gradientUnits="userSpaceOnUse">
      <stop offset="0.2" stop-color="#ffffca"/>
      <stop offset="0.67" stop-color="#9edcff"/>
      <stop offset="1" stop-color="#4e9dff"/>
    </linearGradient>
    <linearGradient id="linear-gradient-2" x1="-3729.29" y1="-3924.13" x2="-3675.45" y2="2576.8" gradientUnits="userSpaceOnUse">
      <stop offset="0.46" stop-color="#fff" stop-opacity="0"/>
      <stop offset="0.5" stop-color="#fef9e8" stop-opacity="0.21"/>
      <stop offset="0.55" stop-color="#fef4d3" stop-opacity="0.39"/>
      <stop offset="0.6" stop-color="#fdf0c1" stop-opacity="0.56"/>
      <stop offset="0.65" stop-color="#fdecb2" stop-opacity="0.69"/>
      <stop offset="0.7" stop-color="#fde9a6" stop-opacity="0.81"/>
      <stop offset="0.76" stop-color="#fce79c" stop-opacity="0.89"/>
      <stop offset="0.82" stop-color="#fce595" stop-opacity="0.95"/>
      <stop offset="0.89" stop-color="#fce491" stop-opacity="0.99"/>
      <stop offset="1" stop-color="#fce490"/>
    </linearGradient>
    <clipPath id="clip-path-2">
      <rect class="cls-1" x="-1697.47" y="90" width="1280" height="720"/>
    </clipPath>
    <linearGradient id="linear-gradient-3" x1="-915.95" y1="1075.06" x2="-915.95" y2="-1418.12" xlink:href="#linear-gradient"/>
    <linearGradient id="linear-gradient-4" x1="11461.79" y1="232.26" x2="12051.14" y2="232.26" gradientTransform="matrix(-0.73, 0, 0, 1, 8509.65, 0)" gradientUnits="userSpaceOnUse">
      <stop offset="0" stop-color="#8a5f3c"/>
      <stop offset="0.24" stop-color="#744d29"/>
      <stop offset="0.66" stop-color="#52300b"/>
      <stop offset="0.89" stop-color="#452500"/>
    </linearGradient>
    <linearGradient id="linear-gradient-5" x1="11511.74" y1="-1022.7" x2="11511.74" y2="1045.38" gradientTransform="matrix(-0.73, 0, 0, 1, 8509.65, 0)" gradientUnits="userSpaceOnUse">
      <stop offset="0.21" stop-color="#cc925e"/>
      <stop offset="0.48" stop-color="#a56752"/>
      <stop offset="0.8" stop-color="#6d3134"/>
      <stop offset="1" stop-color="#292937"/>
    </linearGradient>
    <linearGradient id="linear-gradient-6" x1="7855.78" y1="-2224.99" x2="7966.54" y2="-1786.75" gradientTransform="matrix(-0.77, 0.07, 0.01, 0.99, 6302.66, 1152.57)" gradientUnits="userSpaceOnUse">
      <stop offset="0" stop-color="#96880c"/>
      <stop offset="0.31" stop-color="#002405"/>
      <stop offset="0.62" stop-color="#000b00"/>
      <stop offset="1" stop-color="#596b00"/>
    </linearGradient>
  </defs>
  <g class="cls-2">
    <g id="Layer_1" data-name="Layer 1">
      <g class="cls-3">
        <g>
          <path class="cls-4" d="M120.7,100.29s-6.42-20.32-22.47-21S120.7,100.29,120.7,100.29Z"/>
          <path class="cls-5" d="M92.2.7S86.09-13.61,70.82-14.12,92.2.7,92.2.7Z"/>
        </g>
        <path class="cls-6" d="M-7769-90.76c2487.49,398.62,5210.4,342.31,8081.29,0V-2494.43H-7769Z"/>
        <path class="cls-7" d="M-7467.58-154.63s2581.27-1.66,4403,15.36c1298,12.14,3395.72,9.21,3395.72,9.21L340.37,218l-8211.88,14.3Z"/>
        <path class="cls-8" d="M-7316.41-10.34s499.32,33.15,649.11,31.18,531.65-9.2,573.1-9.47S-5552.76,35-5372.15,37.29c663.28,8.33,1958.07-36,3137.18-55.4C-888-40.27,311.77-38.54,311.77-38.54L302.9,265.8l-8165.23-3.38,35.91-284.75Z"/>
        <path class="cls-9" d="M-7765.43,27.57s397.52-20.71,896.62,46.25,1502.27,2.55,2003,2c522.31-.55,1565.19,81.46,2087.49,85.78,768.54,6.37,3072-118.46,3072-118.46l16.34,261.44L-7818.15,311Z"/>
        <g>
          <path class="cls-10" d="M71.19,253s-154.54-33.09-153.43-66.3,129.42,23.62,180,56.76C-49.41,106,26.53,184.08-14.89,137.56s3.57-69.58,77.47.91c59.18,68.36,76.63,88.36,76.63,88.36S96.06,134.07,79.2,85s38.18-81.69,80.73,3.89c9.37-26.9,10.21-29.57,10.21-29.57s-12.62,40.55.34-6.85,65.5-18.87,36.29,50.64c31.72-25.42-10,3.39,34.47-21.79s98.86,3.34,41.54,60.54S243,183,243,183l-40.17,35.65,106.21-35.35c72.7-18.77,103.93,7,21.75,47.48-53.08,20.77-98.13,36.43-98.13,36.43s45.3-.5,119-3.88,72.85,45.59-11.1,44.32C243,287,71.19,253,71.19,253"/>
          <path class="cls-11" d="M122.45,119.53,91.33,98a72.37,72.37,0,0,1,31.12,21.49"/>
        </g>
        <rect class="cls-1" x="-7732.49" y="-2463.83" width="8000" height="2700"/>
        <rect class="cls-12" x="-7769.41" y="-2503.14" width="8127.09" height="2814.71"/>
        <rect class="cls-1" x="-7769.41" y="-2503.14" width="8127.09" height="2814.71"/>
      </g>
      <g class="cls-13">
        <path class="cls-14" d="M-1953.91,852.07c639,235.82,1338.45,202.5,2075.92,0v-1422H-1953.91Z"/>
        <rect class="cls-1" x="-1954" y="-575.08" width="2087.68" height="1665.16"/>
        <rect class="cls-1" x="-1944.51" y="-551.83" width="2055.03" height="1597.3"/>
        <g>
          <path class="cls-15" d="M-292.46-759.65c66,25.09-172.23-70.43-162.66,1.56,10.66,80.14,10.4,556.68,11.61,735.87,1.27,187.2,1.89,654.57,2.33,764.5s-29.43,213.62-11.43,227.33c32.26,24.57,235.16,235.86,235.16,220.32,8.81-13.13,172.94,92,151.37,50.18s-33.44-80-39.6-101.55a186.44,186.44,0,0,1-6.6-47.8c0-5.37,15.84,5.38,30.37-1.78s27.72-50.18,58.74,1.78,40.92,53.77,62,52,29.71-64.52,7.92-71.69-38.28-46.6-42.9-60.93c5.94-17.92,43.57-23.3,66-5.38a127.72,127.72,0,0,0,46.2,23.31C102.9,995.78,89,954.56,65.94,947.39s-31-21.5-62-17.92S-46,1203.81-65.78,1128.55s-49.51-180.42-53-414.59,3.25-575.18,4.4-669.09c1-78.09,27.5-187.87,59.33-272.32,23.89-63.4,50.31-111.7,73.7-126,28.5-17.47,70.32-73.4,114.63-98.57,40.54-23,83.17-15.89,119.33-21.59,24.64-52.57-5.28-64.52-5.28-64.52s-44-14.33-88,2.39-41.36,31.06-81,28.68S-6.46-422.8-30.22-382.18-131.87-254.34-143.45-196.47c0-234.18-8.8-501.81-3.52-535.27S-168-690-144.23-745"/>
          <g class="cls-16">
            <path class="cls-17" d="M-83.49,1128.62c-19.8-75.27-49.51-180.42-53-414.59s3.24-575.18,4.4-669.09c1-78.09,27.49-187.87,59.32-272.32,23.9-63.4,50.31-111.7,73.71-126C29.41-370.9,71.24-426.83,115.55-452c40.53-23,83.17-15.88,119.32-21.59,24.65-52.56-5.28-64.52-5.28-64.52A143,143,0,0,0,197-543.56a150.82,150.82,0,0,1,50.28,5.45s29.92,12,5.28,64.52C216.35-467.88,173.72-475,133.18-452c-44.31,25.17-86.13,81.1-114.63,98.57-23.39,14.35-49.81,62.65-73.7,126.05C-87-142.93-113.52-33.15-114.48,44.94c-1.15,93.91-7.92,434.9-4.4,669.09s33.22,339.32,53,414.59C-51.29,1184-44.94,927.85-21.37,930.29-50.46,932.63-65.28,1197.84-83.49,1128.62Z"/>
          </g>
        </g>
        <g>
          <path class="cls-18" d="M-667.56-302.94c9.3-15.83,53.88-10.44,100,11.88-14.17-15.53-19.91-31.5-12.78-36.17,6.32-4.23,20.8,2,34.41,13.94a166.85,166.85,0,0,1-7.13-18c-13.09-39.89-7.93-74.6,11.53-77.62,17.72-2.77,41.09,21.86,55,56.4,2.74-28.65,15.75-49.57,30.71-48,.63.11,1.16.27,1.7.38-27.27-36.08-35.95-71.34-19.15-80.33,17.62-9.43,56.65,13.55,87.05,51.34a7.72,7.72,0,0,0,1.19,1.4c-1-3.14-1.77-6.46-2.57-9.72-11.15-49.07-.67-90.33,23.5-92.28,18.21-1.42,39.07,20.21,52.95,52.12l-.06-.38c-2.5-32.34,8.54-58.16,24.66-57.65,9,.23,17.79,8.8,24.11,22,.95-4.09,3-7,6.32-8,5.68-1.7,13.69,2.55,21.31,10.35-.42-14.23,4.22-24.91,11.95-25.2,4.13-.17,8.53,2.76,12.3,7.67-12.26-27.77-12.13-51.83,1.45-56.32,10.51-3.38,26.26,5.72,40.79,22.09-2.62-25.3,5.06-45.46,17.77-45.6,7.64-.11,15.38,6.8,21.32,17.7-.74-22,6.49-38.45,18.19-38.8s24.21,15.83,30.47,37.92a82.35,82.35,0,0,1,6.73-15.69c12-21.86,31.13-35.35,42.68-30.17,2.25-16.81,9.66-28.51,19.55-28.34,9.65.21,19.08,11.77,24.56,28.29,2-10.68,7-17.81,13.58-17.69,6.23.11,12.26,6.86,16.31,16.8,5.7-.49,14.1,3.78,22.68,11.08-8.07-16.06-8.93-29.19-.76-32.72s23.6,3.85,38.55,17.55c5.88-8.47,32.72-3.58,59.94,11A160,160,0,0,1,181-620.68c-9.41-16.82-12.33-31.71-7.85-38.94l28.5,3.16a112.67,112.67,0,0,1,21.71,19.78c-2.12-7.2-2.37-13.29-.63-17.44l31,3.43a121.2,121.2,0,0,1,24.63,24.37c-.07-8.45,1.22-15.66,3.61-21.24l41.1,4.55A116,116,0,0,1,341-611.63c-.56-5.56.93-9.54,4.64-10.8,6.81-2.44,19.05,5,29.76,17.4.46-9.34,4-15.7,10.18-16.22,3.58-.32,7.56,1.44,11.49,4.61-2.53-7.29-3.36-13.61-2.46-18.46l44.21,4.83a162.17,162.17,0,0,1,27.66,27.4l.15.14a127.8,127.8,0,0,1-7.3-25.29q43.5,4.77,87,9.52a237.72,237.72,0,0,1,16.8,23.83c2,3.08,3.72,6.16,5.39,9.28,0,0,0-1.13-.08-1.7a134.89,134.89,0,0,1,.8-28.91q37.8,4.15,75.61,8.27a150.07,150.07,0,0,1,4.18,22,4.13,4.13,0,0,1,1-.88c11.66-6.63,39,6.84,63.44,30.47-7.43-17.26-10.88-33.18-10.3-45.24l61.46,6.71A177.83,177.83,0,0,1,786.77-561,176.21,176.21,0,0,1,794.6-543c2.41-15,10-25.27,18.66-23.88,9.68,1.54,17.14,17.18,17,35.33,22.16-35,56.24-55,76.48-44.68,18.85,9.63,19,42.24,1.44,75.3,14.4-15.3,31.62-22.69,42.45-17,13.58,7.2,12,32.16-3.46,55.75a23.42,23.42,0,0,1-2,2.88c.64-.27,1.19-.48,1.19-.48,34.51-11.19,68.57-9.72,76.86,3,7.18,11.09-7.66,27.13-34,38.36,28.34-3.31,53.92,1.93,58.16,12.4,3.69,9-9.73,19-31.4,24.71,16.41,6.76,27.36,15.34,26.15,21.86-1,5.09-9.27,7.67-21.12,7.57,24.49,9.18,41.27,22,39.12,30.77s-21.87,10.59-46.44,5.54c36.49,20.3,59.32,44.89,51.88,57.22-6,10.08-30.6,9.05-60.34-1,22.23,12.68,35.6,26.71,32,35.76-4.6,11.5-35,10.78-69.71-1,.45.47.83.88,1.2,1.33C989-198.94,996.29-174.88,985-169.43c-9.13,4.35-27.61-4.8-45.1-21.25a99.45,99.45,0,0,1,1.47,13.92c1.26,31.81-11.42,56.09-28,54.22-14.66-1.68-27.52-22.71-31.35-49.23a74.87,74.87,0,0,1-8.68,10.67c-16,16.26-36.91,23.89-46.6,17.09-7-4.87-6.37-15.7.19-27.38-18.75,5-36.15,3.72-41.23-3.46-3.46-5-.23-11.58,7.5-17.84-17.49,2.71-33,.28-36.58-6.36l-.09-.13c-12.24,9.73-25.57,13.74-33.24,8.94-5.1-3.17-6.7-9.68-5-17.55-7.78,12.8-18.27,19.94-27.5,17.06-9.47-2.89-14.87-15.76-14.44-31.75-3.68,7.79-9.23,12.25-15.59,11.57-11.87-1.29-22.31-20.28-23.73-42.81-1.64,1.84-3.43,3.6-5.2,5.43-23.2,22-52.75,31.83-66.06,22.08-4.45-3.32-6.43-8.48-6.33-14.75-4,3.68-8.33,5.4-12.49,4.31a11.49,11.49,0,0,1-4.57-2.51c3,13.77.73,24-7.06,25.79-6.93,1.54-16.59-4-25.85-13.81,3.42,21-1.44,36.78-12.92,37.84-7.82.6-17.07-5.68-25.3-16.15-1.74,4.41-4.64,7.09-8.63,7.46-3.29.28-7-1.1-10.6-3.8,4.83,15.16,3.42,26.94-4.87,29.4s-21.38-4.84-33.72-17.66c-.53,9.26-3.92,15.69-9.48,16.7,14.22,21.75,18.05,40.35,7.6,46.43-8.79,5.13-25.73.16-44.48-11.66,4.23,18.38.27,33.07-9.24,33.5-7.66.36-16.79-8.74-23-21.91-.95,2.45-43.78-11.37-44.88-9.3,0,0-23,52.62-38,53.93-12.43,1.1-39-39.82-39-39.82-2.52-1.29-41,7.79-43.65,6,4.82,13.45,4.06,24.4-2.83,26.77-8.44,2.88-23.18-8.41-33.78-25.53-6.91,16.57-17.53,26.66-29.08,25.37-13.58-1.6-24.72-18.8-29.36-42.37-5.5,1.08-13.35-3.28-21-11-.63,15.23-6.13,26-15.13,26.83S18.74-125,11.07-139.69c-1,3.58-3,6.08-6.12,6.94-3.62,1.08-8.33-.24-13.11-3.39,1,11.82-2,20.41-9.26,22.55-10.56,3.13-27-8.72-40.23-27.89C-58-129.95-62-121.8-69.1-120.7c-8.08,1.21-18-6.81-26-19.66A6.08,6.08,0,0,1-97-136.65c-2.83,2.38-7.9,2.48-14.14.67,5,5.24,7.29,10.43,6,14.8-3.81,12.94-36.77,14.68-73.57,3.91-2.93-.88-5.77-1.83-8.7-2.78,16.27,19.69,22,39.55,12.82,44.84-4.88,2.81-13.13.74-22.33-4.58,12.69,13.54,18.07,26.46,12.23,32.24-5.68,5.58-20.23,3.09-36.72-5.19,7.46,6.23,11.1,12.32,9.21,16.84-2.85,6.72-17.41,7.94-35.46,3.71l.15.26c2.06,6.92-9.31,14.39-26.38,18.08,11.34,2.71,19.25,7.26,20.14,12.66,1.22,7.93-12.78,15-32.58,17.29,14.63,7.7,23.47,16.78,21.32,23.29-3.1,9.21-26.89,9.88-53.13,1.46a127.87,127.87,0,0,1-15.72-6.09c17.26,24,22.48,46.56,11.32,53-12.94,7.43-42.41-9.06-66-36.67-3.5-4.12-6.68-8.3-9.54-12.44-2.24,20.14-10.92,34.31-22.12,33.75-13.92-.69-26.3-23.83-27.72-51.68a13.9,13.9,0,0,0,0-1.58c-20.64,22.18-46.09,33.28-58.85,25-10-6.44-9.57-23.13-.24-41.66-17.68,18.92-37.94,28.23-50.92,21.77-15.88-8-15.39-37,.17-67-17.12,12.8-35.41,17.92-43.94,11.31-8.68-6.8-4.25-23.59,9.66-39.87-10.14,4.22-19.13,4.87-24,.84-6-5.18-3.38-16.31,5.59-27.77-23,2.66-42.34-1.28-46.18-10.33-4.33-10.4,13.44-23.73,40.3-30.71-31.22-.53-56.28-9.13-58.74-21.11-2.79-13.75,25.32-26.75,62.82-29.07l2,0c-1.38-.6-2.6-1.12-3.91-1.77-31.48-14.88-52.06-35.67-46-46.51,4.88-8.66,25.35-8.29,49.41-.2C-651.23-260.19-676.36-288.2-667.56-302.94Z"/>
          <path class="cls-19" d="M-675-160.39c-1.51-7.2,5.64-14.25,18.17-19.57,8.53,3,21.27,3.88,35.44,2.26-9,11.46-11.6,22.58-5.58,27.71,4.76,4,13.89,3.38,24-.78-13.83,16.28-18.35,33.07-9.67,39.87,8.46,6.6,26.84,1.49,44-11.37-15.49,30.06-16,59-.17,67,13,6.53,33.16-2.79,50.92-21.7-9.33,18.53-9.86,35.21.24,41.66,12.83,8.22,38.22-2.89,58.83-25a12.6,12.6,0,0,0,.11,1.58c1.35,27.86,13.72,50.93,27.56,51.68,11.28.5,20-13.67,22.27-33.75a155.89,155.89,0,0,0,9.53,12.39C-376-.81-346.4,15.64-333.63,8.26c11.24-6.46,6-28.92-11.16-52.95a129,129,0,0,0,15.65,6.08c26.3,8.43,50.1,7.76,53.12-1.46,2.15-6.57-6.68-15.59-21.33-23.3,19.88-2.3,33.9-9.4,32.58-17.22-.87-5.45-8.79-10.07-20.2-12.73,17.05-3.75,28.43-11.16,26.45-18.07a.54.54,0,0,0-.07-.19c18.06,4.1,32.6,3,35.46-3.78,1.89-4.52-1.84-10.61-9.3-16.77,16.5,8.27,31,10.7,36.73,5.12,5.86-5.83.45-18.7-12.17-32.24,9.13,5.39,17.32,7.32,22.26,4.52,9.18-5.23,3.37-25.1-12.72-44.84,2.76,1,5.6,1.88,8.61,2.78,36.8,10.83,69.75,9.09,73.56-3.85,1.27-4.44-1-9.55-5.94-14.85,6.24,1.8,11.31,1.76,14-.63a6.09,6.09,0,0,0,1.94-3.7c8,12.85,17.93,20.88,25.93,19.65,7.21-1.08,11.13-9.18,11.45-20.78,13.32,19.12,29.74,31,40.31,27.84,7.18-2.15,10.17-10.75,9.18-22.5,4.94,3.16,9.56,4.48,13.19,3.4,3.08-.92,5-3.36,6.2-6.93C7.73-204.43,18-194.89,27-195.66s14.58-11.46,15.2-26.81c7.55,7.8,15.56,12.17,21,11,4.5,23.55,15.63,40.81,29.35,42.43,11.49,1.34,22.1-8.81,29-25.38C132.24-177.27,147-166,155.5-168.86c6.79-2.37,7.55-13.32,2.73-26.77,2.74,1.75,41.13-7.35,43.72-6,0,0,26.46,40.85,38.9,39.74,15-1.31,37.9-53.87,37.9-53.87,1.24-2,44,11.76,45,9.31,6.25,13.11,15.38,22.27,23,21.91,9.53-.43,13.4-15.19,9.24-33.5,18.77,11.76,35.62,16.79,44.49,11.66,10.45-6.08,6.7-24.67-7.62-46.5,5.5-.88,9-7.37,9.5-16.69,12.41,12.89,25.44,20.18,33.72,17.72s9.7-14.18,4.79-29.4c3.7,2.64,7.31,4.08,10.67,3.8,4-.36,6.91-3.05,8.65-7.46,8.22,10.48,17.46,16.75,25.27,16.09,11.51-1,16.36-16.81,13-37.77,9.18,9.73,18.85,15.34,25.77,13.8,7.86-1.73,10.15-12,7-25.79a11.5,11.5,0,0,0,4.5,2.5c4.25,1.1,8.68-.61,12.65-4.3-.25,6.21,1.79,11.43,6.32,14.75,7.42,5.46,20,4.74,33.71-.81-12.65-5.19-20.4-11.8-19.83-18.36,1.08-11,25.57-17.44,55.71-15.23-30.66-10.54-51.11-26.68-47.35-38.48,4.37-13.6,38.86-16.5,77.25-6.44.69.18,1.31.41,2,.58-1-.94-2-1.89-2.93-2.9-23.57-23.89-33.26-49.79-21.63-57.81,9.23-6.42,29.27.59,49,15.92-28.7-33.66-39.15-67.65-23-78.44,17.39-11.52,58.9,7.92,93,43.46-6-18.95-3.54-35.49,6-37.49,8.41-1.82,19.6,8.55,26.91,24.05a133.91,133.91,0,0,1,2.17-19c5.72-31,20.3-55.92,36.09-64.66,5.11,6.44,8.48,17.46,8.37,29.65a132.25,132.25,0,0,1,20.18-24.78c10.27,11.81,15.07,35.19,12.19,61.83,17.42-25.54,41.1-40.66,55.17-34.3l.91.62A122.35,122.35,0,0,1,908.21-501c14.4-15.3,31.62-22.69,42.45-17,13.58,7.2,12,32.16-3.46,55.75a23.42,23.42,0,0,1-2,2.88c.64-.27,1.19-.48,1.19-.48,34.51-11.19,68.57-9.72,76.86,3,7.18,11.09-7.66,27.13-34,38.36,28.34-3.31,53.92,1.93,58.16,12.4,3.69,9-9.73,19-31.4,24.71,16.41,6.76,27.36,15.34,26.15,21.86-1,5.09-9.27,7.67-21.12,7.57,24.49,9.18,41.27,22,39.12,30.77s-21.88,10.59-46.44,5.54c4.94,2.79,9.66,5.62,14.06,8.49,1.51,1,3,2,4.48,3l2,1.46c1.13.77,2.19,1.53,3.25,2.29.68.55,1.43,1.1,2.12,1.66,1,.69,1.88,1.43,2.79,2.13.67.55,1.43,1.16,2,1.64.9.76,1.73,1.45,2.55,2.19l1.81,1.63,2.4,2.16c.53.55,1,1,1.58,1.56.74.74,1.57,1.55,2.24,2.35.44.47.81.87,1.27,1.28,1,1.19,2.09,2.4,3,3.52l.29.34c.82,1.06,1.63,2.12,2.29,3.17a5.26,5.26,0,0,1,.73,1.12c.52.79,1,1.51,1.4,2.23a9,9,0,0,0,.57,1.23c.36.65.64,1.3.94,1.95a9.41,9.41,0,0,0,.49,1.22c.12.64.34,1.22.47,1.79,0,0,.21.83.26,1.21,0,0,.11,1.15.17,1.72a4.78,4.78,0,0,1,0,1,6.57,6.57,0,0,1-.22,1.74l0,.57a11.71,11.71,0,0,1-1.13,2.57c-6,10.08-30.6,9.05-60.34-1,22.23,12.68,35.6,26.71,32,35.76-4.6,11.5-35,10.78-69.71-1,.45.47.83.88,1.2,1.33C989-198.94,996.29-174.88,985-169.43c-9.13,4.35-27.61-4.8-45.1-21.25a99.45,99.45,0,0,1,1.47,13.92c1.26,31.81-11.42,56.09-28,54.22-14.66-1.68-27.52-22.71-31.35-49.23a74.87,74.87,0,0,1-8.68,10.67c-16,16.26-36.91,23.89-46.6,17.09-7-4.87-6.37-15.7.19-27.38-18.75,5-36.15,3.73-41.23-3.46-3.46-5-.23-11.58,7.5-17.84-17.49,2.71-33,.28-36.58-6.36l-.09-.13c-12.24,9.73-25.57,13.74-33.24,9-5.1-3.18-6.7-9.69-5-17.56-7.78,12.8-18.27,19.94-27.5,17.06-9.47-2.89-14.87-15.76-14.44-31.75-3.68,7.79-9.23,12.25-15.59,11.57-11.87-1.29-22.31-20.28-23.73-42.81-1.64,1.84-3.43,3.6-5.2,5.43-2.12,2-4.3,3.8-6.55,5.6-.41.34-.73.64-1.14,1-2.25,1.8-4.5,3.47-6.74,4.95l-.33.29c-19.79,13.31-40.63,18.07-51.3,10.25-4.45-3.32-6.43-8.48-6.33-14.75-4,3.68-8.33,5.4-12.49,4.31a11.49,11.49,0,0,1-4.57-2.51c3,13.77.73,24-7.06,25.79-6.93,1.54-16.59-4-25.85-13.81,3.42,21-1.44,36.79-12.92,37.84-7.82.6-17.07-5.68-25.3-16.15-1.74,4.41-4.64,7.09-8.63,7.46-3.29.28-7-1.1-10.6-3.8,4.83,15.16,3.42,26.94-4.87,29.4s-21.38-4.84-33.72-17.66c-.53,9.26-3.92,15.69-9.48,16.7,14.22,21.75,18.05,40.35,7.6,46.43-8.79,5.13-25.73.16-44.48-11.66,4.23,18.38.27,33.07-9.24,33.5-7.66.36-16.79-8.74-23-21.91-.95,2.45-43.78-11.37-44.88-9.3,0,0-23,52.62-38,53.93-12.43,1.1-39-39.82-39-39.82-2.52-1.29-41,7.79-43.65,6,4.82,13.45,4.06,24.4-2.83,26.77-8.44,2.88-23.18-8.41-33.78-25.53-6.91,16.57-17.53,26.66-29.08,25.37-13.58-1.6-24.72-18.8-29.36-42.37-5.5,1.08-13.35-3.28-21-11-.63,15.23-6.13,26-15.13,26.83S18.74-125,11.07-139.69c-1,3.58-3,6.08-6.12,6.94-3.62,1.08-8.33-.24-13.11-3.39,1,11.82-2,20.41-9.26,22.55-10.56,3.13-27-8.72-40.23-27.89C-58-129.95-62-121.8-69.1-120.7c-8.08,1.21-18-6.81-26-19.66A6.08,6.08,0,0,1-97-136.65c-2.83,2.38-7.9,2.48-14.14.67,5,5.24,7.29,10.43,6,14.8-3.81,12.94-36.77,14.68-73.57,3.91-2.93-.88-5.77-1.83-8.7-2.78,16.26,19.69,22,39.55,12.82,44.84-4.88,2.81-13.13.74-22.33-4.58,12.69,13.54,18.07,26.46,12.23,32.24-5.68,5.58-20.23,3.09-36.72-5.18,7.46,6.22,11.1,12.31,9.21,16.83-2.85,6.72-17.41,7.94-35.46,3.71l.15.26c2.06,6.92-9.31,14.39-26.38,18.08,11.34,2.71,19.25,7.26,20.14,12.66,1.22,7.93-12.78,15-32.58,17.29,14.63,7.7,23.47,16.78,21.32,23.29-3.1,9.21-26.89,9.88-53.13,1.46a127.87,127.87,0,0,1-15.72-6.09c17.26,24,22.48,46.56,11.32,53-12.94,7.43-42.41-9.06-66-36.67-3.5-4.12-6.68-8.3-9.54-12.44-2.24,20.14-10.92,34.31-22.12,33.75-13.92-.69-26.3-23.83-27.72-51.68a13.9,13.9,0,0,0,0-1.58c-20.64,22.18-46.09,33.28-58.85,25-10-6.44-9.57-23.13-.24-41.66-17.68,18.92-37.94,28.23-50.92,21.77-16-8-15.39-37,.17-67-17.12,12.8-35.41,17.92-43.94,11.31-8.68-6.8-4.25-23.59,9.66-39.87-10.14,4.22-19.13,4.87-24,.84-6-5.18-3.38-16.31,5.59-27.77-23,2.66-42.34-1.28-46.18-10.33-4.33-10.4,13.44-23.73,40.3-30.71C-647.51-139.81-672.57-148.41-675-160.39Z"/>
        </g>
      </g>
      <g>
        <path class="cls-20" d="M42.26,49.69A4.93,4.93,0,0,0,47.07,54h.46a5,5,0,0,0,4.73-4.67,5,5,0,0,0-5-4.75h-.2A5,5,0,0,0,42.26,49.69Zm4.57,4a3.27,3.27,0,0,1-3.32-3,3.16,3.16,0,1,1,6.27-.25A3.29,3.29,0,0,1,46.83,53.72Z"/>
        <path class="cls-21" d="M43.51,50.67a3.14,3.14,0,1,0,6.27-.25,3.16,3.16,0,1,0-6.27.25Zm.64-1.44a1.05,1.05,0,1,1,2.09-.08,1,1,0,1,1-2.09.08Z"/>
        <path class="cls-22" d="M44.15,49.23a1,1,0,1,0,2.09-.08,1.05,1.05,0,1,0-2.09.08Z"/>
        <path class="cls-23" d="M47.58,54h-.51a4.94,4.94,0,0,1-4.8-4.28,5,5,0,0,1,4.84-5.14h.16a5,5,0,0,1,5.07,4.75A5,5,0,0,1,47.58,54Z"/>
      </g>
      <g>
        <ellipse class="cls-24" cx="47.04" cy="49.21" rx="5.01" ry="4.57"/>
        <path class="cls-25" d="M42,49.21c.25,5.84,9.34,5.61,9.53,0-.19-5.61-9.28-5.83-9.53,0Zm0,0c.23-6.3,10.27-6.47,10.53,0-.26,6.48-10.3,6.3-10.53,0Z"/>
      </g>
    </g>
  </g>
</svg>
