<svg id="Layer_1" data-name="Layer 1" xmlns="http://www.w3.org/2000/svg" xmlns:xlink="http://www.w3.org/1999/xlink" width="94.59" height="98.53" viewBox="0 0 94.59 98.53">
  <defs>
    <style>
      .cls-1 {
        fill: none;
      }

      .cls-2 {
        clip-path: url(#clip-path);
      }

      .cls-3 {
        fill: #3d3123;
      }

      .cls-4 {
        fill: #ffe8e2;
      }

      .cls-5 {
        fill: #894f1a;
      }
    </style>
    <clipPath id="clip-path">
      <rect class="cls-1" x="-1994.65" y="-2497.71" width="1280" height="720"/>
    </clipPath>
  </defs>
  <g>
    <path class="cls-3" d="M45.81,51.81a4.76,4.76,0,0,0,.45,2h0c.25.32.48.58.67.79a25,25,0,0,1,6.74.62,4.74,4.74,0,0,0,1.39-2.82h0c0-.43,0-.88,0-1.36h0a4.64,4.64,0,0,0-9.24.74Zm1.69-.46a1.23,1.23,0,1,1,1.23,1.26A1.25,1.25,0,0,1,47.5,51.35Z"/>
    <path class="cls-1" d="M47.46,51.41a1.23,1.23,0,1,0,1.23-1.27A1.25,1.25,0,0,0,47.46,51.41Z"/>
    <path class="cls-4" d="M43.83,47.52a10.67,10.67,0,0,0,2.43,6.34A4.65,4.65,0,1,1,55,51.13a10.39,10.39,0,0,0-2.32-6.38c-1.65-1.93-5-4-7.08-2.69C43.74,43.27,43.81,46.62,43.83,47.52Z"/>
    <path class="cls-5" d="M55.05,51.08a10.25,10.25,0,0,0-5.38-8.51c-7.19-3.64-6.5,7.84-3.25,11.15l0,.14,0-.14.67.79-.17-.07a24.57,24.57,0,0,1,6.78.73l-.11,0A4.68,4.68,0,0,0,55,52.45l0-1.37Zm0,0,.05,1.37a4.88,4.88,0,0,1-1.39,2.94,25.26,25.26,0,0,0-6.77-.53h-.1l-.06-.07-.69-.8L46,53.85l.05.14c-3.67-3.66-4-15.75,3.77-11.77a10.18,10.18,0,0,1,5.19,8.86Z"/>
    <path class="cls-5" d="M38.78,56.55A23.32,23.32,0,0,1,55.66,56a22.77,22.77,0,0,0-16.58,1.29l-.3-.69Z"/>
  </g>
</svg>
