<svg xmlns="http://www.w3.org/2000/svg" xmlns:xlink="http://www.w3.org/1999/xlink" width="94.59" height="98.53" viewBox="0 0 94.59 98.53">
  <defs>
    <style>
      .cls-1, .cls-21 {
        fill: none;
      }

      .cls-2 {
        isolation: isolate;
      }

      .cls-3 {
        clip-path: url(#clip-path);
      }

      .cls-4 {
        fill: #3c800d;
      }

      .cls-5 {
        fill: url(#linear-gradient);
      }

      .cls-6 {
        fill: #71cd33;
      }

      .cls-7 {
        fill: #6bba2d;
      }

      .cls-8 {
        fill: #4aa311;
      }

      .cls-9 {
        fill: #032616;
      }

      .cls-10 {
        fill: #011c24;
      }

      .cls-11 {
        fill: #042f33;
      }

      .cls-12, .cls-16 {
        opacity: 0.5;
      }

      .cls-12 {
        fill: url(#linear-gradient-2);
      }

      .cls-13 {
        clip-path: url(#clip-path-2);
      }

      .cls-14 {
        fill: url(#linear-gradient-3);
      }

      .cls-15 {
        fill: url(#linear-gradient-4);
      }

      .cls-16 {
        mix-blend-mode: screen;
      }

      .cls-17 {
        opacity: 0.58;
        fill: url(#linear-gradient-5);
      }

      .cls-18 {
        fill: #f6f6f6;
      }

      .cls-19 {
        fill: #3d3123;
      }

      .cls-20 {
        fill: #fff;
      }

      .cls-21 {
        stroke: #894f1a;
        stroke-miterlimit: 10;
        stroke-width: 0.5px;
      }

      .cls-22 {
        fill: #bc7b18;
      }

      .cls-23 {
        fill: #8e4713;
      }
    </style>
    <clipPath id="clip-path">
      <rect class="cls-1" x="-1697.47" y="-2263.41" width="1280" height="720"/>
    </clipPath>
    <linearGradient id="linear-gradient" x1="-3728.41" y1="169.01" x2="-3728.41" y2="-4045.35" gradientUnits="userSpaceOnUse">
      <stop offset="0.2" stop-color="#ffffca"/>
      <stop offset="0.67" stop-color="#9edcff"/>
      <stop offset="1" stop-color="#4e9dff"/>
    </linearGradient>
    <linearGradient id="linear-gradient-2" x1="-3729.29" y1="-4041.31" x2="-3675.45" y2="2459.62" gradientUnits="userSpaceOnUse">
      <stop offset="0.46" stop-color="#fff" stop-opacity="0"/>
      <stop offset="0.5" stop-color="#fef9e8" stop-opacity="0.21"/>
      <stop offset="0.55" stop-color="#fef4d3" stop-opacity="0.39"/>
      <stop offset="0.6" stop-color="#fdf0c1" stop-opacity="0.56"/>
      <stop offset="0.65" stop-color="#fdecb2" stop-opacity="0.69"/>
      <stop offset="0.7" stop-color="#fde9a6" stop-opacity="0.81"/>
      <stop offset="0.76" stop-color="#fce79c" stop-opacity="0.89"/>
      <stop offset="0.82" stop-color="#fce595" stop-opacity="0.95"/>
      <stop offset="0.89" stop-color="#fce491" stop-opacity="0.99"/>
      <stop offset="1" stop-color="#fce490"/>
    </linearGradient>
    <clipPath id="clip-path-2">
      <rect class="cls-1" x="-1697.47" y="-27.18" width="1280" height="720"/>
    </clipPath>
    <linearGradient id="linear-gradient-3" x1="-915.95" y1="957.89" x2="-915.95" y2="-1535.3" xlink:href="#linear-gradient"/>
    <linearGradient id="linear-gradient-4" x1="11461.79" y1="115.08" x2="12051.14" y2="115.08" gradientTransform="matrix(-0.73, 0, 0, 1, 8509.65, 0)" gradientUnits="userSpaceOnUse">
      <stop offset="0" stop-color="#8a5f3c"/>
      <stop offset="0.24" stop-color="#744d29"/>
      <stop offset="0.66" stop-color="#52300b"/>
      <stop offset="0.89" stop-color="#452500"/>
    </linearGradient>
    <linearGradient id="linear-gradient-5" x1="11511.74" y1="-1139.88" x2="11511.74" y2="928.2" gradientTransform="matrix(-0.73, 0, 0, 1, 8509.65, 0)" gradientUnits="userSpaceOnUse">
      <stop offset="0.21" stop-color="#cc925e"/>
      <stop offset="0.48" stop-color="#a56752"/>
      <stop offset="0.8" stop-color="#6d3134"/>
      <stop offset="1" stop-color="#292937"/>
    </linearGradient>
  </defs>
  <g class="cls-2">
    <g id="Layer_1" data-name="Layer 1">
      <g class="cls-3">
        <path class="cls-4" d="M137.39,155s2.93-26.43,29.54-33.47c0,0-22.27-10.16-47.23,28.32,0,0,8.32-36.81,20.8-43.36,0,0-28.08,15.92-36.4,42.12,0,0,25.79-59.33,7.17-75.32,0,0,3.23,35-13.41,50.56,0,0,9.9-15.6-6.49-27a54.67,54.67,0,0,1-7.52,30s4.65-19.59-17.19-22.71c0,0,25,19.76,13.52,37.44,0,0,2.08-11.44-19.76-10.4,0,0,22.93,20.76,9.39,32.22Z"/>
        <path class="cls-5" d="M-7769-207.94c2487.49,398.63,5210.4,342.31,8081.29,0V-2611.6H-7769Z"/>
        <path class="cls-6" d="M-7467.58-271.81s2581.27-1.66,4403,15.37c1298,12.13,3395.72,9.21,3395.72,9.21l9.26,348.07-8211.88,14.3Z"/>
        <path class="cls-7" d="M-7316.41-127.52s499.32,33.16,649.11,31.18,531.65-9.19,573.1-9.47,541.44,23.65,722.05,25.92c663.28,8.33,1958.07-36,3137.18-55.4,1347-22.16,2546.74-20.42,2546.74-20.42L302.9,148.63l-8165.23-3.39,35.91-284.74Z"/>
        <path class="cls-8" d="M-7765.43-89.6s397.52-20.72,896.62,46.25,1502.27,2.54,2003,2c522.31-.54,1565.19,81.46,2087.49,85.79C-2009.75,50.82,293.71-74,293.71-74l16.34,261.45-8128.2,6.36Z"/>
        <g>
          <path class="cls-9" d="M-198.16,142l7-42S565.09,74,676.09,82c0,0-6-21-17-24,0,0,25-3,27,24,0,0,0-40-16-47,0,0,39,6,36,47l182,8s-11-11-18-14c0,0,20-7,31,6,0,0-13-31-21-35,0,0,22.25-2,28.13,30,0,0,19.87-17,25.87-14.5,0,0-22,26.5-18,27.5,0,0,722.36,20.47,857.36,27.47v53.38Z"/>
          <g>
            <path class="cls-10" d="M71.19,135.78S-83.35,102.68-82.24,69.47s129.42,23.62,180,56.76C-49.41-11.2,26.53,66.9-14.89,20.39s3.57-69.59,77.47.9c59.18,68.36,76.63,88.36,76.63,88.36s-43.15-92.76-60-141.8,38.18-81.69,80.73,3.88c9.37-26.9,10.21-29.57,10.21-29.57s-12.62,40.55.34-6.85S236-83.56,206.77-14c31.72-25.43-10,3.39,34.47-21.79s98.86,3.34,41.54,60.53S243,65.8,243,65.8l-40.17,35.65L309.06,66.1c72.7-18.76,103.93,7,21.75,47.49C277.73,134.35,232.68,150,232.68,150s45.3-.5,119-3.88,72.85,45.58-11.1,44.31C243,169.86,71.19,135.78,71.19,135.78"/>
            <g>
              <path class="cls-11" d="M-4.36-.28S110.1,124.1,125.58,135.39c0,0-115.91-133.11-129.94-135.67"/>
              <path class="cls-11" d="M90.06,132.88S-63,81.17-66,78.18s140.59,45,156.05,54.7"/>
              <path class="cls-11" d="M122.45,2.35,91.33-19.14A72.37,72.37,0,0,1,122.45,2.35"/>
              <path class="cls-11" d="M28.19,28.41S13.77,3.56,13.45-1.86s15,15,14.74,30.27"/>
              <path class="cls-11" d="M46.74,54.73,5.33,36.45s22.54,4.77,41.41,18.28"/>
              <path class="cls-11" d="M66.07,68.73c.08.09-7.29-19.35-3.41-27.41S64,60,66.15,68.82"/>
              <path class="cls-11" d="M90.22,95.42S86.5,73.47,88.6,67s7.7,21.76,1.62,28.45"/>
              <path class="cls-11" d="M3.14,82l40,32.08S25.45,107.55,3.14,82"/>
            </g>
          </g>
        </g>
        <rect class="cls-1" x="-7732.49" y="-2581.01" width="8000" height="2700"/>
        <rect class="cls-12" x="-7769.41" y="-2620.32" width="8127.09" height="2814.71"/>
        <rect class="cls-1" x="-7769.41" y="-2620.32" width="8127.09" height="2814.71"/>
      </g>
      <g class="cls-13">
        <path class="cls-14" d="M-1953.91,734.89c639,235.82,1338.45,202.51,2075.92,0v-1422H-1953.91Z"/>
        <rect class="cls-1" x="-1954" y="-692.26" width="2087.68" height="1665.16"/>
        <rect class="cls-1" x="-1944.51" y="-669.01" width="2055.03" height="1597.3"/>
        <g>
          <path class="cls-15" d="M-292.46-876.83c66,25.09-172.23-70.42-162.66,1.56,10.66,80.14,10.4,556.68,11.61,735.87,1.27,187.21,1.89,654.57,2.33,764.5s-29.43,213.62-11.43,227.34c32.26,24.57,235.16,235.85,235.16,220.31,8.81-13.13,172.94,92,151.37,50.19s-33.44-80-39.6-101.56a186.33,186.33,0,0,1-6.6-47.79c0-5.37,15.84,5.38,30.37-1.79s27.72-50.18,58.74,1.79,40.92,53.76,62,52S68.58,961,46.79,953.88,8.51,907.28,3.89,893c5.94-17.93,43.57-23.31,66-5.38a127.79,127.79,0,0,0,46.2,23.3C102.9,878.6,89,837.38,65.94,830.22s-31-21.51-62-17.93S-46,1086.64-65.78,1011.37s-49.51-180.42-53-414.59,3.25-575.18,4.4-669.09c1-78.09,27.5-187.87,59.33-272.32,23.89-63.4,50.31-111.7,73.7-126,28.5-17.47,70.32-73.4,114.63-98.57,40.54-23,83.17-15.88,119.33-21.58,24.64-52.57-5.28-64.53-5.28-64.53s-44-14.33-88,2.4-41.36,31.06-81,28.67S-6.46-540-30.22-499.35-131.87-371.51-143.45-313.64c0-234.19-8.8-501.82-3.52-535.27s-21,41.7,2.74-13.25"/>
          <g class="cls-16">
            <path class="cls-17" d="M-83.49,1011.45c-19.8-75.28-49.51-180.42-53-414.6s3.24-575.17,4.4-669.08c1-78.09,27.49-187.88,59.32-272.32C-48.89-408-22.48-456.25.92-470.61c28.49-17.47,70.32-73.4,114.63-98.57,40.53-23,83.17-15.88,119.32-21.58,24.65-52.57-5.28-64.53-5.28-64.53A142.74,142.74,0,0,0,197-660.73a150.68,150.68,0,0,1,50.28,5.44s29.92,12,5.28,64.53c-36.16,5.7-78.79-1.44-119.33,21.58C88.87-544,47.05-488.08,18.55-470.61-4.84-456.25-31.26-408-55.15-344.55-87-260.11-113.52-150.32-114.48-72.23c-1.15,93.91-7.92,434.9-4.4,669.08s33.22,339.32,53,414.6c14.56,55.36,20.91-200.78,44.48-198.34C-50.46,815.46-65.28,1080.67-83.49,1011.45Z"/>
          </g>
        </g>
      </g>
      <g>
        <path class="cls-18" d="M42.26,49.69A4.93,4.93,0,0,0,47.07,54h.46a5,5,0,0,0,4.73-4.67,5,5,0,0,0-5-4.75h-.2A5,5,0,0,0,42.26,49.69Zm4.57,4a3.27,3.27,0,0,1-3.32-3,3.16,3.16,0,1,1,6.27-.25A3.29,3.29,0,0,1,46.83,53.72Z"/>
        <path class="cls-19" d="M43.51,50.67a3.14,3.14,0,1,0,6.27-.25,3.16,3.16,0,1,0-6.27.25Zm.64-1.44a1.05,1.05,0,1,1,2.09-.08,1,1,0,1,1-2.09.08Z"/>
        <path class="cls-20" d="M44.15,49.23a1,1,0,1,0,2.09-.08,1.05,1.05,0,1,0-2.09.08Z"/>
        <path class="cls-21" d="M47.58,54h-.51a4.94,4.94,0,0,1-4.8-4.28,5,5,0,0,1,4.84-5.14h.16a5,5,0,0,1,5.07,4.75A5,5,0,0,1,47.58,54Z"/>
      </g>
      <g>
        <path class="cls-22" d="M42.77,51.67a4.53,4.53,0,0,1-.62-2.28,5,5,0,0,1,10,0,4.46,4.46,0,0,1-.76,2.49A12.57,12.57,0,0,0,42.77,51.67Z"/>
        <path class="cls-23" d="M42.77,51.67c-2.33-3.17.72-7.63,4.5-7.43,3.95-.13,6.9,4.55,4.46,7.88l-.2.29a13.35,13.35,0,0,0-8.76-.74Zm0,0a11.81,11.81,0,0,1,8.75-.19l-.51.16c1.86-2.78-.55-6.49-3.76-6.49a4.6,4.6,0,0,0-4.48,6.52Z"/>
      </g>
    </g>
  </g>
</svg>
