<svg xmlns="http://www.w3.org/2000/svg" xmlns:xlink="http://www.w3.org/1999/xlink" width="417.18" height="228.24" viewBox="0 0 417.18 228.24">
  <defs>
    <style>
      .cls-1, .cls-10, .cls-14, .cls-27, .cls-34 {
        fill: none;
      }

      .cls-2 {
        isolation: isolate;
      }

      .cls-3 {
        clip-path: url(#clip-path);
      }

      .cls-4 {
        fill: #0c4c29;
      }

      .cls-5, .cls-6 {
        mix-blend-mode: multiply;
        opacity: 0.43;
      }

      .cls-5 {
        fill: url(#linear-gradient);
      }

      .cls-6 {
        fill: url(#linear-gradient-2);
      }

      .cls-12, .cls-7 {
        fill: #bc7b18;
      }

      .cls-8 {
        fill: #bc6b00;
      }

      .cls-28, .cls-9 {
        fill: #fedcae;
      }

      .cls-10, .cls-9 {
        stroke: #894f1a;
      }

      .cls-10, .cls-12, .cls-14, .cls-27, .cls-30, .cls-34, .cls-9 {
        stroke-miterlimit: 10;
      }

      .cls-11 {
        fill: #ffbe72;
      }

      .cls-12, .cls-30 {
        stroke: #bc7b18;
      }

      .cls-13 {
        fill: #e07e1e;
      }

      .cls-14 {
        stroke: #231f20;
      }

      .cls-15 {
        fill: #f3d9ab;
      }

      .cls-16 {
        fill: #f6f6f6;
      }

      .cls-17 {
        fill: #3d3123;
      }

      .cls-18 {
        fill: #fff;
      }

      .cls-19 {
        fill: #894f1a;
      }

      .cls-20 {
        fill: #231f20;
      }

      .cls-21 {
        fill: #af6104;
      }

      .cls-22 {
        fill: #874207;
      }

      .cls-23 {
        fill: #9e4808;
      }

      .cls-24 {
        fill: #f76f6f;
      }

      .cls-25, .cls-26 {
        fill: #f2dcad;
      }

      .cls-25 {
        mix-blend-mode: screen;
        opacity: 0.2;
      }

      .cls-27 {
        stroke: #800001;
      }

      .cls-29 {
        fill: #911919;
      }

      .cls-30 {
        fill: #cc821f;
      }

      .cls-31 {
        fill: #7f0000;
      }

      .cls-32 {
        fill: #ce4545;
      }

      .cls-33 {
        fill: #590000;
      }

      .cls-34 {
        stroke: #5b2d07;
      }
    </style>
    <clipPath id="clip-path">
      <rect class="cls-1" x="-2224.06" y="643.95" width="1280" height="720"/>
    </clipPath>
    <linearGradient id="linear-gradient" x1="7202.22" y1="-1527.13" x2="7312.98" y2="-1088.9" gradientTransform="matrix(-0.77, 0.07, 0.01, 0.99, 5350.93, 1204.72)" gradientUnits="userSpaceOnUse">
      <stop offset="0" stop-color="#96880c"/>
      <stop offset="0.31" stop-color="#002405"/>
      <stop offset="0.62" stop-color="#000b00"/>
      <stop offset="1" stop-color="#596b00"/>
    </linearGradient>
    <linearGradient id="linear-gradient-2" x1="3749.3" y1="-1569.51" x2="3834.91" y2="-1230.79" gradientTransform="matrix(0.77, 0.07, -0.01, 0.99, -3342.2, 1204.72)" xlink:href="#linear-gradient"/>
  </defs>
  <g class="cls-2">
    <g id="Layer_1" data-name="Layer 1">
      <g class="cls-3">
        <g>
          <g>
            <path class="cls-4" d="M-1111.92,396.93c9.31-15.84,53.89-10.45,100,11.87-14.18-15.53-19.91-31.5-12.78-36.17,6.32-4.22,20.8,2,34.41,13.94a165.45,165.45,0,0,1-7.13-18c-13.1-39.89-7.93-74.61,11.52-77.63,17.73-2.77,41.1,21.87,55,56.4,2.74-28.65,15.75-49.57,30.71-48,.64.12,1.17.28,1.71.38-27.27-36.08-36-71.34-19.15-80.33,17.61-9.43,56.64,13.55,87.05,51.34a8.1,8.1,0,0,0,1.18,1.41c-1-3.15-1.76-6.47-2.56-9.73-11.16-49.07-.68-90.33,23.49-92.28,18.22-1.42,39.07,20.21,53,52.12l-.07-.38c-2.49-32.33,8.54-58.16,24.66-57.65,9,.23,17.8,8.81,24.11,22,1-4.08,3-7,6.33-8,5.68-1.7,13.69,2.56,21.31,10.35-.43-14.23,4.21-24.9,11.94-25.2,4.13-.16,8.53,2.77,12.3,7.67-12.25-27.77-12.13-51.83,1.46-56.32,10.5-3.37,26.26,5.72,40.79,22.09-2.63-25.3,5.06-45.46,17.76-45.6,7.65-.11,15.38,6.81,21.32,17.7-.74-22,6.5-38.45,18.2-38.8S-531.27,85.92-525,108a81.64,81.64,0,0,1,6.72-15.69c12-21.86,31.13-35.35,42.68-30.17,2.25-16.81,9.67-28.51,19.56-28.34,9.65.21,19.08,11.78,24.55,28.29,2-10.68,7.05-17.81,13.59-17.69,6.23.11,12.26,6.87,16.3,16.81,5.71-.5,14.1,3.77,22.69,11.08-8.08-16.07-8.93-29.19-.76-32.73s23.59,3.85,38.54,17.55c5.88-8.46,32.73-3.58,59.95,11a160,160,0,0,1,17.85,11.06c-9.41-16.82-12.33-31.71-7.86-38.94l28.51,3.16A112.64,112.64,0,0,1-221,63.18c-2.12-7.2-2.37-13.29-.63-17.44l31,3.43A121.2,121.2,0,0,1-166,73.54c-.06-8.45,1.22-15.66,3.62-21.24l41.09,4.56a116,116,0,0,1,17.89,31.37c-.56-5.55.93-9.54,4.64-10.8,6.81-2.43,19,5,29.76,17.4.47-9.34,4-15.69,10.18-16.22,3.59-.32,7.56,1.45,11.49,4.61-2.52-7.28-3.36-13.61-2.45-18.46q22.11,2.44,44.2,4.84A162.09,162.09,0,0,1,22.07,97l.16.14a127.68,127.68,0,0,1-7.31-25.29q43.5,4.78,87,9.52a237.78,237.78,0,0,1,16.81,23.83c2,3.08,3.72,6.16,5.39,9.29,0,0,0-1.14-.08-1.71a135.59,135.59,0,0,1,.79-28.91q37.82,4.15,75.62,8.27a150.33,150.33,0,0,1,4.17,22,4.17,4.17,0,0,1,1.05-.88c11.65-6.62,39,6.85,63.43,30.48-7.42-17.26-10.87-33.19-10.3-45.25l61.47,6.71a177.15,177.15,0,0,1,30,51.59c2.4-15,10-25.27,18.65-23.87,9.69,1.53,17.15,17.17,17,35.32,22.17-35,56.25-55,76.49-44.67,18.85,9.62,19,42.23,1.43,75.29,14.41-15.3,31.63-22.69,42.46-17,13.58,7.21,12,32.17-3.46,55.75a23.51,23.51,0,0,1-2,2.88c.65-.27,1.2-.48,1.2-.48,34.51-11.19,68.57-9.71,76.86,3,7.18,11.1-7.66,27.13-34,38.36,28.34-3.31,53.92,1.94,58.16,12.4,3.69,9-9.73,19-31.41,24.71,16.42,6.76,27.37,15.34,26.16,21.86-1,5.09-9.28,7.67-21.12,7.57,24.48,9.18,41.26,22,39.11,30.77S594,389.33,569.4,384.29c36.49,20.29,59.31,44.89,51.87,57.21-6,10.08-30.6,9.05-60.34-1,22.24,12.67,35.61,26.7,32,35.76-4.6,11.5-35,10.77-69.7-1a15.83,15.83,0,0,1,1.19,1.33c20.28,24.35,27.56,48.41,16.26,53.87-9.14,4.35-27.61-4.81-45.1-21.26A99.44,99.44,0,0,1,497,523.11c1.26,31.8-11.42,56.08-28,54.21-14.66-1.67-27.51-22.71-31.34-49.22A76.79,76.79,0,0,1,429,538.76c-16,16.26-36.91,23.9-46.61,17.09-7-4.87-6.36-15.7.19-27.38-18.75,5-36.14,3.72-41.23-3.46-3.45-5-.23-11.57,7.5-17.84-17.48,2.72-33,.29-36.58-6.35l-.08-.14c-12.25,9.74-25.57,13.74-33.25,8.94-5.09-3.17-6.69-9.68-5-17.54-7.77,12.79-18.26,19.94-27.49,17.06-9.48-2.9-14.87-15.77-14.45-31.76-3.68,7.8-9.23,12.25-15.59,11.58-11.87-1.3-22.31-20.28-23.72-42.82-1.65,1.84-3.43,3.61-5.21,5.44-23.19,22-52.74,31.82-66.06,22.07-4.45-3.32-6.42-8.48-6.32-14.75-4,3.69-8.33,5.41-12.49,4.32a11.78,11.78,0,0,1-4.58-2.51c3,13.77.74,24.05-7.06,25.78C84,488,74.3,482.49,65,472.68c3.43,21-1.43,36.79-12.92,37.84-7.81.6-17.07-5.68-25.3-16.15-1.73,4.41-4.64,7.1-8.63,7.46-3.29.28-7-1.1-10.59-3.79C12.41,513.19,11,525,2.72,527.43S-18.67,522.6-31,509.77c-.53,9.26-3.92,15.69-9.49,16.7,14.23,21.75,18.05,40.36,7.6,46.43-8.78,5.13-25.72.16-44.48-11.66,4.23,18.38.28,33.07-9.24,33.5-7.66.36-16.78-8.73-23-21.91-.94,2.45-43.78-11.36-44.88-9.3,0,0-23,52.62-38,53.93-12.42,1.11-38.95-39.82-38.95-39.82-2.52-1.29-41,7.8-43.65,6.05,4.83,13.46,4.06,24.4-2.82,26.77-8.45,2.88-23.18-8.41-33.78-25.53-6.92,16.57-17.54,26.66-29.09,25.38-13.58-1.6-24.72-18.81-29.35-42.37-5.5,1.07-13.35-3.29-21-11-.64,15.22-6.14,26-15.13,26.82s-19.28-8.84-26.94-23.56c-1,3.58-3,6.08-6.12,7-3.63,1.07-8.34-.25-13.12-3.4,1,11.82-2,20.41-9.26,22.56-10.56,3.13-27-8.73-40.22-27.9-.41,11.53-4.4,19.69-11.46,20.78-8.08,1.21-18-6.8-26-19.65a6.12,6.12,0,0,1-1.95,3.7c-2.82,2.38-7.89,2.48-14.14.68,5,5.23,7.3,10.42,6,14.79-3.81,12.94-36.76,14.68-73.57,3.91-2.92-.88-5.76-1.83-8.69-2.78,16.26,19.69,22,39.55,12.82,44.84-4.88,2.81-13.13.75-22.34-4.58,12.69,13.55,18.08,26.47,12.23,32.24-5.68,5.58-20.22,3.09-36.72-5.18,7.46,6.23,11.11,12.31,9.21,16.83-2.84,6.72-17.4,7.94-35.45,3.71l.15.26c2,6.93-9.32,14.39-26.39,18.08,11.35,2.71,19.26,7.26,20.14,12.67,1.23,7.93-12.78,15-32.58,17.28,14.64,7.71,23.47,16.78,21.32,23.3-3.09,9.21-26.88,9.87-53.12,1.45a127.25,127.25,0,0,1-15.72-6.09c17.26,24,22.48,46.56,11.31,53-12.93,7.42-42.4-9.07-66-36.67-3.51-4.13-6.69-8.31-9.55-12.45-2.23,20.14-10.91,34.32-22.11,33.75-13.92-.68-26.3-23.82-27.72-51.68a11.92,11.92,0,0,0,0-1.58c-20.64,22.18-46.09,33.28-58.85,25-10-6.45-9.57-23.13-.24-41.67-17.68,18.92-37.93,28.23-50.92,21.77-15.88-8-15.39-37,.18-67-17.12,12.79-35.41,17.91-43.94,11.31-8.68-6.81-4.26-23.6,9.65-39.88-10.13,4.22-19.13,4.87-23.95.84-6-5.17-3.38-16.31,5.59-27.76-23,2.65-42.34-1.29-46.18-10.34-4.34-10.4,13.43-23.72,40.29-30.71-31.22-.53-56.27-9.13-58.74-21.11-2.79-13.75,25.33-26.75,62.83-29.07l2,0c-1.37-.59-2.6-1.12-3.9-1.77-31.49-14.88-52.06-35.66-46-46.5,4.89-8.66,25.36-8.3,49.42-.21C-1095.58,439.67-1120.71,411.66-1111.92,396.93Z"/>
            <path class="cls-5" d="M-1119.39,539.47c-1.5-7.2,5.65-14.25,18.18-19.56,8.52,3,21.26,3.87,35.44,2.25-9,11.46-11.6,22.59-5.58,27.71,4.75,4,13.89,3.38,24-.78-13.84,16.29-18.35,33.07-9.67,39.87,8.46,6.6,26.83,1.49,43.95-11.36-15.49,30-16.06,59-.18,66.95,13,6.53,33.16-2.79,50.93-21.7-9.33,18.54-9.87,35.21.24,41.67,12.83,8.21,38.22-2.9,58.82-25a13,13,0,0,0,.12,1.59c1.34,27.86,13.71,50.93,27.55,51.67,11.29.51,20-13.67,22.28-33.75a153.56,153.56,0,0,0,9.53,12.39c23.5,27.65,53.06,44.09,65.83,36.72,11.25-6.47,6-28.93-11.16-53a130.25,130.25,0,0,0,15.65,6.08c26.3,8.43,50.1,7.76,53.13-1.45,2.14-6.58-6.69-15.59-21.34-23.3,19.89-2.31,33.9-9.4,32.59-17.22-.88-5.46-8.79-10.08-20.21-12.74,17.06-3.75,28.43-11.15,26.45-18.07a.47.47,0,0,0-.06-.19c18.05,4.11,32.6,3,35.45-3.78,1.9-4.51-1.83-10.61-9.29-16.76,16.49,8.26,31,10.69,36.73,5.11,5.85-5.83.44-18.69-12.17-32.23,9.12,5.38,17.31,7.32,22.25,4.51,9.18-5.23,3.37-25.1-12.72-44.84,2.77,1,5.6,1.88,8.61,2.78,36.8,10.83,69.75,9.09,73.56-3.85,1.28-4.44-1-9.55-5.93-14.84,6.23,1.79,11.3,1.76,14-.63a6.1,6.1,0,0,0,1.95-3.71c8,12.86,17.93,20.88,25.92,19.65,7.22-1.08,11.13-9.18,11.46-20.78,13.31,19.12,29.73,31,40.3,27.85,7.18-2.16,10.18-10.76,9.18-22.51,4.94,3.16,9.56,4.48,13.19,3.41,3.08-.93,5-3.37,6.2-6.94,7.59,14.71,17.8,24.25,26.87,23.48s14.57-11.46,15.2-26.8c7.55,7.79,15.55,12.16,21.05,11,4.49,23.54,15.62,40.81,29.35,42.42,11.48,1.34,22.1-8.81,29-25.38,10.61,17.12,25.41,28.42,33.88,25.53,6.79-2.37,7.55-13.31,2.72-26.77,2.74,1.75,41.14-7.34,43.73-6,0,0,26.46,40.86,38.89,39.74,15-1.31,37.9-53.87,37.9-53.87,1.25-2.05,44,11.76,45,9.31,6.25,13.12,15.38,22.27,23,21.91,9.53-.43,13.41-15.19,9.24-33.5,18.78,11.76,35.62,16.79,44.5,11.66,10.45-6.07,6.7-24.67-7.62-46.5,5.49-.88,9-7.37,9.5-16.69C-29.59,443.14-16.57,450.43-8.29,448s9.7-14.18,4.8-29.39c3.7,2.63,7.3,4.07,10.67,3.79,4-.36,6.9-3.05,8.65-7.46C24.05,425.39,33.28,431.66,41.1,431c11.5-1,16.36-16.81,13-37.77C63.3,403,73,408.57,79.89,407c7.85-1.73,10.14-12,7-25.78a11.55,11.55,0,0,0,4.5,2.5c4.24,1.1,8.68-.62,12.64-4.31-.25,6.21,1.79,11.43,6.32,14.75,7.43,5.46,20,4.74,33.71-.81-12.65-5.18-20.4-11.8-19.82-18.36,1.07-11,25.57-17.44,55.71-15.23-30.66-10.54-51.11-26.68-47.36-38.48,4.38-13.59,38.86-16.5,77.26-6.44.69.18,1.31.41,2,.58-1-.94-2-1.89-2.92-2.9-23.57-23.89-33.27-49.79-21.63-57.81,9.23-6.41,29.26.59,49,15.93-28.7-33.67-39.14-67.66-23-78.45,17.39-11.51,58.9,7.93,93.06,43.46-6-19-3.54-35.49,6-37.49,8.42-1.82,19.6,8.55,26.91,24.05a135.13,135.13,0,0,1,2.18-19c5.72-31,20.29-55.93,36.09-64.67,5.11,6.44,8.47,17.46,8.36,29.65a132.69,132.69,0,0,1,20.19-24.78c10.27,11.81,15.07,35.2,12.19,61.83,17.41-25.53,41.1-40.65,55.17-34.3l.91.63a122.53,122.53,0,0,1-10.54,27.24c14.41-15.3,31.63-22.69,42.46-17,13.58,7.21,12,32.17-3.46,55.75a23.51,23.51,0,0,1-2,2.88c.65-.27,1.2-.48,1.2-.48,34.51-11.19,68.57-9.71,76.86,3,7.18,11.1-7.66,27.13-34,38.36,28.34-3.31,53.92,1.94,58.16,12.4,3.69,9-9.73,19-31.41,24.71,16.42,6.76,27.37,15.34,26.16,21.86-1,5.09-9.28,7.67-21.12,7.57,24.48,9.18,41.26,22,39.11,30.77S594,389.33,569.4,384.29c4.94,2.78,9.66,5.61,14.05,8.48,1.52,1,3,2,4.48,3l2.05,1.46c1.14.77,2.2,1.53,3.25,2.3.68.55,1.44,1.1,2.12,1.65,1,.69,1.88,1.44,2.79,2.13l2,1.65c.91.75,1.74,1.44,2.55,2.18l1.81,1.63,2.41,2.17c.53.54,1,1,1.57,1.55.75.74,1.58,1.55,2.24,2.35.45.47.82.88,1.27,1.28,1,1.2,2.09,2.4,3,3.53l.29.34c.82,1.06,1.63,2.11,2.29,3.16a5.68,5.68,0,0,1,.73,1.12c.52.79.95,1.51,1.39,2.23a10.34,10.34,0,0,0,.57,1.23c.37.65.65,1.3.94,1.95.14.39.28.77.49,1.23.13.63.34,1.21.47,1.78,0,0,.21.84.27,1.22,0,0,.11,1.14.17,1.71a4.86,4.86,0,0,1,0,1,6.53,6.53,0,0,1-.23,1.73l0,.57a11.71,11.71,0,0,1-1.13,2.57c-6,10.08-30.6,9.05-60.34-1,22.24,12.67,35.61,26.7,32,35.76-4.6,11.5-35,10.77-69.7-1a15.83,15.83,0,0,1,1.19,1.33c20.28,24.35,27.56,48.41,16.26,53.87-9.14,4.35-27.61-4.81-45.1-21.26A99.44,99.44,0,0,1,497,523.11c1.26,31.8-11.42,56.08-28,54.21-14.66-1.67-27.51-22.71-31.34-49.22A76.79,76.79,0,0,1,429,538.76c-16,16.26-36.91,23.9-46.61,17.09-7-4.87-6.36-15.7.19-27.38-18.75,5-36.14,3.73-41.23-3.46-3.45-5-.23-11.57,7.5-17.84-17.48,2.72-33,.29-36.58-6.35l-.08-.14c-12.25,9.74-25.57,13.74-33.25,8.95-5.09-3.18-6.69-9.69-5-17.55-7.77,12.79-18.26,19.94-27.49,17.06-9.48-2.9-14.87-15.77-14.45-31.76-3.68,7.8-9.23,12.25-15.59,11.58-11.87-1.3-22.31-20.28-23.72-42.82-1.65,1.84-3.43,3.61-5.21,5.44-2.12,2-4.3,3.79-6.55,5.59l-1.13,1c-2.25,1.8-4.5,3.47-6.75,4.95l-.32.29c-19.79,13.31-40.64,18.07-51.31,10.25-4.45-3.32-6.42-8.48-6.32-14.75-4,3.69-8.33,5.41-12.49,4.32a11.78,11.78,0,0,1-4.58-2.51c3,13.77.74,24.05-7.06,25.78C84,488,74.3,482.49,65,472.68c3.43,21-1.43,36.8-12.92,37.84-7.81.6-17.07-5.68-25.3-16.15-1.73,4.41-4.64,7.1-8.63,7.46-3.29.28-7-1.1-10.59-3.79C12.41,513.19,11,525,2.72,527.43S-18.67,522.6-31,509.77c-.53,9.26-3.92,15.69-9.49,16.7,14.23,21.75,18.05,40.36,7.6,46.43-8.78,5.13-25.72.16-44.48-11.66,4.23,18.38.28,33.07-9.24,33.5-7.66.36-16.78-8.73-23-21.91-.94,2.45-43.78-11.36-44.88-9.3,0,0-23,52.62-38,53.93-12.42,1.11-38.95-39.82-38.95-39.82-2.52-1.29-41,7.8-43.65,6.05,4.83,13.46,4.06,24.4-2.82,26.77-8.45,2.88-23.18-8.41-33.78-25.53-6.92,16.57-17.54,26.66-29.09,25.38-13.58-1.6-24.72-18.81-29.35-42.37-5.5,1.07-13.35-3.29-21-11-.64,15.22-6.14,26-15.13,26.82s-19.28-8.84-26.94-23.56c-1,3.58-3,6.08-6.12,7-3.63,1.07-8.34-.25-13.12-3.4,1,11.82-2,20.41-9.26,22.56-10.56,3.13-27-8.73-40.22-27.9-.41,11.53-4.4,19.69-11.46,20.78-8.08,1.21-18-6.8-26-19.65a6.12,6.12,0,0,1-1.95,3.7c-2.82,2.38-7.89,2.48-14.14.68,5,5.23,7.3,10.42,6,14.79-3.81,12.94-36.76,14.68-73.57,3.91-2.92-.88-5.76-1.83-8.69-2.78,16.25,19.69,22,39.55,12.82,44.84-4.88,2.81-13.13.75-22.34-4.58,12.69,13.55,18.08,26.47,12.23,32.24-5.68,5.58-20.22,3.09-36.72-5.17,7.46,6.22,11.11,12.3,9.21,16.82-2.84,6.72-17.4,7.94-35.45,3.71l.15.26c2,6.93-9.32,14.39-26.39,18.08,11.35,2.71,19.26,7.26,20.14,12.67,1.23,7.93-12.78,15-32.58,17.28,14.64,7.71,23.47,16.78,21.32,23.3-3.09,9.21-26.88,9.87-53.12,1.45a127.25,127.25,0,0,1-15.72-6.09c17.25,24,22.48,46.56,11.31,53-12.93,7.42-42.4-9.07-66-36.67-3.51-4.13-6.69-8.31-9.55-12.45-2.23,20.14-10.91,34.32-22.11,33.75-13.92-.68-26.3-23.82-27.72-51.68a11.92,11.92,0,0,0,0-1.58c-20.64,22.18-46.09,33.28-58.85,25-10-6.45-9.57-23.13-.24-41.67-17.68,18.92-37.93,28.23-50.92,21.77-16-8-15.39-37,.18-67-17.12,12.79-35.41,17.91-43.94,11.31-8.68-6.81-4.26-23.6,9.65-39.88-10.13,4.22-19.13,4.87-23.95.84-6-5.17-3.38-16.31,5.59-27.76-23,2.65-42.34-1.29-46.18-10.34-4.34-10.4,13.43-23.72,40.29-30.71C-1091.87,560.05-1116.92,551.45-1119.39,539.47Z"/>
          </g>
          <g>
            <path class="cls-4" d="M259.25,64C252.06,51.8,217.6,56,182,73.22c10.95-12,15.39-24.35,9.87-28C187,42,175.79,46.78,165.27,56a130.07,130.07,0,0,0,5.51-13.92c10.12-30.84,6.13-57.67-8.91-60C148.17-20,130.11-1,119.39,25.71,117.28,3.57,107.22-12.6,95.66-11.4c-.5.09-.91.21-1.32.29,21.07-27.88,27.78-55.14,14.8-62.08C95.52-80.48,65.36-62.72,41.86-33.51a6.47,6.47,0,0,1-.92,1.08c.75-2.43,1.36-5,2-7.51,8.62-37.93.52-69.82-18.16-71.33C10.68-112.36-5.44-95.65-16.17-71l.05-.3c1.93-25-6.6-44.95-19.06-44.55-7,.17-13.75,6.8-18.63,17-.74-3.16-2.33-5.43-4.89-6.18-4.39-1.31-10.58,2-16.47,8,.32-11-3.26-19.24-9.23-19.47-3.2-.13-6.6,2.14-9.51,5.93,9.47-21.47,9.37-40.06-1.13-43.54-8.12-2.6-20.29,4.43-31.53,17.08,2-19.55-3.91-35.14-13.73-35.25-5.9-.08-11.88,5.26-16.48,13.69.58-17-5-29.72-14.06-30s-18.71,12.23-23.55,29.31a62.9,62.9,0,0,0-5.2-12.13c-9.3-16.9-24.06-27.32-33-23.32-1.74-13-7.47-22-15.11-21.91-7.46.17-14.75,9.11-19,21.87-1.55-8.25-5.45-13.77-10.5-13.67-4.82.08-9.48,5.3-12.6,13-4.41-.38-10.9,2.92-17.54,8.57,6.24-12.42,6.91-22.56.59-25.29s-18.24,3-29.79,13.56c-4.55-6.54-25.3-2.77-46.33,8.51a123.44,123.44,0,0,0-13.8,8.55c7.27-13,9.53-24.51,6.07-30.1l-22,2.44a87.54,87.54,0,0,0-16.78,15.29c1.64-5.56,1.83-10.27.49-13.48l-23.94,2.66a93.15,93.15,0,0,0-19,18.83,41.34,41.34,0,0,0-2.8-16.42l-31.76,3.52a89.51,89.51,0,0,0-13.83,24.26c.43-4.3-.72-7.38-3.59-8.36-5.26-1.87-14.72,3.91-23,13.45-.36-7.21-3.09-12.13-7.87-12.53-2.77-.25-5.84,1.12-8.88,3.56,2-5.63,2.6-10.52,1.9-14.27q-17.09,1.89-34.17,3.74a125.39,125.39,0,0,0-21.38,21.18l-.12.1a98.54,98.54,0,0,0,5.65-19.54q-33.63,3.69-67.26,7.35a184.09,184.09,0,0,0-13,18.42c-1.53,2.39-2.88,4.76-4.17,7.18,0,0,0-.88.07-1.32a104.78,104.78,0,0,0-.62-22.34q-29.22,3.21-58.44,6.39a116.4,116.4,0,0,0-3.23,17,3,3,0,0,0-.81-.67c-9-5.13-30.14,5.29-49,23.55,5.74-13.34,8.41-25.65,8-35l-47.51,5.18a138,138,0,0,0-17.1,26,138.45,138.45,0,0,0-6,13.86c-1.86-11.58-7.73-19.53-14.42-18.46-7.49,1.19-13.25,13.28-13.17,27.31-17.12-27.06-43.47-42.53-59.11-34.53-14.57,7.44-14.68,32.64-1.11,58.19-11.14-11.82-24.44-17.53-32.81-13.13-10.5,5.56-9.29,24.86,2.67,43.09a19.08,19.08,0,0,0,1.53,2.22c-.49-.21-.92-.37-.92-.37-26.67-8.65-53-7.51-59.41,2.34-5.55,8.58,5.92,21,26.28,29.65-21.91-2.55-41.68,1.5-45,9.59-2.85,6.94,7.52,14.69,24.27,19.1-12.68,5.22-21.14,11.85-20.21,16.89.77,3.94,7.17,5.93,16.32,5.85-18.92,7.1-31.89,17-30.23,23.78s16.9,8.19,35.89,4.29c-28.2,15.69-45.85,34.7-40.1,44.22,4.65,7.8,23.66,7,46.64-.76-17.18,9.8-27.52,20.64-24.7,27.64,3.56,8.89,27,8.33,53.88-.8-.35.36-.65.68-.93,1-15.67,18.83-21.29,37.42-12.56,41.64,7.06,3.36,21.34-3.72,34.86-16.43a76,76,0,0,0-1.13,10.76c-1,24.59,8.82,43.35,21.65,41.9,11.34-1.29,21.27-17.55,24.23-38a59.07,59.07,0,0,0,6.71,8.24c12.39,12.57,28.53,18.47,36,13.21,5.39-3.76,4.92-12.13-.14-21.17,14.49,3.84,27.93,2.88,31.86-2.67,2.67-3.82.18-8.94-5.79-13.79,13.51,2.1,25.53.22,28.27-4.91l.06-.11c9.47,7.53,19.77,10.62,25.7,6.92,3.94-2.45,5.17-7.49,3.9-13.56,6,9.89,14.12,15.41,21.26,13.18,7.32-2.24,11.49-12.18,11.16-24.54,2.85,6,7.13,9.47,12,9,9.17-1,17.25-15.68,18.34-33.1,1.27,1.43,2.65,2.79,4,4.2,17.93,17,40.77,24.6,51.06,17.06,3.44-2.56,5-6.55,4.89-11.4,3.07,2.85,6.44,4.18,9.66,3.34a9,9,0,0,0,3.53-1.94c-2.34,10.64-.57,18.59,5.46,19.93,5.35,1.19,12.82-3.1,20-10.67-2.65,16.25,1.11,28.43,10,29.24,6,.47,13.19-4.38,19.55-12.48,1.34,3.41,3.59,5.48,6.67,5.77,2.54.21,5.38-.85,8.19-2.94-3.73,11.72-2.64,20.82,3.76,22.72s16.53-3.73,26.06-13.65c.42,7.16,3,12.13,7.34,12.91-11,16.81-14,31.19-5.88,35.89,6.79,4,19.89.12,34.38-9-3.27,14.2-.21,25.56,7.14,25.89,5.92.28,13-6.75,17.81-16.94.73,1.9,33.84-8.78,34.69-7.18,0,0,17.75,40.66,29.37,41.68,9.6.85,30.1-30.78,30.1-30.78,1.95-1,31.69,6,33.74,4.68-3.73,10.4-3.14,18.86,2.18,20.69,6.53,2.23,17.92-6.5,26.11-19.73,5.34,12.8,13.55,20.6,22.48,19.61,10.5-1.24,19.11-14.54,22.69-32.75,4.25.83,10.32-2.54,16.27-8.52.49,11.76,4.74,20.12,11.7,20.73s14.89-6.83,20.82-18.21c.77,2.77,2.35,4.7,4.73,5.37,2.8.83,6.44-.19,10.13-2.63-.77,9.14,1.55,15.78,7.16,17.44,8.17,2.42,20.86-6.75,31.09-21.56.32,8.91,3.4,15.21,8.86,16,6.24.94,13.94-5.25,20.09-15.19a4.75,4.75,0,0,0,1.5,2.87c2.19,1.84,6.11,1.92,10.93.52-3.87,4-5.64,8.06-4.66,11.44,2.95,10,28.42,11.34,56.87,3,2.26-.68,4.45-1.42,6.72-2.15-12.58,15.22-17,30.57-9.91,34.66,3.77,2.17,10.15.57,17.26-3.54-9.81,10.47-14,20.45-9.45,24.91s15.63,2.4,28.38-4c-5.77,4.81-8.58,9.51-7.12,13,2.2,5.2,13.45,6.14,27.41,2.87l-.12.2c-1.59,5.35,7.2,11.12,20.39,14-8.77,2.1-14.88,5.61-15.56,9.79-1,6.13,9.87,11.58,25.18,13.36-11.31,6-18.14,13-16.48,18,2.39,7.12,20.78,7.63,41.06,1.12a99.05,99.05,0,0,0,12.15-4.7C-12,343.63-16,361-7.41,366c10,5.74,32.77-7,51-28.34,2.71-3.19,5.16-6.42,7.38-9.62,1.72,15.56,8.43,26.52,17.09,26.08,10.76-.52,20.33-18.41,21.42-39.94,0-.39,0-.83,0-1.22,16,17.14,35.62,25.72,45.48,19.33,7.75-5,7.4-17.88.19-32.21,13.66,14.62,29.32,21.82,39.36,16.83,12.27-6.17,11.89-28.58-.14-51.76,13.23,9.89,27.37,13.85,34,8.74s3.29-18.24-7.46-30.82c7.84,3.26,14.79,3.77,18.52.65,4.64-4,2.61-12.61-4.32-21.46,17.79,2.05,32.72-1,35.69-8,3.35-8-10.38-18.34-31.14-23.74,24.13-.4,43.49-7.05,45.39-16.31,2.16-10.63-19.57-20.68-48.55-22.47l-1.57,0c1.06-.46,2-.86,3-1.37,24.34-11.5,40.24-27.56,35.57-35.94-3.78-6.7-19.6-6.41-38.2-.16C246.63,97.08,266.05,75.43,259.25,64Z"/>
            <path class="cls-6" d="M265,174.22c1.17-5.57-4.36-11-14-15.12-6.59,2.28-16.44,3-27.39,1.74,6.93,8.86,9,17.46,4.31,21.42-3.67,3.11-10.74,2.61-18.52-.61,10.69,12.59,14.18,25.57,7.47,30.82-6.54,5.1-20.74,1.15-34-8.78,12,23.23,12.41,45.59.14,51.75-10,5.05-25.63-2.16-39.36-16.77,7.21,14.32,7.62,27.21-.19,32.2-9.91,6.35-29.54-2.24-45.47-19.33a10.71,10.71,0,0,1-.08,1.23c-1,21.53-10.61,39.36-21.3,39.94-8.72.39-15.5-10.57-17.22-26.09-2.21,3.16-4.62,6.39-7.36,9.58-18.17,21.37-41,34.08-50.89,28.38-8.69-5-4.65-22.36,8.62-40.93a99.59,99.59,0,0,1-12.09,4.7c-20.33,6.51-38.72,6-41.06-1.13-1.66-5.08,5.16-12.05,16.49-18-15.37-1.78-26.2-7.26-25.19-13.31.68-4.22,6.8-7.79,15.62-9.84-13.18-2.9-22-8.62-20.44-14a.34.34,0,0,1,0-.15c-14,3.18-25.19,2.33-27.4-2.91-1.46-3.5,1.42-8.2,7.18-13-12.75,6.39-24,8.26-28.38,4-4.53-4.51-.35-14.45,9.4-24.92-7,4.17-13.38,5.66-17.2,3.49-7.09-4-2.6-19.4,9.83-34.65-2.13.77-4.33,1.45-6.65,2.14-28.45,8.38-53.91,7-56.86-3-1-3.43.78-7.38,4.59-11.47-4.82,1.38-8.74,1.36-10.86-.49a4.68,4.68,0,0,1-1.5-2.86c-6.22,9.93-13.86,16.13-20,15.18-5.58-.83-8.6-7.09-8.85-16.06-10.29,14.78-23,24-31.16,21.52-5.55-1.66-7.86-8.31-7.09-17.39-3.82,2.44-7.39,3.46-10.19,2.63-2.39-.71-3.9-2.6-4.8-5.36-5.86,11.37-13.75,18.74-20.76,18.15s-11.27-8.86-11.75-20.72c-5.84,6-12,9.4-16.27,8.52-3.47,18.2-12.08,31.55-22.69,32.8-8.87,1-17.08-6.81-22.42-19.62-8.2,13.23-19.64,22-26.18,19.73-5.25-1.83-5.84-10.29-2.11-20.69-2.12,1.36-31.79-5.68-33.8-4.67,0,0-20.45,31.58-30.06,30.72-11.61-1-29.3-41.64-29.3-41.64-1-1.58-34,9.09-34.75,7.2-4.83,10.13-11.89,17.21-17.8,16.93-7.36-.33-10.36-11.74-7.14-25.89-14.51,9.09-27.53,13-34.39,9-8.08-4.69-5.18-19.07,5.89-35.94-4.25-.68-6.93-5.7-7.34-12.9-9.6,10-19.66,15.6-26.06,13.7s-7.5-11-3.71-22.72c-2.86,2-5.64,3.15-8.24,2.93-3.08-.28-5.34-2.36-6.69-5.76-6.35,8.1-13.49,12.94-19.53,12.43-8.89-.76-12.65-13-10.06-29.19-7.1,7.51-14.57,11.86-19.93,10.66-6.07-1.33-7.84-9.28-5.44-19.93a8.85,8.85,0,0,1-3.48,1.93c-3.28.86-6.71-.47-9.78-3.32.2,4.8-1.38,8.83-4.88,11.4-5.74,4.22-15.46,3.66-26.06-.63,9.78-4,15.77-9.12,15.33-14.19-.83-8.49-19.77-13.48-43.06-11.77,23.69-8.15,39.5-20.62,36.6-29.74-3.38-10.51-30-12.75-59.71-5-.54.14-1,.32-1.55.45.76-.73,1.51-1.46,2.26-2.24C-743.48-19.64-736-39.66-745-45.86c-7.14-5-22.62.46-37.86,12.31,22.18-26,30.25-52.29,17.75-60.63-13.44-8.9-45.53,6.13-71.93,33.59,4.64-14.64,2.74-27.43-4.61-29C-848.14-91-856.78-83-862.43-71a104.18,104.18,0,0,0-1.69-14.65c-4.42-24-15.68-43.22-27.89-50-4,5-6.55,13.5-6.47,22.92a101.81,101.81,0,0,0-15.6-19.15c-7.93,9.12-11.65,27.2-9.42,47.78-13.46-19.73-31.76-31.42-42.64-26.51l-.7.49a94.06,94.06,0,0,0,8.14,21c-11.14-11.82-24.44-17.53-32.81-13.13-10.5,5.56-9.29,24.86,2.67,43.09a19.08,19.08,0,0,0,1.53,2.22c-.49-.21-.92-.37-.92-.37-26.67-8.65-53-7.51-59.41,2.34-5.55,8.58,5.92,21,26.28,29.65-21.91-2.55-41.68,1.5-45,9.59-2.85,6.94,7.52,14.69,24.27,19.1-12.68,5.22-21.14,11.85-20.21,16.89.77,3.94,7.17,5.93,16.32,5.85-18.92,7.1-31.89,17-30.23,23.78s16.91,8.19,35.89,4.29c-3.82,2.16-7.47,4.34-10.86,6.56-1.18.76-2.35,1.57-3.47,2.32l-1.58,1.13c-.88.59-1.7,1.18-2.51,1.77-.53.43-1.11.85-1.64,1.28-.75.54-1.45,1.11-2.16,1.65l-1.57,1.27c-.7.58-1.34,1.11-2,1.69l-1.4,1.26-1.85,1.67c-.41.42-.81.79-1.22,1.2-.58.58-1.22,1.2-1.73,1.82-.35.36-.63.68-1,1-.81.92-1.62,1.85-2.3,2.72l-.23.27a29.54,29.54,0,0,0-1.77,2.45,4.24,4.24,0,0,0-.56.86c-.4.61-.74,1.16-1.08,1.72a8.06,8.06,0,0,1-.44.95c-.28.51-.5,1-.72,1.51-.11.3-.22.59-.39,1s-.26.93-.36,1.38c0,0-.16.64-.2.93,0,0-.09.89-.13,1.33a3.4,3.4,0,0,0,0,.78,5,5,0,0,0,.18,1.34v.44a9.19,9.19,0,0,0,.87,2c4.65,7.8,23.66,7,46.64-.76-17.18,9.8-27.52,20.64-24.7,27.64,3.56,8.89,27,8.33,53.88-.8-.35.36-.65.68-.93,1-15.67,18.83-21.29,37.42-12.56,41.64,7.06,3.36,21.34-3.72,34.86-16.43a76,76,0,0,0-1.13,10.76c-1,24.59,8.82,43.35,21.65,41.9,11.34-1.29,21.27-17.55,24.23-38a59.07,59.07,0,0,0,6.71,8.24c12.39,12.57,28.53,18.47,36,13.21,5.39-3.76,4.92-12.13-.14-21.17,14.49,3.84,27.93,2.89,31.86-2.67,2.67-3.82.18-8.94-5.79-13.79,13.51,2.1,25.53.22,28.27-4.91l.06-.11c9.47,7.53,19.77,10.62,25.7,6.93,3.94-2.46,5.17-7.5,3.9-13.57,6,9.89,14.12,15.41,21.26,13.18,7.32-2.24,11.49-12.18,11.16-24.54,2.85,6,7.13,9.47,12,9,9.17-1,17.25-15.68,18.34-33.1,1.27,1.43,2.65,2.79,4,4.2,1.64,1.54,3.32,2.94,5.07,4.33.31.26.56.49.87.76,1.74,1.39,3.48,2.68,5.21,3.83l.26.22c15.29,10.29,31.4,14,39.65,7.92,3.44-2.56,5-6.55,4.89-11.4,3.07,2.85,6.44,4.18,9.66,3.34a9,9,0,0,0,3.53-1.94c-2.34,10.64-.57,18.59,5.46,19.93,5.35,1.19,12.82-3.1,20-10.67-2.65,16.25,1.11,28.43,10,29.24,6,.47,13.19-4.38,19.55-12.48,1.34,3.41,3.59,5.48,6.67,5.77,2.54.21,5.39-.86,8.19-2.94-3.73,11.72-2.64,20.82,3.76,22.72s16.53-3.73,26.06-13.65c.42,7.16,3,12.13,7.34,12.91-11,16.81-14,31.19-5.88,35.89,6.79,4,19.89.12,34.38-9-3.27,14.2-.21,25.56,7.14,25.89,5.92.28,13-6.75,17.81-16.94.73,1.9,33.84-8.78,34.69-7.18,0,0,17.75,40.66,29.37,41.68,9.6.85,30.1-30.78,30.1-30.78,1.95-1,31.69,6,33.74,4.68-3.73,10.4-3.14,18.86,2.18,20.69,6.53,2.23,17.92-6.5,26.11-19.73,5.34,12.8,13.55,20.6,22.48,19.61,10.5-1.24,19.11-14.54,22.69-32.75,4.25.83,10.32-2.54,16.27-8.52.49,11.76,4.74,20.12,11.7,20.73s14.89-6.83,20.82-18.21c.77,2.77,2.35,4.7,4.73,5.37,2.8.83,6.44-.19,10.13-2.63-.77,9.14,1.55,15.78,7.16,17.44,8.17,2.42,20.86-6.75,31.09-21.56.32,8.91,3.4,15.21,8.86,16,6.24.94,13.94-5.25,20.09-15.19a4.75,4.75,0,0,0,1.5,2.87c2.19,1.84,6.11,1.92,10.93.52-3.87,4-5.64,8.06-4.66,11.44,2.95,10,28.42,11.34,56.87,3,2.26-.68,4.45-1.42,6.72-2.15-12.57,15.22-17,30.57-9.91,34.66,3.77,2.17,10.15.57,17.26-3.54-9.81,10.47-14,20.45-9.45,24.91s15.63,2.4,28.38-4c-5.77,4.8-8.58,9.5-7.12,13,2.2,5.2,13.45,6.14,27.41,2.87l-.12.2c-1.59,5.35,7.2,11.12,20.39,14-8.77,2.1-14.88,5.61-15.56,9.79-1,6.13,9.87,11.58,25.18,13.36-11.31,6-18.14,13-16.48,18,2.39,7.12,20.78,7.63,41.06,1.12a99.05,99.05,0,0,0,12.15-4.7C-12,343.64-16,361-7.41,366c10,5.74,32.77-7,51-28.34,2.71-3.19,5.16-6.42,7.38-9.62,1.72,15.56,8.43,26.52,17.09,26.08,10.76-.52,20.33-18.41,21.42-39.94,0-.39,0-.83,0-1.22,16,17.14,35.62,25.72,45.48,19.33,7.75-5,7.4-17.88.19-32.21,13.66,14.62,29.32,21.82,39.36,16.83,12.33-6.18,11.89-28.58-.14-51.76,13.23,9.89,27.37,13.85,34,8.74s3.29-18.24-7.46-30.82c7.84,3.26,14.79,3.77,18.52.65,4.64-4,2.61-12.61-4.32-21.46,17.79,2.05,32.72-1,35.69-8,3.35-8-10.38-18.34-31.14-23.74C243.76,190.13,263.12,183.48,265,174.22Z"/>
          </g>
        </g>
      </g>
      <g>
        <g>
          <path class="cls-7" d="M187.53,117h0a28.08,28.08,0,0,1-4,14.62,24.63,24.63,0,0,1-1.59,2.27,25.79,25.79,0,0,1-5.25,4.95l-1,.73c-2.65-.22-4.52,0-8.46-1.64A16.52,16.52,0,0,1,157,123.16c-.19-4-.33-7.71-3-11.15a13.09,13.09,0,0,0-1.09-1.22,14.73,14.73,0,0,0-3.6-2.61c.66.64,5.41,5.44,4.61,12.16-.75,6.23-5.74,9.56-7.32,10.61-6.76,4.51-16.4,4.15-22.62.45C113.05,125,109.37,106.51,115.42,92a32.79,32.79,0,0,1,2.93-5.56c7.73-11.78,22.6-17.46,35.48-15,13.5,2.55,21.23,13.35,22.26,14.78,7.82,10.91,5.73,21.17,10,28.67A15.24,15.24,0,0,0,187.53,117Z"/>
          <path class="cls-8" d="M196.39,135a33.75,33.75,0,0,1-29.14,2.9A25.68,25.68,0,0,0,189,112.67a15.81,15.81,0,0,0,2.51,2.45,39.8,39.8,0,0,0,2.1,13.92A32.69,32.69,0,0,0,196.39,135Z"/>
          <path class="cls-9" d="M185.41,115.46c-.66.39-2.58-1.75-3.21-2.46-4.95-5.51-9.63-18.52-14.58-24.48C159.52,78.76,144,79.81,141.2,80a38.77,38.77,0,0,0-25.67,12.6,33.38,33.38,0,0,1,2.9-5.56,35,35,0,0,1,35.08-15c13.35,2.55,21,13.35,22,14.78C183.25,97.7,181.19,108,185.41,115.46Z"/>
          <path class="cls-10" d="M185.41,115.46c-.66.39-2.58-1.75-3.21-2.46-4.95-5.51-9.63-18.52-14.58-24.48C159.52,78.76,144,79.81,141.2,80a38.77,38.77,0,0,0-25.67,12.6"/>
          <path class="cls-11" d="M301.11,115.31c-.65,1.11-1.45,2.32-2.42,3.78-2,.5-9.72,2-11-2.51h0c3.67-2,2.08-5.1.59-6.48l-.15-.14a2.55,2.55,0,0,0-1.13-.65,16,16,0,0,0-1.68-.18,43.64,43.64,0,0,1,8.31-.36c-.15.66-.24,1.54.26,1.92C294.72,111.29,300.34,112.26,301.11,115.31Z"/>
          <path class="cls-7" d="M271.38,86.26c.17-.35,4.61-11.1,10-9.47,2.14,1.36-1.56,8.83-1.56,8.83Z"/>
          <path class="cls-12" d="M302.74,110.44a11,11,0,0,0-2,.13,18.23,18.23,0,0,0-6.71-1.77l-.57,0h0v0a42,42,0,0,0-8.24.36h0a17.76,17.76,0,0,0-2.73.06,9.18,9.18,0,0,0,4.82-7.18c.45-5.37-4.22-10-9.44-10.17s-10.23,4-10.2,9.4c0,5.05,4.51,9,9.29,9.27-.58.22-1.16.45-1.71.69l-.22.1a37.7,37.7,0,0,0-8.26,5.12.27.27,0,0,0-.08.07c-1-1.45-2-2.9-3-4.27-7.33,1.71-6.8,9.06-6.76,9.38-7.51-2-3.83-12.17-3.59-12.5-1.72.58-2.92,3.76-3.36,3.76s-.95-3.13,1.69-6.13a14.61,14.61,0,0,0,2.72-2.73h0a19.82,19.82,0,0,0,3.26-8,3.25,3.25,0,0,1,.87-1.3c1.12-1.13,3.3-2.65,7-5.85l.32-.26a15.56,15.56,0,0,1,5.39-2.44A42,42,0,0,1,280,84.84a20.56,20.56,0,0,1,4.67.07c.08.26-1.84,2.26-1.41,2.69s9.54,1.9,15,9.48C300.87,100.69,303.47,105.64,302.74,110.44Z"/>
          <path class="cls-7" d="M275.13,129.68s0,0,0,0c-.34-1.32-3.93-7-7.87-12.68l0,0-.19-.29-.08-.12c-1-1.41-2-2.81-2.93-4.15a2.33,2.33,0,0,0-.73-.2c-2.57-.29-4.81,3.64-5.46,4.8a6.25,6.25,0,0,0-.9,2.63,5.88,5.88,0,0,0,.09,1.67,5.17,5.17,0,0,1-2.8-1.24c-2.86-2.64-1.33-8.38-1-9.53.15-.53.29-1,.4-1.25,0-.07.11-.28,0-.34s-.15,0-.21,0a6.42,6.42,0,0,0-1.67,1.27,5.74,5.74,0,0,0-1.43,2.25c0,.08,0,.5-.13.52h0a6.58,6.58,0,0,1-.11-2.16,6.9,6.9,0,0,1,1.88-3.88A13.88,13.88,0,0,0,254,105q.36-.42.66-.81a.19.19,0,0,0-.13,0,.3.3,0,0,0-.09,0c-.19.06-.4.12-.62.17a22.86,22.86,0,0,1-7.73.38,4.86,4.86,0,0,1-1.41-.35l-.16-.07c-5.32-2.26-11-12.7-20.52-16.71l-.42-.17c-.38-.16-.76-.3-1.15-.43a20.54,20.54,0,0,0-5-1h-.09a39.32,39.32,0,0,0-7.66.77c-15.43,3.88-21.29,13.27-21.29,13.27a26.72,26.72,0,0,0-3.87,11.84A34.93,34.93,0,0,0,186,126.56s2.74,8.58,9,14.42l.22.2a21.32,21.32,0,0,0,6.4,4.33,4.9,4.9,0,0,1,2.14,1.46,4.56,4.56,0,0,0-.59.38c-3.55,2.48-5.77,7.74-3.65,9.12a1.62,1.62,0,0,0,.42.2,4,4,0,0,0,2.24,0c6.35-1.56,26.49-.83,26.49-.83a7.85,7.85,0,0,0,1.36-.57c3.27-1.81-1-4.3-5.25-6.06l-.72-.29-.32-.12c-1.45-.57-2.82-1-3.78-1.34l-.18-.06A34.19,34.19,0,0,0,231.56,144v.14c.14,6,0,5.27.16,6.05s1,4.11,4.13,5.4l.22.09a6.61,6.61,0,0,0,1.56.36,66,66,0,0,0,9.2.12c1.7-.06,2.94-.14,3.14-.12s.29-.4.2-1.14c-.31-2.29-3-4.29-5.62-5a8.77,8.77,0,0,0-2.5-.27h0v0a20,20,0,0,1,.87-6.08c.42.09.84.17,1.25.23l.21,0a23.7,23.7,0,0,0,3.32.27h1.19a27.86,27.86,0,0,0,5.36-.68l.1,0c7.4-1.68,12.81-5.91,13.67-7.72a5.42,5.42,0,0,1,.74-1.12c1.82-2.22,5.46-4.09,6.35-4.6v0C275.17,129.86,275.15,129.77,275.13,129.68Z"/>
          <path class="cls-13" d="M257.66,154.73a17.13,17.13,0,0,1-2.72.08c-1.74,0-3.87-.05-5-.07-.21-1.41-1.46-3.76-5.78-4.82v-6.28a26.66,26.66,0,0,0,9.9-.34c-1,1.44-2.25,3.85-1.83,6.32C252.31,149.55,257.5,150.23,257.66,154.73Z"/>
          <path class="cls-11" d="M291.6,125a6.81,6.81,0,0,1-1.53,3.21,7.48,7.48,0,0,1-3.5,2.09c-1.73.6-4.37,1.52-6,.14a3.34,3.34,0,0,1-1-1.5h-.09c0-2.22,0-9.9,1.1-10.42,0,.4,0,.88,0,1.41,0,3.22.57,8.21,4.46,7.68a6.25,6.25,0,0,0,2.67-.89,3,3,0,0,0,1-1h0a2.69,2.69,0,0,0,.27-.67h.87C290.41,125,291,125,291.6,125Z"/>
          <line class="cls-14" x1="254.46" y1="104" x2="254.46" y2="104"/>
          <path class="cls-15" d="M301.36,115.88a8.85,8.85,0,0,0-1.34,1.19,8.09,8.09,0,0,0-1.33,2c-2,.5-9.72,2-11-2.51h0c3.67-2,2.08-5.1.59-6.48l-.15-.14a2.55,2.55,0,0,0-1.13-.65,16,16,0,0,0-1.68-.18,43.64,43.64,0,0,1,8.31-.36,25.32,25.32,0,0,1,3.55.54c1.75.38,2,.6,3.58.93,2.66.55,3.42.23,3.71.78C305.07,112.09,303,114.67,301.36,115.88Z"/>
          <path class="cls-14" d="M291.76,125s0,0,0,.09"/>
          <path class="cls-16" d="M298.6,119.09l-.33.5a28.12,28.12,0,0,1-3.16,3.67,7.67,7.67,0,0,1-2.08,1.53c-.5,0-1,.09-1.55.12s-1.19.07-1.81.08h-.87c-1.23,0-2.38-.07-3.44-.16a17.77,17.77,0,0,0,.77-8.16s0,0,0-.08a11.14,11.14,0,0,1,1.41-.1l.07,0h0l0,.1C288.88,121.06,296.59,119.6,298.6,119.09Z"/>
          <path class="cls-16" d="M280.08,95.68h-.28a6.63,6.63,0,0,0-6.65,6.33c0,3.41,3.07,6.06,6.32,6.25.2,0,.41,0,.61,0a6.6,6.6,0,0,0,6.42-5.73C286.8,98.91,283.62,95.81,280.08,95.68Zm-3.62,7.83a4.21,4.21,0,1,1,8.37.32,4.19,4.19,0,1,1-8.37-.32Z"/>
          <path class="cls-17" d="M280.83,99a4.46,4.46,0,0,0-4.37,4.51,4.19,4.19,0,1,0,8.37.32A4.45,4.45,0,0,0,280.83,99Zm1.67,4.27a1.45,1.45,0,0,1-1.31-1.46,1.4,1.4,0,1,1,2.78.11A1.45,1.45,0,0,1,282.5,103.27Z"/>
          <path class="cls-18" d="M284,101.92a1.39,1.39,0,1,1-2.78-.11,1.4,1.4,0,1,1,2.78.11Z"/>
          <path class="cls-19" d="M253.88,154.85a5.16,5.16,0,0,0-2.86-4.68,6,6,0,0,1,2.56,1.69,5.81,5.81,0,0,1,1.3,2.91l-1,.08Z"/>
          <path class="cls-20" d="M288.56,124.63a18.89,18.89,0,0,0,4.27-5,19.37,19.37,0,0,1-3.58,5.72l-.69-.72Z"/>
          <path class="cls-7" d="M260.91,96.56c0-.12-11.36-6.19-.83-19.75,1.86-2,4.48-.35,5.82,2.85s-.11,11.18-.52,12Z"/>
          <path class="cls-21" d="M262.19,76.81c-8.2,10.56-3.1,16.58-.47,18.77l-.89,1c0-.13-11.37-6.2-.83-19.76a2.39,2.39,0,0,1,2.95-.59A2.7,2.7,0,0,0,262.19,76.81Z"/>
          <path class="cls-19" d="M275.17,130.12a21.54,21.54,0,0,1-12-3.41,21.07,21.07,0,0,0,11.93,2.41l0,1Z"/>
          <g>
            <path class="cls-22" d="M286.46,118c-4.17.54-5.18,4.65-5.45,6.33a19.53,19.53,0,0,1-.49-5.81,18.91,18.91,0,0,1,5.79-2C286.38,117,286.43,117.51,286.46,118Z"/>
            <path class="cls-23" d="M289,125a3,3,0,0,1-1.24,1.71,6.45,6.45,0,0,1-2.7.93c-2.16.31-3.33-1.05-3.95-2.89-.05-.14-.09-.29-.13-.43.27-1.68,1.28-5.79,5.45-6.33l0,.58c0,.44,0,.9,0,1.38a17.68,17.68,0,0,1-.93,4.89C286.62,125,287.78,125,289,125Z"/>
            <path class="cls-24" d="M289.1,125a3,3,0,0,1-1.24,1.7,6.36,6.36,0,0,1-2.71.93,3.13,3.13,0,0,1-3.37-1.63h0s1.28-4.66,4.5-3.75a19,19,0,0,1-.67,2.58C286.68,124.92,287.85,125,289.1,125Z"/>
          </g>
          <path class="cls-25" d="M254.35,104.19c-.19.25-.41.51-.64.76a15,15,0,0,1-2,1.84c-2.57,2.91-2.17,5.94-1.74,6.12h0c.47-.21,1.65-3.2,3.31-3.76l0,.06,0,0,.1,0c-.17.24-2.05,5.33-.54,9,0,.06,0,.1,0,.15l-.08.25s-11.08,1.59-13.9-4.41c-6.2-26.47-37-22.27-37-22.27a13.73,13.73,0,0,0-3.49.15c-.37.07-.71.14-1,.23l.43-.34A33.12,33.12,0,0,1,201.17,90c.75-.36,1.37-.62,2.62-1.13a38.65,38.65,0,0,1,4.74-1.71c.17,0,.77-.21,1.59-.38a28.86,28.86,0,0,1,5.45-.63c.91,0,1.6,0,2.09,0a23.66,23.66,0,0,1,4.48.67l.56.19.74.28.42.17c9.48,4,15.2,14.45,20.52,16.72l.16.06a5.23,5.23,0,0,0,1.41.36,23.08,23.08,0,0,0,7.72-.38l.63-.17C254.37,104.08,254.39,104.14,254.35,104.19Z"/>
          <path class="cls-26" d="M244.53,139.14s9.07.64,14.25-4.17,9.74-1.68,9.44-.53-3.49,7-14.05,8.86c-7.88,1.38-10.06.41-11.43,0"/>
          <path class="cls-26" d="M231.2,139.19s-6.94,3.34-12.56,3.74a54.42,54.42,0,0,1-3.56,4.27s4.3.11,4.74.06,9.9-2.16,11.55-3.55C231.31,143.82,231.19,139.84,231.2,139.19Z"/>
          <ellipse class="cls-27" cx="291.4" cy="112.22" rx="0.33" ry="0.42"/>
          <ellipse class="cls-27" cx="291.94" cy="114.57" rx="0.42" ry="0.33" transform="translate(119.75 376.69) rotate(-78.13)"/>
          <ellipse class="cls-27" cx="290.75" cy="116.57" rx="0.42" ry="0.33" transform="translate(116.85 377.12) rotate(-78.13)"/>
          <path class="cls-28" d="M302.49,110.21h-.09a12.21,12.21,0,0,1-4.31-2.34c-3.22-2.75-3.09-5.72-7-10.93A28.31,28.31,0,0,0,286,91.53c-6.94-5-17.9-.9-21.24.48l.68-1.07.24-1.09c.08-.36.15-.71.22-1.06a8.43,8.43,0,0,1,1-.79A9.84,9.84,0,0,1,271,86.38h0a5.1,5.1,0,0,0,.71-.16c.78-.17,1.66-.32,2.65-.46.75-.12,1.54-.23,2.35-.32s1.82-.18,2.68-.24,1.49-.11,2.31-.13,1.7,0,2.47.07a16,16,0,0,0-1.07,1.72,1,1,0,0,0-.1.48,1.39,1.39,0,0,0,.05.27c.18.48,2.23,1,2.75,1.12l2.27.9a24.56,24.56,0,0,1,9.81,7.06l.12.17C300.62,100.48,303.22,105.42,302.49,110.21Z"/>
          <path class="cls-10" d="M302.34,110.21h-.09a12.21,12.21,0,0,1-4.31-2.34c-3.23-2.75-3.09-5.72-7-10.93a28.33,28.33,0,0,0-5.08-5.41c-6.94-5-17.91-.9-21.24.48l.68-1.07.24-1.09c.08-.36.15-.71.22-1.06a8.3,8.3,0,0,1,1-.79,9.89,9.89,0,0,1,4.12-1.62h0a4.68,4.68,0,0,0,.7-.16c.79-.17,1.66-.32,2.65-.46.76-.12,1.54-.23,2.36-.32s1.82-.18,2.68-.24c.71-.07,1.48-.11,2.3-.13s1.71,0,2.47.07A14,14,0,0,0,283,86.87a1.12,1.12,0,0,0-.11.48,1.07,1.07,0,0,0,.06.27c.17.48,2.23,1,2.75,1.12l2.27.9a24.48,24.48,0,0,1,9.8,7.06l.12.17C300.47,100.48,303.06,105.42,302.34,110.21Z"/>
          <path class="cls-8" d="M200.18,156.81a3,3,0,0,1-1.37-1h0c-1-1.92,1.05-6.24,4.11-8.41.19-.14.38-.26.57-.38a4.8,4.8,0,0,0-2.08-1.44,21,21,0,0,1-6.35-4.38l-.13-.12c-8.17-8-10-19.87-10-19.87a28.9,28.9,0,0,1,1.15-15.71,23.77,23.77,0,0,1,4.62-7.84,23.41,23.41,0,0,1,7-5.33c-9.73,19.16-4.55,37.8,5.71,42.87,8.22,4.06,18.44-1.2,20.72-2.44a39.49,39.49,0,0,1-3.12,6.94,40.52,40.52,0,0,1-5.87,7.9c4.29,3,6.24,3.75,7.19,3.82a11.27,11.27,0,0,1,1.57.21,12.21,12.21,0,0,1,2,.59c1.35.55,4,2.11,3.8,3s-3.27.84-7.6,1.15C222.13,156.41,202.84,157.77,200.18,156.81Z"/>
          <path class="cls-19" d="M263.84,112.22a8.71,8.71,0,0,0-6.33,10c-3-.65-5.19-2.6-5.58-5.73a14.27,14.27,0,0,1,1.09-7.63l.53.72c-1.12.38-2,2-2.73,3.06-.2.25-.34.53-.69.63s-.7-.41-.72-.59a7.13,7.13,0,0,1,2.15-6c.88-.73,1.76-1.49,2.58-2.3a4.73,4.73,0,0,0,.74-.87,5.1,5.1,0,0,1-.64,1,33.61,33.61,0,0,1-2.37,2.5c-1.28,1.48-2.19,3.95-1.74,5.62-.06,0-.13,0-.17,0s-.1.06-.07,0c.38-.49.66-1.08,1-1.62a5.23,5.23,0,0,1,2.33-2.22l.7-.28-.16,1c-1.55,4-1.88,10.5,3.34,11.82l-.52.46c-.3-4.46,2.69-8.83,7.23-9.43Z"/>
          <path class="cls-19" d="M261.48,95.46a.47.47,0,0,0,.12.48l-.19-.16c-6-4.8-4.36-12.74-.28-18.23,1-1.34,2.74-.91,3.64.31a6.09,6.09,0,0,1,1.42,3.69,50.27,50.27,0,0,1-.66,7.84,51.25,51.25,0,0,0,.42-7.83,5.84,5.84,0,0,0-1.45-3.47c-.77-1-2.2-1.41-3-.25C257.87,83,256.23,90.67,262,95a2.15,2.15,0,0,1,.28.23.52.52,0,0,1,.13.5l-1-.28Z"/>
          <path class="cls-19" d="M242.26,143.24a23.88,23.88,0,0,1,6.61-10,23.26,23.26,0,0,0-5.65,10.27l-1-.29Z"/>
          <path class="cls-19" d="M236.76,127.93c-5.24,4.62-4.61,12.61-5.1,19l-.36-2.56c-.52-5.56-.08-13.5,5.46-16.45Z"/>
          <path class="cls-19" d="M220.85,115.61c5.13,4.78,5.76,12.82,3.25,19.11a35.27,35.27,0,0,1-5.91,9.61c-1,1.09-2.06,2.19-3.11,3.25.89-1.21,1.82-2.37,2.73-3.55,6.14-8.28,10.17-19.44,3-28.42Z"/>
          <path class="cls-19" d="M141.47,126.67c-7.78.24-15.94-4.56-18.12-12.35-2.17-7.61.27-16.56,6.61-21.48,9.25-7.74,24.9-5.74,31.8,4.17,6.1,8.61,5.14,20.34,11.48,28.74a16.24,16.24,0,0,0,9.74,5.82A16.18,16.18,0,0,1,173,126c-6.61-8.26-5.85-19.93-11.91-28.46-6.66-9.41-21.63-11.28-30.51-4a19.06,19.06,0,0,0-7.06,13c-1.66,11.2,7,19.9,18,20.09Z"/>
          <path class="cls-19" d="M194.11,136.35c-11.58,5.91-29.47,6.2-36.06-7a20.22,20.22,0,0,1-2-9.94,12.29,12.29,0,0,0-3.94-8.57c-5.89-6-20.8-3.95-17.85,6.67,1,4.33,9.17,4.9,9.14-.21-.08-2.5-3.3-3.1-5.07-1.83a4,4,0,0,1,3.22-.66c2.57.56,2.75,4.14.82,5.58a6,6,0,0,1-6.6.1c-3-2.09-3.18-6.54-1.56-9.56,3.71-6,13.89-5.33,18.55-.79a13,13,0,0,1,4.27,9.23,19.39,19.39,0,0,0,1.85,9.58c6.41,12.88,23.71,12.63,35.25,7.42Z"/>
          <path class="cls-19" d="M246.22,156.12a.83.83,0,0,1-.06-.44c.11-2.45-2.71-3.4-4.69-3.85,2.25.16,5.24.92,5.62,3.56l0,.25s.05.23,0,0l-.88.48Z"/>
          <path class="cls-19" d="M229.53,155.29A10.23,10.23,0,0,0,222,151a11.21,11.21,0,0,1,6.57,2.09,8.58,8.58,0,0,1,1.74,1.67l-.82.57Z"/>
          <path class="cls-21" d="M281.18,77.65c-4.45-1.42-8.22,6.71-9.15,8.86l-.61,0c.16-.34,4.33-11,9.36-9.37A1.2,1.2,0,0,1,281.18,77.65Z"/>
          <path class="cls-9" d="M278,91.84c-.15,0-.3,0-.46,0a10.1,10.1,0,0,0-9.74,7.68,2,2,0,0,1,0,.24c0,.23-.07.47-.09.7s0,.52,0,.78,0,.47,0,.7,0,.31.06.46l0,.23c.76,4.29,4.78,7.51,9.09,7.86l.23,0h0a23.75,23.75,0,0,1,5.62-1.32h0l0,0,.09,0a9.16,9.16,0,0,0,4.76-7.11C288.1,96.64,283.35,92.05,278,91.84ZM273,102c0-3.54,3.26-6.35,6.76-6.33H280c3.57.13,6.77,3.23,6.47,6.84a6.62,6.62,0,0,1-6.41,5.73c-.2,0-.41,0-.61,0h-.07C276.13,108.06,273.07,105.41,273,102Z"/>
          <path class="cls-7" d="M287.79,116.66h0l-.06,0a9.71,9.71,0,0,0-1.41.09h0a18.65,18.65,0,0,0-5.71,1.9c-1.12.52-1.12,8.2-1.1,10.42l-.6.1a28.62,28.62,0,0,1-4,.43h-.11c.07-.41-1-2.38-2.65-5.08l-.21-.32c-1.4-2.29-3.2-5.06-5.07-7.83l0-.06a38.47,38.47,0,0,1,8.37-5.06l.22-.09q.88-.39,1.83-.72h0a23.16,23.16,0,0,1,5.59-1.25h0a16.52,16.52,0,0,1,4.43.18,2.11,2.11,0,0,1,1,.57l.15.14C289.87,111.5,291.47,114.63,287.79,116.66Z"/>
          <g>
            <path class="cls-29" d="M291.36,112.71c-6.46-3.51-14.08-4.16-21.27-3.14a41.77,41.77,0,0,1,10.94-.64,29.73,29.73,0,0,1,10.5,2.78s0,0,0,0l-.2,1Z"/>
            <path class="cls-29" d="M291.88,115.09c-5.61-3.06-12.23-3.66-18.48-2.79a31.65,31.65,0,0,1,16.58.91c.69.25,1.42.57,2.09.89,0,0,0,0,0,0l-.2,1Z"/>
            <path class="cls-29" d="M290.62,117.06c-4.9-2.69-10.69-3.25-16.17-2.5A27,27,0,0,1,290,115.69c.21.1.64.28.84.39,0,0-.2,1-.2,1Z"/>
          </g>
          <path class="cls-10" d="M244.17,143.76a27.24,27.24,0,0,0,10.15-.51"/>
          <path class="cls-10" d="M191.91,137.37A35.09,35.09,0,0,1,186.7,128a35.94,35.94,0,0,1-2.29-14.18l.24-3.2"/>
          <path class="cls-10" d="M244.28,143.78v6.16l-.08,0-.08,0a18.18,18.18,0,0,0-2.24-.39h0v0a20,20,0,0,1,.87-6.08l.14,0,.65.13Z"/>
          <path class="cls-30" d="M273.15,85.58c.12-.25,3.27-7.87,7.08-6.72,1.52,1-1.1,6.26-1.1,6.26Z"/>
          <path class="cls-1" d="M272.92,85.58c.12-.25,3.28-7.87,7.08-6.72,1.53,1-1.1,6.26-1.1,6.26Z"/>
          <path class="cls-10" d="M270.92,86.26a63.73,63.73,0,0,1,9.38-1.36"/>
          <path class="cls-30" d="M261.89,92.84c0-.08-7.26-4-.53-12.62,1.19-1.26,2.86-.22,3.72,1.82s-.08,7.14-.34,7.66Z"/>
          <path class="cls-1" d="M261.86,93.15c0-.08-7.26-4-.53-12.62,1.19-1.26,2.87-.22,3.72,1.82s-.07,7.14-.33,7.66Z"/>
          <g>
            <path class="cls-31" d="M298,117.89c-.67-.1-1.32-1.24-2.54-2.62-1.42-1.6-2.56-2-3.23-2.94-.75-1.07,2.85-3,6.32-2.88,3.27.12,4.78,1.23,4.53,2.5S300.18,118,298,117.89Z"/>
            <path class="cls-32" d="M302.09,111.06c-2.49-1.37-6.09-1.13-8.77-.37a10.09,10.09,0,0,1,5.21-1.24c3.27.12,4.78,1.23,4.53,2.5a9.8,9.8,0,0,1-.69,1.29C302.66,112.09,302.62,111.4,302.09,111.06Z"/>
            <path class="cls-33" d="M293.34,110.67c-.72,1.3,2.08,2,3.2,3.17.86.84,1.25,2.49,2.21,2.59,1.4,0,2.72-2.23,4.18-4-.62,1.68-2.95,5.63-4.95,5.49-.67-.1-1.32-1.24-2.54-2.62-1.42-1.6-2.56-2-3.23-2.94C291.88,111.86,292.38,111.23,293.34,110.67Z"/>
            <path class="cls-10" d="M292.17,111.71a.36.36,0,0,0,0,.41,6,6,0,0,0,1.24,1.13,13.93,13.93,0,0,1,2.13,1.92c.39.45.73.87,1,1.24.62.77,1.1,1.37,1.47,1.42h.09c2.11,0,4.71-4.79,4.95-6a1.15,1.15,0,0,0-.24-1c-.61-.77-2.17-1.26-4.26-1.34h-.35C295.27,109.5,292.63,110.83,292.17,111.71Z"/>
          </g>
        </g>
        <path class="cls-34" d="M303.72,110.56a4.09,4.09,0,0,0-.6-.07s.19,0,.15-.06c.69-4.82-1.91-9.8-4.52-13.42-5.5-7.64-14.44-9.14-14.87-9.58-.06-.06-.21,0-.19-.09a4.69,4.69,0,0,1,.51-1c.44-.65,1.21-1.39.84-1.94a21,21,0,0,0-4.46-.09c.88-2,2.7-6.6,1-7.69a3.87,3.87,0,0,0-2.31,0c-4.09.95-7.26,7.64-7.83,8.93a19.47,19.47,0,0,0-3,1.11c-.22.1-.45.21-.67.33a10.2,10.2,0,0,0-1.41.87,29.94,29.94,0,0,0,.33-3.7,12.22,12.22,0,0,0-.55-4.67c-.94-2.27-2.52-3.75-4-3.74a2.36,2.36,0,0,0-1.56.57,3.66,3.66,0,0,0-.43.38c-7.27,9.42-4.11,15.25-1.45,18-.6-.2-1.32.82-1.23,1.25,0,0-1.51,5.38-3.15,7.77,0,0-.22.39-.44.45a22.75,22.75,0,0,1-7.71.38,4.65,4.65,0,0,1-1.41-.36l-.15-.06c-5.31-2.29-11-12.8-20.47-16.85l-.42-.17c-.38-.15-.76-.3-1.15-.43a20.4,20.4,0,0,0-5-1h-.09a40,40,0,0,0-7.63.77C199.11,89.22,193,94.67,190,98.14a17.62,17.62,0,0,0-1.56,2,11.48,11.48,0,0,0-.73,1.15,24.91,24.91,0,0,0-1.85,4.41,28.55,28.55,0,0,0-1.11,4.72,1.43,1.43,0,0,1-.16.42c-.63,9.16.81,17.94,7.1,26.93l.25.33a29.19,29.19,0,0,0,3,3.4l.13.13a21.16,21.16,0,0,0,6.36,4.41,4.67,4.67,0,0,1,1.89,1.25,1.7,1.7,0,0,0-.22.15,11.74,11.74,0,0,0-3.79,4.86c-4.21,6.36,7,5.1,12.85,4.86,3.15-1.78,6.85-.38,9.92-.69,3.57-.21,6.45.09,6.89-.64l.6-.33a5.28,5.28,0,0,0,.74-.32c.81-.63,1.16-1.14.67-1.85-.74-1.37-3.48-2.81-6.19-3.95l-.71-.29-.32-.13c-1.24-.49-2.41-.9-3.33-1.2a34.3,34.3,0,0,0,11.16-3.29l0,.82c.09,4.24,0,4.42.08,4.85a2.94,2.94,0,0,0,.08.54c.15.7,1.51,4.88,5.87,5.48,2.8.32,12.36,0,12.39,0s.36-.14.26-.83c0,0,0-.46,0-.48,1,0,7.47,0,7.5-.09a1.58,1.58,0,0,0,0-.68c-.84-3.34-5-4.47-5.38-4.47-.52-1.15.92-5.64,1.73-6.1,0,0,3.3-.76,4.62-1.27a32.87,32.87,0,0,0,6.29-3.42l.81-.7a8.78,8.78,0,0,0,2.14-2.05,5.32,5.32,0,0,1,.61-1.15,12.22,12.22,0,0,1,1.56-1.77,33.08,33.08,0,0,1,4.8-3s.33-.37.31-.45c1.16,0,4.39-.66,4.39-.66a3.61,3.61,0,0,0,1.16,1.57,3.49,3.49,0,0,0,2.33.66,15.45,15.45,0,0,0,6.07-2.11c.2-.18.77-.66,1-.89a7.11,7.11,0,0,0,1.58-3.24c.26,0,1-.08,1.37-.12h.08a3.42,3.42,0,0,0,1.06-.72c.3-.25.75-.69,1-.87a34.72,34.72,0,0,0,5-6.3C302.93,115,306.36,110.79,303.72,110.56Z"/>
      </g>
    </g>
  </g>
</svg>
