<svg xmlns="http://www.w3.org/2000/svg" xmlns:xlink="http://www.w3.org/1999/xlink" width="94.59" height="98.53" viewBox="0 0 94.59 98.53">
  <defs>
    <style>
      .cls-1, .cls-25 {
        fill: none;
      }

      .cls-2 {
        isolation: isolate;
      }

      .cls-3 {
        clip-path: url(#clip-path);
      }

      .cls-4 {
        fill: #6bba2d;
      }

      .cls-5 {
        fill: #4aa311;
      }

      .cls-6 {
        fill: #032616;
      }

      .cls-7 {
        fill: #011c24;
      }

      .cls-8 {
        fill: #042f33;
      }

      .cls-13, .cls-14, .cls-17, .cls-9 {
        opacity: 0.5;
      }

      .cls-9 {
        fill: url(#linear-gradient);
      }

      .cls-10 {
        clip-path: url(#clip-path-2);
      }

      .cls-11 {
        fill: url(#linear-gradient-2);
      }

      .cls-12 {
        opacity: 0.47;
      }

      .cls-13, .cls-14 {
        mix-blend-mode: multiply;
      }

      .cls-13 {
        fill: url(#linear-gradient-3);
      }

      .cls-14 {
        fill: url(#linear-gradient-4);
      }

      .cls-15 {
        fill: url(#linear-gradient-5);
      }

      .cls-16 {
        fill: url(#linear-gradient-6);
      }

      .cls-17 {
        mix-blend-mode: screen;
      }

      .cls-18 {
        opacity: 0.58;
        fill: url(#linear-gradient-7);
      }

      .cls-19 {
        opacity: 0.1;
      }

      .cls-20 {
        fill: #300914;
      }

      .cls-21 {
        opacity: 0.36;
      }

      .cls-22 {
        fill: #f6f6f6;
      }

      .cls-23 {
        fill: #3d3123;
      }

      .cls-24 {
        fill: #fff;
      }

      .cls-25 {
        stroke: #894f1a;
        stroke-miterlimit: 10;
        stroke-width: 0.5px;
      }

      .cls-26 {
        fill: #bc7b18;
      }

      .cls-27 {
        fill: #8e4713;
      }
    </style>
    <clipPath id="clip-path">
      <rect class="cls-1" x="-1539.35" y="-2380.53" width="1280" height="720"/>
    </clipPath>
    <linearGradient id="linear-gradient" x1="-3571.17" y1="-4158.43" x2="-3517.33" y2="2342.5" gradientUnits="userSpaceOnUse">
      <stop offset="0.46" stop-color="#fff" stop-opacity="0"/>
      <stop offset="0.5" stop-color="#fef9e8" stop-opacity="0.21"/>
      <stop offset="0.55" stop-color="#fef4d3" stop-opacity="0.39"/>
      <stop offset="0.6" stop-color="#fdf0c1" stop-opacity="0.56"/>
      <stop offset="0.65" stop-color="#fdecb2" stop-opacity="0.69"/>
      <stop offset="0.7" stop-color="#fde9a6" stop-opacity="0.81"/>
      <stop offset="0.76" stop-color="#fce79c" stop-opacity="0.89"/>
      <stop offset="0.82" stop-color="#fce595" stop-opacity="0.95"/>
      <stop offset="0.89" stop-color="#fce491" stop-opacity="0.99"/>
      <stop offset="1" stop-color="#fce490"/>
    </linearGradient>
    <clipPath id="clip-path-2">
      <rect class="cls-1" x="-1539.35" y="-144.29" width="1280" height="720"/>
    </clipPath>
    <linearGradient id="linear-gradient-2" x1="-757.83" y1="840.77" x2="-757.83" y2="-1652.41" gradientUnits="userSpaceOnUse">
      <stop offset="0.2" stop-color="#ffffca"/>
      <stop offset="0.67" stop-color="#9edcff"/>
      <stop offset="1" stop-color="#4e9dff"/>
    </linearGradient>
    <linearGradient id="linear-gradient-3" x1="-7611.88" y1="-208.52" x2="-7677.37" y2="-212.46" gradientTransform="matrix(1, -0.05, 0.05, 1, 7626.51, -163.48)" gradientUnits="userSpaceOnUse">
      <stop offset="0" stop-color="#563628"/>
      <stop offset="0.15" stop-color="#83593d"/>
      <stop offset="0.3" stop-color="#ab784f"/>
      <stop offset="0.43" stop-color="#c38b5a"/>
      <stop offset="0.5" stop-color="#cc925e"/>
      <stop offset="0.64" stop-color="#c98e5b"/>
      <stop offset="0.78" stop-color="#bf8152"/>
      <stop offset="0.93" stop-color="#af6d43"/>
      <stop offset="1" stop-color="#a5603a"/>
    </linearGradient>
    <linearGradient id="linear-gradient-4" x1="-7602.02" y1="-216.83" x2="-7676.56" y2="-221.32" xlink:href="#linear-gradient-3"/>
    <linearGradient id="linear-gradient-5" x1="-722.39" y1="204.19" x2="-133.05" y2="204.19" gradientUnits="userSpaceOnUse">
      <stop offset="0" stop-color="#8a5f3c"/>
      <stop offset="0.24" stop-color="#744d29"/>
      <stop offset="0.66" stop-color="#52300b"/>
      <stop offset="0.89" stop-color="#452500"/>
    </linearGradient>
    <linearGradient id="linear-gradient-6" x1="11619.91" y1="-2.04" x2="12209.25" y2="-2.04" gradientTransform="matrix(-0.73, 0, 0, 1, 8783.79, 0)" xlink:href="#linear-gradient-5"/>
    <linearGradient id="linear-gradient-7" x1="11669.86" y1="-1257" x2="11669.86" y2="811.08" gradientTransform="matrix(-0.73, 0, 0, 1, 8783.79, 0)" gradientUnits="userSpaceOnUse">
      <stop offset="0.21" stop-color="#cc925e"/>
      <stop offset="0.48" stop-color="#a56752"/>
      <stop offset="0.8" stop-color="#6d3134"/>
      <stop offset="1" stop-color="#292937"/>
    </linearGradient>
  </defs>
  <g class="cls-2">
    <g id="Layer_1" data-name="Layer 1">
      <g class="cls-3">
        <path class="cls-4" d="M-7158.29-244.64s499.32,33.16,649.11,31.18,531.65-9.19,573.09-9.47S-5394.64-199.28-5214-197c663.28,8.34,1958.07-36,3137.17-55.4,1347-22.15,2546.75-20.42,2546.75-20.42L461,31.51l-8165.23-3.39,35.91-284.74Z"/>
        <path class="cls-5" d="M-7607.31-206.72s397.52-20.72,896.62,46.25,1502.27,2.54,2003,2C-4185.35-159-3142.47-77-2620.18-72.66c768.55,6.36,3072-118.47,3072-118.47L468.16,70.32-7660,76.68Z"/>
        <path class="cls-6" d="M25.17,27.52l-7-42s-756.25-26-867.25-18c0,0,6-21,17-24,0,0-25-3-27,24,0,0,0-40,16-47,0,0-39,6-36,47l-182,8s11-11,18-14c0,0-20-7-31,6,0,0,13-31,21-35,0,0-22.25-2-28.13,30,0,0-19.87-17-25.87-14.5,0,0,22,26.5,18,27.5,0,0-722.35,20.46-857.35,27.46V56.36Z"/>
        <g>
          <path class="cls-6" d="M-40,24.85l7-42s756.26-26,867.26-18c0,0-6-21-17-24,0,0,25-3,27,24,0,0,0-40-16-47,0,0,39,6,36,47l182,8s-11-11-18-14c0,0,20-7,31,6,0,0-13-31-21-35,0,0,22.25-2,28.13,30,0,0,19.87-17,25.87-14.5,0,0-22,26.5-18,27.5,0,0,722.35,20.46,857.35,27.46V53.69Z"/>
          <g>
            <path class="cls-7" d="M229.31,18.66S74.77-14.44,75.88-47.64,205.3-24,255.83,9.11C108.71-128.32,184.65-50.22,143.22-96.73s3.58-69.59,77.48.9c59.18,68.37,76.63,88.37,76.63,88.37s-43.15-92.76-60-141.81S275.5-231,318-145.39c9.37-26.9,10.22-29.56,10.22-29.56s-12.63,40.54.34-6.86,65.5-18.87,36.29,50.65c31.71-25.42-10,3.39,34.46-21.79s98.87,3.34,41.55,60.53-39.76,41.1-39.76,41.1L361-15.67,467.18-51c72.69-18.76,103.93,7,21.75,47.49C435.84,17.23,390.8,32.9,390.8,32.9s45.3-.5,119-3.88,72.85,45.58-11.1,44.32c-97.6-20.6-269.36-54.68-269.36-54.68"/>
            <path class="cls-8" d="M248.18,15.76s-153-51.71-156-54.7S232.71,6,248.18,15.76"/>
          </g>
        </g>
        <rect class="cls-1" x="-7574.37" y="-2698.13" width="8000" height="2700"/>
        <rect class="cls-9" x="-7611.29" y="-2737.43" width="8127.09" height="2814.71"/>
        <rect class="cls-1" x="-7611.29" y="-2737.43" width="8127.09" height="2814.71"/>
      </g>
      <g class="cls-10">
        <path class="cls-11" d="M-1795.79,617.77c639,235.82,1338.44,202.51,2075.92,0v-1422H-1795.79Z"/>
        <g>
          <path class="cls-13" d="M-51.92-55.25s9,20.33,38.84,11.83c2.71-.77,5.53-.06,8.27.61,9.78,2.38,9.13,2.12,18.32.69,0,0,1.25,4.09-24.84,20.94-3.56,2.29-.93,18.54-1.74,24.49-.93,6.82-3.19,16.28-7.88,15.89C-25.39,18.84-34,25.27-37.41,0c-1-7.43-.24-22.95-4.82-25.66C-50.78-30.77-51.13-38.76-51.92-55.25Z"/>
          <path class="cls-14" d="M-38.44-31c4.23,2,5.65,6.71,7.2,12.15,1.73,6,.65,21.35,7.38,19.76s8.16-18.1,9.07-23.26c.79-4.51,12.91-4,16.23-5.76,4.93-2.63,5.72-9.69,8.92-12.14-11.87.67-21.1,1.43-27.11.3a86.89,86.89,0,0,0-9.65-.86c-21.91-1-24.79-13.57-24.79-13.57,0,.42-.07.84-.1,1.25C-49.62-42.43-44.83-34-38.44-31Z"/>
        </g>
        <rect class="cls-1" x="-1795.88" y="-809.38" width="2087.68" height="1665.16"/>
        <rect class="cls-1" x="-1786.4" y="-786.12" width="2055.03" height="1597.3"/>
        <g>
          <path class="cls-15" d="M-188.91-787.72c-90,25.09,234.71-70.43,221.67,1.56C18.25-706,18.6-229.48,16.94-50.29c-1.72,187.2-2.57,654.57-3.17,764.5S53.88,927.83,29.36,941.54c-44,24.57-320.48,235.86-320.48,220.32-12-13.13-235.68,92-206.29,50.19a475.84,475.84,0,0,0,54-101.56,140.17,140.17,0,0,0,9-47.79c0-5.37-21.59,5.38-41.39-1.79s-37.77-50.18-80.05,1.79-55.77,53.76-84.55,52-40.48-64.53-10.8-71.7,52.18-46.59,58.47-60.93c-8.09-17.92-59.37-23.3-90-5.38s-63,23.31-63,23.31c18-32.27,36.88-73.49,68.36-80.65s42.28-21.51,84.56-17.93,68,274.34,94.95,199.08,67.47-180.42,72.26-414.59-4.42-575.18-6-669.09c-1.31-78.09-37.48-187.87-80.85-272.32-32.57-63.4-68.56-111.7-100.45-126C-651.67-399-708.67-455-769-480.14c-55.25-23-113.34-15.88-162.62-21.59-33.58-52.56,7.2-64.52,7.2-64.52s60-14.33,119.93,2.4,56.37,31.05,110.34,28.67,115.54,84.31,147.93,124.93S-407.75-282.41-392-224.54c0-234.18,12-501.81,4.8-535.26s28.64,41.7-3.74-13.26"/>
          <g>
            <path class="cls-16" d="M-134.34-993.95c66,25.1-172.23-70.42-162.66,1.56,10.65,80.14,10.4,556.69,11.61,735.87,1.27,187.21,1.89,654.58,2.33,764.5S-312.5,721.61-294.5,735.32c32.27,24.57,235.17,235.86,235.17,220.32,8.8-13.14,172.94,92,151.37,50.18s-33.44-80-39.6-101.55a186.44,186.44,0,0,1-6.6-47.8c0-5.37,15.84,5.38,30.36-1.79s27.72-50.18,58.75,1.79,40.92,53.76,62,52,29.7-64.53,7.92-71.69-38.28-46.6-42.9-60.93c5.94-17.93,43.56-23.31,66-5.38a127.88,127.88,0,0,0,46.21,23.3c-13.2-32.27-27.06-73.48-50.16-80.65S193,691.59,162,695.17,112.14,969.52,92.33,894.26s-49.5-180.42-53-414.6,3.24-575.17,4.4-669.08c1-78.09,27.5-187.88,59.33-272.32,23.89-63.41,50.3-111.7,73.7-126.06,28.5-17.47,70.32-73.4,114.63-98.57,40.54-23,83.17-15.88,119.33-21.58,24.64-52.57-5.28-64.53-5.28-64.53s-44-14.33-88,2.4-41.36,31.06-81,28.67S151.66-657.09,127.9-616.47,26.25-488.63,14.67-430.76c0-234.19-8.8-501.81-3.52-535.27s-21,41.7,2.74-13.25"/>
            <g class="cls-17">
              <path class="cls-18" d="M74.63,894.33c-19.81-75.28-49.51-180.42-53-414.59S24.85-95.44,26-189.35c1-78.09,27.5-187.87,59.33-272.32,23.89-63.41,50.31-111.7,73.7-126.06,28.5-17.47,70.32-73.39,114.63-98.56,40.54-23,83.17-15.89,119.33-21.59,24.64-52.57-5.28-64.52-5.28-64.52a143,143,0,0,0-32.64-5.45,150.51,150.51,0,0,1,50.28,5.45s29.92,11.95,5.28,64.52c-36.16,5.7-78.79-1.44-119.33,21.59C247-661.12,205.17-605.2,176.67-587.73c-23.4,14.36-49.81,62.65-73.7,126.06C71.14-377.22,44.6-267.44,43.64-189.35c-1.16,93.91-7.92,434.9-4.4,669.09s33.22,339.31,53,414.59C106.83,949.7,113.18,693.55,136.75,696,107.66,698.34,92.84,963.55,74.63,894.33Z"/>
            </g>
            <g class="cls-19">
              <path class="cls-20" d="M93.77-533.46c-26.57,42.54-42.84,90.82-55,139.22-23.13,91.12-22.13,187-23.44,280.45-.87,155,4,316.28,4.29,471.38.37,100.57.26,201.14-1.08,301.72h-.7c-6.68-219.41-7.22-440.45-5-660,.34-55.25.09-114.33-.56-169.72-.16-23.54-.43-47.24-.1-70.8A714.54,714.54,0,0,1,25-358.66c7.44-37,17.9-73.82,32.47-108.69A401.37,401.37,0,0,1,82.77-518.1c3.25-5.41,6.66-10.7,10.43-15.78l.57.42Z"/>
            </g>
            <g class="cls-21">
              <path class="cls-20" d="M20.94-415.48C.38-309.9-12.94-202.78-12.37-95.31c.46,20.08,1.46,51.33,2,71.75C-2.71,201.78,8.47,433.6-12.4,658.23c-2.39,23.83-5.31,47.62-9.33,71.23l-.69-.1c2.89-23.75,4.94-47.57,6.58-71.42,7.72-119.06,7.72-239.22,8.11-358.51C-8.37,180-8.1,60.05-14.3-59.33c-1.17-20.64-3-51.3-2.89-71.82-.44-48,3.62-95.92,10-143.45,4.83-35.63,11.05-71.06,18.92-106.13,2.64-11.69,5.35-23.35,8.51-34.91l.68.16Z"/>
            </g>
          </g>
        </g>
      </g>
      <g>
        <path class="cls-22" d="M47.6,43h-.28c-3.45,0-6.67,2.82-6.65,6.34s3.07,6,6.31,6.24c.21,0,.41,0,.62,0A6.57,6.57,0,0,0,54,49.83C54.32,46.21,51.14,43.11,47.6,43ZM44,50.81a4.46,4.46,0,0,1,4.37-4.51,4.46,4.46,0,0,1,4,4.84A4.19,4.19,0,1,1,44,50.81Z"/>
        <path class="cls-23" d="M48.35,46.3A4.46,4.46,0,0,0,44,50.81a4.19,4.19,0,1,0,8.37.33A4.46,4.46,0,0,0,48.35,46.3ZM50,50.58a1.49,1.49,0,1,1,1.48-1.36A1.46,1.46,0,0,1,50,50.58Z"/>
        <path class="cls-24" d="M51.49,49.22a1.4,1.4,0,1,1-2.79-.11,1.4,1.4,0,1,1,2.79.11Z"/>
        <path class="cls-25" d="M40.56,49.31c0-3.55,3.26-6.36,6.76-6.34h.22c3.57.13,6.77,3.23,6.46,6.85a6.61,6.61,0,0,1-6.4,5.72c-.21,0-.41,0-.62,0h-.06C43.65,55.36,40.58,52.71,40.56,49.31Z"/>
      </g>
      <g>
        <path class="cls-26" d="M54,48.64a6.76,6.76,0,0,0-13.45.62,5.55,5.55,0,0,0,.06.82C43.75,48.66,49.4,46.76,54,48.64Z"/>
        <path class="cls-27" d="M54,48.64C52.52,40.81,40.45,41.9,41.08,50l-.67-.37c4.19-1.78,9.27-3,13.59-1Zm0,0c-4.43-1.38-9.12,0-13.2,1.88l-.58.26C38.48,41.23,53,39.14,54,48.64Z"/>
      </g>
    </g>
  </g>
</svg>
