<svg xmlns="http://www.w3.org/2000/svg" xmlns:xlink="http://www.w3.org/1999/xlink" width="94.59" height="98.53" viewBox="0 0 94.59 98.53">
  <defs>
    <style>
      .cls-1, .cls-33 {
        fill: none;
      }

      .cls-2 {
        isolation: isolate;
      }

      .cls-3 {
        clip-path: url(#clip-path);
      }

      .cls-4 {
        fill: #0e7f2e;
      }

      .cls-5 {
        fill: url(#linear-gradient);
      }

      .cls-6 {
        fill: #71cd33;
      }

      .cls-7 {
        fill: #6bba2d;
      }

      .cls-8 {
        fill: #4aa311;
      }

      .cls-9 {
        fill: #032616;
      }

      .cls-10 {
        fill: #011c24;
      }

      .cls-11 {
        fill: #042f33;
      }

      .cls-12, .cls-17, .cls-18, .cls-25 {
        opacity: 0.5;
      }

      .cls-12 {
        fill: url(#linear-gradient-2);
      }

      .cls-13 {
        clip-path: url(#clip-path-2);
      }

      .cls-14 {
        fill: url(#linear-gradient-3);
      }

      .cls-15 {
        fill: #775a07;
      }

      .cls-16 {
        fill: #211201;
      }

      .cls-17, .cls-18 {
        mix-blend-mode: multiply;
      }

      .cls-17 {
        fill: url(#linear-gradient-4);
      }

      .cls-18 {
        fill: url(#linear-gradient-5);
      }

      .cls-19 {
        fill: #724526;
      }

      .cls-20, .cls-21 {
        opacity: 0.39;
      }

      .cls-20 {
        fill: url(#linear-gradient-6);
      }

      .cls-21 {
        fill: url(#linear-gradient-7);
      }

      .cls-22 {
        fill: #916b0c;
      }

      .cls-23 {
        fill: url(#linear-gradient-8);
      }

      .cls-24 {
        fill: url(#linear-gradient-9);
      }

      .cls-25 {
        mix-blend-mode: screen;
      }

      .cls-26 {
        opacity: 0.58;
        fill: url(#linear-gradient-10);
      }

      .cls-27 {
        opacity: 0.1;
      }

      .cls-28 {
        fill: #300914;
      }

      .cls-29 {
        opacity: 0.36;
      }

      .cls-30 {
        fill: #f6f6f6;
      }

      .cls-31 {
        fill: #3d3123;
      }

      .cls-32 {
        fill: #fff;
      }

      .cls-33 {
        stroke: #894f1a;
        stroke-miterlimit: 10;
        stroke-width: 0.5px;
      }

      .cls-34 {
        fill: #bc7b18;
      }

      .cls-35 {
        fill: #8e4713;
      }
    </style>
    <clipPath id="clip-path">
      <rect class="cls-1" x="-1539.35" y="-2263.41" width="1280" height="720"/>
    </clipPath>
    <linearGradient id="linear-gradient" x1="-3570.29" y1="169.01" x2="-3570.29" y2="-4045.35" gradientUnits="userSpaceOnUse">
      <stop offset="0.2" stop-color="#ffffca"/>
      <stop offset="0.67" stop-color="#9edcff"/>
      <stop offset="1" stop-color="#4e9dff"/>
    </linearGradient>
    <linearGradient id="linear-gradient-2" x1="-3571.17" y1="-4041.31" x2="-3517.33" y2="2459.62" gradientUnits="userSpaceOnUse">
      <stop offset="0.46" stop-color="#fff" stop-opacity="0"/>
      <stop offset="0.5" stop-color="#fef9e8" stop-opacity="0.21"/>
      <stop offset="0.55" stop-color="#fef4d3" stop-opacity="0.39"/>
      <stop offset="0.6" stop-color="#fdf0c1" stop-opacity="0.56"/>
      <stop offset="0.65" stop-color="#fdecb2" stop-opacity="0.69"/>
      <stop offset="0.7" stop-color="#fde9a6" stop-opacity="0.81"/>
      <stop offset="0.76" stop-color="#fce79c" stop-opacity="0.89"/>
      <stop offset="0.82" stop-color="#fce595" stop-opacity="0.95"/>
      <stop offset="0.89" stop-color="#fce491" stop-opacity="0.99"/>
      <stop offset="1" stop-color="#fce490"/>
    </linearGradient>
    <clipPath id="clip-path-2">
      <rect class="cls-1" x="-1539.35" y="-27.18" width="1280" height="720"/>
    </clipPath>
    <linearGradient id="linear-gradient-3" x1="-757.83" y1="957.89" x2="-757.83" y2="-1535.3" xlink:href="#linear-gradient"/>
    <linearGradient id="linear-gradient-4" x1="-7611.88" y1="-91.4" x2="-7677.37" y2="-95.34" gradientTransform="matrix(1, -0.05, 0.05, 1, 7621.05, -163.35)" gradientUnits="userSpaceOnUse">
      <stop offset="0" stop-color="#563628"/>
      <stop offset="0.15" stop-color="#83593d"/>
      <stop offset="0.3" stop-color="#ab784f"/>
      <stop offset="0.43" stop-color="#c38b5a"/>
      <stop offset="0.5" stop-color="#cc925e"/>
      <stop offset="0.64" stop-color="#c98e5b"/>
      <stop offset="0.78" stop-color="#bf8152"/>
      <stop offset="0.93" stop-color="#af6d43"/>
      <stop offset="1" stop-color="#a5603a"/>
    </linearGradient>
    <linearGradient id="linear-gradient-5" x1="-7602.02" y1="-99.72" x2="-7676.56" y2="-104.2" xlink:href="#linear-gradient-4"/>
    <linearGradient id="linear-gradient-6" x1="-7668.55" y1="-121.2" x2="-7581.79" y2="-121.2" gradientTransform="matrix(1, -0.05, 0.05, 1, 7621.05, -163.35)" gradientUnits="userSpaceOnUse">
      <stop offset="0" stop-color="#542c28"/>
      <stop offset="0.17" stop-color="#442321"/>
      <stop offset="0.45" stop-color="#2f1619"/>
      <stop offset="0.73" stop-color="#220f14"/>
      <stop offset="0.99" stop-color="#1e0c12"/>
    </linearGradient>
    <linearGradient id="linear-gradient-7" x1="-7677.55" y1="-172.9" x2="-7600.79" y2="-172.9" xlink:href="#linear-gradient-6"/>
    <linearGradient id="linear-gradient-8" x1="-722.39" y1="321.31" x2="-133.05" y2="321.31" gradientUnits="userSpaceOnUse">
      <stop offset="0" stop-color="#8a5f3c"/>
      <stop offset="0.24" stop-color="#744d29"/>
      <stop offset="0.66" stop-color="#52300b"/>
      <stop offset="0.89" stop-color="#452500"/>
    </linearGradient>
    <linearGradient id="linear-gradient-9" x1="11619.91" y1="115.08" x2="12209.25" y2="115.08" gradientTransform="matrix(-0.73, 0, 0, 1, 8783.79, 0)" xlink:href="#linear-gradient-8"/>
    <linearGradient id="linear-gradient-10" x1="11669.86" y1="-1139.88" x2="11669.86" y2="928.2" gradientTransform="matrix(-0.73, 0, 0, 1, 8783.79, 0)" gradientUnits="userSpaceOnUse">
      <stop offset="0.21" stop-color="#cc925e"/>
      <stop offset="0.48" stop-color="#a56752"/>
      <stop offset="0.8" stop-color="#6d3134"/>
      <stop offset="1" stop-color="#292937"/>
    </linearGradient>
  </defs>
  <g class="cls-2">
    <g id="Layer_1" data-name="Layer 1">
      <g class="cls-3">
        <path class="cls-4" d="M112,101S102.65,80,83.91,79.24,112,102.18,112,102.18"/>
        <path class="cls-5" d="M-7610.94-207.94c2487.5,398.63,5210.4,342.31,8081.3,0V-2611.6h-8081.3Z"/>
        <path class="cls-6" d="M-7309.46-271.81s2581.26-1.66,4403,15.37c1298,12.13,3395.73,9.21,3395.73,9.21l9.25,348.07-8211.87,14.3Z"/>
        <path class="cls-7" d="M-7158.29-127.52S-6659-94.36-6509.18-96.34s531.65-9.19,573.09-9.47S-5394.64-82.16-5214-79.89c663.28,8.33,1958.07-36,3137.17-55.4,1347-22.16,2546.75-20.42,2546.75-20.42L461,148.63l-8165.23-3.39,35.91-284.74Z"/>
        <path class="cls-8" d="M-7607.31-89.6s397.52-20.72,896.62,46.25,1502.27,2.54,2003,2c522.32-.54,1565.2,81.46,2087.49,85.79C-1851.63,50.82,451.82-74,451.82-74l16.34,261.45L-7660,193.8Z"/>
        <path class="cls-9" d="M25.17,144.64l-7-42s-756.25-26-867.25-18c0,0,6-21,17-24,0,0-25-3-27,24,0,0,0-40,16-47,0,0-39,6-36,47l-182,8s11-11,18-14c0,0-20-7-31,6,0,0,13-31,21-35,0,0-22.25-2-28.13,30,0,0-19.87-17-25.87-14.5,0,0,22,26.5,18,27.5,0,0-722.35,20.46-857.35,27.46v53.38Z"/>
        <g>
          <path class="cls-9" d="M-40,142l7-42S723.21,74,834.21,82c0,0-6-21-17-24,0,0,25-3,27,24,0,0,0-40-16-47,0,0,39,6,36,47l182,8s-11-11-18-14c0,0,20-7,31,6,0,0-13-31-21-35,0,0,22.25-2,28.13,30,0,0,19.87-17,25.87-14.5,0,0-22,26.5-18,27.5,0,0,722.35,20.47,857.35,27.47v53.38Z"/>
          <g>
            <path class="cls-10" d="M229.31,135.78S74.77,102.68,75.88,69.47s129.42,23.62,180,56.76C108.71-11.2,184.65,66.9,143.22,20.39s3.58-69.59,77.48.9c59.18,68.36,76.63,88.36,76.63,88.36s-43.15-92.76-60-141.8S275.5-113.84,318-28.27c9.37-26.9,10.22-29.57,10.22-29.57s-12.63,40.55.34-6.85S394.1-83.56,364.89-14c31.71-25.43-10,3.39,34.46-21.79s98.87,3.34,41.55,60.53-39.76,41.1-39.76,41.1L361,101.45,467.18,66.1c72.69-18.76,103.93,7,21.75,47.49C435.84,134.35,390.8,150,390.8,150s45.3-.5,119-3.88,72.85,45.58-11.1,44.31c-97.6-20.59-269.36-54.67-269.36-54.67"/>
            <path class="cls-11" d="M248.18,132.88s-153-51.71-156-54.7,140.58,45,156.05,54.7"/>
          </g>
        </g>
        <rect class="cls-1" x="-7574.37" y="-2581.01" width="8000" height="2700"/>
        <rect class="cls-12" x="-7611.29" y="-2620.32" width="8127.09" height="2814.71"/>
        <rect class="cls-1" x="-7611.29" y="-2620.32" width="8127.09" height="2814.71"/>
      </g>
      <g class="cls-13">
        <path class="cls-14" d="M-1795.79,734.89c639,235.82,1338.44,202.51,2075.92,0v-1422H-1795.79Z"/>
        <g>
          <path class="cls-15" d="M18.45,1.08S17.22,33.21,15.78,54s-10,20.08-22.2,23.33-29.7,1.44-35.89.39S-53.09,71-53.82,47.18s-.33-44.47,4-71.59S-12.27-52.35-3.48-46.59C11.52-36.76,13-33.34,18.45,1.08Z"/>
          <path class="cls-16" d="M-45.87,34.56c2.46,29.3,5.37,37.57,20.88,39,1.43.13,14.16,2.75,15.56,2.72C4.39,76,9.17,66.17,11.3,51.1c6.11-43.31-2.23-74-2.23-74C3.67-36.56-2.69-39.41-11.24-41.67S-20.69-42.16-30-40c-4.17,1,4.81,1.46-.56,4.1C-41.43-30.53-47.7,12.75-45.87,34.56Z"/>
          <path class="cls-17" d="M-51.92,61.86s9,20.34,38.84,11.84c2.71-.78,5.53-.06,8.27.61C5,76.69,4.32,76.43,13.51,75c0,0,1.25,4.08-24.84,20.93-3.56,2.3-.93,18.55-1.74,24.5-.93,6.82-3.19,16.28-7.88,15.89-4.44-.36-13,6.07-16.46-19.25-1-7.43-.24-23-4.82-25.66C-50.78,86.35-51.13,78.35-51.92,61.86Z"/>
          <path class="cls-18" d="M-38.44,86.13c4.23,2,5.65,6.71,7.2,12.14,1.73,6,.65,21.36,7.38,19.76s8.16-18.09,9.07-23.25c.79-4.51,12.91-4,16.23-5.76,4.93-2.63,5.72-9.7,8.92-12.14-11.87.67-21.1,1.42-27.11.3a84.56,84.56,0,0,0-9.65-.86c-21.91-1-24.79-13.57-24.79-13.57,0,.42-.07.84-.1,1.25C-49.62,74.69-44.83,83.11-38.44,86.13Z"/>
          <path class="cls-19" d="M-44.53,71.45C-50.17,74,16.87,85.7,38.86,66.28c0,0,16.26-9.85-30.81-6.88C-35.73,65.45-47.07,59.87-44.53,71.45Z"/>
          <path class="cls-20" d="M38.8,64.84C12.9,81.2-40.27,73.35-44.65,68.45c-.48.53,0,2.9.13,3.25-5.63,2.59,61.41,14.24,83.39-5.18,0,0,3.68-2.23,2.46-4.25A7.25,7.25,0,0,1,38.8,64.84Z"/>
          <path class="cls-21" d="M-39.58,74.52c-6.19-1-10.79-6.67-11.52-30.52s0-39.24,4.4-66.36c2-12.28,3.14-14.18,10-19.31-8.67,4.74-11.57,7.29-13.92,21.84C-55,7.29-55.76,22.69-55,46.54S-49.7,76-43.52,77.06-29,81.58-3.61,81.66C-.84,81.67,21,75.75,23.07,74c-1.09.51-22,3.19-25.18,3.3C-14.52,77.7-33.4,75.57-39.58,74.52Z"/>
          <path class="cls-22" d="M-45.09,64S-27,80.14,38.8,64.82c0,0,16.27-9.86-30.8-6.89Z"/>
        </g>
        <rect class="cls-1" x="-1795.88" y="-692.26" width="2087.68" height="1665.16"/>
        <rect class="cls-1" x="-1786.4" y="-669.01" width="2055.03" height="1597.3"/>
        <g>
          <path class="cls-23" d="M-188.91-670.6C-278.86-645.51,45.8-741,32.76-669,18.25-588.9,18.6-112.36,16.94,66.83,15.22,254,14.37,721.4,13.77,831.33S53.88,1045,29.36,1058.66c-44,24.57-320.48,235.86-320.48,220.32-12-13.13-235.68,92-206.29,50.18a475.83,475.83,0,0,0,54-101.55,140.25,140.25,0,0,0,9-47.8c0-5.37-21.59,5.38-41.39-1.78s-37.77-50.18-80.05,1.78-55.77,53.77-84.55,52-40.48-64.52-10.8-71.69,52.18-46.6,58.47-60.93c-8.09-17.92-59.37-23.3-90-5.38s-63,23.31-63,23.31c18-32.27,36.88-73.49,68.36-80.66s42.28-21.5,84.56-17.92,68,274.34,94.95,199.08,67.47-180.42,72.26-414.59-4.42-575.18-6-669.09C-432.85,55.83-469-53.95-512.39-138.4c-32.57-63.4-68.56-111.7-100.45-126C-651.67-281.92-708.67-337.85-769-363c-55.25-23-113.34-15.89-162.62-21.59-33.58-52.57,7.2-64.52,7.2-64.52s60-14.33,119.93,2.39,56.37,31.06,110.34,28.68,115.54,84.31,147.93,124.93S-407.75-165.29-392-107.42c0-234.18,12-501.81,4.8-535.27s28.64,41.7-3.74-13.25"/>
          <g>
            <path class="cls-24" d="M-134.34-876.83c66,25.09-172.23-70.42-162.66,1.56,10.65,80.14,10.4,556.68,11.61,735.87,1.27,187.21,1.89,654.57,2.33,764.5S-312.5,838.72-294.5,852.44C-262.23,877-59.33,1088.29-59.33,1072.75c8.8-13.13,172.94,92,151.37,50.19s-33.44-80-39.6-101.56a186.33,186.33,0,0,1-6.6-47.79c0-5.37,15.84,5.38,30.36-1.79s27.72-50.18,58.75,1.79,40.92,53.76,62,52,29.7-64.53,7.92-71.69S166.63,907.28,162,893c5.94-17.93,43.56-23.31,66-5.38a127.88,127.88,0,0,0,46.21,23.3c-13.2-32.27-27.06-73.49-50.16-80.65S193,808.71,162,812.29s-49.87,274.35-69.68,199.08S42.83,831,39.31,596.78,42.55,21.6,43.71-72.31c1-78.09,27.5-187.87,59.33-272.32,23.89-63.4,50.3-111.7,73.7-126,28.5-17.47,70.32-73.4,114.63-98.57,40.54-23,83.17-15.88,119.33-21.58,24.64-52.57-5.28-64.53-5.28-64.53s-44-14.33-88,2.4-41.36,31.06-81,28.67S151.66-540,127.9-499.35,26.25-371.51,14.67-313.64c0-234.19-8.8-501.82-3.52-535.27s-21,41.7,2.74-13.25"/>
            <g class="cls-25">
              <path class="cls-26" d="M74.63,1011.45C54.82,936.17,25.12,831,21.6,596.85S24.85,21.68,26-72.23c1-78.09,27.5-187.88,59.33-272.32C109.22-408,135.64-456.25,159-470.61c28.5-17.47,70.32-73.4,114.63-98.57,40.54-23,83.17-15.88,119.33-21.58,24.64-52.57-5.28-64.53-5.28-64.53a142.74,142.74,0,0,0-32.64-5.44,150.68,150.68,0,0,1,50.28,5.44s29.92,12,5.28,64.53c-36.16,5.7-78.79-1.44-119.33,21.58C247-544,205.17-488.08,176.67-470.61,153.27-456.25,126.86-408,103-344.55,71.14-260.11,44.6-150.32,43.64-72.23c-1.16,93.91-7.92,434.9-4.4,669.08s33.22,339.32,53,414.6c14.57,55.36,20.92-200.78,44.49-198.34C107.66,815.46,92.84,1080.67,74.63,1011.45Z"/>
            </g>
            <g class="cls-27">
              <path class="cls-28" d="M93.77-416.35c-26.57,42.54-42.84,90.83-55,139.23C15.61-186,16.61-90.11,15.3,3.32c-.87,155,4,316.29,4.29,471.39.37,100.57.26,201.14-1.08,301.72h-.7c-6.68-219.42-7.22-440.45-5-660,.34-55.26.09-114.33-.56-169.73-.16-23.54-.43-47.23-.1-70.79A714.66,714.66,0,0,1,25-241.55c7.44-37,17.9-73.81,32.47-108.68A400.7,400.7,0,0,1,82.77-401c3.25-5.41,6.66-10.71,10.43-15.78l.57.41Z"/>
            </g>
            <g class="cls-29">
              <path class="cls-28" d="M20.94-298.36C.38-192.79-12.94-85.66-12.37,21.8c.46,20.09,1.46,51.34,2,71.76C-2.71,318.9,8.47,550.72-12.4,775.34c-2.39,23.84-5.31,47.63-9.33,71.24l-.69-.1c2.89-23.75,4.94-47.57,6.58-71.43,7.72-119,7.72-239.21,8.11-358.5C-8.37,297.08-8.1,177.17-14.3,57.79c-1.17-20.65-3-51.3-2.89-71.83-.44-48,3.62-95.91,10-143.44,4.83-35.63,11.05-71.06,18.92-106.14,2.64-11.68,5.35-23.34,8.51-34.9l.68.16Z"/>
            </g>
          </g>
        </g>
      </g>
      <g>
        <path class="cls-30" d="M47.6,43h-.28c-3.45,0-6.67,2.82-6.65,6.34s3.07,6,6.31,6.24c.21,0,.41,0,.62,0A6.57,6.57,0,0,0,54,49.83C54.32,46.21,51.14,43.11,47.6,43ZM44,50.81a4.46,4.46,0,0,1,4.37-4.51,4.46,4.46,0,0,1,4,4.84A4.19,4.19,0,1,1,44,50.81Z"/>
        <path class="cls-31" d="M48.35,46.3A4.46,4.46,0,0,0,44,50.81a4.19,4.19,0,1,0,8.37.33A4.46,4.46,0,0,0,48.35,46.3ZM50,50.58a1.49,1.49,0,1,1,1.48-1.36A1.46,1.46,0,0,1,50,50.58Z"/>
        <path class="cls-32" d="M51.49,49.22a1.4,1.4,0,1,1-2.79-.11,1.4,1.4,0,1,1,2.79.11Z"/>
        <path class="cls-33" d="M40.56,49.31c0-3.55,3.26-6.36,6.76-6.34h.22c3.57.13,6.77,3.23,6.46,6.85a6.61,6.61,0,0,1-6.4,5.72c-.21,0-.41,0-.62,0h-.06C43.65,55.36,40.58,52.71,40.56,49.31Z"/>
      </g>
      <g>
        <path class="cls-34" d="M53.19,52.37A6.21,6.21,0,0,0,54,49.26a6.75,6.75,0,0,0-13.48,0,6.16,6.16,0,0,0,1,3.4C44.06,51.76,48.78,50.59,53.19,52.37Z"/>
        <path class="cls-35" d="M53.19,52.37c2.28-4.3-1.41-9.37-6.06-9-4.52,0-7.79,5.19-5.19,9.1l-.51-.17c3.76-1.25,8.1-1.61,11.76.12Zm0,0a17.33,17.33,0,0,0-11.47.69l-.31.12-.2-.29c-3.15-4.47.63-10.59,5.9-10.49,5.1-.24,9.08,5.61,6.08,10Z"/>
      </g>
    </g>
  </g>
</svg>
