<svg xmlns="http://www.w3.org/2000/svg" xmlns:xlink="http://www.w3.org/1999/xlink" width="94.59" height="98.53" viewBox="0 0 94.59 98.53">
  <defs>
    <style>
      .cls-1, .cls-20, .cls-21 {
        fill: none;
      }

      .cls-2 {
        isolation: isolate;
      }

      .cls-3 {
        clip-path: url(#clip-path);
      }

      .cls-4 {
        clip-path: url(#clip-path-2);
      }

      .cls-5 {
        fill: url(#linear-gradient);
      }

      .cls-6 {
        opacity: 0.47;
      }

      .cls-7 {
        fill: url(#linear-gradient-2);
      }

      .cls-8 {
        fill: url(#linear-gradient-3);
      }

      .cls-9 {
        fill: url(#linear-gradient-4);
      }

      .cls-10 {
        mix-blend-mode: screen;
        opacity: 0.5;
      }

      .cls-11 {
        opacity: 0.58;
        fill: url(#linear-gradient-5);
      }

      .cls-12 {
        opacity: 0.1;
      }

      .cls-13 {
        fill: #300914;
      }

      .cls-14 {
        opacity: 0.36;
      }

      .cls-15 {
        opacity: 0.14;
      }

      .cls-16 {
        opacity: 0.18;
      }

      .cls-17 {
        fill: #f6f6f6;
      }

      .cls-18 {
        fill: #3d3123;
      }

      .cls-19 {
        fill: #fff;
      }

      .cls-20 {
        stroke: #894f1a;
        stroke-width: 0.5px;
      }

      .cls-20, .cls-21 {
        stroke-miterlimit: 10;
      }

      .cls-21 {
        stroke: #8e4713;
      }
    </style>
    <clipPath id="clip-path">
      <rect class="cls-1" x="-1539.35" y="-2497.71" width="1280" height="720"/>
    </clipPath>
    <clipPath id="clip-path-2">
      <rect class="cls-1" x="-1539.35" y="-261.47" width="1280" height="720"/>
    </clipPath>
    <linearGradient id="linear-gradient" x1="-757.83" y1="723.59" x2="-757.83" y2="-1769.59" gradientUnits="userSpaceOnUse">
      <stop offset="0.2" stop-color="#ffffca"/>
      <stop offset="0.67" stop-color="#9edcff"/>
      <stop offset="1" stop-color="#4e9dff"/>
    </linearGradient>
    <linearGradient id="linear-gradient-2" x1="-464.39" y1="479.99" x2="87.32" y2="-95.43" gradientUnits="userSpaceOnUse">
      <stop offset="0.01" stop-color="#987ce4"/>
      <stop offset="0.23" stop-color="#919fdf"/>
      <stop offset="0.45" stop-color="#8bbcdb"/>
      <stop offset="0.64" stop-color="#87cdd9"/>
      <stop offset="0.78" stop-color="#86d3d8"/>
    </linearGradient>
    <linearGradient id="linear-gradient-3" x1="-722.39" y1="87.01" x2="-133.05" y2="87.01" gradientUnits="userSpaceOnUse">
      <stop offset="0" stop-color="#8a5f3c"/>
      <stop offset="0.24" stop-color="#744d29"/>
      <stop offset="0.66" stop-color="#52300b"/>
      <stop offset="0.89" stop-color="#452500"/>
    </linearGradient>
    <linearGradient id="linear-gradient-4" x1="11619.91" y1="-119.22" x2="12209.25" y2="-119.22" gradientTransform="matrix(-0.73, 0, 0, 1, 8783.79, 0)" xlink:href="#linear-gradient-3"/>
    <linearGradient id="linear-gradient-5" x1="11669.86" y1="-1374.17" x2="11669.86" y2="693.9" gradientTransform="matrix(-0.73, 0, 0, 1, 8783.79, 0)" gradientUnits="userSpaceOnUse">
      <stop offset="0.21" stop-color="#cc925e"/>
      <stop offset="0.48" stop-color="#a56752"/>
      <stop offset="0.8" stop-color="#6d3134"/>
      <stop offset="1" stop-color="#292937"/>
    </linearGradient>
  </defs>
  <g class="cls-2">
    <g id="Layer_1" data-name="Layer 1">
      <g class="cls-4">
        <path class="cls-5" d="M-1795.79,500.59c639,235.83,1338.44,202.51,2075.92,0v-1422H-1795.79Z"/>
        <g class="cls-6">
          <path class="cls-7" d="M-715.6,211.53S-492.25,243.43-303,98.64c0,0,76.38-53.5,192.47-51,93.24,2,279.9,49.27,338.27,192.4,0,0,8.44,30.5.95,47.53l-953.22-3.25Z"/>
        </g>
        <rect class="cls-1" x="-1795.88" y="-926.55" width="2087.68" height="1665.16"/>
        <rect class="cls-1" x="-1786.4" y="-903.3" width="2055.03" height="1597.3"/>
        <g>
          <path class="cls-8" d="M-188.91-904.9c-90,25.1,234.71-70.42,221.67,1.56C18.25-823.2,18.6-346.65,16.94-167.47,15.22,19.74,14.37,487.11,13.77,597S53.88,810.66,29.36,824.37c-44,24.57-320.48,235.86-320.48,220.32-12-13.14-235.68,92-206.29,50.18a475.83,475.83,0,0,0,54-101.55,140.25,140.25,0,0,0,9-47.8c0-5.37-21.59,5.38-41.39-1.79s-37.77-50.18-80.05,1.79-55.77,53.76-84.55,52-40.48-64.53-10.8-71.69,52.18-46.6,58.47-60.93c-8.09-17.93-59.37-23.31-90-5.38s-63,23.3-63,23.3c18-32.27,36.88-73.48,68.36-80.65s42.28-21.51,84.56-17.93,68,274.35,94.95,199.09,67.47-180.42,72.26-414.6-4.42-575.17-6-669.08c-1.31-78.09-37.48-187.88-80.85-272.32C-545-436.1-580.95-484.39-612.84-498.75c-38.83-17.47-95.83-73.4-156.21-98.57-55.25-23-113.34-15.88-162.62-21.58-33.58-52.57,7.2-64.53,7.2-64.53s60-14.33,119.93,2.4S-748.17-650-694.2-652.36-578.66-568-546.27-527.42-407.75-399.58-392-341.71c0-234.19,12-501.81,4.8-535.27s28.64,41.7-3.74-13.25"/>
          <g>
            <path class="cls-9" d="M-134.34-1111.12c66,25.09-172.23-70.43-162.66,1.56,10.65,80.14,10.4,556.68,11.61,735.86,1.27,187.21,1.89,654.58,2.33,764.51S-312.5,604.43-294.5,618.14C-262.23,642.71-59.33,854-59.33,838.46c8.8-13.13,172.94,92,151.37,50.18s-33.44-80-39.6-101.55a186.44,186.44,0,0,1-6.6-47.8c0-5.37,15.84,5.38,30.36-1.78s27.72-50.19,58.75,1.78,40.92,53.77,62,52,29.7-64.52,7.92-71.69S166.63,673,162,658.65c5.94-17.92,43.56-23.3,66-5.38a127.81,127.81,0,0,0,46.21,23.31c-13.2-32.27-27.06-73.49-50.16-80.66S193,574.41,162,578,112.14,852.34,92.33,777.08s-49.5-180.42-53-414.59,3.24-575.18,4.4-669.09c1-78.09,27.5-187.87,59.33-272.32,23.89-63.4,50.3-111.7,73.7-126.05,28.5-17.48,70.32-73.4,114.63-98.57,40.54-23,83.17-15.89,119.33-21.59,24.64-52.57-5.28-64.52-5.28-64.52s-44-14.33-88,2.39-41.36,31.06-81,28.68S151.66-774.27,127.9-733.65,26.25-605.81,14.67-547.94c0-234.18-8.8-501.81-3.52-535.27s-21,41.7,2.74-13.25"/>
            <g class="cls-10">
              <path class="cls-11" d="M74.63,777.15c-19.81-75.27-49.51-180.42-53-414.59S24.85-212.62,26-306.53c1-78.09,27.5-187.87,59.33-272.32,23.89-63.4,50.31-111.7,73.7-126,28.5-17.47,70.32-73.4,114.63-98.57,40.54-23,83.17-15.88,119.33-21.59,24.64-52.56-5.28-64.52-5.28-64.52A143,143,0,0,0,355.07-895a150.82,150.82,0,0,1,50.28,5.45s29.92,12,5.28,64.52c-36.16,5.71-78.79-1.44-119.33,21.59C247-778.3,205.17-722.37,176.67-704.9c-23.4,14.35-49.81,62.65-73.7,126C71.14-494.4,44.6-384.62,43.64-306.53c-1.16,93.91-7.92,434.9-4.4,669.09s33.22,339.32,53,414.59c14.57,55.37,20.92-200.77,44.49-198.33C107.66,581.16,92.84,846.37,74.63,777.15Z"/>
            </g>
            <g class="cls-12">
              <path class="cls-13" d="M93.77-650.64c-26.57,42.54-42.84,90.82-55,139.22C15.61-420.29,16.61-324.4,15.3-231c-.87,155,4,316.28,4.29,471.39C20,341,19.85,441.55,18.51,542.14h-.7c-6.68-219.41-7.22-440.44-5-660,.34-55.25.09-114.32-.56-169.72-.16-23.54-.43-47.24-.1-70.8A714.54,714.54,0,0,1,25-475.84c7.44-37,17.9-73.81,32.47-108.68a400.83,400.83,0,0,1,25.31-50.76c3.25-5.4,6.66-10.7,10.43-15.78l.57.42Z"/>
            </g>
            <g class="cls-14">
              <path class="cls-13" d="M20.94-532.65C.38-427.08-12.94-320-12.37-212.49c.46,20.08,1.46,51.33,2,71.75C-2.71,84.6,8.47,316.43-12.4,541.05c-2.39,23.83-5.31,47.63-9.33,71.24l-.69-.11c2.89-23.74,4.94-47.56,6.58-71.42,7.72-119.06,7.72-239.22,8.11-358.5C-8.37,62.78-8.1-57.13-14.3-176.5c-1.17-20.65-3-51.31-2.89-71.83-.44-48,3.62-95.92,10-143.45,4.83-35.62,11.05-71.05,18.92-106.13,2.64-11.68,5.35-23.35,8.51-34.91l.68.17Z"/>
            </g>
            <g class="cls-15">
              <path class="cls-13" d="M35.34,812.47c-10.28-1.93-19-8.23-26.88-14.78l-1.19-1.11-4.75-4.47c-1.5-1.57-2.95-3.18-4.41-4.79-3-3.11-6.56-7.94-9.28-11.33-1.56-2.27-4.87-7-6.47-9.38-2.3-3.66-5.3-8.75-7.57-12.51-1.28-2.43-4-7.52-5.29-10.06-2-3.44-6.47-13.8-8.27-17.62a433.13,433.13,0,0,1-17.42-48.76c-3.55-11.54-7-25.8-9.71-37.55-14-67.44-20.14-136-26.22-204.44C-102.94,299.06-98.49,160.25-85.53,24l.7,0c-.2,8.59-.47,17.17-.75,25.74-.79,24-1.9,53.24-2.45,77.17-3.2,114.33-5.25,232.79,1.88,347,.8,9.32,1.91,22.78,2.77,32,1.57,14.91,3.35,29.82,5.56,44.66,1.26,7.86,3.37,20.72,4.71,28.54,2.25,10.89,4.56,23.8,7.06,34.61,10.4,45.3,22.26,91.89,43.1,133.63l1.4,2.87.7,1.43.78,1.39c2.85,5.15,6.36,11.58,9.67,16.47l1.7,2.7.85,1.34c.29.45.62.86.92,1.3l3.74,5.14c2.4,3.4,5.35,6.68,8,9.89l4.39,4.59,1.1,1.15c2.62,2.36,5.59,5.14,8.44,7.22,5,3.8,10.6,7.26,16.7,8.86l-.09.69Z"/>
            </g>
            <g class="cls-16">
              <path class="cls-13" d="M-30.84,36.44l0-.37a1.83,1.83,0,0,1,0-.24c1.42-.26.46.14.78.09.05.26.09.49.13.73l.24,1.43c.26,1.63.94,6.84,1.17,8.58,8.24,72.66,8,146.2,1.68,219A1074.07,1074.07,0,0,1-44,379.79c-2.91,14.84-6.56,30.28-9.76,45.07a387.71,387.71,0,0,0-6.52,45.49c-6.39,77.18,4.77,176.63,46.44,243.1,6.51,9.71,21.84,30.34,34.24,21.44l.46.53c-9.91,8.9-23.66-3.16-30.64-10.53-27.29-30.55-42.53-76.67-50.48-116.35A420.78,420.78,0,0,1-66,493c2.94-38.56,12.24-75.93,19.2-113.74,11.44-68.05,16.77-137,18.85-205.95,1-45,.72-90.18-2.6-135.12l-.14-1.43-.08-.69c.28-.11-.7,0,.67-.14v.46l-.7,0Z"/>
            </g>
          </g>
        </g>
      </g>
      <g>
        <path class="cls-17" d="M47.6,43h-.28c-3.45,0-6.67,2.82-6.65,6.34s3.07,6,6.31,6.24c.21,0,.41,0,.62,0A6.57,6.57,0,0,0,54,49.83C54.32,46.21,51.14,43.11,47.6,43ZM44,50.81a4.46,4.46,0,0,1,4.37-4.51,4.46,4.46,0,0,1,4,4.84A4.19,4.19,0,1,1,44,50.81Z"/>
        <path class="cls-18" d="M48.35,46.3A4.46,4.46,0,0,0,44,50.81a4.19,4.19,0,1,0,8.37.33A4.46,4.46,0,0,0,48.35,46.3ZM50,50.58a1.49,1.49,0,1,1,1.48-1.36A1.46,1.46,0,0,1,50,50.58Z"/>
        <path class="cls-19" d="M51.49,49.22a1.4,1.4,0,1,1-2.79-.11,1.4,1.4,0,1,1,2.79.11Z"/>
        <path class="cls-20" d="M40.56,49.31c0-3.55,3.26-6.36,6.76-6.34h.22c3.57.13,6.77,3.23,6.46,6.85a6.61,6.61,0,0,1-6.4,5.72c-.21,0-.41,0-.62,0h-.06C43.65,55.36,40.58,52.71,40.56,49.31Z"/>
      </g>
      <ellipse class="cls-21" cx="47.29" cy="49.26" rx="6.74" ry="6.41"/>
    </g>
  </g>
</svg>
