<svg xmlns="http://www.w3.org/2000/svg" xmlns:xlink="http://www.w3.org/1999/xlink" width="94.59" height="98.53" viewBox="0 0 94.59 98.53">
  <defs>
    <style>
      .cls-1, .cls-15 {
        fill: none;
      }

      .cls-2 {
        isolation: isolate;
      }

      .cls-3 {
        clip-path: url(#clip-path);
      }

      .cls-4 {
        fill: #0e7f2e;
      }

      .cls-5 {
        fill: #00bc3e;
      }

      .cls-6 {
        fill: url(#linear-gradient);
      }

      .cls-7 {
        fill: #71cd33;
      }

      .cls-8 {
        fill: #6bba2d;
      }

      .cls-9 {
        fill: #4aa311;
      }

      .cls-10 {
        fill: #011c24;
      }

      .cls-11, .cls-23 {
        opacity: 0.5;
      }

      .cls-11 {
        fill: url(#linear-gradient-2);
      }

      .cls-12 {
        fill: #f6f6f6;
      }

      .cls-13 {
        fill: #3d3123;
      }

      .cls-14 {
        fill: #fff;
      }

      .cls-15 {
        stroke: #894f1a;
        stroke-miterlimit: 10;
        stroke-width: 0.5px;
      }

      .cls-16 {
        clip-path: url(#clip-path-2);
      }

      .cls-17 {
        fill: url(#linear-gradient-3);
      }

      .cls-18 {
        fill: #775a07;
      }

      .cls-19 {
        fill: #211201;
      }

      .cls-20 {
        opacity: 0.39;
        fill: url(#linear-gradient-4);
      }

      .cls-21 {
        fill: url(#linear-gradient-5);
      }

      .cls-22 {
        fill: url(#linear-gradient-6);
      }

      .cls-23 {
        mix-blend-mode: screen;
      }

      .cls-24 {
        opacity: 0.58;
        fill: url(#linear-gradient-7);
      }

      .cls-25 {
        opacity: 0.1;
      }

      .cls-26 {
        fill: #300914;
      }

      .cls-27 {
        opacity: 0.36;
      }

      .cls-28 {
        fill: #0c4c29;
      }

      .cls-29 {
        mix-blend-mode: multiply;
        opacity: 0.43;
        fill: url(#linear-gradient-8);
      }

      .cls-30 {
        fill: #bc7b18;
      }

      .cls-31 {
        fill: #8e4713;
      }
    </style>
    <clipPath id="clip-path">
      <rect class="cls-1" x="-1539.35" y="-2146.24" width="1280" height="720"/>
    </clipPath>
    <linearGradient id="linear-gradient" x1="-3570.29" y1="286.18" x2="-3570.29" y2="-3928.17" gradientUnits="userSpaceOnUse">
      <stop offset="0.2" stop-color="#ffffca"/>
      <stop offset="0.67" stop-color="#9edcff"/>
      <stop offset="1" stop-color="#4e9dff"/>
    </linearGradient>
    <linearGradient id="linear-gradient-2" x1="-3571.17" y1="-3924.13" x2="-3517.33" y2="2576.8" gradientUnits="userSpaceOnUse">
      <stop offset="0.46" stop-color="#fff" stop-opacity="0"/>
      <stop offset="0.5" stop-color="#fef9e8" stop-opacity="0.21"/>
      <stop offset="0.55" stop-color="#fef4d3" stop-opacity="0.39"/>
      <stop offset="0.6" stop-color="#fdf0c1" stop-opacity="0.56"/>
      <stop offset="0.65" stop-color="#fdecb2" stop-opacity="0.69"/>
      <stop offset="0.7" stop-color="#fde9a6" stop-opacity="0.81"/>
      <stop offset="0.76" stop-color="#fce79c" stop-opacity="0.89"/>
      <stop offset="0.82" stop-color="#fce595" stop-opacity="0.95"/>
      <stop offset="0.89" stop-color="#fce491" stop-opacity="0.99"/>
      <stop offset="1" stop-color="#fce490"/>
    </linearGradient>
    <clipPath id="clip-path-2">
      <rect class="cls-1" x="-1539.35" y="90" width="1280" height="720"/>
    </clipPath>
    <linearGradient id="linear-gradient-3" x1="-757.83" y1="1075.06" x2="-757.83" y2="-1418.12" xlink:href="#linear-gradient"/>
    <linearGradient id="linear-gradient-4" x1="-7677.55" y1="-55.73" x2="-7600.79" y2="-55.73" gradientTransform="matrix(1, -0.05, 0.05, 1, 7615.59, -163.22)" gradientUnits="userSpaceOnUse">
      <stop offset="0" stop-color="#542c28"/>
      <stop offset="0.17" stop-color="#442321"/>
      <stop offset="0.45" stop-color="#2f1619"/>
      <stop offset="0.73" stop-color="#220f14"/>
      <stop offset="0.99" stop-color="#1e0c12"/>
    </linearGradient>
    <linearGradient id="linear-gradient-5" x1="-722.39" y1="438.48" x2="-133.05" y2="438.48" gradientUnits="userSpaceOnUse">
      <stop offset="0" stop-color="#8a5f3c"/>
      <stop offset="0.24" stop-color="#744d29"/>
      <stop offset="0.66" stop-color="#52300b"/>
      <stop offset="0.89" stop-color="#452500"/>
    </linearGradient>
    <linearGradient id="linear-gradient-6" x1="11619.91" y1="232.26" x2="12209.25" y2="232.26" gradientTransform="matrix(-0.73, 0, 0, 1, 8783.79, 0)" xlink:href="#linear-gradient-5"/>
    <linearGradient id="linear-gradient-7" x1="11669.86" y1="-1022.7" x2="11669.86" y2="1045.38" gradientTransform="matrix(-0.73, 0, 0, 1, 8783.79, 0)" gradientUnits="userSpaceOnUse">
      <stop offset="0.21" stop-color="#cc925e"/>
      <stop offset="0.48" stop-color="#a56752"/>
      <stop offset="0.8" stop-color="#6d3134"/>
      <stop offset="1" stop-color="#292937"/>
    </linearGradient>
    <linearGradient id="linear-gradient-8" x1="8013.9" y1="-2224.99" x2="8124.66" y2="-1786.75" gradientTransform="matrix(-0.77, 0.07, 0.01, 0.99, 6582.29, 1141.32)" gradientUnits="userSpaceOnUse">
      <stop offset="0" stop-color="#96880c"/>
      <stop offset="0.31" stop-color="#002405"/>
      <stop offset="0.62" stop-color="#000b00"/>
      <stop offset="1" stop-color="#596b00"/>
    </linearGradient>
  </defs>
  <g class="cls-2">
    <g id="Layer_1" data-name="Layer 1">
      <g class="cls-3">
        <g>
          <path class="cls-4" d="M5,93.55,14.4,73.89S3.59,80.13-2.81,90.37c0,0-5.21-17.2-22.44-16.48,0,0,20.8,13.88,12.19,22.38S5,93.55,5,93.55Z"/>
          <path class="cls-5" d="M97.15,3.26S90.77-12.19,78-10.65,88.38-4.46,97.15,3.26Z"/>
        </g>
        <path class="cls-6" d="M-7610.94-90.76c2487.5,398.62,5210.4,342.31,8081.3,0V-2494.43h-8081.3Z"/>
        <path class="cls-7" d="M-7309.46-154.63s2581.26-1.66,4403,15.36c1298,12.14,3395.73,9.21,3395.73,9.21L498.48,218l-8211.87,14.3Z"/>
        <path class="cls-8" d="M-7158.29-10.34S-6659,22.81-6509.18,20.84s531.65-9.2,573.09-9.47S-5394.64,35-5214,37.29c663.28,8.33,1958.07-36,3137.17-55.4,1347-22.16,2546.75-20.43,2546.75-20.43L461,265.8l-8165.23-3.38,35.91-284.75Z"/>
        <path class="cls-9" d="M-7607.31,27.57s397.52-20.71,896.62,46.25,1502.27,2.55,2003,2c522.32-.55,1565.2,81.46,2087.49,85.78,768.55,6.37,3072-118.46,3072-118.46l16.34,261.44L-7660,311Z"/>
        <path class="cls-10" d="M229.31,253S74.77,219.86,75.88,186.65s129.42,23.62,180,56.76C108.71,106,184.65,184.08,143.22,137.56s3.58-69.58,77.48.91c59.18,68.36,76.63,88.36,76.63,88.36s-43.15-92.76-60-141.81S275.5,3.33,318,88.91c9.37-26.9,10.22-29.57,10.22-29.57s-12.63,40.55.34-6.85,65.5-18.87,36.29,50.64c31.71-25.42-10,3.39,34.46-21.79s98.87,3.34,41.55,60.54S401.14,183,401.14,183L361,218.63l106.22-35.35c72.69-18.77,103.93,7,21.75,47.48-53.09,20.77-98.13,36.43-98.13,36.43s45.3-.5,119-3.88,72.85,45.59-11.1,44.32C401.07,287,229.31,253,229.31,253"/>
        <rect class="cls-1" x="-7574.37" y="-2463.83" width="8000" height="2700"/>
        <rect class="cls-11" x="-7611.29" y="-2503.14" width="8127.09" height="2814.71"/>
        <rect class="cls-1" x="-7611.29" y="-2503.14" width="8127.09" height="2814.71"/>
      </g>
      <g>
        <path class="cls-12" d="M47.6,43h-.28c-3.45,0-6.67,2.82-6.65,6.34s3.07,6,6.31,6.24c.21,0,.41,0,.62,0A6.57,6.57,0,0,0,54,49.83C54.32,46.21,51.14,43.11,47.6,43ZM44,50.81a4.46,4.46,0,0,1,4.37-4.51,4.46,4.46,0,0,1,4,4.84A4.19,4.19,0,1,1,44,50.81Z"/>
        <path class="cls-13" d="M48.35,46.3A4.46,4.46,0,0,0,44,50.81a4.19,4.19,0,1,0,8.37.33A4.46,4.46,0,0,0,48.35,46.3ZM50,50.58a1.49,1.49,0,1,1,1.48-1.36A1.46,1.46,0,0,1,50,50.58Z"/>
        <path class="cls-14" d="M51.49,49.22a1.4,1.4,0,1,1-2.79-.11,1.4,1.4,0,1,1,2.79.11Z"/>
        <path class="cls-15" d="M40.56,49.31c0-3.55,3.26-6.36,6.76-6.34h.22c3.57.13,6.77,3.23,6.46,6.85a6.61,6.61,0,0,1-6.4,5.72c-.21,0-.41,0-.62,0h-.06C43.65,55.36,40.58,52.71,40.56,49.31Z"/>
      </g>
      <g class="cls-16">
        <path class="cls-17" d="M-1795.79,852.07c639,235.82,1338.44,202.5,2075.92,0v-1422H-1795.79Z"/>
        <g>
          <path class="cls-18" d="M18.45,118.26s-1.23,32.12-2.67,52.89-10,20.09-22.2,23.34-29.7,1.44-35.89.39-10.78-6.68-11.51-30.52-.33-44.48,4-71.6S-12.27,64.83-3.48,70.58C11.52,80.41,13,83.84,18.45,118.26Z"/>
          <path class="cls-19" d="M-45.87,151.74c2.46,29.29,5.37,37.57,20.88,39,1.43.13,14.16,2.74,15.56,2.72,13.82-.23,18.6-10.07,20.73-25.15,6.11-43.3-2.23-74-2.23-74C3.67,80.61-2.69,77.76-11.24,75.51S-20.69,75-30,77.18c-4.17,1,4.81,1.47-.56,4.11C-41.43,86.65-47.7,129.93-45.87,151.74Z"/>
          <path class="cls-20" d="M-39.58,191.7c-6.19-1-10.79-6.68-11.52-30.52s0-39.24,4.4-66.36c2-12.29,3.14-14.18,10-19.31-8.67,4.74-11.57,7.29-13.92,21.84C-55,124.47-55.76,139.87-55,163.71s5.33,29.47,11.51,30.52,14.55,4.52,39.91,4.61c2.77,0,24.58-5.92,26.68-7.69-1.09.52-22,3.19-25.18,3.3C-14.52,194.87-33.4,192.75-39.58,191.7Z"/>
        </g>
        <rect class="cls-1" x="-1795.88" y="-575.08" width="2087.68" height="1665.16"/>
        <rect class="cls-1" x="-1786.4" y="-551.83" width="2055.03" height="1597.3"/>
        <g>
          <path class="cls-21" d="M-188.91-553.42c-90,25.09,234.71-70.43,221.67,1.55C18.25-471.73,18.6,4.82,16.94,184c-1.72,187.21-2.57,654.58-3.17,764.5s40.11,213.63,15.59,227.34c-44,24.57-320.48,235.86-320.48,220.32-12-13.14-235.68,92-206.29,50.18a475.83,475.83,0,0,0,54-101.55,140.25,140.25,0,0,0,9-47.8c0-5.37-21.59,5.38-41.39-1.79S-513.6,1245-555.88,1297s-55.77,53.77-84.55,52-40.48-64.53-10.8-71.69,52.18-46.6,58.47-60.93c-8.09-17.93-59.37-23.31-90-5.38s-63,23.3-63,23.3c18-32.26,36.88-73.48,68.36-80.65s42.28-21.51,84.56-17.93,68,274.35,94.95,199.09,67.47-180.42,72.26-414.6S-430,345-431.54,251.1C-432.85,173-469,63.22-512.39-21.22-545-84.63-580.95-132.92-612.84-147.28c-38.83-17.47-95.83-73.4-156.21-98.57-55.25-23-113.34-15.88-162.62-21.58-33.58-52.57,7.2-64.53,7.2-64.53s60-14.33,119.93,2.4,56.37,31.06,110.34,28.67,115.54,84.32,147.93,124.94S-407.75-48.11-392,9.76c0-234.19,12-501.81,4.8-535.27s28.64,41.7-3.74-13.25"/>
          <g>
            <path class="cls-22" d="M-134.34-759.65c66,25.09-172.23-70.43-162.66,1.56,10.65,80.14,10.4,556.68,11.61,735.87,1.27,187.2,1.89,654.57,2.33,764.5S-312.5,955.9-294.5,969.61c32.27,24.57,235.17,235.86,235.17,220.32,8.8-13.13,172.94,92,151.37,50.18s-33.44-80-39.6-101.55a186.44,186.44,0,0,1-6.6-47.8c0-5.37,15.84,5.38,30.36-1.78s27.72-50.18,58.75,1.78,40.92,53.77,62,52,29.7-64.52,7.92-71.69-38.28-46.6-42.9-60.93c5.94-17.92,43.56-23.3,66-5.38a127.81,127.81,0,0,0,46.21,23.31c-13.2-32.27-27.06-73.49-50.16-80.66s-31-21.5-62.05-17.92-49.87,274.34-69.68,199.08S42.83,948.13,39.31,714s3.24-575.18,4.4-669.09C44.67-33.22,71.21-143,103-227.45c23.89-63.4,50.3-111.7,73.7-126,28.5-17.47,70.32-73.4,114.63-98.57,40.54-23,83.17-15.89,119.33-21.59,24.64-52.57-5.28-64.52-5.28-64.52s-44-14.33-88,2.39-41.36,31.06-81,28.68S151.66-422.8,127.9-382.18,26.25-254.34,14.67-196.47c0-234.18-8.8-501.81-3.52-535.27S-9.87-690,13.89-745"/>
            <g class="cls-23">
              <path class="cls-24" d="M74.63,1128.62C54.82,1053.35,25.12,948.2,21.6,714S24.85,138.85,26,44.94c1-78.09,27.5-187.87,59.33-272.32,23.89-63.4,50.31-111.7,73.7-126,28.5-17.47,70.32-73.4,114.63-98.57,40.54-23,83.17-15.88,119.33-21.59,24.64-52.56-5.28-64.52-5.28-64.52a143,143,0,0,0-32.64-5.45,150.82,150.82,0,0,1,50.28,5.45s29.92,12,5.28,64.52C374.47-467.88,331.84-475,291.3-452c-44.31,25.17-86.13,81.1-114.63,98.57-23.4,14.35-49.81,62.65-73.7,126.05C71.14-142.93,44.6-33.15,43.64,44.94c-1.16,93.91-7.92,434.9-4.4,669.09s33.22,339.32,53,414.59c14.57,55.37,20.92-200.77,44.49-198.33C107.66,932.63,92.84,1197.84,74.63,1128.62Z"/>
            </g>
            <g class="cls-25">
              <path class="cls-26" d="M93.77-299.17c-26.57,42.54-42.84,90.82-55,139.22C15.61-68.82,16.61,27.07,15.3,120.5c-.87,155,4,316.28,4.29,471.39C20,692.45,19.85,793,18.51,893.61h-.7c-6.68-219.41-7.22-440.44-5-660,.34-55.25.09-114.32-.56-169.72-.16-23.54-.43-47.24-.1-70.8A714.54,714.54,0,0,1,25-124.37c7.44-37,17.9-73.81,32.47-108.68a400.83,400.83,0,0,1,25.31-50.76c3.25-5.4,6.66-10.7,10.43-15.77l.57.41Z"/>
            </g>
            <g class="cls-27">
              <path class="cls-26" d="M20.94-181.18C.38-75.61-12.94,31.51-12.37,139c.46,20.08,1.46,51.33,2,71.75C-2.71,436.07,8.47,667.9-12.4,892.52c-2.39,23.83-5.31,47.63-9.33,71.24l-.69-.11c2.89-23.74,4.94-47.56,6.58-71.42C-8.12,773.17-8.12,653-7.73,533.73-8.37,414.25-8.1,294.34-14.3,175c-1.17-20.65-3-51.31-2.89-71.83-.44-48,3.62-95.92,10-143.45,4.83-35.62,11.05-71,18.92-106.13,2.64-11.68,5.35-23.35,8.51-34.91l.68.17Z"/>
            </g>
          </g>
        </g>
        <g>
          <path class="cls-28" d="M-509.44-302.94c9.3-15.83,53.88-10.44,100,11.88-14.17-15.53-19.91-31.5-12.78-36.17,6.32-4.23,20.8,2,34.41,13.94a166.85,166.85,0,0,1-7.13-18c-13.1-39.89-7.93-74.6,11.52-77.62,17.73-2.77,41.1,21.86,55,56.4,2.74-28.65,15.76-49.57,30.71-48,.64.11,1.17.27,1.71.38-27.27-36.08-35.95-71.34-19.15-80.33,17.61-9.43,56.65,13.55,87.05,51.34a8.09,8.09,0,0,0,1.18,1.4c-1-3.14-1.76-6.46-2.56-9.72-11.15-49.07-.67-90.33,23.49-92.28,18.22-1.42,39.08,20.21,53,52.12l-.07-.38c-2.49-32.34,8.54-58.16,24.66-57.65,9,.23,17.8,8.8,24.11,22,1-4.09,3-7,6.33-8,5.68-1.7,13.69,2.55,21.31,10.35-.42-14.23,4.22-24.91,11.94-25.2,4.14-.17,8.54,2.76,12.31,7.67-12.26-27.77-12.14-51.83,1.45-56.32,10.51-3.38,26.26,5.72,40.79,22.09-2.62-25.3,5.06-45.46,17.77-45.6,7.64-.11,15.38,6.8,21.32,17.7-.74-22,6.49-38.45,18.19-38.8s24.21,15.83,30.47,37.92a81.71,81.71,0,0,1,6.73-15.69c12-21.86,31.13-35.35,42.68-30.17,2.25-16.81,9.66-28.51,19.55-28.34,9.65.21,19.08,11.77,24.56,28.29,2-10.68,7-17.81,13.58-17.69,6.23.11,12.26,6.86,16.3,16.8,5.71-.49,14.11,3.78,22.69,11.08-8.07-16.06-8.93-29.19-.76-32.72s23.6,3.85,38.55,17.55c5.88-8.47,32.72-3.58,59.94,11a160,160,0,0,1,17.85,11.06c-9.41-16.82-12.33-31.71-7.85-38.94l28.5,3.16a112.64,112.64,0,0,1,21.7,19.78c-2.12-7.2-2.37-13.29-.62-17.44l31,3.43a120.7,120.7,0,0,1,24.63,24.37c-.06-8.45,1.23-15.66,3.62-21.24L481.17-643a115.78,115.78,0,0,1,17.89,31.38c-.55-5.56.94-9.54,4.64-10.8,6.81-2.44,19.05,5,29.76,17.4.47-9.34,4-15.7,10.18-16.22,3.59-.32,7.56,1.44,11.5,4.61-2.53-7.29-3.36-13.61-2.46-18.46l44.2,4.83a161.81,161.81,0,0,1,27.66,27.4l.16.14A127.13,127.13,0,0,1,617.4-628q43.5,4.77,87,9.52a239.35,239.35,0,0,1,16.8,23.83c2,3.08,3.72,6.16,5.39,9.28,0,0,0-1.13-.08-1.7a135.57,135.57,0,0,1,.79-28.91q37.81,4.15,75.62,8.27a150.08,150.08,0,0,1,4.17,22,4.17,4.17,0,0,1,1-.88c11.65-6.63,39,6.84,63.43,30.47-7.42-17.26-10.87-33.18-10.29-45.24l61.46,6.71A177.8,177.8,0,0,1,944.88-561,176.36,176.36,0,0,1,952.72-543c2.4-15,10-25.27,18.66-23.88,9.68,1.54,17.14,17.18,17,35.33,22.16-35,56.24-55,76.48-44.68,18.85,9.63,19,42.24,1.43,75.3,14.41-15.3,31.63-22.69,42.46-17,13.58,7.2,12,32.16-3.46,55.75a24.58,24.58,0,0,1-2,2.88c.64-.27,1.19-.48,1.19-.48,34.51-11.19,68.57-9.72,76.86,3,7.18,11.09-7.66,27.13-34,38.36,28.34-3.31,53.92,1.93,58.16,12.4,3.69,9-9.73,19-31.4,24.71,16.41,6.76,27.36,15.34,26.15,21.86-1,5.09-9.28,7.67-21.12,7.57,24.49,9.18,41.27,22,39.11,30.77s-21.86,10.59-46.43,5.54c36.49,20.3,59.32,44.89,51.88,57.22-6,10.08-30.6,9.05-60.34-1,22.23,12.68,35.6,26.71,31.95,35.76-4.6,11.5-35,10.78-69.7-1,.45.47.83.88,1.2,1.33,20.28,24.36,27.55,48.42,16.25,53.87-9.14,4.35-27.61-4.8-45.1-21.25a99.45,99.45,0,0,1,1.47,13.92c1.25,31.81-11.42,56.09-28,54.22-14.67-1.68-27.52-22.71-31.35-49.23a74.87,74.87,0,0,1-8.68,10.67c-16,16.26-36.91,23.89-46.61,17.09-7-4.87-6.36-15.7.2-27.38-18.75,5-36.15,3.72-41.23-3.46-3.46-5-.23-11.58,7.5-17.84-17.49,2.71-33,.28-36.59-6.36l-.08-.13c-12.25,9.73-25.57,13.74-33.24,8.94-5.1-3.17-6.7-9.68-5-17.55-7.78,12.8-18.27,19.94-27.5,17.06-9.48-2.89-14.87-15.76-14.44-31.75-3.68,7.79-9.23,12.25-15.6,11.57-11.86-1.29-22.31-20.28-23.72-42.81-1.64,1.84-3.43,3.6-5.21,5.43-23.19,22-52.74,31.83-66.05,22.08-4.46-3.32-6.43-8.48-6.33-14.75-4,3.68-8.33,5.4-12.49,4.31a11.49,11.49,0,0,1-4.57-2.51c3,13.77.73,24-7.06,25.79-6.93,1.54-16.59-4-25.85-13.81,3.42,21-1.44,36.78-12.93,37.84-7.81.6-17.06-5.68-25.3-16.15-1.73,4.41-4.64,7.09-8.62,7.46-3.29.28-7-1.1-10.6-3.8,4.83,15.16,3.41,26.94-4.87,29.4s-21.39-4.84-33.72-17.66c-.53,9.26-3.92,15.69-9.49,16.7C576.21-151.64,580-133,569.58-127c-8.78,5.13-25.72.16-44.48-11.66,4.23,18.38.28,33.07-9.24,33.5-7.66.36-16.78-8.74-23-21.91-.95,2.45-43.79-11.37-44.88-9.3,0,0-23,52.62-38,53.93C397.53-81.3,371-122.22,371-122.22c-2.53-1.29-41,7.79-43.66,6,4.83,13.45,4.07,24.4-2.82,26.77-8.44,2.88-23.18-8.41-33.78-25.53-6.91,16.57-17.54,26.66-29.08,25.37-13.58-1.6-24.72-18.8-29.36-42.37-5.5,1.08-13.35-3.28-21.05-11-.64,15.23-6.14,26-15.13,26.83s-19.27-8.84-26.94-23.56c-1,3.58-3,6.08-6.12,6.94-3.63,1.08-8.33-.24-13.11-3.39,1,11.82-2,20.41-9.26,22.55-10.57,3.13-27-8.72-40.23-27.89-.4,11.53-4.4,19.68-11.46,20.78-8.07,1.21-18-6.81-26-19.66a6.1,6.1,0,0,1-2,3.71c-2.82,2.38-7.89,2.48-14.14.67,5,5.24,7.3,10.43,6,14.8-3.81,12.94-36.76,14.68-73.57,3.91-2.92-.88-5.76-1.83-8.69-2.78C-13-100.36-7.31-80.5-16.48-75.21c-4.88,2.81-13.13.74-22.34-4.58,12.69,13.54,18.08,26.46,12.23,32.24C-32.27-42-46.81-44.46-63.3-52.74c7.46,6.23,11.1,12.32,9.21,16.84C-56.94-29.18-71.5-28-89.55-32.19l.15.26c2.06,6.92-9.32,14.39-26.39,18.08,11.35,2.71,19.26,7.26,20.14,12.66,1.23,7.93-12.78,15-32.58,17.29,14.64,7.7,23.48,16.78,21.33,23.29-3.1,9.21-26.89,9.88-53.13,1.46a127.87,127.87,0,0,1-15.72-6.09c17.26,24,22.48,46.56,11.31,53-12.93,7.43-42.4-9.06-66-36.67-3.5-4.12-6.68-8.3-9.55-12.44-2.23,20.14-10.91,34.31-22.11,33.75-13.92-.69-26.3-23.83-27.72-51.68a13.9,13.9,0,0,0,0-1.58c-20.64,22.18-46.09,33.28-58.85,25-10-6.44-9.58-23.13-.24-41.66-17.68,18.92-37.94,28.23-50.92,21.77-15.88-8-15.4-37,.17-67-17.12,12.8-35.41,17.92-43.94,11.31-8.68-6.8-4.25-23.59,9.66-39.87-10.14,4.22-19.13,4.87-24,.84-6-5.18-3.38-16.31,5.59-27.77-23,2.66-42.34-1.28-46.18-10.33C-502.8-119-485-132.3-458.18-139.28c-31.22-.53-56.27-9.13-58.73-21.11-2.8-13.75,25.32-26.75,62.82-29.07l2,0c-1.38-.6-2.6-1.12-3.91-1.77-31.49-14.88-52.06-35.67-46-46.51,4.89-8.66,25.36-8.29,49.42-.2C-493.11-260.19-518.24-288.2-509.44-302.94Z"/>
          <path class="cls-29" d="M-516.91-160.39c-1.51-7.2,5.64-14.25,18.17-19.57,8.53,3,21.27,3.88,35.44,2.26-9,11.46-11.6,22.58-5.58,27.71,4.75,4,13.89,3.38,24-.78-13.84,16.28-18.35,33.07-9.67,39.87,8.46,6.6,26.84,1.49,43.95-11.37-15.49,30.06-16.05,59-.17,67,13,6.53,33.16-2.79,50.92-21.7-9.33,18.53-9.86,35.21.24,41.66,12.83,8.22,38.22-2.89,58.83-25a12.6,12.6,0,0,0,.11,1.58C-299.37-30.91-287-7.84-273.15-7.09c11.28.5,20-13.67,22.27-33.75a155.89,155.89,0,0,0,9.53,12.39c23.5,27.64,53.06,44.09,65.83,36.71,11.25-6.46,6-28.92-11.15-52.95A129.43,129.43,0,0,0-171-38.61c26.3,8.43,50.1,7.76,53.13-1.46,2.14-6.57-6.68-15.59-21.33-23.3,19.88-2.3,33.89-9.4,32.58-17.22-.87-5.45-8.79-10.07-20.2-12.73,17-3.75,28.43-11.16,26.44-18.07a.41.41,0,0,0-.06-.19c18.06,4.1,32.6,3,35.45-3.78,1.9-4.52-1.83-10.61-9.29-16.77,16.5,8.27,31,10.7,36.73,5.12,5.85-5.83.45-18.7-12.17-32.24,9.12,5.39,17.32,7.32,22.26,4.52,9.18-5.23,3.37-25.1-12.72-44.84,2.76,1,5.6,1.88,8.6,2.78C5.19-186,38.15-187.7,42-200.64c1.27-4.44-1-9.55-5.94-14.85,6.23,1.8,11.31,1.76,14-.63a6.14,6.14,0,0,0,1.94-3.7c8,12.85,17.93,20.88,25.92,19.65,7.22-1.08,11.13-9.18,11.46-20.78,13.32,19.12,29.74,31,40.31,27.84,7.18-2.15,10.17-10.75,9.18-22.5,4.93,3.16,9.56,4.48,13.18,3.4,3.09-.92,5.05-3.36,6.21-6.93,7.58,14.71,17.79,24.25,26.86,23.48s14.58-11.46,15.2-26.81c7.55,7.8,15.56,12.17,21,11,4.49,23.55,15.62,40.81,29.35,42.43,11.48,1.34,22.1-8.81,29-25.38,10.61,17.12,25.41,28.42,33.88,25.53,6.79-2.37,7.55-13.32,2.73-26.77,2.73,1.75,41.13-7.35,43.72-6,0,0,26.46,40.85,38.9,39.74,15-1.31,37.9-53.87,37.9-53.87,1.24-2,44,11.76,45,9.31,6.25,13.11,15.38,22.27,23,21.91,9.53-.43,13.4-15.19,9.24-33.5,18.77,11.76,35.62,16.79,44.49,11.66,10.45-6.08,6.7-24.67-7.62-46.5,5.49-.88,9-7.37,9.5-16.69,12.41,12.89,25.43,20.18,33.71,17.72s9.7-14.18,4.8-29.4c3.7,2.64,7.31,4.08,10.67,3.8,4-.36,6.9-3.05,8.65-7.46,8.22,10.48,17.45,16.75,25.27,16.09,11.5-1,16.36-16.81,13-37.77,9.19,9.73,18.85,15.34,25.78,13.8,7.86-1.73,10.15-12,7-25.79a11.5,11.5,0,0,0,4.5,2.5c4.24,1.1,8.68-.61,12.65-4.3-.26,6.21,1.79,11.43,6.31,14.75,7.43,5.46,20,4.74,33.72-.81-12.66-5.19-20.4-11.8-19.83-18.36,1.08-11,25.57-17.44,55.71-15.23-30.66-10.54-51.11-26.68-47.35-38.48,4.37-13.6,38.85-16.5,77.25-6.44.69.18,1.31.41,2,.58-1-.94-2-1.89-2.92-2.9-23.57-23.89-33.26-49.79-21.63-57.81,9.23-6.42,29.26.59,49,15.92-28.7-33.66-39.15-67.65-23-78.44,17.38-11.52,58.9,7.92,93,43.46-6-18.95-3.54-35.49,6-37.49,8.41-1.82,19.6,8.55,26.9,24.05a135.44,135.44,0,0,1,2.18-19c5.72-31,20.3-55.92,36.09-64.66,5.11,6.44,8.48,17.46,8.37,29.65a132.25,132.25,0,0,1,20.18-24.78c10.27,11.81,15.07,35.19,12.19,61.83,17.42-25.54,41.1-40.66,55.17-34.3l.91.62A122.41,122.41,0,0,1,1066.32-501c14.41-15.3,31.63-22.69,42.46-17,13.58,7.2,12,32.16-3.46,55.75a24.58,24.58,0,0,1-2,2.88c.64-.27,1.19-.48,1.19-.48,34.51-11.19,68.57-9.72,76.86,3,7.18,11.09-7.66,27.13-34,38.36,28.34-3.31,53.92,1.93,58.16,12.4,3.69,9-9.73,19-31.4,24.71,16.41,6.76,27.36,15.34,26.15,21.86-1,5.09-9.28,7.67-21.12,7.57,24.49,9.18,41.27,22,39.11,30.77s-21.87,10.59-46.43,5.54c4.94,2.79,9.66,5.62,14.06,8.49,1.51,1,3,2,4.48,3,.67.49,1.36,1,2,1.46,1.14.77,2.2,1.53,3.25,2.29.69.55,1.44,1.1,2.13,1.66,1,.69,1.88,1.43,2.79,2.13.67.55,1.43,1.16,2,1.64.9.76,1.73,1.45,2.55,2.19l1.81,1.63,2.4,2.16c.53.55,1,1,1.58,1.56.74.74,1.57,1.55,2.23,2.35.45.47.82.87,1.28,1.28,1,1.19,2.08,2.4,3,3.52l.29.34c.82,1.06,1.63,2.12,2.29,3.17a5.26,5.26,0,0,1,.73,1.12c.52.79,1,1.51,1.4,2.23a10.23,10.23,0,0,0,.56,1.23c.37.65.65,1.3.94,1.95a11.28,11.28,0,0,0,.5,1.22c.12.64.34,1.22.46,1.79,0,0,.21.83.27,1.21,0,0,.11,1.15.17,1.72a4.78,4.78,0,0,1,0,1,6.16,6.16,0,0,1-.23,1.74v.57a12.2,12.2,0,0,1-1.13,2.57c-6,10.08-30.6,9.05-60.34-1,22.23,12.68,35.6,26.71,31.95,35.76-4.6,11.5-35,10.78-69.7-1,.45.47.83.88,1.2,1.33,20.28,24.36,27.55,48.42,16.25,53.87-9.14,4.35-27.61-4.8-45.1-21.25a99.45,99.45,0,0,1,1.47,13.92c1.25,31.81-11.42,56.09-28,54.22-14.67-1.68-27.52-22.71-31.35-49.23a74.87,74.87,0,0,1-8.68,10.67c-16,16.26-36.91,23.89-46.61,17.09-7-4.87-6.36-15.7.2-27.38-18.75,5-36.15,3.73-41.23-3.46-3.46-5-.23-11.58,7.5-17.84-17.49,2.71-33,.28-36.59-6.36l-.08-.13c-12.25,9.73-25.57,13.74-33.24,9-5.1-3.18-6.7-9.69-5-17.56-7.78,12.8-18.27,19.94-27.5,17.06-9.48-2.89-14.87-15.76-14.44-31.75-3.68,7.79-9.23,12.25-15.6,11.57-11.86-1.29-22.31-20.28-23.72-42.81-1.64,1.84-3.43,3.6-5.21,5.43-2.11,2-4.29,3.8-6.55,5.6-.4.34-.72.64-1.13,1-2.25,1.8-4.5,3.47-6.74,4.95l-.33.29c-19.79,13.31-40.63,18.07-51.3,10.25-4.46-3.32-6.43-8.48-6.33-14.75-4,3.68-8.33,5.4-12.49,4.31a11.49,11.49,0,0,1-4.57-2.51c3,13.77.73,24-7.06,25.79-6.93,1.54-16.59-4-25.85-13.81,3.42,21-1.44,36.79-12.93,37.84-7.81.6-17.06-5.68-25.3-16.15-1.73,4.41-4.64,7.09-8.62,7.46-3.29.28-7-1.1-10.6-3.8,4.83,15.16,3.41,26.94-4.87,29.4s-21.39-4.84-33.72-17.66c-.53,9.26-3.92,15.69-9.49,16.7C576.21-151.64,580-133,569.58-127c-8.78,5.13-25.72.16-44.48-11.66,4.23,18.38.28,33.07-9.24,33.5-7.66.36-16.78-8.74-23-21.91-.95,2.45-43.79-11.37-44.88-9.3,0,0-23,52.62-38,53.93C397.53-81.3,371-122.22,371-122.22c-2.53-1.29-41,7.79-43.66,6,4.83,13.45,4.07,24.4-2.82,26.77-8.44,2.88-23.18-8.41-33.78-25.53-6.91,16.57-17.54,26.66-29.08,25.37-13.58-1.6-24.72-18.8-29.36-42.37-5.5,1.08-13.35-3.28-21.05-11-.64,15.23-6.14,26-15.13,26.83s-19.27-8.84-26.94-23.56c-1,3.58-3,6.08-6.12,6.94-3.63,1.08-8.33-.24-13.11-3.39,1,11.82-2,20.41-9.26,22.55-10.57,3.13-27-8.72-40.23-27.89-.4,11.53-4.4,19.68-11.46,20.78-8.07,1.21-18-6.81-26-19.66a6.1,6.1,0,0,1-2,3.71c-2.82,2.38-7.89,2.48-14.14.67,5,5.24,7.3,10.43,6,14.8-3.81,12.94-36.76,14.68-73.57,3.91-2.92-.88-5.76-1.83-8.69-2.78C-13-100.36-7.31-80.5-16.48-75.21c-4.88,2.81-13.13.74-22.34-4.58,12.69,13.54,18.08,26.46,12.23,32.24-5.68,5.58-20.22,3.09-36.72-5.18,7.47,6.22,11.11,12.31,9.22,16.83C-56.94-29.18-71.5-28-89.55-32.19l.15.26c2.06,6.92-9.32,14.39-26.39,18.08,11.35,2.71,19.26,7.26,20.14,12.66,1.23,7.93-12.78,15-32.58,17.29,14.64,7.7,23.48,16.78,21.33,23.29-3.1,9.21-26.89,9.88-53.13,1.46a127.87,127.87,0,0,1-15.72-6.09c17.26,24,22.48,46.56,11.31,53-12.93,7.43-42.4-9.06-66-36.67-3.5-4.12-6.68-8.3-9.55-12.44-2.23,20.14-10.91,34.31-22.11,33.75-13.92-.69-26.3-23.83-27.72-51.68a13.9,13.9,0,0,0,0-1.58c-20.64,22.18-46.09,33.28-58.85,25-10-6.44-9.58-23.13-.24-41.66-17.68,18.92-37.94,28.23-50.92,21.77-16-8-15.4-37,.17-67-17.12,12.8-35.41,17.92-43.94,11.31-8.68-6.8-4.25-23.59,9.66-39.87-10.14,4.22-19.13,4.87-24,.84-6-5.18-3.38-16.31,5.59-27.77-23,2.66-42.34-1.28-46.18-10.33C-502.8-119-485-132.3-458.18-139.28-489.4-139.81-514.45-148.41-516.91-160.39Z"/>
        </g>
      </g>
      <g>
        <ellipse class="cls-30" cx="47.29" cy="49.26" rx="6.74" ry="6.41"/>
        <path class="cls-31" d="M54,49.26c.07,5.83-7.54,8.77-11.74,4.91a6.54,6.54,0,0,1,0-9.81c4.2-3.86,11.81-.93,11.74,4.9Zm0,0c0-5.66-7.37-8.15-11.15-4.27a5.93,5.93,0,0,0,0,8.55C46.61,57.43,54.09,54.9,54,49.26Z"/>
      </g>
    </g>
  </g>
</svg>
